<?xml version="1.0" standalone="no"?>
<!DOCTYPE svg PUBLIC "-//W3C//DTD SVG 1.1//EN" "http://www.w3.org/Graphics/SVG/1.1/DTD/svg11.dtd" >
<svg>
<metadata>
Created by FontForge 20090622 at Tue Jan 26 16:06:20 2016
 By deploy user
Copyright (c) 2004-2010, Nick Curtis. All Rights Reserved. Unauthorized duplication or redistribution is expressly prohibited.
</metadata>
<defs>
<font id="AbbeyRoadNF" horiz-adv-x="716" >
  <font-face 
    font-family="Abbey Road NF"
    font-weight="400"
    font-stretch="normal"
    units-per-em="1000"
    panose-1="2 8 6 3 9 3 8 2 6 3"
    ascent="779"
    descent="-221"
    x-height="493"
    cap-height="708"
    bbox="-78 -253 1042 927"
    underline-thickness="20"
    underline-position="-113"
    unicode-range="U+0020-U+FB02"
  />
<missing-glyph horiz-adv-x="175" 
 />
    <glyph glyph-name="fi" unicode="fi" horiz-adv-x="437" 
d="M413 -4q-15 0 -42.5 2t-41.5 2t-41.5 -2t-42.5 -2q-6 0 -6 9q0 4 7 5.5t18 2t12 0.5v460h-89v-460q3 0 13.5 -0.5t16.5 -1.5q7 -1 7 -8t-9 -7q-14 0 -41 2t-41 2t-41.5 -2t-42.5 -2q-6 0 -6 9q0 4 7 5.5t18 2t12 0.5v461q-28 0 -55 3q-7 0 -7 6q0 9 8 9q10 0 29.5 -2
t25.5 -2q-38 36 -38 88q0 54 42.5 90.5t97.5 36.5q42 0 78.5 -21.5t52.5 -58.5q9 -21 9 -31q0 -6 -5 -8q-7 -3 -66 -23.5t-60 -20.5q-6 0 -6 9q0 2 9 6.5t18.5 13.5t9.5 23q0 25 -26.5 41.5t-52.5 16.5q-31 0 -52 -25t-21 -57q0 -80 117 -80h147q17 0 51 2q4 0 12.5 1
t12.5 1q8 0 8 -9q0 -6 -6 -6q-20 -2 -31 -2v-462q1 0 12 -0.5t18 -2t7 -5.5q0 -9 -6 -9z" />
    <glyph glyph-name="fl" unicode="fl" horiz-adv-x="444" 
d="M420 -4q-15 0 -42.5 2t-41.5 2t-41.5 -2t-42.5 -2q-6 0 -6 9q0 4 7 5.5t18 2t12 0.5v677h-6q-31 0 -31 8q0 9 8 9q14 0 41 -2t41 -2t41.5 2t42.5 2q6 0 6 -9q0 -8 -31 -8h-6v-677q1 0 12 -0.5t18 -2t7 -5.5q0 -9 -6 -9zM266 376q0 -8 -7 -8t-8 7q-8 60 -26 74
q-10 8 -23 8h-15v-444q3 0 13.5 -0.5t16.5 -1.5q7 -1 7 -8t-8 -7q-14 0 -41.5 2t-41.5 2t-41.5 -2t-42.5 -2q-6 0 -6 7t7 8q6 1 16.5 1.5t13.5 0.5v461h-9q-1 0 -46 3q-7 0 -7 8q0 7 9 7q7 0 20 -1.5t20 -1.5q3 0 7 -0.5t7 -0.5q-38 36 -38 88q0 54 43 90.5t98 36.5
q21 0 37 -4v4q0 15 9 15q6 0 6 -5q0 -12 -1.5 -37.5t-1.5 -38.5q0 -11 1.5 -34.5t1.5 -36.5q0 -6 -6 -6q-7 0 -8 7q-4 45 -18.5 64t-57.5 19q-33 0 -54 -24.5t-21 -57.5q0 -45 35 -68t82 -23q36 0 61 12v12q0 12 2.5 18.5t7.5 6.5q7 0 7 -8q0 -4 -1 -12t-1 -11
q-2 -16 -2 -48t2 -48q0 -3 1 -11t1 -12z" />
    <glyph glyph-name=".notdef" horiz-adv-x="175" 
 />
    <glyph glyph-name=".null" horiz-adv-x="0" 
 />
    <glyph glyph-name="nonmarkingreturn" horiz-adv-x="333" 
 />
    <glyph glyph-name="space" unicode=" " horiz-adv-x="175" 
 />
    <glyph glyph-name="exclam" unicode="!" horiz-adv-x="252" 
d="M193 62q0 -28 -19.5 -47.5t-47.5 -19.5t-47.5 19.5t-19.5 47.5t19.5 48t47.5 20t47.5 -20t19.5 -48zM234 701q0 -8 -7 -8q-15 -2 -45 -4q5 -57 5 -102q0 -66 -7.5 -133.5t-24.5 -166t-22 -131.5h-14l-17.5 102.5t-19 116.5t-11.5 99t-6 113q0 45 5 102q-7 0 -24.5 2
t-20.5 2q-7 0 -7 8q0 6 8 6q41 -5 100 -5t100 5q8 0 8 -6z" />
    <glyph glyph-name="quotedbl" unicode="&#x22;" horiz-adv-x="320" 
d="M302 669q0 -56 -33 -99.5t-86 -63.5l-9 16q44 30 46 85q-23 5 -37.5 23.5t-14.5 41.5q0 28 19.5 48t47.5 20q29 0 48 -20.5t19 -50.5zM152 669q0 -54 -33.5 -98.5t-85.5 -64.5l-9 16q44 30 46 85q-23 5 -37.5 23.5t-14.5 41.5q0 28 19.5 48t47.5 20q29 0 48 -20.5
t19 -50.5z" />
    <glyph glyph-name="numbersign" unicode="#" horiz-adv-x="469" 
d="M451 466q0 -7 -7 -7h-124l-24 -118h120q8 0 8 -7q0 -8 -8 -8h-123l-68 -321q-2 -6 -6 -6q-9 0 -9 6q0 1 0.5 2t0.5 2l67 317h-118l-67 -321q-2 -6 -6 -6q-9 0 -9 10l68 317h-121q-7 0 -7 8q0 7 7 7h123l25 118h-120q-8 0 -8 7q0 8 8 8h123l47 222q2 7 6 7q9 0 9 -6
q0 -7 -47 -223h118l46 222q2 7 6 7q9 0 9 -7q0 -6 -47 -222h121q7 0 7 -8zM305 459h-117l-25 -118h118z" />
    <glyph glyph-name="dollar" unicode="$" horiz-adv-x="601" 
d="M322 25v-114q0 -8 -7 -8t-7 8v114q-116 0 -204 31q-20 6 -32 6q-14 0 -22.5 -10t-13.5 -19.5t-11 -9.5q-7 0 -7 7q0 4 11 23q35 59 42 173q0 7 7 7t7 -8v-24q0 -60 61 -106.5t127 -46.5q17 0 35 3v266q-10 2 -35.5 8l-39.5 9.5t-38 11t-38 14.5t-31.5 18.5t-27 25
t-16.5 32t-7 40.5q0 83 72.5 133.5t160.5 53.5v32q0 7 7 7t7 -7v-32q20 -1 65 -9t70 -8q28 0 37 14q12 25 18 25q8 0 8 -8q0 -3 -9 -21q-46 -88 -57 -171q-2 -6 -6 -6q-9 0 -9 9q0 5 2.5 16.5t2.5 17.5q0 51 -36 86t-86 35v-179q42 -9 72 -17.5t68.5 -25t62.5 -37.5t41 -54
t17 -74q0 -97 -79.5 -159.5t-181.5 -71.5zM308 467v176q-43 -5 -78 -31t-35 -66q0 -20 10 -34.5t31.5 -23.5t34 -12.5t37.5 -8.5zM464 191q0 37 -24 63.5t-51 37.5t-67 21v-260q59 12 100.5 47t41.5 91z" />
    <glyph glyph-name="percent" unicode="%" horiz-adv-x="691" 
d="M673 194q0 -75 -47 -134.5t-120 -59.5t-120 59.5t-47 134.5q0 74 47.5 134.5t119.5 60.5t119.5 -60.5t47.5 -134.5zM191 -1q-10 0 -10 6q0 8 314 693q3 5 6 5q9 0 9 -7q0 -2 -73 -162l-154 -338t-87 -192q-2 -5 -5 -5zM352 507q0 -75 -47 -134.5t-120 -59.5t-120 59.5
t-47 134.5q0 76 46.5 135.5t120.5 59.5q73 0 120 -60t47 -135zM576 215q0 160 -70 160q-71 0 -71 -163q0 -25 2 -52t8.5 -63t22 -59t38.5 -23t38.5 23t21.5 60.5t8 64t2 52.5zM255 528q0 160 -70 160t-70 -160q0 -26 2 -52.5t8 -64t21.5 -60.5t38.5 -23t38.5 23t21.5 60.5
t8 64t2 52.5z" />
    <glyph glyph-name="ampersand" unicode="&#x26;" horiz-adv-x="841" 
d="M823 611q0 -35 -32 -65t-70 -41q-29 -9 -74 -9h-35q-17 0 -38 -3t-46.5 -10t-42.5 -22t-17 -36q0 -11 6.5 -20t17.5 -9t27 10q2 -12 2 -18q0 -14 -8.5 -23t-22.5 -9q-22 0 -36 17.5t-14 38.5q0 29 21 49.5t52 33l63 25t58.5 35t33.5 54.5q1 4 1 12q0 17 -12.5 33
t-25.5 25t-13 10q0 9 7 9q10 0 34 -24q31 12 65 12q40 0 69.5 -19t29.5 -56zM326 0q-47 0 -99 14t-99.5 39t-78.5 67.5t-31 92.5q0 69 47.5 121.5t117.5 75.5q-52 18 -88 54t-36 86q0 53 46.5 89.5t100.5 49.5t106 13q91 0 168 -27q6 -3 14 -3q9 0 17.5 10.5t10.5 10.5
q7 0 7 -8q0 -3 -9 -21t-20.5 -43.5t-15.5 -43.5q-4 -16 -10 -16q-8 0 -8 8q0 5 3.5 18t4.5 17q-25 43 -56 62t-79 19q-60 0 -106 -41t-46 -100q0 -49 37 -85.5t87 -36.5q31 0 51 17.5t25 48.5q0 7 5 7q9 0 9 -6q0 -11 -2.5 -32.5t-2.5 -32.5q0 -18 10 -49.5t10 -35.5
q0 -7 -8 -7q-4 0 -6 4q-18 29 -39 42.5t-53 13.5q-62 0 -98 -53t-36 -118q0 -75 50 -135.5t124 -60.5q62 0 114.5 44.5t52.5 104.5q0 44 -30 76t-74 32q-7 0 -7 7q0 8 7 8q10 0 29 -5t28 -5q6 0 12 3q12 8 29 25t32.5 25.5t37.5 8.5q41 0 62.5 -31.5t21.5 -73.5
q0 -75 -58 -133t-133.5 -84.5t-147.5 -26.5z" />
    <glyph glyph-name="quotesingle" unicode="'" horiz-adv-x="170" 
d="M152 669q0 -54 -33.5 -98.5t-85.5 -64.5l-9 16q44 30 46 85q-23 5 -37.5 23.5t-14.5 41.5q0 28 19.5 48t47.5 20q29 0 48 -20.5t19 -50.5z" />
    <glyph glyph-name="parenleft" unicode="(" horiz-adv-x="256" 
d="M238 -163q-58 18 -102.5 68.5t-69 116t-36.5 130.5t-12 126t12 126.5t36.5 131t69 116t102.5 68.5q-49 -59 -70.5 -191.5t-21.5 -250.5t21.5 -250t70.5 -191z" />
    <glyph glyph-name="parenright" unicode=")" horiz-adv-x="256" 
d="M238 278q0 -61 -12 -126t-36.5 -130.5t-69 -116t-102.5 -68.5q49 59 70.5 191t21.5 250t-21.5 250.5t-70.5 191.5q58 -18 102.5 -68.5t69 -116t36.5 -131t12 -126.5z" />
    <glyph glyph-name="asterisk" unicode="*" horiz-adv-x="374" 
d="M356 553q0 -22 -15.5 -38t-37.5 -16q-18 0 -31 9t-19.5 20t-15.5 22.5t-19 14.5l-16 5q0 -29 20 -56t20 -42q0 -25 -15 -41t-39 -16t-39.5 16.5t-15.5 40.5q0 16 20 42t20 38v17q-17 -6 -25 -12t-20 -22q-21 -28 -33 -33q-10 -4 -23 -4q-23 0 -38.5 16.5t-15.5 39.5
q0 21 15.5 37t36.5 16q12 0 34 -8t33 -8q9 0 25 6q-15 22 -45 32q-28 9 -42 20.5t-14 37.5q0 22 16.5 38t38.5 16q28 0 45 -25q9 -13 9 -48q0 -30 16 -53q16 23 16 53q0 36 9 49q18 25 46 25q22 0 38.5 -16t16.5 -38q0 -25 -14.5 -37.5t-41.5 -21.5q-13 -5 -19 -7.5
t-12.5 -8t-13.5 -15.5q15 -5 26 -5t33 7.5t34 7.5q21 0 36.5 -17t15.5 -38z" />
    <glyph glyph-name="plus" unicode="+" horiz-adv-x="492" 
d="M474 308h-189v-190h-78v190h-189v77h189v189h78v-189h189v-77z" />
    <glyph glyph-name="comma" unicode="," horiz-adv-x="170" 
d="M152 59q0 -54 -33.5 -98.5t-85.5 -64.5l-9 16q44 30 46 85q-23 5 -37.5 23.5t-14.5 41.5q0 28 19.5 48t47.5 20q29 0 48 -20.5t19 -50.5z" />
    <glyph glyph-name="hyphen" unicode="-" horiz-adv-x="263" 
d="M245 390l-45 -78h-182l45 78h182z" />
    <glyph glyph-name="period" unicode="." horiz-adv-x="170" 
d="M152 61q0 -28 -19.5 -47.5t-47.5 -19.5t-47.5 19.5t-19.5 47.5t19.5 47.5t47.5 19.5t47.5 -19.5t19.5 -47.5z" />
    <glyph glyph-name="slash" unicode="/" horiz-adv-x="411" 
d="M28 -160q-10 0 -10 7q0 1 82.5 195.5l179.5 423t99 232.5q3 5 6 5q8 0 8 -6q0 -4 -82.5 -199l-177.5 -418l-100 -235q-3 -5 -5 -5z" />
    <glyph glyph-name="zero" unicode="0" horiz-adv-x="604" 
d="M586 351q0 -83 -32.5 -162t-99 -134t-152.5 -55t-152.5 55t-99 134t-32.5 162q0 82 33 161t99.5 134.5t151.5 55.5t151.5 -55.5t99.5 -134.5t33 -161zM429 351q0 40 -4.5 87.5t-16.5 108.5t-39.5 101t-66.5 40t-66.5 -40t-39.5 -101t-16.5 -108.5t-4.5 -87.5t4.5 -87.5
t16.5 -108.5t39.5 -100.5t66.5 -39.5t66.5 39.5t39.5 100.5t16.5 108.5t4.5 87.5z" />
    <glyph glyph-name="one" unicode="1" horiz-adv-x="250" 
d="M232 3q0 -8 -6 -8t-42 2.5t-59 2.5t-59.5 -2.5t-42.5 -2.5q-5 0 -5 8q0 5 6 7l38 3v677l-38 3q-6 2 -6 7q0 8 5 8q6 0 42.5 -2.5t59.5 -2.5t59 2.5t42 2.5t6 -8q0 -5 -7 -7q-12 -1 -38 -3v-677q26 -2 38 -3q7 -2 7 -7z" />
    <glyph glyph-name="two" unicode="2" horiz-adv-x="614" 
d="M269 -3q-107 0 -193 41q-12 6 -24 6t-12 -13q0 -4 2 -9.5t2 -8.5q0 -6 -9 -6q-8 0 -12.5 30t-4.5 47q0 132 129 217q43 28 168 86q42 19 68.5 56t26.5 82q0 65 -49 109t-114 44q-47 0 -87.5 -24t-59.5 -66q-5 -13 -11 -44q-1 -5 -7 -5t-7 5q-2 9 -3.5 24.5t-4 27
t-7.5 24.5q-11 33 -29 50q-3 3 -3 4q0 3 3 6t5 3q6 0 20 -21q107 35 221 35q61 0 121.5 -19.5t106.5 -65.5t46 -109q0 -48 -24 -83.5t-65 -55.5t-81 -30t-86 -15q-62 -6 -117 -30t-95 -72t-41 -110q22 33 72.5 47.5t101.5 14.5q47 0 133.5 -22t128.5 -22q56 0 106 35
q2 2 5 2q7 0 7 -7q0 -27 -38 -61.5t-71 -51.5q-90 -45 -218 -45z" />
    <glyph glyph-name="three" unicode="3" horiz-adv-x="640" 
d="M622 205q0 -66 -48.5 -114.5t-112 -69.5t-127.5 -21q-80 0 -156 26t-127 78q-18 -18 -25 -18q-8 0 -8 6t5 8q56 43 99 114q2 5 8 5q7 0 7 -9q0 -1 -2.5 -5l-5.5 -9t-4 -6q10 -72 62 -121.5t123 -49.5q68 0 113 55.5t45 125.5q0 66 -40.5 116.5t-105.5 50.5q-74 0 -99 -61
q-3 -5 -8 -5q-7 0 -7 6t7.5 39t7.5 50q0 9 -2.5 27t-2.5 26q0 9 6 9t8 -6q10 -46 79 -46q55 0 93.5 37.5t38.5 91.5q0 62 -46 106t-107 44q-46 0 -83.5 -24.5t-56.5 -66.5q2 -16 2 -23q0 -8 -8 -8q-7 0 -7 12q0 13 -4 29.5t-10 30.5t-12.5 26l-10.5 19l-4 8q0 3 3.5 5.5
t6.5 2.5q2 0 10 -13t21 -13q1 0 13 3q45 15 80 22q41 7 88 7q54 0 111 -16t104 -56t47 -96q0 -50 -39 -86.5t-92 -53.5q71 -22 122 -71.5t51 -117.5z" />
    <glyph glyph-name="four" unicode="4" horiz-adv-x="620" 
d="M327 13v151q-99 2 -198 9q-36 3 -37 3q-22 0 -65 -12q-9 0 -9 9t4 17q15 54 62 119q16 22 32.5 42t41.5 45l35.5 35.5t44.5 42t39 36.5q101 95 143 164q5 7 18 34q2 4 6 4q8 0 8 -7v-499q105 34 105 112q0 7 7 7q8 0 8 -9v-11q0 -33 6 -68q4 -23 23 -77q1 -1 1 -5
q0 -6 -9 -6q-2 0 -11.5 19t-25.5 19q-8 0 -16 -3q-34 -11 -88 -16v-155l38 -3q7 -2 7 -7q0 -8 -6 -8q-5 0 -41 2.5t-60 2.5t-60 -2.5t-42 -2.5q-5 0 -5 8q0 5 6 7zM327 186v353l-53 -52q-45 -45 -79.5 -110t-34.5 -119q0 -66 57 -70q26 -2 78 -2h32z" />
    <glyph glyph-name="five" unicode="5" horiz-adv-x="640" 
d="M622 228q0 -70 -47.5 -124t-114 -79t-134.5 -25q-140 0 -249 78q-20 14 -33 14q-4 0 -10 -2t-9 -2q-7 0 -7 8q0 4 3 5q61 34 81 101q2 6 6 6q9 0 9 -7q0 -85 50.5 -133.5t127.5 -48.5q80 0 132.5 63t52.5 144t-52.5 144t-132.5 63q-84 0 -147 -61q-1 -1 -25 -28
q-1 -3 -6 -3q-8 0 -8 7v323q0 7 7 7q8 0 8 -7v-35q25 28 79 43t100 15q31 0 90 -12t89 -12q45 0 96 24h1q1 1 2 1q7 0 7 -7q0 -6 -10 -23q-70 -121 -224 -121q-119 0 -230 59v-209q86 61 202 61q68 0 134 -24.5t114 -78.5t48 -124z" />
    <glyph glyph-name="six" unicode="6" horiz-adv-x="629" 
d="M611 259q0 -110 -80.5 -184.5t-191.5 -74.5q-134 0 -227.5 93.5t-93.5 227.5q0 151 108.5 263.5t258.5 112.5q84 0 137 -32q14 29 21 29t7 -6q0 -4 -10.5 -24t-24 -50.5t-19.5 -54.5q-2 -7 -8 -7q-7 0 -7 6q0 4 2.5 11.5t2.5 10.5q-12 43 -48.5 68t-82.5 25
q-50 0 -90 -35.5t-60.5 -82.5t-25.5 -97q74 61 169 61q108 0 185.5 -76t77.5 -184zM295 493q-32 0 -56.5 -21t-36.5 -54t-18 -65t-6 -61q0 -34 9.5 -78t27.5 -87.5t49 -73t69 -29.5q42 0 70 37t37.5 79.5t9.5 83.5q0 35 -9.5 78.5t-27 87.5t-49 73.5t-69.5 29.5z" />
    <glyph glyph-name="seven" unicode="7" horiz-adv-x="604" 
d="M363 9q7 -2 7 -7q0 -8 -6 -8t-62 2.5t-79 2.5t-80 -2.5t-62 -2.5t-5 8q0 5 6 7l38 3q8 45 22 86.5t29.5 74t41.5 68t46.5 59t56.5 58t59 54l66 56.5q75 63 106 146q-86 -43 -157 -65.5t-146 -22.5q-69 0 -154 25q-14 4 -22 4q-19 0 -26.5 -15.5t-9 -31t-6.5 -15.5
q-8 0 -8 5q0 6 2 38t2 54q0 17 -2 53t-2 40q0 5 6 5q7 0 8 -7q2 -18 2 -28q90 44 185 44q39 0 113.5 -14.5t112.5 -14.5q31 0 58 7q6 1 24.5 8l34.5 13.5t17 6.5q7 0 7 -8q0 -33 -15 -76t-46.5 -97.5t-46.5 -78l-49 -74.5q-74 -110 -95 -159q-28 -63 -28 -116q0 -43 18 -82z
" />
    <glyph glyph-name="eight" unicode="8" horiz-adv-x="630" 
d="M612 201q0 -50 -30 -90.5t-76.5 -63.5t-96 -35t-94.5 -12t-94.5 12t-96 35t-76.5 63.5t-30 90.5q0 70 56.5 119t131.5 69q-60 18 -104.5 56t-44.5 93t46.5 94t102.5 54.5t109 15.5q38 0 80 -9.5t83 -28t67.5 -51.5t26.5 -75q0 -55 -44.5 -93t-104.5 -56q75 -20 132 -69
t57 -119zM420 539q0 52 -28.5 98t-76.5 46q-49 0 -77 -46t-28 -98q0 -51 28 -97.5t77 -46.5q48 0 76.5 46.5t28.5 97.5zM451 193q0 65 -37 121.5t-99 56.5q-63 0 -99.5 -56.5t-36.5 -121.5t36.5 -121.5t99.5 -56.5q62 0 99 56.5t37 121.5z" />
    <glyph glyph-name="nine" unicode="9" horiz-adv-x="628" 
d="M610 387q0 -155 -114 -271.5t-268 -116.5q-70 0 -132 32q-1 -1 -4 -6t-6 -9.5t-7 -8.5t-7 -4q-6 0 -6 6q0 5 2 7q45 66 56 128q2 6 8 6q7 0 7 -5q0 -61 34 -91t88 -30q74 0 123 67t60 148q-74 -60 -170 -60q-106 0 -181 73t-75 179q0 114 83 190t199 76q130 0 220 -89.5
t90 -220.5zM302 673q-33 0 -58.5 -22.5t-39 -56.5t-20 -68t-6.5 -64q0 -55 16.5 -112.5t52 -101.5t81.5 -44q33 0 58 22.5t38.5 57t20 68.5t6.5 63q0 37 -7.5 78t-23 83.5t-46.5 69.5t-72 27z" />
    <glyph glyph-name="colon" unicode=":" horiz-adv-x="170" 
d="M152 351q0 -28 -19.5 -47.5t-47.5 -19.5t-47.5 19.5t-19.5 47.5t19.5 47.5t47.5 19.5t47.5 -19.5t19.5 -47.5zM152 61q0 -28 -19.5 -47.5t-47.5 -19.5t-47.5 19.5t-19.5 47.5t19.5 47.5t47.5 19.5t47.5 -19.5t19.5 -47.5z" />
    <glyph glyph-name="semicolon" unicode=";" horiz-adv-x="171" 
d="M152 351q0 -28 -19.5 -47.5t-47.5 -19.5t-47.5 19.5t-19.5 47.5t19.5 47.5t47.5 19.5t47.5 -19.5t19.5 -47.5zM152 59q0 -54 -33 -98t-86 -65l-9 16q44 30 46 85q-23 5 -37.5 23.5t-14.5 41.5q0 28 19.5 48t47.5 20q29 0 48 -21t19 -50z" />
    <glyph glyph-name="less" unicode="&#x3c;" horiz-adv-x="492" 
d="M474 112l-456 199v71l456 199v-84l-344 -151l344 -150v-84z" />
    <glyph glyph-name="equal" unicode="=" horiz-adv-x="492" 
d="M474 381h-456v78h456v-78zM474 234h-456v78h456v-78z" />
    <glyph glyph-name="greater" unicode="&#x3e;" horiz-adv-x="492" 
d="M474 311l-456 -199v84l344 150l-344 151v84l456 -199v-71z" />
    <glyph glyph-name="question" unicode="?" horiz-adv-x="459" 
d="M441 520q0 -39 -24.5 -75t-59.5 -63.5t-70.5 -52t-60 -51t-24.5 -50.5q0 -25 27 -52l-16 -17q-70 62 -70 116q0 30 19.5 60.5t46.5 57l54.5 53t47 59t19.5 64.5q0 51 -35 80t-87 29q-56 0 -95.5 -42t-39.5 -98v-8q0 -5 -7 -5t-7 7q-1 12 -3 25t-5 29t-4 25
q-2 15 -15.5 47t-13.5 35q0 7 6 7q4 0 15 -14t30 -14q4 0 14 2l34 8.5t38 8.5t32.5 5t38.5 3q80 0 147.5 -50.5t67.5 -128.5zM269 62q0 -28 -20 -47.5t-48 -19.5t-47.5 19.5t-19.5 47.5t19.5 48t47.5 20t48 -20t20 -48z" />
    <glyph glyph-name="at" unicode="@" horiz-adv-x="739" 
d="M721 351q0 -75 -46 -136t-118 -61q-28 0 -51 15t-34 40q-67 -54 -148 -54q-63 0 -110.5 35t-47.5 96q0 44 29 80t77.5 59.5t89.5 37t87 23.5q-32 81 -100 81q-49 0 -93 -46q0 -1 1.5 -8.5t1.5 -11.5q0 -6 -9 -6q-3 0 -8.5 17l-12.5 39t-12 31q-2 4 -2 5q0 7 8 7
q2 0 4.5 -3t5 -7.5t3.5 -5.5q42 14 85 14q65 0 115 -27t79 -73.5t43.5 -101.5t14.5 -116q0 -54 -10 -103q59 6 86.5 47t27.5 104q0 64 -24.5 129t-66 117t-102 84.5t-126.5 32.5q-130 0 -209 -86.5t-79 -205.5q0 -149 106.5 -258.5t251.5 -109.5q129 0 250 116q3 3 5 3
t5.5 -3.5t3.5 -5.5q0 -1 -3 -4q-128 -131 -321 -131q-144 0 -247 103.5t-103 247.5q0 145 103 248t248 103q159 0 255.5 -96t96.5 -255zM466 226q-3 14 -3 29l1 30q3 84 3 87q0 64 -13 100q-41 -9 -67.5 -18.5t-53.5 -27t-40.5 -46.5t-13.5 -69q0 -49 30.5 -83.5t78.5 -34.5
q43 0 78 33z" />
    <glyph glyph-name="A" unicode="A" 
d="M698 3q0 -8 -6 -8t-60 2.5t-77 2.5t-77 -2.5t-59 -2.5t-5 8q0 5 6 7l38 3q25 25 36 44.5t11 51.5q0 47 -33 108h-18q-37 0 -64 -11t-61 -37q-1 -1 -5 -1t-5 1q-38 31 -68.5 39.5t-86.5 8.5q0 -7 -1 -20t-1 -19q0 -117 73 -166q26 -2 38 -3q7 -2 7 -7q0 -8 -6 -8t-53 2.5
t-71 2.5t-72.5 -2.5t-54.5 -2.5q-5 0 -5 8q0 5 6 7l38 3q0 181 142 433l142 253q2 4 7 4t6 -6q6 -34 17.5 -67.5t22 -58t31 -58.5t32 -51.5l38.5 -56l38 -54.5q41 -60 61.5 -94t38.5 -89t18 -112q0 -8 -1.5 -23.5t-1.5 -18.5q26 -2 38 -3q7 -2 7 -7zM463 232
q-20 33 -65.5 95.5t-75.5 115t-43 106.5q-99 -195 -113 -317h297z" />
    <glyph glyph-name="B" unicode="B" horiz-adv-x="657" 
d="M639 187q0 -63 -47.5 -107.5t-107 -62t-120.5 -17.5h-238q-24 0 -60.5 -2.5t-41.5 -2.5t-5 8q0 5 6 7l38 3v676q-26 2 -38 3q-7 2 -7 7q0 8 6 8t42.5 -2.5t58.5 -2.5h161q44 0 89.5 -10.5t87 -31t67.5 -58t26 -85.5q0 -82 -99 -125q78 -28 130 -80t52 -125zM429 541
q0 45 -33 79t-77 49t-87 15h-43v-242q6 -1 30 -7t40 -8.5t31 -2.5q57 0 98 31t41 86zM487 190q0 30 -8.5 55.5t-19.5 44t-34.5 36t-38.5 27t-49 21.5t-48 16.5t-52.5 14.5t-47.5 13v-398h105q83 0 138 44.5t55 125.5z" />
    <glyph glyph-name="C" unicode="C" horiz-adv-x="655" 
d="M637 19q0 -6 -9 -6q-4 0 -15 27q-85 -40 -206 -40q-149 0 -260 101.5t-111 249.5t111 249.5t260 101.5q93 0 173 -40q3 18 10 18q8 0 8 -6q0 -13 -36 -139q-2 -6 -6 -6q-9 0 -9 6q0 4 2.5 10.5t2.5 9.5q0 15 -8 33q-16 40 -57 67.5t-85 27.5q-55 0 -98 -33.5t-66.5 -86
t-35.5 -107t-12 -105.5t12.5 -106.5t37 -108.5t68.5 -87t99 -34q99 0 166 114q0 1 -3.5 8t-3.5 9q0 8 9 8q3 0 6 -5q56 -121 56 -130z" />
    <glyph glyph-name="D" unicode="D" horiz-adv-x="667" 
d="M631 351q0 -65 -20 -120t-54.5 -93.5t-83 -67t-103.5 -45t-117 -22.5q-29 -3 -127 -3q-24 0 -60.5 -2.5t-41.5 -2.5t-5 8q0 5 6 7l38 3v676q-26 2 -38 3q-7 2 -7 7q0 8 6 8t42.5 -2.5t58.5 -2.5h52q53 0 80 -3q161 -18 267.5 -106t106.5 -242zM492 351q0 125 -60.5 220
t-176.5 113q-29 4 -67 4v-673h28q65 0 119 29.5t87.5 78t51.5 107.5t18 121z" />
    <glyph glyph-name="E" unicode="E" horiz-adv-x="639" 
d="M621 9q0 -9 -7 -9h-489q-18 0 -52 -2.5t-49 -2.5q-6 0 -6 7t7 8t22 2t16 1v677q-19 0 -38 3q-7 1 -7 8q0 6 8 6q41 -5 99 -5h458q7 0 7 -8q0 -5 -1 -12.5t-3 -16.5t-3 -13q-4 -25 -13 -88q-2 -6 -6 -6q-8 0 -8 5q0 2 3 26q-74 61 -161.5 80t-209.5 19v-309h11
q66 0 105 2.5t91.5 16t97.5 39.5q4 18 9 18q8 0 8 -6q0 -7 -3.5 -35t-3.5 -42t3.5 -42.5t3.5 -35.5q0 -5 -7 -5t-10 17q-64 38 -129 48t-165 10h-11v-349h28q82 0 211.5 41t157.5 74q-4 18 -4 29q0 6 6 6q7 0 8 -7q10 -68 17 -101q0 -2 4.5 -22t4.5 -26z" />
    <glyph glyph-name="F" unicode="F" horiz-adv-x="608" 
d="M590 694q0 -4 -2.5 -18.5t-7.5 -46.5l-10 -65q-2 -6 -7 -6q-7 0 -7 5q0 10 2 26q-62 51 -151.5 75t-181.5 24h-38v-309q70 0 109.5 2t96 15.5t101.5 40.5q0 18 10 18q6 0 6 -7q0 -3 -3.5 -32t-3.5 -44t3.5 -44t3.5 -33q0 -6 -6 -6q-10 0 -10 17q-44 27 -101 40.5
t-97 15.5t-109 2v-350q26 -2 38 -3q7 -2 7 -7q0 -8 -6 -8t-42 2.5t-59 2.5t-59.5 -2.5t-42.5 -2.5q-5 0 -5 8q0 5 6 7l38 3v676l-38 3q-6 2 -6 7q0 8 5 8q6 0 42.5 -3t59.5 -3h458q7 0 7 -8z" />
    <glyph glyph-name="G" unicode="G" horiz-adv-x="702" 
d="M684 4q0 -8 -6 -8t-42 1.5t-59 1.5l-169 1q-99 1 -182.5 37.5t-136.5 112t-53 176.5q0 159 118 267.5t279 108.5q85 0 164 -38q10 -5 19 -5q10 0 17.5 10.5t10.5 10.5q8 0 8 -9q0 -2 -24 -32l-51 -63t-30 -37q-4 -4 -6 -4q-8 0 -8 7q0 6 15 21q0 4 -1.5 11.5t-9 26.5
t-19.5 33t-36.5 26t-56.5 12q-70 0 -126 -54.5t-82.5 -126.5t-26.5 -140q0 -132 85.5 -234t215.5 -102h23v411l-38 3q-6 2 -6 7q0 8 5 8t42 -2.5t60 -2.5t59 2.5t42 2.5t6 -8q0 -5 -7 -7q-12 -1 -38 -3v-412q26 -2 38 -3q7 -2 7 -7z" />
    <glyph glyph-name="H" unicode="H" horiz-adv-x="694" 
d="M676 3q0 -8 -5 -8t-42 2.5t-60 2.5t-59 -2.5t-42 -2.5t-6 8q0 5 7 7q12 1 38 3v492q-56 0 -87 -8.5t-69 -39.5q-1 -1 -4 -1t-4 1q-38 31 -69 39.5t-87 8.5v-492q26 -2 38 -3q7 -2 7 -7q0 -8 -6 -8t-42 2.5t-59 2.5t-59.5 -2.5t-42.5 -2.5q-5 0 -5 8q0 5 6 7l38 3v677
l-38 3q-6 2 -6 7q0 8 5 8q6 0 42.5 -2.5t59.5 -2.5t59 2.5t42 2.5t6 -8q0 -5 -7 -7q-12 -1 -38 -3v-170h320v170q-26 2 -38 3q-7 2 -7 7q0 8 6 8t42 -2.5t59 -2.5t60 2.5t42 2.5t5 -8q0 -5 -6 -7l-38 -3v-677l38 -3q6 -2 6 -7z" />
    <glyph glyph-name="I" unicode="I" horiz-adv-x="250" 
d="M232 3q0 -8 -6 -8t-42 2.5t-59 2.5t-59.5 -2.5t-42.5 -2.5q-5 0 -5 8q0 5 6 7l38 3v677l-38 3q-6 2 -6 7q0 8 5 8q6 0 42.5 -2.5t59.5 -2.5t59 2.5t42 2.5t6 -8q0 -5 -7 -7q-12 -1 -38 -3v-677q26 -2 38 -3q7 -2 7 -7z" />
    <glyph glyph-name="J" unicode="J" horiz-adv-x="487" 
d="M469 701q0 -8 -7 -8q-20 -3 -38 -3v-511q0 -89 -73 -140t-166 -51q-66 0 -116.5 32.5t-50.5 94.5q0 58 46 93t106 35q41 0 76.5 -19t35.5 -57q0 -30 -21 -45.5t-52 -15.5q-35 0 -35 11q0 2 7 9.5t13.5 20t6.5 26.5q0 50 -34 50q-32 0 -50 -33t-18 -67q0 -46 23 -81.5
t66 -35.5q52 0 81.5 47t29.5 102v535q-19 0 -38 3q-8 1 -8 8q0 6 6 6q7 0 45 -2.5t57 -2.5t56 2.5t46 2.5q6 0 6 -6z" />
    <glyph glyph-name="K" unicode="K" horiz-adv-x="737" 
d="M719 2q0 -7 -8 -7q-6 0 -50.5 2.5t-66.5 2.5t-67 -2.5t-51 -2.5q-8 0 -8 7t7 8q17 3 35 3q-16 31 -37.5 64.5l-38.5 58t-46.5 61l-43.5 53.5l-49.5 59t-46.5 54l-59 -49v-301l38 -3q7 0 7 -8q0 -7 -7 -7q-10 0 -42.5 2.5t-58.5 2.5q-22 0 -57 -2.5t-42 -2.5q-9 0 -9 7
t8 8q7 1 22 2t16 1v677q-6 0 -12 0.5t-14 1.5t-12 1q-8 0 -8 8q0 6 6 6q8 0 45.5 -2.5t56.5 -2.5t57 2.5t45 2.5q6 0 6 -6q0 -7 -7 -8q-19 -3 -38 -3v-357q132 110 185 168q74 81 92 145q2 10 2 16q0 15 -7.5 21.5t-16 6.5t-16 2.5t-7.5 8.5t8 6q48 -5 116 -5q19 0 58.5 2.5
t60.5 2.5q5 0 5 -6q0 -12 -29 -12l-293 -242q212 -230 324 -434q1 0 17 -1t24 -2q7 -1 7 -8z" />
    <glyph glyph-name="L" unicode="L" horiz-adv-x="547" 
d="M529 7q0 -7 -8 -7h-396q-26 0 -61.5 -2.5t-40.5 -2.5t-5 8q0 5 6 7l38 3v677l-38 3q-6 2 -6 7q0 8 5 8q6 0 42.5 -2.5t59.5 -2.5t59 2.5t42 2.5t6 -8q0 -5 -7 -7l-38 -3v-675h27q74 0 144.5 27t106.5 81q0 1 -4.5 14t-4.5 15q0 7 7 7q6 0 8 -5l17 -46t20.5 -53l19.5 -45
v-1q1 -1 1 -2z" />
    <glyph glyph-name="M" unicode="M" horiz-adv-x="883" 
d="M865 3q0 -8 -6 -8q-5 0 -41 2.5t-60 2.5t-60 -2.5t-42 -2.5q-5 0 -5 8q0 5 6 7l38 3l-38 656l-255 -664q-2 -5 -8 -5q-5 0 -6 4l-268 609q-13 -182 -13 -252q0 -259 77 -348q6 -1 20.5 -2t20.5 -1q7 -2 7 -7q0 -8 -6 -8t-42 2.5t-59 2.5t-59.5 -2.5t-42.5 -2.5q-5 0 -5 8
q0 5 6 7l38 3q5 69 13.5 198l16 233.5t15.5 197.5l-21 47q-7 1 -21.5 2.5t-20.5 1.5q-6 2 -6 7q0 8 5 8q6 0 39 -3t52 -3h83q4 0 6 -4l230 -519l200 519q1 4 8 4h62q23 0 57 2t40 2t6 -8q0 -5 -7 -7q-12 -1 -38 -3l39 -675q26 -2 38 -3q7 -2 7 -7z" />
    <glyph glyph-name="N" unicode="N" horiz-adv-x="641" 
d="M623 4q0 -8 -6 -8q-7 0 -32 2t-39 2q-16 0 -41.5 -2t-32.5 -2q-5 0 -5 8q0 5 6 7l38 3q27 3 43 24.5t16 48.5q0 15 -4.5 30.5t-15.5 31l-20 27.5t-28 27.5l-29 24t-33.5 23.5l-30.5 19.5t-31.5 19t-25.5 15.5q-109 67 -179.5 131t-104.5 153q-12 -149 -12 -186
q0 -82 18 -150q44 -161 128 -238l18.5 -3t18.5 -2q7 -2 7 -7q0 -8 -6 -8t-47 2.5t-64 2.5t-55 -2.5t-37 -2.5t-5 8q0 5 6 7q6 0 9 1t10 2q-37 154 -37 330q0 69 19.5 193t22.5 153l-38 3q-6 2 -6 7q0 8 5 8q6 0 42.5 -2t60.5 -2q47 0 70 1q30 3 31 3q7 0 7 -8
q0 -2 -10 -10.5t-20.5 -23.5t-10.5 -32q0 -19 18.5 -42.5t32.5 -35.5t39 -30q21 -16 108.5 -73.5t127.5 -97.5q37 -37 59 -81q-7 123 -43 236.5t-109 180.5q-7 1 -13.5 1.5t-14 1t-11.5 0.5q-6 2 -6 7q0 8 5 8q6 0 47 -2.5t65 -2.5t58 1.5t40 1.5t6 -8q0 -5 -7 -7
q-24 -2 -39 -2q42 -207 42 -401q0 -143 -20 -274q26 -2 38 -3q7 -2 7 -7z" />
    <glyph glyph-name="O" unicode="O" horiz-adv-x="731" 
d="M695 351q0 -143 -94 -252t-235 -109t-235.5 108.5t-94.5 252.5t94 253t236 109q141 0 235 -109.5t94 -252.5zM532 351q0 47 -7 99t-23 111.5t-51.5 98t-84.5 38.5t-84.5 -38.5t-52 -98t-23.5 -111.5t-7 -99t7 -99t23.5 -111.5t52 -98t84.5 -38.5t84.5 38.5t51.5 98
t23 111.5t7 99z" />
    <glyph glyph-name="P" unicode="P" horiz-adv-x="669" 
d="M651 436q0 -65 -37 -117.5t-95.5 -83.5t-122 -47.5t-123.5 -16.5q-35 0 -86 7v-166q14 0 38 -2q7 -2 7 -7q0 -8 -6 -8t-42 2.5t-59 2.5t-59.5 -2.5t-42.5 -2.5q-5 0 -5 8q0 5 6 7l38 3v673q-26 3 -38 4q-6 2 -6 7q0 8 5 8q6 0 42.5 -2.5t59.5 -2.5h148q59 0 123 -16.5
t122 -47t95.5 -83.5t37.5 -117zM504 435q0 106 -87.5 173.5t-196.5 67.5q-11 0 -33 -2v-479q11 -1 33 -1q71 0 135 28t106.5 84.5t42.5 128.5z" />
    <glyph glyph-name="Q" unicode="Q" horiz-adv-x="731" 
d="M695 351q0 -131 -81.5 -236.5t-208.5 -122.5q21 -72 54 -142q-45 12 -93 12t-94 -12q37 77 54 142q-127 17 -208.5 122.5t-81.5 236.5q0 92 41.5 174.5t118.5 135t170 52.5t169.5 -52.5t118 -135t41.5 -174.5zM532 351q0 47 -7 99t-23 111.5t-51.5 98t-84.5 38.5
t-84.5 -38.5t-52 -98t-23.5 -111.5t-7 -99q0 -61 9 -125t40.5 -131.5t81.5 -84.5q17 68 28 169h15q11 -101 28 -169q50 17 81.5 84.5t40.5 131.5t9 125z" />
    <glyph glyph-name="R" unicode="R" horiz-adv-x="669" 
d="M62 13v676q-22 2 -38 4q-6 2 -6 7q0 8 5 8q4 0 37 -3t65 -3h148q57 0 118.5 -14.5t118.5 -42.5t94 -77.5t37 -111.5q0 -59 -33.5 -106.5t-86 -76t-109.5 -44t-112 -17.5q65 -27 118 -74q28 -25 46 -39.5t48.5 -29t58.5 -14.5q10 0 21 2.5t19.5 5.5t16 6.5t12.5 6.5l4 2
q7 0 7 -7q0 -3 -1 -4q-59 -72 -153 -72q-88 0 -173 63t-136 148v-191q27 -4 37 -5q7 -2 7 -7q0 -8 -6 -8t-42 2.5t-59 2.5t-59.5 -2.5t-42.5 -2.5q-5 0 -5 8q0 5 6 7zM494 456q0 69 -42 121t-103 77t-128 25q-11 0 -33 -2v-443q11 -1 33 -1q68 0 129 24t102.5 76.5
t41.5 122.5z" />
    <glyph glyph-name="S" unicode="S" horiz-adv-x="659" 
d="M635 252q0 -76 -49.5 -135.5t-120 -88t-144.5 -28.5q-26 0 -55.5 4t-51 8t-55.5 11.5l-52 11.5q-26 6 -39 6q-16 0 -24 -9.5t-10.5 -18.5t-6.5 -9q-9 0 -9 6l8 22l15 46.5t9 30.5q13 49 20 92q2 6 6 6q8 0 8 -6q0 -5 -1 -14t-1 -13q0 -58 75 -104.5t137 -46.5
q78 0 144 42.5t66 116.5q0 36 -18.5 62.5t-50.5 41.5t-61.5 24.5t-65.5 17.5l-15 3q-35 8 -57.5 14.5t-56 21t-54 30.5t-35.5 42.5t-15 58.5q0 63 42 110.5t99.5 69t118.5 21.5q25 0 74 -8.5t74 -8.5q41 0 58 19q1 1 3.5 5t5 7t4.5 3q8 0 8 -7q0 -3 -2 -5q-22 -40 -39 -84
q-17 -48 -22 -85q0 -6 -7 -6t-7 5q0 2 1.5 12t1.5 14q0 52 -49.5 84.5t-105.5 32.5q-51 0 -88.5 -27.5t-37.5 -75.5q0 -33 28 -53.5t66 -28.5l60.5 -13t62 -16.5t64.5 -23t56 -30.5t48.5 -40t30 -51.5t12.5 -65.5z" />
    <glyph glyph-name="T" unicode="T" horiz-adv-x="663" 
d="M273 13v665q-60 -9 -119.5 -32t-99.5 -57q0 -2 2 -11t2 -14q0 -6 -9 -6q-5 0 -6 6l-16 88q-1 3 -3.5 12.5t-4 17.5t-1.5 12q0 8 7 8h613q7 0 7 -8q0 -4 -1.5 -11t-3.5 -15.5t-3 -11.5q-10 -44 -18 -92q-1 -6 -6 -6q-8 0 -8 5t2 15t2 12q-81 65 -211 87v-664l38 -3
q7 -2 7 -7q0 -8 -6 -8q-5 0 -41 2.5t-60 2.5t-60 -2.5t-42 -2.5q-5 0 -5 8q0 5 6 7z" />
    <glyph glyph-name="U" unicode="U" horiz-adv-x="658" 
d="M640 405q0 -68 -20.5 -138t-58 -130.5t-98.5 -98.5t-134 -38t-134 38t-98.5 98.5t-58 130.5t-20.5 138q0 166 91 285l-38 3q-6 2 -6 7q0 8 5 8q6 0 54 -2.5t72 -2.5t73 2.5t54 2.5q6 0 6 -8q0 -5 -7 -7q-12 -1 -38 -3q-120 -96 -120 -299q0 -39 7 -84t24 -94t40.5 -88.5
t60.5 -65t81 -25.5q52 0 91.5 35t60.5 88.5t31.5 107t10.5 100.5q0 44 -8.5 93t-26 100.5t-51.5 88t-78 43.5l-22 3q-6 2 -6 7q0 8 5 8q6 0 42 -2.5t60 -2.5t60 2.5t41 2.5q6 0 6 -8q0 -5 -7 -7q-12 -1 -38 -3q92 -118 92 -285z" />
    <glyph glyph-name="V" unicode="V" horiz-adv-x="752" 
d="M734 700q0 -5 -7 -7l-37 -3q-32 -166 -106 -335q-64 -144 -152 -286q-32 -54 -50 -80q-2 -3 -6 -3t-6 3l-79 146l-32 58.5l-37 69l-35 68t-37 76l-30.5 71t-29 76.5t-18 68t-10.5 68l-38 3q-6 2 -6 7q0 8 5 8t49 -2t67 -2t64 2.5t47 2.5t6 -8q0 -5 -7 -7q-12 -1 -38 -3
q0 -54 30.5 -137t60 -140t86.5 -157.5l68 -120.5q118 202 118 407q0 42 -20.5 93.5t-49.5 53.5q-9 1 -22 2t-16 1q-6 2 -6 7q0 8 5 8t57 -2.5t75 -2.5t74 2.5t57 2.5t6 -8z" />
    <glyph glyph-name="W" unicode="W" horiz-adv-x="930" 
d="M912 700q0 -5 -7 -7q-12 -1 -38 -3q-26 -167 -90 -335q-55 -147 -129 -285q-26 -50 -45 -81q-1 -3 -6 -3q-6 0 -7 4q-5 10 -10 21.5l-11 25.5t-9 22l-85 200q-48 -110 -97 -200q-24 -48 -38 -70q-2 -3 -6 -3q-6 0 -7 4q-2 5 -7.5 16.5l-21 45.5l-39.5 84l-49.5 104.5
t-46.5 104.5t-50 125t-31.5 108.5t-19.5 111.5l-38 3q-6 2 -6 7q0 8 5 8t49 -2.5t67 -2.5t60 2.5t43 2.5t6 -8q0 -5 -7 -7q-12 -1 -38 -3q0 -74 33.5 -167t95 -217t75.5 -158q34 66 60 130q-98 251 -108 412l-38 3q-6 2 -6 7q0 8 5 8q6 0 49.5 -2.5t67.5 -2.5t60.5 2t42.5 2
t6 -8q0 -5 -7 -7q-12 -1 -38 -3v-6q0 -76 31 -182.5t60 -174.5l79 -177q88 171 88 403q0 129 -56 138l-19 3q-7 2 -7 8q0 7 6 7q5 0 52 -2.5t70 -2.5t59 2.5t42 2.5t6 -8z" />
    <glyph glyph-name="X" unicode="X" horiz-adv-x="717" 
d="M699 3q0 -8 -6 -8q-5 0 -47 2.5t-66 2.5t-70 -2.5t-52 -2.5q-5 0 -5 8q0 5 6 7q3 0 15.5 1.5t19.5 1.5l-182 294q-113 -144 -113 -231q0 -7 1.5 -15.5t7.5 -21.5t20.5 -21t36.5 -8q7 0 7 -7q0 -8 -6 -8t-52 2.5t-69 2.5t-70 -2.5t-52 -2.5t-5 8q0 5 6 7q26 2 38 2
q107 191 235 319l-223 359l-38 3q-6 2 -6 7q0 8 5 8q6 0 52.5 -2.5t69.5 -2.5t69 2.5t52 2.5t6 -8q0 -5 -7 -7l-37 -3l159 -259q86 119 86 195q0 34 -23.5 50.5t-52.5 16.5q-6 0 -6 7q0 8 5 8q6 0 54 -2.5t71 -2.5t73 2.5t55 2.5q6 0 6 -8q0 -5 -7 -7q-12 -1 -38 -3
q-87 -162 -207 -286l239 -391q26 -2 38 -3q7 -2 7 -7z" />
    <glyph glyph-name="Y" unicode="Y" horiz-adv-x="710" 
d="M692 700q0 -5 -7 -7q-34 -3 -35 -3q-85 -200 -207 -368v-309q6 -1 19 -2t19 -1q7 -2 7 -7q0 -8 -6 -8t-42 2.5t-59 2.5t-60 -2.5t-42 -2.5t-5 8q0 5 6 7l38 3v266l-255 411q-6 0 -12.5 0.5t-14.5 1.5t-12 1q-6 2 -6 7q0 8 5 8t52 -2.5t70 -2.5t69 2.5t52 2.5t6 -8
q0 -5 -7 -7q-24 -2 -37 -3l209 -342q29 46 52.5 126t23.5 134q0 85 -79 85q-6 0 -6 7q0 8 5 8t54 -2.5t73 -2.5t72 2.5t54 2.5t6 -8z" />
    <glyph glyph-name="Z" unicode="Z" horiz-adv-x="629" 
d="M611 41q0 -7 -4 -8q-8 -4 -34 -11q-100 -29 -268 -29q-52 0 -154 4q-14 0 -39.5 1t-46.5 1.5t-40 0.5q-7 0 -7 7q0 2 95.5 158.5l207.5 339t116 189.5h-51q-186 0 -287 -122q0 -2 5 -18.5t5 -18.5q0 -6 -9 -6q-4 0 -6 6q-3 8 -7.5 25t-7.5 25q-7 22 -32 72q-4 8 -4 10
q0 6 4 7q76 36 265 36q53 0 161 -4q82 -4 122 -4q8 0 8 -7q0 -2 -3 -8l-414 -665q133 0 224.5 37.5t157.5 137.5q0 5 -2 21t-2 20q0 7 7 7t7 -7q0 -2 16.5 -96t16.5 -101z" />
    <glyph glyph-name="bracketleft" unicode="[" horiz-adv-x="207" 
d="M189 -198q0 -8 -6 -8t-42.5 2.5t-58.5 2.5h-56q-8 0 -8 7v884q0 7 8 7h55q24 0 60.5 3t41.5 3q6 0 6 -8q0 -5 -7 -7l-38 -3v-873l38 -3q7 -2 7 -7z" />
    <glyph glyph-name="backslash" unicode="\" horiz-adv-x="411" 
d="M393 -153q0 -7 -10 -7q-3 0 -5 5l-100 235l-177.5 418t-82.5 199q0 6 8 6q4 0 6 -5q1 -2 99 -232l180 -423.5t82 -195.5z" />
    <glyph glyph-name="bracketright" unicode="]" horiz-adv-x="207" 
d="M189 -194q0 -7 -8 -7h-56q-22 0 -58.5 -2.5t-42.5 -2.5t-6 8q0 5 7 7l38 3v873l-38 3q-7 2 -7 7q0 8 6 8q5 0 41.5 -3t60.5 -3h55q8 0 8 -7v-884z" />
    <glyph glyph-name="asciicircum" unicode="^" horiz-adv-x="458" 
d="M440 317h-85l-126 288l-126 -288h-85l178 405h66z" />
    <glyph glyph-name="underscore" unicode="_" horiz-adv-x="500" 
d="M500 -46h-500v28h500v-28z" />
    <glyph glyph-name="grave" unicode="`" horiz-adv-x="209" 
d="M193 507h-24l-138 137q-15 15 -15 28q0 15 10.5 25.5t25.5 10.5q19 0 34 -24z" />
    <glyph glyph-name="a" unicode="a" horiz-adv-x="521" 
d="M509 3q0 -8 -6 -8q-5 0 -41 2.5t-60 2.5l-42 1q-7 0 -7 7v43q-72 -56 -161 -56q-71 0 -125.5 39.5t-54.5 107.5q0 50 33.5 91.5t89 68t103 42t99.5 26.5q-17 42 -49 69.5t-74 27.5q-60 0 -101 -56q0 -2 2 -10t2 -12q0 -7 -9 -7q-6 0 -6 7q-2 12 -8 36q-9 30 -24 57
q-2 4 -2 5q0 2 3.5 4.5t5.5 2.5q3 0 13 -19q46 17 95 17q73 0 130.5 -30.5t91.5 -82.5t51.5 -115t17.5 -133q0 -59 -12 -118q26 -2 38 -3q7 -2 7 -7zM353 70v153q0 95 -11 134q-202 -42 -202 -184q0 -56 34.5 -96.5t89.5 -40.5q50 0 89 34z" />
    <glyph glyph-name="b" unicode="b" horiz-adv-x="533" 
d="M521 242q0 -105 -69 -175.5t-174 -70.5q-60 0 -116 28q0 -25 -10 -25q-7 0 -24.5 0.5t-25.5 0.5q-15 0 -46.5 -2t-38.5 -2q-5 0 -5 8q0 5 6 7l38 3v675l-38 3q-6 2 -6 7q0 8 5 8t37 -2t56 -2t55 2.5t36 2.5q6 0 6 -8q0 -5 -7 -7q-12 -1 -38 -3v-230q54 27 115 27
q105 0 174.5 -70t69.5 -175zM389 239q0 34 -7 71t-22 74t-43 61t-65 24q-43 0 -90 -26v-310q0 -43 22.5 -79t62.5 -36q39 0 68 21.5t44.5 56.5t22.5 71t7 72z" />
    <glyph glyph-name="c" unicode="c" horiz-adv-x="528" 
d="M510 59q0 -2 -4 -6q-76 -55 -193 -55q-76 0 -142 27t-109.5 85t-43.5 136q0 104 79 175t184 71q43 0 85.5 -8.5t80.5 -36.5t38 -71q0 -25 -20.5 -41.5t-46.5 -16.5q-39 0 -71 39q-2 2 -2 5q0 2 19 18t19 36q0 29 -29 44.5t-61 15.5q-37 0 -66 -21.5t-45.5 -55
t-24.5 -69.5t-8 -70q0 -59 15 -111.5t56 -92.5t101 -40q48 0 88 22t57 64q0 1 -2.5 7l-5 11.5t-2.5 6.5q0 7 7 7q5 0 8 -5q20 -43 38 -67q1 -1 1 -3z" />
    <glyph glyph-name="d" unicode="d" horiz-adv-x="555" 
d="M543 4q0 -8 -6 -8t-40 2t-54 2h-38q-13 0 -13 44q-65 -53 -148 -53q-98 0 -165 61.5t-67 158.5q0 115 113 195q111 79 267 81v203l-38 3q-6 2 -6 7q0 8 5 8t37 -2.5t55 -2.5t54 2.5t37 2.5t6 -8q0 -5 -7 -7q-24 -2 -37 -3v-676q26 -2 38 -3q7 -2 7 -7zM392 121v351
q-44 0 -65 -4q-82 -15 -130.5 -94t-48.5 -168q0 -68 37.5 -124t98.5 -56q43 0 75.5 26.5t32.5 68.5z" />
    <glyph glyph-name="e" unicode="e" horiz-adv-x="498" 
d="M486 131q0 -13 -14 -33.5t-39.5 -43t-71 -38t-99.5 -15.5q-101 0 -175.5 72t-74.5 171q0 101 71 172t171 71q82 0 153 -52.5t71 -131.5q0 -9 -7 -9h-330q-2 -34 -2 -50q0 -52 12.5 -96.5t47.5 -78.5t88 -34q55 0 100 34.5t49 87.5q-21 21 -21 24q0 8 8 8q3 0 5 -2
q27 -27 55 -47q3 -2 3 -9zM361 309q-1 28 -6.5 53.5t-16.5 52t-32 42t-50 15.5q-33 0 -59 -30.5t-37 -64t-17 -68.5h218z" />
    <glyph glyph-name="f" unicode="f" horiz-adv-x="329" 
d="M317 592q0 -6 -5 -8q-4 -1 -35.5 -12l-60.5 -22l-30 -10q-6 0 -6 8q0 1 18 10.5t18 26.5q0 29 -24 47t-54 18q-31 0 -52 -25t-21 -57q0 -45 35 -68t82 -23q51 0 92 30v4q0 15 9 15q6 0 6 -6q0 -12 -1.5 -36.5t-1.5 -36.5t1.5 -36.5t1.5 -36.5q0 -6 -6 -6q-7 0 -8 7
q-3 31 -22 56.5t-48 25.5h-24v-444q5 0 11 -0.5t13.5 -1.5t11.5 -1q7 -2 7 -7q0 -8 -6 -8t-37 2.5t-54 2.5t-55 -2.5t-37 -2.5t-5 8q0 5 6 7l38 3v461q-28 0 -55 3q-7 1 -7 8t8 7q10 0 29.5 -2t25.5 -2q-38 36 -38 88q0 54 43 90.5t98 36.5q41 0 77.5 -21.5t52.5 -58.5
q9 -21 9 -31z" />
    <glyph glyph-name="g" unicode="g" horiz-adv-x="531" 
d="M519 -37q0 -50 -30 -89t-77.5 -60t-97 -31.5t-95.5 -10.5q-44 0 -88 10.5t-81.5 41t-37.5 75.5q0 43 32.5 73.5t73.5 42.5t82 12q52 0 95 -21.5t43 -68.5q0 -28 -26 -40t-57 -12q-30 0 -60 11q34 30 34 57q0 23 -18.5 33.5t-43.5 10.5q-37 0 -59 -22t-22 -59
q0 -53 39 -89t92 -36q81 0 127.5 48.5t46.5 129.5q0 62 -41 112t-102 50q-63 0 -109 -69l-57 52q49 25 99 34q-63 16 -108 60t-45 105q0 72 61.5 119t138.5 54l-45 142h143l-45 -142q77 -7 138.5 -54t61.5 -119q0 -63 -48 -107t-113 -59q81 -17 140 -63.5t59 -120.5z
M348 313q0 47 -18 94t-55 60l-14 -42h-14l-13 42q-38 -13 -56 -59t-18 -95q0 -23 5 -48.5t15 -51t29.5 -42t44.5 -16.5t44.5 16.5t29.5 42t15 51t5 48.5z" />
    <glyph glyph-name="h" unicode="h" horiz-adv-x="569" 
d="M557 3q0 -8 -6 -8q-5 0 -36 2.5t-55 2.5t-55.5 -2.5t-36.5 -2.5t-5 8q0 5 6 7l38 3q0 16 2 67t2 78q0 150 -36 224q-41 84 -130 84q-43 0 -83 -23v-430q13 -1 37 -3q7 -2 7 -7q0 -8 -6 -8t-37 2.5t-54 2.5t-54.5 -2.5t-37.5 -2.5q-5 0 -5 8q0 5 6 7q37 3 38 3v677
q-8 1 -21 2t-17 1q-6 2 -6 7q0 8 5 8q6 0 37.5 -2.5t54.5 -2.5t54 2.5t37 2.5t6 -8q0 -5 -7 -7q-4 0 -11.5 -0.5t-13.5 -1t-12 -1.5v-217q49 19 96 19q178 0 229 -149q26 -73 26 -223v-107l37 -3q7 -2 7 -7z" />
    <glyph glyph-name="i" unicode="i" horiz-adv-x="243" 
d="M199 703l-70 -152h-14l-70 152h154zM219 485q0 -5 -7 -7q-4 0 -11.5 -0.5t-13.5 -1t-12 -1.5v-462q12 -2 36 -4q7 -2 7 -7q0 -8 -6 -8t-37 2.5t-54 2.5t-55 -2.5t-37 -2.5t-5 8q0 5 6 7q4 0 12 0.5t14.5 1t12.5 1.5v463q-8 1 -21 2t-17 1q-6 2 -6 7q0 8 5 8q6 0 37 -2.5
t55 -2.5t55 2.5t36 2.5q6 0 6 -8z" />
    <glyph glyph-name="j" unicode="j" horiz-adv-x="222" 
d="M188 703l-70 -152h-13l-70 152h153zM210 485q0 -5 -7 -7q-4 0 -11.5 -0.5t-13.5 -1t-12 -1.5v-468q0 -50 -15.5 -101t-52.5 -91.5t-88 -40.5q-48 0 -88 40l51 38q23 -57 53 -57t30 83v597q-8 1 -21 2t-17 1q-6 2 -6 7q0 8 5 8t37 -2.5t56 -2.5t56 2.5t38 2.5t6 -8z" />
    <glyph glyph-name="k" unicode="k" horiz-adv-x="566" 
d="M554 4q0 -8 -6 -8t-42 2t-59 2t-66 -2t-49 -2q-5 0 -5 8q0 5 6 7q37 3 38 3l-209 248v-249q13 -1 37 -3q7 -2 7 -7q0 -8 -6 -8t-37 2.5t-54 2.5t-54.5 -2.5t-37.5 -2.5q-5 0 -5 8q0 5 6 7q37 3 38 3v677q-8 1 -21 2t-17 1q-6 2 -6 7q0 8 5 8q6 0 37.5 -2.5t54.5 -2.5
t54 2.5t37 2.5t6 -8q0 -5 -7 -7q-4 0 -11.5 -0.5t-13.5 -1t-12 -1.5v-406l24.5 18.5l32.5 25l33 27t34 31t27 30t21 31.5t8 28q-13 0 -39 2q-6 2 -6 7q0 8 5 8q6 0 44 -2t62 -2t60 2.5t41 2.5q6 0 6 -8q0 -5 -7 -7q-4 0 -11.5 -0.5t-13.5 -1t-12 -1.5q-31 -25 -66.5 -49
l-84.5 -55l-70 -45l260 -312q13 -1 37 -3q7 -2 7 -7z" />
    <glyph glyph-name="l" unicode="l" horiz-adv-x="218" 
d="M206 3q0 -8 -6 -8t-37 2.5t-54 2.5t-54.5 -2.5t-37.5 -2.5q-5 0 -5 8q0 5 6 7q24 2 38 4v676q-2 0 -38 3q-6 2 -6 7q0 8 5 8q6 0 37.5 -2.5t54.5 -2.5t54 2.5t37 2.5t6 -8q0 -5 -7 -7q-4 0 -11 -1t-13 -1.5t-12 -0.5v-676q7 -1 18.5 -2.5t17.5 -1.5q7 -2 7 -7z" />
    <glyph glyph-name="m" unicode="m" horiz-adv-x="898" 
d="M886 3q0 -8 -6 -8t-37 2.5t-54 2.5t-57 -2t-40 -2q-5 0 -5 8q0 5 6 7q37 3 38 3q0 17 2 71.5t2 84.5q0 33 -1.5 60t-6 65t-15 66.5t-27 55t-43 40.5t-61.5 14q-77 0 -116 -74q49 -81 49 -270v-114q13 -1 37 -3q7 -2 7 -7q0 -8 -6 -8t-39 2.5t-56 2.5t-55 -2.5t-37 -2.5
t-5 8q0 5 6 7q2 0 17 1t25 2v156q0 34 -1.5 61t-6 65t-15.5 66.5t-27 55t-43 40.5t-62 14q-47 0 -86 -31v-427q25 0 37 -1q7 -2 7 -7q0 -8 -6 -8q-5 0 -38 1.5t-56 1.5t-55.5 -3t-38.5 -3q-5 0 -5 8q0 5 6 7q32 2 39 4v461q-7 0 -13.5 0.5t-14 1.5t-11.5 1q-6 2 -6 7
q0 8 5 8q6 0 37.5 -2.5t54.5 -2.5h49q9 0 9 -22q52 27 106 27q111 0 169 -65q68 65 159 65q63 0 108.5 -21.5t70.5 -54t39.5 -83.5t18.5 -95.5t4 -104.5v-120q13 -1 37 -3q7 -2 7 -7z" />
    <glyph glyph-name="n" unicode="n" horiz-adv-x="569" 
d="M557 3q0 -8 -6 -8q-5 0 -36 2.5t-55 2.5t-57 -2.5t-39 -2.5q-5 0 -5 8q0 5 6 7q37 3 38 3q4 112 4 157q0 301 -155 301q-44 0 -86 -31v-428q13 -1 37 -3q7 -2 7 -7q0 -8 -6 -8t-37 2.5t-54 2.5t-57 -2t-39 -2t-5 8q0 5 6 7q37 3 38 3v461q-8 1 -21 2t-17 1q-6 2 -6 7
q0 8 5 8q8 0 44.5 -2.5t46.5 -2.5h49q9 0 9 -22q51 27 106 27q63 0 109 -22t71 -54.5t39.5 -84t18.5 -96.5t4 -105v-117l36 -3q7 -2 7 -7z" />
    <glyph glyph-name="o" unicode="o" horiz-adv-x="526" 
d="M508 234q0 -102 -72 -172.5t-174 -70.5t-173 70.5t-71 172.5t71.5 182.5t172.5 80.5t173.5 -80.5t72.5 -182.5zM384 234q0 26 -2.5 55t-11 64.5t-21.5 63t-35.5 46.5t-51.5 19q-36 0 -61.5 -27.5t-37 -70t-16.5 -79.5t-5 -71t5 -68.5t16.5 -73t37 -62.5t61.5 -24t62 24
t38 62.5t17 73t5 68.5z" />
    <glyph glyph-name="p" unicode="p" horiz-adv-x="541" 
d="M529 244q0 -100 -69 -171t-169 -71q-67 0 -124 37v-244q9 1 35 -1q7 -2 7 -7q0 -8 -6 -8q-5 0 -36 2t-55 2t-56.5 -2t-38.5 -2q-5 0 -5 8q0 5 6 7q4 0 12 0.5t14.5 1t12.5 1.5v677q-7 0 -13.5 0.5t-14 1.5t-11.5 1q-6 2 -6 7q0 8 5 8q6 0 37.5 -2.5t54.5 -2.5h44
q14 0 14 -38q59 38 125 38q98 0 167.5 -72t69.5 -171zM414 233q0 36 -8 74t-23.5 76t-46 62t-69.5 24q-49 0 -100 -37v-376q52 -38 104 -38q51 0 85 37t46 83t12 95z" />
    <glyph glyph-name="q" unicode="q" horiz-adv-x="541" 
d="M529 -213q0 -8 -5 -8q-6 0 -39 2t-56 2t-54 -2t-37 -2t-6 8q0 5 7 7q26 2 35 1v244q-57 -37 -124 -37q-100 0 -169 71t-69 171q0 99 69.5 171t167.5 72q66 0 125 -38q0 38 13 38h45q24 0 55 2.5t37 2.5q5 0 5 -8q0 -5 -6 -7q-4 0 -17 -1t-21 -2v-677q1 0 38 -3q6 -2 6 -7
zM374 56v376q-51 37 -100 37q-39 0 -69.5 -24t-46 -62t-23.5 -76t-8 -74q0 -49 12 -95t46 -83t85 -37q52 0 104 38z" />
    <glyph glyph-name="r" unicode="r" horiz-adv-x="365" 
d="M353 424q0 -31 -19 -55t-49 -24q-19 0 -32.5 10.5t-20 22.5t-14.5 22.5t-17 10.5q-20 0 -29.5 -25t-9.5 -49v-324q13 -1 37 -3q7 -2 7 -7q0 -8 -6 -8t-37 2.5t-54 2.5t-54.5 -2.5t-37.5 -2.5q-5 0 -5 8q0 5 6 7q37 3 38 3v461q-8 1 -21 2t-17 1q-6 2 -6 7q0 8 5 8
q8 0 45 -2.5t47 -2.5h46q7 0 7 -8v-64q16 34 48 57t68 23q33 0 54 -19t21 -52z" />
    <glyph glyph-name="s" unicode="s" horiz-adv-x="506" 
d="M488 175q0 -60 -44.5 -103.5t-102.5 -61.5t-117 -18q-87 0 -158 40q-6 3 -11 3q-8 0 -17.5 -7.5t-11.5 -7.5q-8 0 -8 6q0 3 4 7q9 10 15 26t7 26t2.5 32t1.5 27v21q0 8 7 8q8 0 8 -9v-6q0 -45 67.5 -92t130.5 -47q49 0 87.5 24.5t38.5 70.5q0 17 -6.5 30.5t-22 24
t-25.5 16.5t-34.5 12.5t-31 8t-30.5 6.5q-193 41 -193 133q0 22 12 48q26 55 91 80t136 25q57 0 100 -12q0 1 2.5 5.5t5 8t4.5 3.5q9 0 9 -7q0 -2 -2 -4q-27 -53 -39 -97q-2 -6 -6 -6q-8 0 -8 6q0 9 4 17q-13 30 -45.5 46t-68.5 16q-35 0 -64.5 -16t-29.5 -48q0 -44 69 -64
q9 -3 49.5 -12.5t62 -16t57.5 -21t55 -29.5t34.5 -39t15.5 -53z" />
    <glyph glyph-name="t" unicode="t" horiz-adv-x="302" 
d="M290 472h-81v-459q12 0 36 -2q7 -2 7 -7q0 -8 -6 -8t-37 2.5t-54 2.5t-55 -2.5t-37 -2.5t-5 8q0 5 6 7q4 0 12 0.5t14.5 1t12.5 1.5v458q-52 -4 -91 -43v58h91v204l-38 3q-6 2 -6 7q0 8 5 8q6 0 37 -2.5t54 -2.5t54 2.5t37 2.5t6 -8q0 -5 -7 -7q-30 -2 -36 -4v-202
q44 5 81 42v-58z" />
    <glyph glyph-name="u" unicode="u" horiz-adv-x="554" 
d="M542 3q0 -8 -6 -8q-8 0 -45 2.5t-46 2.5h-43q-10 0 -10 27q-53 -31 -113 -31q-56 0 -98 16.5t-67.5 44t-41 68.5t-21 83.5t-5.5 95.5q0 38 7 171q-12 2 -35 4q-6 2 -6 7q0 8 5 8q6 0 37.5 -2.5t54.5 -2.5t54 2.5t37 2.5t6 -8q0 -5 -7 -7q-4 0 -11.5 -0.5t-13.5 -1
t-12 -1.5q-11 -114 -11 -185q0 -272 155 -272q48 0 86 29v427q-7 0 -13.5 0.5t-14 1.5t-11.5 1q-6 2 -6 7q0 8 5 8q6 0 37 -2.5t55 -2.5t55 2.5t37 2.5t6 -8q0 -5 -7 -7q-4 0 -11.5 -0.5t-13.5 -1t-12 -1.5v-462q13 -1 37 -3q7 -2 7 -7z" />
    <glyph glyph-name="v" unicode="v" horiz-adv-x="591" 
d="M579 483q0 -5 -7 -7q-6 -1 -14.5 -1.5t-14.5 -0.5l-237 -479q-2 -4 -6 -4q-5 0 -7 4l-237 480q-8 1 -21 2t-17 1q-6 2 -6 7q0 8 5 8t42 -2.5t60 -2.5t57 2.5t39 2.5q6 0 6 -8q0 -5 -7 -7q-4 0 -11.5 -0.5t-13.5 -1t-12 -1.5l174 -355q95 208 95 291q0 34 -12 49.5
t-41 15.5q-8 0 -8 7q0 8 5 8q6 0 37 -2.5t55 -2.5t55 2.5t36 2.5q6 0 6 -8z" />
    <glyph glyph-name="w" unicode="w" horiz-adv-x="735" 
d="M723 484q0 -5 -7 -7q-6 -1 -14.5 -1.5t-14.5 -0.5l-188 -479q-1 -4 -7 -4q-5 0 -6 4l-114 292l-115 -292q-1 -4 -7 -4q-5 0 -6 4l-188 479q-8 1 -21 2t-17 1q-6 2 -6 7q0 8 5 8t42 -2.5t60 -2.5t57 2.5t39 2.5q6 0 6 -8q0 -5 -7 -7q-6 -1 -22 -2t-22 -1l128 -334l116 295
q1 4 7 4q5 0 6 -4l114 -294q63 166 63 244q0 43 -18.5 67t-48.5 24q-8 0 -8 7q0 8 5 8q6 0 37 -2.5t55 -2.5t55 2.5t36 2.5q6 0 6 -8z" />
    <glyph glyph-name="x" unicode="x" horiz-adv-x="575" 
d="M563 3q0 -8 -6 -8q-5 0 -48 2t-67 2t-55 -2.5t-37 -2.5q-5 0 -5 8q0 5 6 7q37 3 38 3l-137 198q-98 -103 -98 -161q0 -18 16 -28.5t29 -10.5q7 0 7 -7q0 -8 -6 -8t-37 2.5t-54 2.5t-54.5 -2.5t-37.5 -2.5q-5 0 -5 8q0 5 6 7q37 3 38 3q94 125 184 214l-173 248
q-8 1 -21 2t-17 1q-6 2 -6 7q0 8 5 8q6 0 46 -2.5t64 -2.5t59 2t40 2q6 0 6 -8q0 -5 -7 -7q-4 0 -11.5 -0.5t-13.5 -1t-12 -1.5l117 -168q74 87 74 134q0 16 -8.5 24.5t-19 10t-19 3.5t-8.5 7q0 8 5 8q6 0 37 -2.5t55 -2.5t55 2.5t36 2.5q6 0 6 -8q0 -5 -7 -7l-36 -3
q-75 -100 -158 -187l191 -275q13 -1 37 -3q7 -2 7 -7z" />
    <glyph glyph-name="y" unicode="y" horiz-adv-x="598" 
d="M586 486q0 -5 -7 -7q-4 0 -11.5 -0.5t-13.5 -1t-12 -1.5q-123 -436 -328 -635l-47 -39t-37 -26t-46 40t-41 44q0 8 9 8q3 0 9 -2t7 -2q16 -2 25 -2q102 0 205 124l-242 490q-8 1 -21 2t-17 1q-6 2 -6 7q0 8 5 8t42.5 -2.5t61.5 -2.5q23 0 56 2t38 2q6 0 6 -8q0 -5 -7 -7
q-4 0 -11.5 -0.5t-13.5 -1t-12 -1.5l189 -389q86 152 86 282q0 24 -5.5 47t-23 43.5t-45.5 20.5q-6 0 -6 7q0 8 5 8t37 -2.5t55 -2.5t64 2.5t47 2.5t6 -8z" />
    <glyph glyph-name="z" unicode="z" horiz-adv-x="486" 
d="M474 29q0 -18 -96.5 -27t-157.5 -9q-208 0 -208 16q0 3 142.5 208l177.5 255h-55q-55 0 -109.5 -20t-88.5 -57l5 -20q0 -7 -6 -7q-5 0 -6 5q-13 38 -34 74q0 1 -2 3.5t-3.5 5.5t-1.5 4q0 19 81 27t142 8q214 0 214 -16q0 -6 -320 -459q99 1 168.5 25.5t120.5 93.5
q-2 16 -2 23q0 8 7 8q3 0 5 -4t4 -13t3 -16.5t2.5 -22.5t2.5 -23q2 -19 8.5 -37.5t6.5 -24.5z" />
    <glyph glyph-name="braceleft" unicode="{" horiz-adv-x="355" 
d="M267 -226q-72 0 -121 39t-49 109l12 167q0 142 -86 142q-5 0 -5 7q0 8 5 8q86 0 86 141l-12 168q0 70 49 109t121 39q16 0 43 -4.5t27 -12.5q0 -9 -13 -9l-11 1q-36 0 -62 -28t-26 -65l11 -177q0 -141 -83 -170q83 -27 83 -172l-11 -179q0 -36 26 -62t62 -26l12 1
q12 0 12 -9q0 -8 -27 -12.5t-43 -4.5z" />
    <glyph glyph-name="bar" unicode="|" horiz-adv-x="113" 
d="M95 -253h-77v1000h77v-1000z" />
    <glyph glyph-name="braceright" unicode="}" horiz-adv-x="355" 
d="M246 89l12 -167q0 -70 -48.5 -109t-120.5 -39q-17 0 -44 4.5t-27 12.5q0 9 12 9q3 0 7 -0.5t5 -0.5q36 0 62 26t26 62l-10 179q0 145 82 172q-82 28 -82 170l10 177q0 37 -26 65t-62 28h-10q-14 0 -14 8t27 12.5t44 4.5q72 0 120.5 -39t48.5 -109l-12 -168
q0 -141 86 -141q5 0 5 -7q0 -8 -5 -8q-86 0 -86 -142z" />
    <glyph glyph-name="asciitilde" unicode="~" horiz-adv-x="488" 
d="M470 445v-6q0 -54 -38 -91t-93 -37q-29 0 -57 13l-109 51q-12 5 -22 5q-55 0 -55 -65h-78q0 60 35.5 101t95.5 41q31 0 56 -12l110 -51q12 -5 24 -5q23 0 38.5 16.5t15.5 39.5h77z" />
    <glyph glyph-name="nbspace" unicode="&#xa0;" horiz-adv-x="175" 
 />
    <glyph glyph-name="exclamdown" unicode="&#xa1;" horiz-adv-x="250" 
d="M192 490q0 -28 -19.5 -48t-47.5 -20t-47.5 20t-19.5 48t19.5 47.5t47.5 19.5t47.5 -19.5t19.5 -47.5zM227 -155q-17 0 -51 2.5t-51 2.5q-58 0 -99 -5q-8 0 -8 8q0 7 51 10q-5 57 -5 102q0 66 7.5 133.5t24.5 166t22 131.5h14l17.5 -102.5t19 -116.5t11.5 -99t6 -113
q0 -45 -5 -102q51 -3 51 -10q0 -8 -5 -8z" />
    <glyph glyph-name="cent" unicode="&#xa2;" horiz-adv-x="446" 
d="M396 278l32 -58q-74 -50 -166 -50q-13 0 -19 1v-164q0 -7 -7 -7t-7 7v165q-91 12 -151 64.5t-60 140.5q0 84 63 142t148 61v115q0 7 7 7t7 -7v-115q35 -1 68.5 -8.5t63.5 -30.5t30 -58q0 -21 -17 -34.5t-38 -13.5q-34 0 -66 38q35 20 35 42q0 25 -24 37t-52 12v-373
q15 -3 30 -3q43 0 75 24.5t48 65.5zM229 195v367q-51 -11 -75.5 -63.5t-24.5 -111.5q0 -64 23.5 -118.5t76.5 -73.5z" />
    <glyph glyph-name="sterling" unicode="&#xa3;" horiz-adv-x="608" 
d="M590 170q0 -16 -14 -58q-41 -121 -164 -122h-9q-78 0 -178 42q-53 -32 -111 -32q-36 0 -66 16.5t-30 49.5q0 34 36.5 53t75.5 19q32 0 119 -23q1 6 1 18q0 23 -11.5 51t-19 40.5t-34 47.5t-27.5 37h-107q-7 0 -7 7t7 7h96q-68 96 -68 181q0 67 41.5 113.5t99 65.5
t122.5 19q119 0 175 -65q1 1 4.5 8t7.5 12t6 5q3 0 6 -2.5t3 -5.5q0 -2 -2 -4q-42 -61 -51 -125q-1 -6 -6 -6q-8 0 -8 6q0 5 2.5 14t2.5 14q0 53 -47 92t-100 39q-56 0 -91.5 -43t-35.5 -100q0 -37 12 -70.5t42.5 -85t36.5 -62.5h118q7 0 7 -7t-7 -7h-111q22 -52 22 -99
q0 -59 -32 -108q78 -22 141 -22q57 0 92 20.5t46 71.5q0 6 5 6q10 0 10 -8zM202 42q-3 2 -17 8.5t-20 9l-17.5 7t-21 6t-19.5 1.5q-48 0 -48 -25q0 -38 57 -38q40 0 86 31z" />
    <glyph glyph-name="currency" unicode="&#xa4;" horiz-adv-x="540" 
d="M522 566q0 -7 -7 -7t-7 7v32q-53 89 -124 89q-44 0 -77 -33t-50.5 -84.5t-26 -97t-10.5 -86.5h191q7 0 7 -7q0 -8 -7 -8h-191q-1 -7 -1 -20t1 -20h180q7 0 7 -7q0 -8 -7 -8h-180q2 -49 11 -96.5t26 -94.5t49 -76t75 -29q55 0 89 46.5t34 103.5q0 7 7 7t7 -7v-150
q0 -8 -7 -8t-7 9v6q-56 -27 -119 -27q-126 0 -211.5 94t-97.5 222h-51q-7 0 -7 8q0 7 7 7h50q-1 7 -1 20t1 20h-50q-7 0 -7 8q0 7 7 7h51q12 134 100 225.5t220 91.5q55 0 112 -19v6q0 8 7 8t7 -7v-125z" />
    <glyph glyph-name="yen" unicode="&#xa5;" horiz-adv-x="712" 
d="M694 699q0 -6 -43 -9q-70 -164 -163 -304h134q8 0 8 -7q0 -8 -8 -8h-144q-25 -36 -28 -40h172q8 0 8 -7q0 -8 -8 -8h-178v-303h20.5t29.5 -2t10 -7q0 -9 -8 -9q-95 5 -114 5q-16 0 -118 -5q-5 0 -5 9q0 5 10 7t29.5 2h20.5v266l-23 37h-206q-7 0 -7 8q0 7 7 7h197l-26 40
h-171q-7 0 -7 8q0 7 7 7h162l-188 304q-46 3 -46 9q0 8 5 8q21 0 63 -2.5t62 -2.5q72 0 122 5q8 0 8 -6q0 -11 -42 -11h-7l209 -342q29 46 52.5 126.5t23.5 133.5q0 80 -61 85q-7 1 -7 8q0 6 5 6q19 0 59 -2.5t60 -2.5q68 0 116 5q8 0 8 -8z" />
    <glyph glyph-name="brokenbar" unicode="&#xa6;" horiz-adv-x="113" 
d="M95 263h-77v484h77v-484zM95 -253h-77v484h77v-484z" />
    <glyph glyph-name="section" unicode="&#xa7;" horiz-adv-x="507" 
d="M388 233q98 -44 98 -118q0 -61 -44 -105t-102 -62t-117 -18q-87 0 -158 40q-6 3 -11 3q-8 0 -17 -7.5t-10 -7.5q-3 0 -6 3t-3 5q0 1 4 5q11 10 16.5 45.5t8.5 65t9 29.5t6 -20q26 -57 81.5 -95.5t116.5 -38.5q49 0 87.5 24.5t38.5 70.5q0 19 -11 35t-22.5 24.5
t-36.5 17.5t-35.5 11.5t-36.5 7.5q-6 1 -9 2q-192 41 -192 134q0 54 44.5 91t104.5 52q-147 41 -147 122q0 40 24 71.5t62 48.5t77 25.5t75 8.5q50 0 101 -14q9 18 12 18q9 0 9 -7q0 -3 -1 -4q-6 -10 -16.5 -36.5l-19 -46.5t-10.5 -20q-8 0 -8 6q0 3 2 9.5t2 7.5
q-26 62 -107 62q-38 0 -69 -17t-31 -52q0 -40 68 -59l42.5 -10.5t51 -13t50.5 -15.5t50.5 -21.5t40 -27.5t29.5 -37t10 -46q0 -47 -28 -85t-73 -61zM388 317q0 45 -51.5 70t-93.5 25q-39 0 -68.5 -17t-29.5 -53q0 -22 23.5 -38t51.5 -23.5t70 -17t60 -15.5q38 25 38 69z" />
    <glyph glyph-name="dieresis" unicode="&#xa8;" horiz-adv-x="210" 
d="M194 545q0 -16 -11.5 -27.5t-27.5 -11.5t-27.5 11.5t-11.5 27.5t11.5 27.5t27.5 11.5t27.5 -11.5t11.5 -27.5zM94 545q0 -16 -11.5 -27.5t-27.5 -11.5t-27.5 11.5t-11.5 27.5t11.5 27.5t27.5 11.5t27.5 -11.5t11.5 -27.5z" />
    <glyph glyph-name="copyright" unicode="&#xa9;" horiz-adv-x="739" 
d="M721 351q0 -145 -103.5 -248t-248.5 -103t-248 103t-103 248t103 248t248 103t248.5 -103t103.5 -248zM706 351q0 139 -99 238t-238 99t-237.5 -99t-98.5 -238t98.5 -237.5t237.5 -98.5t238 98.5t99 237.5zM563 113q0 -7 -9 -7q-3 0 -5 3.5t-5 9.5l-2 6q-60 -28 -146 -28
q-108 0 -188 73.5t-80 180.5q0 108 79.5 181t188.5 73q63 0 122 -28q3 12 7 12q10 0 10 -6q0 -5 -26 -100q-1 -6 -7 -6q-8 0 -8 6q0 2 1.5 8t1.5 9q0 33 -35 60t-70 27q-51 0 -86.5 -41.5t-49.5 -92t-14 -99.5q0 -50 14 -102.5t51 -96t89 -43.5q69 0 117 80q-5 10 -5 13
q0 6 9 6q-1 0 10.5 -21t23.5 -45.5t12 -31.5z" />
    <glyph glyph-name="ordfeminine" unicode="&#xaa;" horiz-adv-x="407" 
d="M382 323q-108 0 -108 11v29q-55 -41 -119 -41q-55 0 -96 30t-41 82q0 38 24.5 69.5t66 51.5t77 32t75.5 20q-30 69 -86 69q-39 0 -77 -40q2 -10 2 -18q0 -5 -8 -5q-3 0 -8 14.5l-11.5 34t-10.5 27.5q-2 2 -2 5q0 6 9 6q2 0 11 -14q35 12 73 12q72 0 122.5 -40.5t72 -99.5
t21.5 -130q0 -43 -8 -89h9q19 0 19 -7q0 -9 -7 -9zM274 381v159q0 26 -8 53q-149 -30 -149 -138q0 -40 26 -69t66 -29q36 0 65 24zM18 281v19h372v-19h-372z" />
    <glyph glyph-name="guillemotleft" unicode="&#xab;" horiz-adv-x="308" 
d="M290 223l-24 -26l-138 154l138 155l24 -27l-81 -128zM180 223l-24 -26l-138 154l138 155l24 -27l-81 -128z" />
    <glyph glyph-name="logicalnot" unicode="&#xac;" horiz-adv-x="499" 
d="M481 175h-78v133h-385v77h463v-210z" />
    <glyph glyph-name="registered" unicode="&#xae;" horiz-adv-x="408" 
d="M390 516q0 -76 -55 -131t-131 -55q-77 0 -131.5 54.5t-54.5 131.5q0 76 55 131t131 55t131 -55t55 -131zM376 516q0 70 -51 121t-121 51t-121 -51t-51 -121q0 -71 50.5 -121.5t121.5 -50.5q70 0 121 51t51 121zM280 399q-27 0 -53.5 18.5t-44.5 44.5v-47h8q17 0 17 -9
q0 -7 -8 -7q-6 0 -20 1t-21 1q-9 0 -25.5 -1t-25.5 -1q-8 0 -8 9q0 7 19 7h5v204h-5q-19 0 -19 7q0 8 5 8q8 0 24.5 -0.5t24.5 -0.5h47q43 0 82 -21.5t39 -61.5q0 -31 -27 -52t-61 -27q2 -1 28.5 -22t41.5 -21q7 0 15 4l8 4q7 0 7 -8q0 -11 -19.5 -20t-33.5 -9zM251 550
q0 28 -20 46t-49 19v-130q29 1 49 18.5t20 46.5z" />
    <glyph glyph-name="macron" unicode="&#xaf;" horiz-adv-x="222" 
d="M204 510h-186v47h186v-47z" />
    <glyph glyph-name="degree" unicode="&#xb0;" horiz-adv-x="252" 
d="M234 618q0 -45 -32 -77t-76 -32q-45 0 -76.5 32t-31.5 77q0 44 31.5 76t76.5 32q44 0 76 -32t32 -76zM188 618q0 26 -18 44t-44 18t-44 -18t-18 -44t18 -44t44 -18t44 18t18 44z" />
    <glyph glyph-name="plusminus" unicode="&#xb1;" horiz-adv-x="492" 
d="M474 308h-189v-190h-78v190h-189v77h189v189h78v-189h189v-77zM474 0h-456v78h456v-78z" />
    <glyph glyph-name="twosuperior" unicode="&#xb2;" horiz-adv-x="362" 
d="M157 354q-58 0 -105 23q-5 3 -10 3q-2 0 -3 -4q0 -2 0.5 -5t0.5 -4q0 -8 -8 -8q-14 0 -14 47q0 27 9.5 50t22.5 38.5t36 31t40 24l44 21.5q9 4 13 6q51 23 51 72q0 34 -26 56.5t-60 22.5q-25 0 -46 -12.5t-31 -33.5q-2 -3 -3 -8.5t-2 -10t-3 -7.5t-6 -3q-6 0 -8 7
t-3.5 20t-4.5 20q-2 5 -6.5 12.5t-8.5 12.5l-4 5q0 3 4 7t6 4q5 0 13 -12q57 18 117 18q57 0 107.5 -28.5t50.5 -81.5q0 -51 -43.5 -75.5t-102.5 -30.5q-48 -4 -87.5 -30t-46.5 -69q29 25 88 25q25 0 73 -12t73 -12q14 0 28 5t22 10l9 5q11 0 11 -9v-1q-1 -1 -1 -2
q-18 -47 -72 -67t-114 -20z" />
    <glyph glyph-name="threesuperior" unicode="&#xb3;" horiz-adv-x="379" 
d="M361 473q0 -54 -52.5 -86t-110.5 -32q-97 0 -156 56q-9 -9 -13 -9q-3 0 -7 5t-4 7t6 5q11 7 24 23.5l22.5 29.5t13.5 13q10 0 10 -9q0 -5 -7 -12q6 -38 33.5 -64t64.5 -26q35 0 58.5 29t23.5 65q0 35 -21 62t-55 27q-39 0 -51 -31q-5 -5 -7 -5q-9 0 -9 7q0 8 4.5 24.5
t4.5 25.5q0 7 -2 18.5t-2 13.5q0 6 7 6q6 0 9 -4.5t5 -10t10.5 -10t24.5 -4.5q29 0 49 20t20 49q0 31 -24.5 53.5t-55.5 22.5q-55 0 -73 -46q0 -2 1 -6t1 -6q0 -9 -10 -9q-8 0 -8 9q0 13 -5.5 28.5t-11.5 25.5t-6 11q0 3 4 6t7 3t7 -7.5t9 -7.5q4 0 25 6t26 7q21 4 49 4
q31 0 63.5 -9.5t58.5 -32.5t26 -55q0 -50 -64 -76q37 -14 62.5 -41t25.5 -63z" />
    <glyph glyph-name="acute" unicode="&#xb4;" horiz-adv-x="213" 
d="M195 672q0 -13 -17 -30l-136 -135h-24l107 177q15 24 34 24q15 0 25.5 -10.5t10.5 -25.5z" />
    <glyph glyph-name="mu" unicode="&#xb5;" horiz-adv-x="569" 
d="M545 0q-15 0 -42.5 2t-41.5 2h-46q-8 0 -8 15q0 3 0.5 6.5t0.5 4.5q-55 -30 -114 -30q-73 0 -130 39v-130q1 0 11 -0.5t16.5 -2t6.5 -5.5q0 -9 -7 -9q-14 0 -41.5 2t-41.5 2t-41.5 -2t-40.5 -2q-8 0 -8 9q0 8 32 8h4v569h-11q-11 1 -18 3t-7 6q0 8 5 8q14 0 42.5 -2
t42.5 -2q56 0 83 4q7 0 7 -8q0 -6 -6 -6l-28 -3v-227q0 -54 14 -103t51.5 -87t92.5 -38q46 0 86 28v427q-37 3 -37 9q0 8 5 8q14 0 42.5 -2t42.5 -2q55 0 82 4q8 0 8 -8q0 -6 -37 -9v-461q37 -3 37 -8q0 -9 -6 -9z" />
    <glyph glyph-name="mu" unicode="&#x3bc;" horiz-adv-x="569" 
d="M545 0q-15 0 -42.5 2t-41.5 2h-46q-8 0 -8 15q0 3 0.5 6.5t0.5 4.5q-55 -30 -114 -30q-73 0 -130 39v-130q1 0 11 -0.5t16.5 -2t6.5 -5.5q0 -9 -7 -9q-14 0 -41.5 2t-41.5 2t-41.5 -2t-40.5 -2q-8 0 -8 9q0 8 32 8h4v569h-11q-11 1 -18 3t-7 6q0 8 5 8q14 0 42.5 -2
t42.5 -2q56 0 83 4q7 0 7 -8q0 -6 -6 -6l-28 -3v-227q0 -54 14 -103t51.5 -87t92.5 -38q46 0 86 28v427q-37 3 -37 9q0 8 5 8q14 0 42.5 -2t42.5 -2q55 0 82 4q8 0 8 -8q0 -6 -37 -9v-461q37 -3 37 -8q0 -9 -6 -9z" />
    <glyph glyph-name="paragraph" unicode="&#xb6;" horiz-adv-x="701" 
d="M683 -172q0 -22 -16 -37.5t-38 -15.5q-7 0 -7 7t7 7q16 0 27.5 11.5t11.5 27.5q0 51 -127 91l-96.5 33t-98.5 38.5t-101 48.5t-86.5 59t-75 73.5t-46.5 88t-19 106.5q0 77 32.5 137t83 96.5t119 60.5t135 33t135.5 9q33 0 63 10h2l2 1q6 0 6 -10q0 -7 -27.5 -11t-43.5 -4
v-749l9 -3q29 -9 47 -16.5t45.5 -21t42 -31.5t14.5 -39zM510 -52v737q-42 -5 -74 -22.5t-51 -46t-32 -59t-18.5 -72t-7.5 -73t-2 -72.5q0 -60 7.5 -115t25.5 -114t57 -102.5t95 -60.5z" />
    <glyph glyph-name="periodcentered" unicode="&#xb7;" horiz-adv-x="170" 
d="M152 351q0 -28 -19.5 -47.5t-47.5 -19.5t-47.5 19.5t-19.5 47.5t19.5 47.5t47.5 19.5t47.5 -19.5t19.5 -47.5z" />
    <glyph glyph-name="cedilla" unicode="&#xb8;" horiz-adv-x="196" 
d="M178 -103q0 -42 -30.5 -69.5t-73.5 -27.5q-15 0 -35.5 6t-20.5 15q0 2 3 5.5t5 3.5t5 -3q15 -12 43 -12q23 0 42 14.5t19 37.5t-16 35.5t-31.5 14.5t-39.5 2h-8q73 109 79 109q2 0 5.5 -2.5t3.5 -4.5q0 -4 -27 -40q34 -5 55.5 -27.5t21.5 -56.5z" />
    <glyph glyph-name="onesuperior" unicode="&#xb9;" horiz-adv-x="163" 
d="M145 351q0 -8 -10 -8q-7 0 -22 1t-22 1h-24q-7 0 -20.5 -1t-20.5 -1q-8 0 -8 8q0 10 17 10h8v364q-2 0 -10 0.5t-11.5 2.5t-3.5 9q0 6 6 6q10 0 29 -1.5t28 -1.5t27 1.5t27 1.5q10 0 10 -7q0 -10 -17 -10h-7v-365q24 0 24 -10z" />
    <glyph glyph-name="ordmasculine" unicode="&#xba;" horiz-adv-x="406" 
d="M388 515q0 -77 -54 -132.5t-131 -55.5t-131 55.5t-54 132.5t54 132t131 55t131 -55t54 -132zM292 515q0 25 -3.5 51.5t-12.5 55.5t-28 47.5t-45 18.5t-45 -18.5t-28 -47.5t-12.5 -55.5t-3.5 -51.5t3.5 -51.5t12.5 -56t28 -48t45 -18.5t45 18.5t28 48t12.5 56t3.5 51.5z
M18 281v19h372v-19h-372z" />
    <glyph glyph-name="guillemotright" unicode="&#xbb;" horiz-adv-x="308" 
d="M290 351l-138 -154l-24 26l81 128l-81 128l24 27zM180 351l-138 -154l-24 26l81 128l-81 128l24 27z" />
    <glyph glyph-name="onequarter" unicode="&#xbc;" horiz-adv-x="575" 
d="M90 -1q-10 0 -10 6q0 8 314 693q2 5 6 5q9 0 9 -7q0 -2 -73 -162l-154 -338t-87 -192q-3 -5 -5 -5zM557 107q0 -13 -11 -13q-4 0 -9 12.5t-14 12.5t-30 -5.5t-29 -6.5v-90h5q25 0 25 -11q0 -8 -7 -8q-10 0 -32 1t-33 1q-42 0 -63 -2q-9 0 -9 12q0 7 26 7v87q-22 0 -70 4
t-72 4q-8 0 -24 -4t-19 -4q-4 0 -7 3.5t-3 7.5q0 14 15 43t27 45q30 41 122 126q71 67 101 124q3 5 8 5q10 0 10 -9v-308q56 20 57 64q0 9 9 9t9 -9q0 -58 18 -98zM160 254q0 -8 -9 -8t-27 1t-27 1h-22q-8 0 -24 -1t-24 -1q-9 0 -9 8q0 10 20 10h8v419h-8t-9.5 0.5t-7 3
t-3.5 7.5q0 8 9 8t29 -1.5t29 -1.5h18q8 0 24.5 1.5t24.5 1.5t8 -8q0 -3 -1.5 -5.5t-5 -3.5t-6.5 -1t-7 -0.5t-6 -0.5v-419h8q18 0 18 -10zM376 126v209q-97 -97 -97 -162q0 -31 12.5 -39t41.5 -8h43z" />
    <glyph glyph-name="onehalf" unicode="&#xbd;" horiz-adv-x="690" 
d="M478 -3q-86 0 -140 26q-8 2 -11 2h-5q0 -3 1 -8t1 -8q0 -6 -11 -6q-14 0 -14 53q0 90 95 148q22 13 94 47q58 28 58 83q0 39 -29.5 65t-68.5 26q-34 0 -60.5 -22.5t-36.5 -56.5q-2 -9 -8 -9q-4 0 -7 9.5t-5 24.5t-5 21q-2 5 -7.5 13.5l-9.5 15t-4 8.5q0 9 9 9q5 0 15 -13
q68 21 132 21q69 0 126 -31.5t57 -94.5q0 -103 -166 -120q-57 -6 -102.5 -36t-52.5 -81q31 30 114 30q26 0 77.5 -13.5t77.5 -13.5q34 0 65 22q1 1 3 1q12 0 12 -10v-1l-1 -2q-18 -49 -75 -74t-118 -25zM82 -1q-10 0 -10 6q0 8 314 693q2 5 6 5q9 0 9 -7q0 -2 -73 -162
l-154 -338t-87 -192q-3 -5 -5 -5zM160 254q0 -8 -9 -8t-27 1t-27 1h-22q-8 0 -24 -1t-24 -1q-9 0 -9 8q0 10 20 10h8v419h-8t-9.5 0.5t-7 3t-3.5 7.5q0 8 9 8t29 -1.5t29 -1.5h18q8 0 24.5 1.5t24.5 1.5t8 -8q0 -3 -1.5 -5.5t-5 -3.5t-6.5 -1t-7 -0.5t-6 -0.5v-419h8
q18 0 18 -10z" />
    <glyph glyph-name="threequarters" unicode="&#xbe;" horiz-adv-x="756" 
d="M280 -1q-10 0 -10 6q0 8 314 693q2 5 6 5q9 0 9 -7q0 -2 -73 -162l-154 -338t-87 -192q-3 -5 -5 -5zM738 107q0 -13 -11 -13q-3 0 -8 12.5t-15 12.5q-9 0 -30 -5.5t-29 -6.5v-90h5q25 0 25 -11q0 -8 -7 -8q-10 0 -32 1t-33 1q-42 0 -63 -2q-9 0 -9 12q0 7 26 7v87
q-22 0 -70 4t-72 4q-9 0 -25 -4t-18 -4q-4 0 -7 3.5t-3 7.5q0 14 15 43t27 45q30 41 122 126q71 67 101 124q3 5 8 5q10 0 10 -9v-308q56 20 57 64q0 9 9 9t9 -9q0 -58 18 -98zM407 379q0 -62 -60 -98t-126 -36q-113 0 -178 64q-14 -9 -16 -9q-9 0 -9 10q0 4 4 7
q12 9 27.5 28l27 33t13.5 14q11 0 11 -9q0 -6 -8 -14q7 -43 38.5 -73t74.5 -30q41 0 68 33.5t27 74.5t-24.5 71.5t-63.5 30.5q-24 0 -36 -7t-22 -28q-4 -6 -7 -6q-11 0 -11 9q0 3 1 4q9 24 9 51q0 7 -2 20t-2 19t9 6q3 0 9 -8.5t17 -17t28 -8.5q33 0 56 22.5t23 55.5
q0 36 -27.5 62t-64.5 26q-58 0 -84 -53q2 -10 2 -14q0 -9 -10 -9q-4 0 -6.5 7t-4.5 19t-4 17q-1 3 -6 13l-10 20l-4 9q0 3 4.5 6t7.5 3t7.5 -8.5t10.5 -8.5q11 0 31.5 7t26.5 8q19 4 57 4q35 0 72 -10.5t67 -37t30 -62.5q0 -30 -21.5 -53t-52.5 -35q42 -15 71.5 -46.5
t29.5 -72.5zM557 126v209q-97 -97 -97 -162q0 -31 12.5 -39t41.5 -8h43z" />
    <glyph glyph-name="questiondown" unicode="&#xbf;" horiz-adv-x="459" 
d="M325 482q0 -28 -19.5 -48t-47.5 -20t-48 20t-20 48q0 27 20.5 47t47.5 20q28 0 47.5 -19.5t19.5 -47.5zM441 -148q0 -2 -4 -4.5t-6 -2.5t-5.5 6.5t-12 13.5t-22.5 7q-5 0 -15 -2l-34 -8.5t-38 -8.5t-32.5 -5t-38.5 -3q-80 0 -147.5 50.5t-67.5 128.5q0 39 24.5 75
t60 63.5t70.5 52t59.5 51t24.5 50.5q0 25 -27 52l16 17q70 -60 70 -116q0 -30 -19.5 -60.5t-47 -57l-54.5 -53t-46.5 -59t-19.5 -64.5q0 -51 35 -80t87 -29q56 0 95.5 42t39.5 98v8q0 5 7 5t7 -7q3 -40 12 -79q8 -33 28 -77q1 -1 1 -4z" />
    <glyph glyph-name="Agrave" unicode="&#xc0;" 
d="M698 3q0 -8 -6 -8t-60 2.5t-77 2.5t-77 -2.5t-59 -2.5t-5 8q0 5 6 7l38 3q25 25 36 44.5t11 51.5q0 47 -33 108h-18q-37 0 -64 -11t-61 -37q-1 -1 -5 -1t-5 1q-38 31 -68.5 39.5t-86.5 8.5q0 -7 -1 -20t-1 -19q0 -117 73 -166q26 -2 38 -3q7 -2 7 -7q0 -8 -6 -8t-53 2.5
t-71 2.5t-72.5 -2.5t-54.5 -2.5q-5 0 -5 8q0 5 6 7l38 3q0 181 142 433l142 253q2 4 7 4t6 -6q6 -34 17.5 -67.5t22 -58t31 -58.5t32 -51.5l38.5 -56l38 -54.5q41 -60 61.5 -94t38.5 -89t18 -112q0 -8 -1.5 -23.5t-1.5 -18.5q26 -2 38 -3q7 -2 7 -7zM463 232
q-20 33 -65.5 95.5t-75.5 115t-43 106.5q-99 -195 -113 -317h297zM446 721h-24l-138 137q-15 15 -15 28q0 15 10.5 25.5t25.5 10.5q19 0 34 -24z" />
    <glyph glyph-name="Aacute" unicode="&#xc1;" 
d="M698 3q0 -8 -6 -8t-60 2.5t-77 2.5t-77 -2.5t-59 -2.5t-5 8q0 5 6 7l38 3q25 25 36 44.5t11 51.5q0 47 -33 108h-18q-37 0 -64 -11t-61 -37q-1 -1 -5 -1t-5 1q-38 31 -68.5 39.5t-86.5 8.5q0 -7 -1 -20t-1 -19q0 -117 73 -166q26 -2 38 -3q7 -2 7 -7q0 -8 -6 -8t-53 2.5
t-71 2.5t-72.5 -2.5t-54.5 -2.5q-5 0 -5 8q0 5 6 7l38 3q0 181 142 433l142 253q2 4 7 4t6 -6q6 -34 17.5 -67.5t22 -58t31 -58.5t32 -51.5l38.5 -56l38 -54.5q41 -60 61.5 -94t38.5 -89t18 -112q0 -8 -1.5 -23.5t-1.5 -18.5q26 -2 38 -3q7 -2 7 -7zM463 232
q-20 33 -65.5 95.5t-75.5 115t-43 106.5q-99 -195 -113 -317h297zM446 886q0 -13 -17 -30l-136 -135h-24l107 177q15 24 34 24q15 0 25.5 -10.5t10.5 -25.5z" />
    <glyph glyph-name="Acircumflex" unicode="&#xc2;" 
d="M698 3q0 -8 -6 -8t-60 2.5t-77 2.5t-77 -2.5t-59 -2.5t-5 8q0 5 6 7l38 3q25 25 36 44.5t11 51.5q0 47 -33 108h-18q-37 0 -64 -11t-61 -37q-1 -1 -5 -1t-5 1q-38 31 -68.5 39.5t-86.5 8.5q0 -7 -1 -20t-1 -19q0 -117 73 -166q26 -2 38 -3q7 -2 7 -7q0 -8 -6 -8t-53 2.5
t-71 2.5t-72.5 -2.5t-54.5 -2.5q-5 0 -5 8q0 5 6 7l38 3q0 181 142 433l142 253q2 4 7 4t6 -6q6 -34 17.5 -67.5t22 -58t31 -58.5t32 -51.5l38.5 -56l38 -54.5q41 -60 61.5 -94t38.5 -89t18 -112q0 -8 -1.5 -23.5t-1.5 -18.5q26 -2 38 -3q7 -2 7 -7zM463 232
q-20 33 -65.5 95.5t-75.5 115t-43 106.5q-99 -195 -113 -317h297zM489 723h-77l-81 74l-82 -74h-22l126 114h10z" />
    <glyph glyph-name="Atilde" unicode="&#xc3;" 
d="M698 3q0 -8 -6 -8t-60 2.5t-77 2.5t-77 -2.5t-59 -2.5t-5 8q0 5 6 7l38 3q25 25 36 44.5t11 51.5q0 47 -33 108h-18q-37 0 -64 -11t-61 -37q-1 -1 -5 -1t-5 1q-38 31 -68.5 39.5t-86.5 8.5q0 -7 -1 -20t-1 -19q0 -117 73 -166q26 -2 38 -3q7 -2 7 -7q0 -8 -6 -8t-53 2.5
t-71 2.5t-72.5 -2.5t-54.5 -2.5q-5 0 -5 8q0 5 6 7l38 3q0 181 142 433l142 253q2 4 7 4t6 -6q6 -34 17.5 -67.5t22 -58t31 -58.5t32 -51.5l38.5 -56l38 -54.5q41 -60 61.5 -94t38.5 -89t18 -112q0 -8 -1.5 -23.5t-1.5 -18.5q26 -2 38 -3q7 -2 7 -7zM463 232
q-20 33 -65.5 95.5t-75.5 115t-43 106.5q-99 -195 -113 -317h297zM495 795q0 -31 -22.5 -53.5t-53.5 -22.5q-13 0 -20 2l-159 41q-5 -15 -5 -27q0 -3 1 -9.5t1 -9.5q0 -6 -9 -6q-8 0 -8 25q0 31 23 53.5t54 22.5q12 0 18 -2l159 -41q6 12 6 27q0 3 -1 9.5t-1 9.5q0 6 9 6
q8 0 8 -25z" />
    <glyph glyph-name="Adieresis" unicode="&#xc4;" 
d="M698 3q0 -8 -6 -8t-60 2.5t-77 2.5t-77 -2.5t-59 -2.5t-5 8q0 5 6 7l38 3q25 25 36 44.5t11 51.5q0 47 -33 108h-18q-37 0 -64 -11t-61 -37q-1 -1 -5 -1t-5 1q-38 31 -68.5 39.5t-86.5 8.5q0 -7 -1 -20t-1 -19q0 -117 73 -166q26 -2 38 -3q7 -2 7 -7q0 -8 -6 -8t-53 2.5
t-71 2.5t-72.5 -2.5t-54.5 -2.5q-5 0 -5 8q0 5 6 7l38 3q0 181 142 433l142 253q2 4 7 4t6 -6q6 -34 17.5 -67.5t22 -58t31 -58.5t32 -51.5l38.5 -56l38 -54.5q41 -60 61.5 -94t38.5 -89t18 -112q0 -8 -1.5 -23.5t-1.5 -18.5q26 -2 38 -3q7 -2 7 -7zM463 232
q-20 33 -65.5 95.5t-75.5 115t-43 106.5q-99 -195 -113 -317h297zM447 759q0 -16 -11.5 -27.5t-27.5 -11.5t-27.5 11.5t-11.5 27.5t11.5 27.5t27.5 11.5t27.5 -11.5t11.5 -27.5zM347 759q0 -16 -11.5 -27.5t-27.5 -11.5t-27.5 11.5t-11.5 27.5t11.5 27.5t27.5 11.5
t27.5 -11.5t11.5 -27.5z" />
    <glyph glyph-name="Aring" unicode="&#xc5;" 
d="M438 767q0 -32 -22.5 -56t-54.5 -27q8 -39 20 -72.5t34.5 -73.5t33.5 -58t46 -68l43 -62q41 -60 61.5 -94t38.5 -89t18 -112q0 -8 -1.5 -23.5t-1.5 -18.5l38 -3q7 -2 7 -7q0 -8 -6 -8t-60 2.5t-77 2.5t-77 -2.5t-59 -2.5t-5 8q0 5 6 7l38 3q25 25 36 44.5t11 51.5
q0 47 -33 108h-18q-37 0 -64 -11t-61 -37q-1 -1 -5 -1t-5 1q-38 31 -68.5 39.5t-86.5 8.5q0 -7 -1 -20t-1 -19q0 -117 73 -166l38 -3q7 -2 7 -7q0 -8 -6 -8t-53 2.5t-71 2.5t-72.5 -2.5t-54.5 -2.5q-5 0 -5 8q0 5 6 7l38 3q0 181 142 433l135 240q-29 5 -48.5 28t-19.5 54
q0 35 24.5 59.5t58.5 24.5t59 -24.5t25 -59.5zM463 232q-20 33 -65.5 95.5t-75.5 115t-43 106.5q-99 -195 -113 -317h297zM409 767q0 22 -16 38t-39 16q-22 0 -38 -15.5t-16 -38.5t16 -38.5t38 -15.5t38.5 16t16.5 38z" />
    <glyph glyph-name="AE" unicode="&#xc6;" horiz-adv-x="1034" 
d="M1016 9q0 -9 -8 -9h-603q-8 0 -8 7q0 8 8 8h52v347q-51 -1 -101 -48q-4 -2 -6 -2q-1 0 -15 12.5t-40 25t-56 12.5q-61 -130 -61 -223q0 -99 54 -121q7 -3 30 -8q7 -1 7 -9q0 -6 -8 -6q-16 0 -56 2.5t-62 2.5q-21 0 -61.5 -2.5t-57.5 -2.5q-6 0 -6 8q0 3 3.5 5t9 3
t10.5 1.5t10.5 0.5h7.5q9 64 32 130t47.5 115.5t68 116t72 104l83 108l77.5 101.5h-63q-7 0 -7 7t7 7h601q7 0 7 -8l-5 -15q-10 -31 -18 -105q0 -6 -5 -6q-10 0 -10 6q0 3 0.5 9.5t0.5 9.5q-62 49 -150 72t-178 23h-37v-309q71 0 109.5 2t95.5 15.5t101 40.5q4 18 8 18
q9 0 9 -6q0 -1 -1 -3q-7 -42 -7 -74q0 -12 3.5 -38t3.5 -40q0 -5 -8 -5q-5 0 -8 17q-45 27 -101.5 40.5t-94.5 15.5t-110 2v-349h27q104 0 203 27.5t165 86.5q-2 18 -2 26q0 6 9 6q6 0 6 -6l2 -30q4 -49 18 -97q6 -18 6 -19zM457 377v311l-44 -58l-48.5 -64.5l-40.5 -57
t-43.5 -67.5t-34.5 -64h211z" />
    <glyph glyph-name="Ccedilla" unicode="&#xc7;" horiz-adv-x="637" 
d="M412 -117q0 -42 -30.5 -69.5t-73.5 -27.5q-15 0 -35.5 6t-20.5 15q0 2 3 5.5t5 3.5t5 -3q15 -12 43 -12q23 0 42 14.5t19 37.5t-16 35.5t-31.5 14.5t-39.5 2h-8q26 44 68 98q-135 16 -229.5 114t-94.5 234q0 148 111 249.5t260 101.5q93 0 173 -40q3 18 10 18q8 0 8 -6
q0 -13 -36 -139q-2 -6 -6 -6q-9 0 -9 6q0 4 2.5 10.5t2.5 9.5q0 15 -8 33q-16 40 -57 67.5t-85 27.5q-55 0 -98 -33.5t-66.5 -86t-35.5 -107t-12 -105.5t12.5 -106.5t37 -108.5t68.5 -87t99 -34q99 0 166 114q0 1 -3.5 8t-3.5 9q0 8 9 8q3 0 6 -5q56 -121 56 -130
q0 -6 -9 -6q-4 0 -15 27q-85 -40 -206 -40q-21 0 -31 1q-3 -4 -8 -12t-10 -15l-5 -7q34 -5 55.5 -27.5t21.5 -56.5z" />
    <glyph glyph-name="Egrave" unicode="&#xc8;" horiz-adv-x="639" 
d="M621 9q0 -9 -7 -9h-489q-18 0 -52 -2.5t-49 -2.5q-6 0 -6 7t7 8t22 2t16 1v677q-19 0 -38 3q-7 1 -7 8q0 6 8 6q41 -5 99 -5h458q7 0 7 -8q0 -5 -1 -12.5t-3 -16.5t-3 -13q-4 -25 -13 -88q-2 -6 -6 -6q-8 0 -8 5q0 2 3 26q-74 61 -161.5 80t-209.5 19v-309h11
q66 0 105 2.5t91.5 16t97.5 39.5q4 18 9 18q8 0 8 -6q0 -7 -3.5 -35t-3.5 -42t3.5 -42.5t3.5 -35.5q0 -5 -7 -5t-10 17q-64 38 -129 48t-165 10h-11v-349h28q82 0 211.5 41t157.5 74q-4 18 -4 29q0 6 6 6q7 0 8 -7q10 -68 17 -101q0 -2 4.5 -22t4.5 -26zM408 721h-24
l-138 137q-15 15 -15 28q0 15 10.5 25.5t25.5 10.5q19 0 34 -24z" />
    <glyph glyph-name="Eacute" unicode="&#xc9;" horiz-adv-x="639" 
d="M621 9q0 -9 -7 -9h-489q-18 0 -52 -2.5t-49 -2.5q-6 0 -6 7t7 8t22 2t16 1v677q-19 0 -38 3q-7 1 -7 8q0 6 8 6q41 -5 99 -5h458q7 0 7 -8q0 -5 -1 -12.5t-3 -16.5t-3 -13q-4 -25 -13 -88q-2 -6 -6 -6q-8 0 -8 5q0 2 3 26q-74 61 -161.5 80t-209.5 19v-309h11
q66 0 105 2.5t91.5 16t97.5 39.5q4 18 9 18q8 0 8 -6q0 -7 -3.5 -35t-3.5 -42t3.5 -42.5t3.5 -35.5q0 -5 -7 -5t-10 17q-64 38 -129 48t-165 10h-11v-349h28q82 0 211.5 41t157.5 74q-4 18 -4 29q0 6 6 6q7 0 8 -7q10 -68 17 -101q0 -2 4.5 -22t4.5 -26zM408 886
q0 -13 -17 -30l-136 -135h-24l107 177q15 24 34 24q15 0 25.5 -10.5t10.5 -25.5z" />
    <glyph glyph-name="Ecircumflex" unicode="&#xca;" horiz-adv-x="639" 
d="M621 9q0 -9 -7 -9h-489q-18 0 -52 -2.5t-49 -2.5q-6 0 -6 7t7 8t22 2t16 1v677q-19 0 -38 3q-7 1 -7 8q0 6 8 6q41 -5 99 -5h458q7 0 7 -8q0 -5 -1 -12.5t-3 -16.5t-3 -13q-4 -25 -13 -88q-2 -6 -6 -6q-8 0 -8 5q0 2 3 26q-74 61 -161.5 80t-209.5 19v-309h11
q66 0 105 2.5t91.5 16t97.5 39.5q4 18 9 18q8 0 8 -6q0 -7 -3.5 -35t-3.5 -42t3.5 -42.5t3.5 -35.5q0 -5 -7 -5t-10 17q-64 38 -129 48t-165 10h-11v-349h28q82 0 211.5 41t157.5 74q-4 18 -4 29q0 6 6 6q7 0 8 -7q10 -68 17 -101q0 -2 4.5 -22t4.5 -26zM450 723h-77l-81 74
l-82 -74h-22l126 114h10z" />
    <glyph glyph-name="Edieresis" unicode="&#xcb;" horiz-adv-x="639" 
d="M621 9q0 -9 -7 -9h-489q-18 0 -52 -2.5t-49 -2.5q-6 0 -6 7t7 8t22 2t16 1v677q-19 0 -38 3q-7 1 -7 8q0 6 8 6q41 -5 99 -5h458q7 0 7 -8q0 -5 -1 -12.5t-3 -16.5t-3 -13q-4 -25 -13 -88q-2 -6 -6 -6q-8 0 -8 5q0 2 3 26q-74 61 -161.5 80t-209.5 19v-309h11
q66 0 105 2.5t91.5 16t97.5 39.5q4 18 9 18q8 0 8 -6q0 -7 -3.5 -35t-3.5 -42t3.5 -42.5t3.5 -35.5q0 -5 -7 -5t-10 17q-64 38 -129 48t-165 10h-11v-349h28q82 0 211.5 41t157.5 74q-4 18 -4 29q0 6 6 6q7 0 8 -7q10 -68 17 -101q0 -2 4.5 -22t4.5 -26zM408 759
q0 -16 -11.5 -27.5t-27.5 -11.5t-27.5 11.5t-11.5 27.5t11.5 27.5t27.5 11.5t27.5 -11.5t11.5 -27.5zM308 759q0 -16 -11.5 -27.5t-27.5 -11.5t-27.5 11.5t-11.5 27.5t11.5 27.5t27.5 11.5t27.5 -11.5t11.5 -27.5z" />
    <glyph glyph-name="Igrave" unicode="&#xcc;" horiz-adv-x="250" 
d="M232 3q0 -8 -6 -8t-42 2.5t-59 2.5t-59.5 -2.5t-42.5 -2.5q-5 0 -5 8q0 5 6 7l38 3v677l-38 3q-6 2 -6 7q0 8 5 8q6 0 42.5 -2.5t59.5 -2.5t59 2.5t42 2.5t6 -8q0 -5 -7 -7q-12 -1 -38 -3v-677q26 -2 38 -3q7 -2 7 -7zM213 721h-24l-138 137q-15 15 -15 28
q0 15 10.5 25.5t25.5 10.5q19 0 34 -24z" />
    <glyph glyph-name="Iacute" unicode="&#xcd;" horiz-adv-x="250" 
d="M232 3q0 -8 -6 -8t-42 2.5t-59 2.5t-59.5 -2.5t-42.5 -2.5q-5 0 -5 8q0 5 6 7l38 3v677l-38 3q-6 2 -6 7q0 8 5 8q6 0 42.5 -2.5t59.5 -2.5t59 2.5t42 2.5t6 -8q0 -5 -7 -7q-12 -1 -38 -3v-677q26 -2 38 -3q7 -2 7 -7zM213 886q0 -13 -17 -30l-136 -135h-24l107 177
q15 24 34 24q15 0 25.5 -10.5t10.5 -25.5z" />
    <glyph glyph-name="Icircumflex" unicode="&#xce;" horiz-adv-x="250" 
d="M232 3q0 -8 -6 -8t-42 2.5t-59 2.5t-59.5 -2.5t-42.5 -2.5q-5 0 -5 8q0 5 6 7l38 3v677l-38 3q-6 2 -6 7q0 8 5 8q6 0 42.5 -2.5t59.5 -2.5t59 2.5t42 2.5t6 -8q0 -5 -7 -7q-12 -1 -38 -3v-677q26 -2 38 -3q7 -2 7 -7zM256 723h-77l-81 74l-82 -74h-22l126 114h10z" />
    <glyph glyph-name="Idieresis" unicode="&#xcf;" horiz-adv-x="250" 
d="M232 3q0 -8 -6 -8t-42 2.5t-59 2.5t-59.5 -2.5t-42.5 -2.5q-5 0 -5 8q0 5 6 7l38 3v677l-38 3q-6 2 -6 7q0 8 5 8q6 0 42.5 -2.5t59.5 -2.5t59 2.5t42 2.5t6 -8q0 -5 -7 -7q-12 -1 -38 -3v-677q26 -2 38 -3q7 -2 7 -7zM214 759q0 -16 -11.5 -27.5t-27.5 -11.5t-27.5 11.5
t-11.5 27.5t11.5 27.5t27.5 11.5t27.5 -11.5t11.5 -27.5zM114 759q0 -16 -11.5 -27.5t-27.5 -11.5t-27.5 11.5t-11.5 27.5t11.5 27.5t27.5 11.5t27.5 -11.5t11.5 -27.5z" />
    <glyph glyph-name="Eth" unicode="&#xd0;" horiz-adv-x="664" 
d="M646 351q0 -65 -20 -120t-54.5 -93.5t-83 -67t-103.5 -45t-117 -22.5q-17 -2 -52 -2q-62 0 -76 -1l-68 -3q-5 0 -15.5 -1t-15.5 -1q-8 0 -8 7t7 8q1 0 38 3v331h-52q-8 0 -8 7t8 7h52v332q-18 0 -38 3q-7 0 -7 6q0 8 8 8q41 -5 99 -5h53q53 0 79 -3q161 -18 267.5 -106
t106.5 -242zM507 351q0 81 -24 149.5t-79.5 120t-134.5 63.5q-29 4 -66 4v-330h52q8 0 8 -7t-8 -7h-52v-329h28q65 0 119 29.5t87.5 78t51.5 107.5t18 121z" />
    <glyph glyph-name="Ntilde" unicode="&#xd1;" horiz-adv-x="641" 
d="M623 4q0 -8 -6 -8q-7 0 -32 2t-39 2q-16 0 -41.5 -2t-32.5 -2q-5 0 -5 8q0 5 6 7l38 3q27 3 43 24.5t16 48.5q0 15 -4.5 30.5t-15.5 31l-20 27.5t-28 27.5l-29 24t-33.5 23.5l-30.5 19.5t-31.5 19t-25.5 15.5q-109 67 -179.5 131t-104.5 153q-12 -149 -12 -186
q0 -82 18 -150q44 -161 128 -238l18.5 -3t18.5 -2q7 -2 7 -7q0 -8 -6 -8t-47 2.5t-64 2.5t-55 -2.5t-37 -2.5t-5 8q0 5 6 7q6 0 9 1t10 2q-37 154 -37 330q0 69 19.5 193t22.5 153l-38 3q-6 2 -6 7q0 8 5 8q6 0 42.5 -2t60.5 -2q47 0 70 1q30 3 31 3q7 0 7 -8
q0 -2 -10 -10.5t-20.5 -23.5t-10.5 -32q0 -19 18.5 -42.5t32.5 -35.5t39 -30q21 -16 108.5 -73.5t127.5 -97.5q37 -37 59 -81q-7 123 -43 236.5t-109 180.5q-7 1 -13.5 1.5t-14 1t-11.5 0.5q-6 2 -6 7q0 8 5 8q6 0 47 -2.5t65 -2.5t58 1.5t40 1.5t6 -8q0 -5 -7 -7
q-24 -2 -39 -2q42 -207 42 -401q0 -143 -20 -274q26 -2 38 -3q7 -2 7 -7zM458 801q0 -31 -22.5 -53.5t-53.5 -22.5q-13 0 -20 2l-159 41q-5 -15 -5 -27q0 -3 1 -9.5t1 -9.5q0 -6 -9 -6q-8 0 -8 25q0 31 23 53.5t54 22.5q12 0 18 -2l159 -41q6 12 6 27q0 3 -1 9.5t-1 9.5
q0 6 9 6q8 0 8 -25z" />
    <glyph glyph-name="Ograve" unicode="&#xd2;" horiz-adv-x="707" 
d="M683 351q0 -143 -94 -252t-235 -109t-235.5 108.5t-94.5 252.5t94 253t236 109q141 0 235 -109.5t94 -252.5zM520 351q0 47 -7 99t-23 111.5t-51.5 98t-84.5 38.5t-84.5 -38.5t-52 -98t-23.5 -111.5t-7 -99t7 -99t23.5 -111.5t52 -98t84.5 -38.5t84.5 38.5t51.5 98
t23 111.5t7 99zM442 721h-24l-138 137q-15 15 -15 28q0 15 10.5 25.5t25.5 10.5q19 0 34 -24z" />
    <glyph glyph-name="Oacute" unicode="&#xd3;" horiz-adv-x="707" 
d="M683 351q0 -143 -94 -252t-235 -109t-235.5 108.5t-94.5 252.5t94 253t236 109q141 0 235 -109.5t94 -252.5zM520 351q0 47 -7 99t-23 111.5t-51.5 98t-84.5 38.5t-84.5 -38.5t-52 -98t-23.5 -111.5t-7 -99t7 -99t23.5 -111.5t52 -98t84.5 -38.5t84.5 38.5t51.5 98
t23 111.5t7 99zM442 886q0 -13 -17 -30l-136 -135h-24l107 177q15 24 34 24q15 0 25.5 -10.5t10.5 -25.5z" />
    <glyph glyph-name="Ocircumflex" unicode="&#xd4;" horiz-adv-x="707" 
d="M683 351q0 -143 -94 -252t-235 -109t-235.5 108.5t-94.5 252.5t94 253t236 109q141 0 235 -109.5t94 -252.5zM520 351q0 47 -7 99t-23 111.5t-51.5 98t-84.5 38.5t-84.5 -38.5t-52 -98t-23.5 -111.5t-7 -99t7 -99t23.5 -111.5t52 -98t84.5 -38.5t84.5 38.5t51.5 98
t23 111.5t7 99zM484 723h-77l-81 74l-82 -74h-22l126 114h10z" />
    <glyph glyph-name="Otilde" unicode="&#xd5;" horiz-adv-x="707" 
d="M683 351q0 -143 -94 -252t-235 -109t-235.5 108.5t-94.5 252.5t94 253t236 109q141 0 235 -109.5t94 -252.5zM520 351q0 47 -7 99t-23 111.5t-51.5 98t-84.5 38.5t-84.5 -38.5t-52 -98t-23.5 -111.5t-7 -99t7 -99t23.5 -111.5t52 -98t84.5 -38.5t84.5 38.5t51.5 98
t23 111.5t7 99zM491 804q0 -31 -22.5 -53.5t-53.5 -22.5q-13 0 -20 2l-159 41q-5 -15 -5 -27q0 -3 1 -9.5t1 -9.5q0 -6 -9 -6q-8 0 -8 25q0 31 23 53.5t54 22.5q12 0 18 -2l159 -41q6 12 6 27q0 3 -1 9.5t-1 9.5q0 6 9 6q8 0 8 -25z" />
    <glyph glyph-name="Odieresis" unicode="&#xd6;" horiz-adv-x="707" 
d="M683 351q0 -143 -94 -252t-235 -109t-235.5 108.5t-94.5 252.5t94 253t236 109q141 0 235 -109.5t94 -252.5zM520 351q0 47 -7 99t-23 111.5t-51.5 98t-84.5 38.5t-84.5 -38.5t-52 -98t-23.5 -111.5t-7 -99t7 -99t23.5 -111.5t52 -98t84.5 -38.5t84.5 38.5t51.5 98
t23 111.5t7 99zM442 771q0 -16 -11.5 -27.5t-27.5 -11.5t-27.5 11.5t-11.5 27.5t11.5 27.5t27.5 11.5t27.5 -11.5t11.5 -27.5zM342 771q0 -16 -11.5 -27.5t-27.5 -11.5t-27.5 11.5t-11.5 27.5t11.5 27.5t27.5 11.5t27.5 -11.5t11.5 -27.5z" />
    <glyph glyph-name="multiply" unicode="&#xd7;" horiz-adv-x="446" 
d="M428 196l-55 -55l-150 151l-151 -151l-54 55l150 150l-150 151l54 55l151 -151l150 151l55 -55l-151 -151z" />
    <glyph glyph-name="Oslash" unicode="&#xd8;" horiz-adv-x="695" 
d="M677 351q0 -143 -94 -252t-235 -109q-114 0 -200 74q-41 -57 -44 -57q-2 0 -5.5 3t-3.5 5q0 3 17.5 27.5t23.5 31.5q-56 53 -87 126t-31 151q0 92 41.5 174.5t118.5 135t170 52.5q113 0 200 -75q41 57 44 57q2 0 5.5 -2.5t3.5 -5.5q0 -1 -9.5 -14.5l-20.5 -28t-12 -16.5
q56 -53 87 -126t31 -151zM486 554q-42 144 -138 144q-49 0 -84.5 -38.5t-52 -98t-23.5 -111.5t-7 -99q0 -99 23 -185zM514 351q0 97 -22 185l-283 -388q44 -144 139 -144q49 0 84.5 38.5t51.5 98t23 111.5t7 99z" />
    <glyph glyph-name="Ugrave" unicode="&#xd9;" horiz-adv-x="658" 
d="M640 405q0 -68 -20.5 -138t-58 -130.5t-98.5 -98.5t-134 -38t-134 38t-98.5 98.5t-58 130.5t-20.5 138q0 166 91 285l-38 3q-6 2 -6 7q0 8 5 8q6 0 54 -2.5t72 -2.5t73 2.5t54 2.5q6 0 6 -8q0 -5 -7 -7q-12 -1 -38 -3q-120 -96 -120 -299q0 -39 7 -84t24 -94t40.5 -88.5
t60.5 -65t81 -25.5q52 0 91.5 35t60.5 88.5t31.5 107t10.5 100.5q0 44 -8.5 93t-26 100.5t-51.5 88t-78 43.5l-22 3q-6 2 -6 7q0 8 5 8q6 0 42 -2.5t60 -2.5t60 2.5t41 2.5q6 0 6 -8q0 -5 -7 -7q-12 -1 -38 -3q92 -118 92 -285zM417 721h-24l-138 137q-15 15 -15 28
q0 15 10.5 25.5t25.5 10.5q19 0 34 -24z" />
    <glyph glyph-name="Uacute" unicode="&#xda;" horiz-adv-x="658" 
d="M640 405q0 -68 -20.5 -138t-58 -130.5t-98.5 -98.5t-134 -38t-134 38t-98.5 98.5t-58 130.5t-20.5 138q0 166 91 285l-38 3q-6 2 -6 7q0 8 5 8q6 0 54 -2.5t72 -2.5t73 2.5t54 2.5q6 0 6 -8q0 -5 -7 -7q-12 -1 -38 -3q-120 -96 -120 -299q0 -39 7 -84t24 -94t40.5 -88.5
t60.5 -65t81 -25.5q52 0 91.5 35t60.5 88.5t31.5 107t10.5 100.5q0 44 -8.5 93t-26 100.5t-51.5 88t-78 43.5l-22 3q-6 2 -6 7q0 8 5 8q6 0 42 -2.5t60 -2.5t60 2.5t41 2.5q6 0 6 -8q0 -5 -7 -7q-12 -1 -38 -3q92 -118 92 -285zM417 886q0 -13 -17 -30l-136 -135h-24
l107 177q15 24 34 24q15 0 25.5 -10.5t10.5 -25.5z" />
    <glyph glyph-name="Ucircumflex" unicode="&#xdb;" horiz-adv-x="658" 
d="M640 405q0 -68 -20.5 -138t-58 -130.5t-98.5 -98.5t-134 -38t-134 38t-98.5 98.5t-58 130.5t-20.5 138q0 166 91 285l-38 3q-6 2 -6 7q0 8 5 8q6 0 54 -2.5t72 -2.5t73 2.5t54 2.5q6 0 6 -8q0 -5 -7 -7q-12 -1 -38 -3q-120 -96 -120 -299q0 -39 7 -84t24 -94t40.5 -88.5
t60.5 -65t81 -25.5q52 0 91.5 35t60.5 88.5t31.5 107t10.5 100.5q0 44 -8.5 93t-26 100.5t-51.5 88t-78 43.5l-22 3q-6 2 -6 7q0 8 5 8q6 0 42 -2.5t60 -2.5t60 2.5t41 2.5q6 0 6 -8q0 -5 -7 -7q-12 -1 -38 -3q92 -118 92 -285zM460 723h-77l-81 74l-82 -74h-22l126 114h10z
" />
    <glyph glyph-name="Udieresis" unicode="&#xdc;" horiz-adv-x="658" 
d="M640 405q0 -68 -20.5 -138t-58 -130.5t-98.5 -98.5t-134 -38t-134 38t-98.5 98.5t-58 130.5t-20.5 138q0 166 91 285l-38 3q-6 2 -6 7q0 8 5 8q6 0 54 -2.5t72 -2.5t73 2.5t54 2.5q6 0 6 -8q0 -5 -7 -7q-12 -1 -38 -3q-120 -96 -120 -299q0 -39 7 -84t24 -94t40.5 -88.5
t60.5 -65t81 -25.5q52 0 91.5 35t60.5 88.5t31.5 107t10.5 100.5q0 44 -8.5 93t-26 100.5t-51.5 88t-78 43.5l-22 3q-6 2 -6 7q0 8 5 8q6 0 42 -2.5t60 -2.5t60 2.5t41 2.5q6 0 6 -8q0 -5 -7 -7q-12 -1 -38 -3q92 -118 92 -285zM418 759q0 -16 -11.5 -27.5t-27.5 -11.5
t-27.5 11.5t-11.5 27.5t11.5 27.5t27.5 11.5t27.5 -11.5t11.5 -27.5zM318 759q0 -16 -11.5 -27.5t-27.5 -11.5t-27.5 11.5t-11.5 27.5t11.5 27.5t27.5 11.5t27.5 -11.5t11.5 -27.5z" />
    <glyph glyph-name="Yacute" unicode="&#xdd;" horiz-adv-x="710" 
d="M692 700q0 -5 -7 -7q-34 -3 -35 -3q-85 -200 -207 -368v-309q6 -1 19 -2t19 -1q7 -2 7 -7q0 -8 -6 -8t-42 2.5t-59 2.5t-60 -2.5t-42 -2.5t-5 8q0 5 6 7l38 3v266l-255 411q-6 0 -12.5 0.5t-14.5 1.5t-12 1q-6 2 -6 7q0 8 5 8t52 -2.5t70 -2.5t69 2.5t52 2.5t6 -8
q0 -5 -7 -7q-24 -2 -37 -3l209 -342q29 46 52.5 126t23.5 134q0 85 -79 85q-6 0 -6 7q0 8 5 8t54 -2.5t73 -2.5t72 2.5t54 2.5t6 -8zM443 886q0 -13 -17 -30l-136 -135h-24l107 177q15 24 34 24q15 0 25.5 -10.5t10.5 -25.5z" />
    <glyph glyph-name="Thorn" unicode="&#xde;" horiz-adv-x="641" 
d="M623 366q0 -52 -26 -99q-36 -67 -107 -100.5t-154 -33.5q-55 0 -85 8q-6 1 -6 7q0 7 6 7q61 9 79 15q65 21 104 71t39 117q0 52 -23 98q-33 66 -98 100.5t-144 34.5h-20v-578q37 -3 38 -3q7 -1 7 -8t-8 -7q-2 0 -35 3q-44 2 -64 2q-21 0 -65 -2q-33 -3 -35 -3q-8 0 -8 7
q0 8 7 8l38 3v676l-38 3q-7 0 -7 8q0 7 5 7q1 0 3 -1q33 -4 100 -4q66 0 99 4h1l2 1q5 0 5 -7t-7 -8q-1 0 -38 -3v-75h71q106 0 197.5 -33t137.5 -110q29 -49 29 -105z" />
    <glyph glyph-name="germandbls" unicode="&#xdf;" horiz-adv-x="587" 
d="M569 25q0 -105 -85.5 -176.5t-192.5 -71.5q-46 0 -90.5 18t-71.5 52q-1 1 -1 5q0 3 2 5q29 27 40 44q2 4 5 4q2 0 5.5 -2.5t3.5 -4.5q0 -7 -12 -19q44 -81 112 -81q18 0 39 7q66 24 100 85.5t34 136.5q0 84 -36 144t-114 60q-44 0 -98 -26q-1 0 -3 -1q-8 0 -8 9v1l1 2
l168 253h-183v-461q0 -7 -7 -7h-43q-19 0 -53 -2l-30 -3q-8 0 -8 7q0 3 2.5 5.5t6.5 3l8 1t8.5 0.5h6.5v456h-50q-7 0 -7 7q0 8 7 8h50q2 48 18 96t52.5 85.5t85.5 37.5q48 0 88 -40l-52 -39q-18 57 -49 57q-33 0 -33 -76v-121h312l-149 -226q99 -7 160 -70.5t61 -162.5z
" />
    <glyph glyph-name="agrave" unicode="&#xe0;" horiz-adv-x="521" 
d="M509 3q0 -8 -6 -8q-5 0 -41 2.5t-60 2.5l-42 1q-7 0 -7 7v43q-72 -56 -161 -56q-71 0 -125.5 39.5t-54.5 107.5q0 50 33.5 91.5t89 68t103 42t99.5 26.5q-17 42 -49 69.5t-74 27.5q-60 0 -101 -56q0 -2 2 -10t2 -12q0 -7 -9 -7q-6 0 -6 7q-2 12 -8 36q-9 30 -24 57
q-2 4 -2 5q0 2 3.5 4.5t5.5 2.5q3 0 13 -19q46 17 95 17q73 0 130.5 -30.5t91.5 -82.5t51.5 -115t17.5 -133q0 -59 -12 -118q26 -2 38 -3q7 -2 7 -7zM353 70v153q0 95 -11 134q-202 -42 -202 -184q0 -56 34.5 -96.5t89.5 -40.5q50 0 89 34zM349 507h-24l-138 137
q-15 15 -15 28q0 15 10.5 25.5t25.5 10.5q19 0 34 -24z" />
    <glyph glyph-name="aacute" unicode="&#xe1;" horiz-adv-x="521" 
d="M509 3q0 -8 -6 -8q-5 0 -41 2.5t-60 2.5l-42 1q-7 0 -7 7v43q-72 -56 -161 -56q-71 0 -125.5 39.5t-54.5 107.5q0 50 33.5 91.5t89 68t103 42t99.5 26.5q-17 42 -49 69.5t-74 27.5q-60 0 -101 -56q0 -2 2 -10t2 -12q0 -7 -9 -7q-6 0 -6 7q-2 12 -8 36q-9 30 -24 57
q-2 4 -2 5q0 2 3.5 4.5t5.5 2.5q3 0 13 -19q46 17 95 17q73 0 130.5 -30.5t91.5 -82.5t51.5 -115t17.5 -133q0 -59 -12 -118q26 -2 38 -3q7 -2 7 -7zM353 70v153q0 95 -11 134q-202 -42 -202 -184q0 -56 34.5 -96.5t89.5 -40.5q50 0 89 34zM349 672q0 -13 -17 -30l-136 -135
h-24l107 177q15 24 34 24q15 0 25.5 -10.5t10.5 -25.5z" />
    <glyph glyph-name="acircumflex" unicode="&#xe2;" horiz-adv-x="521" 
d="M509 3q0 -8 -6 -8q-5 0 -41 2.5t-60 2.5l-42 1q-7 0 -7 7v43q-72 -56 -161 -56q-71 0 -125.5 39.5t-54.5 107.5q0 50 33.5 91.5t89 68t103 42t99.5 26.5q-17 42 -49 69.5t-74 27.5q-60 0 -101 -56q0 -2 2 -10t2 -12q0 -7 -9 -7q-6 0 -6 7q-2 12 -8 36q-9 30 -24 57
q-2 4 -2 5q0 2 3.5 4.5t5.5 2.5q3 0 13 -19q46 17 95 17q73 0 130.5 -30.5t91.5 -82.5t51.5 -115t17.5 -133q0 -59 -12 -118q26 -2 38 -3q7 -2 7 -7zM353 70v153q0 95 -11 134q-202 -42 -202 -184q0 -56 34.5 -96.5t89.5 -40.5q50 0 89 34zM391 509h-77l-81 74l-82 -74h-22
l126 114h10z" />
    <glyph glyph-name="atilde" unicode="&#xe3;" horiz-adv-x="521" 
d="M509 3q0 -8 -6 -8q-5 0 -41 2.5t-60 2.5l-42 1q-7 0 -7 7v43q-72 -56 -161 -56q-71 0 -125.5 39.5t-54.5 107.5q0 50 33.5 91.5t89 68t103 42t99.5 26.5q-17 42 -49 69.5t-74 27.5q-60 0 -101 -56q0 -2 2 -10t2 -12q0 -7 -9 -7q-6 0 -6 7q-2 12 -8 36q-9 30 -24 57
q-2 4 -2 5q0 2 3.5 4.5t5.5 2.5q3 0 13 -19q46 17 95 17q73 0 130.5 -30.5t91.5 -82.5t51.5 -115t17.5 -133q0 -59 -12 -118q26 -2 38 -3q7 -2 7 -7zM353 70v153q0 95 -11 134q-202 -42 -202 -184q0 -56 34.5 -96.5t89.5 -40.5q50 0 89 34zM384 600q0 -31 -22.5 -53.5
t-53.5 -22.5q-13 0 -20 2l-159 41q-5 -15 -5 -27q0 -3 1 -9.5t1 -9.5q0 -6 -9 -6q-8 0 -8 25q0 31 23 53.5t54 22.5q12 0 18 -2l159 -41q6 12 6 27q0 3 -1 9.5t-1 9.5q0 6 9 6q8 0 8 -25z" />
    <glyph glyph-name="adieresis" unicode="&#xe4;" horiz-adv-x="521" 
d="M509 3q0 -8 -6 -8q-5 0 -41 2.5t-60 2.5l-42 1q-7 0 -7 7v43q-72 -56 -161 -56q-71 0 -125.5 39.5t-54.5 107.5q0 50 33.5 91.5t89 68t103 42t99.5 26.5q-17 42 -49 69.5t-74 27.5q-60 0 -101 -56q0 -2 2 -10t2 -12q0 -7 -9 -7q-6 0 -6 7q-2 12 -8 36q-9 30 -24 57
q-2 4 -2 5q0 2 3.5 4.5t5.5 2.5q3 0 13 -19q46 17 95 17q73 0 130.5 -30.5t91.5 -82.5t51.5 -115t17.5 -133q0 -59 -12 -118q26 -2 38 -3q7 -2 7 -7zM353 70v153q0 95 -11 134q-202 -42 -202 -184q0 -56 34.5 -96.5t89.5 -40.5q50 0 89 34zM339 568q0 -16 -11.5 -27.5
t-27.5 -11.5t-27.5 11.5t-11.5 27.5t11.5 27.5t27.5 11.5t27.5 -11.5t11.5 -27.5zM239 568q0 -16 -11.5 -27.5t-27.5 -11.5t-27.5 11.5t-11.5 27.5t11.5 27.5t27.5 11.5t27.5 -11.5t11.5 -27.5z" />
    <glyph glyph-name="aring" unicode="&#xe5;" horiz-adv-x="521" 
d="M509 3q0 -8 -6 -8q-5 0 -41 2.5t-60 2.5l-42 1q-7 0 -7 7v43q-72 -56 -161 -56q-71 0 -125.5 39.5t-54.5 107.5q0 50 33.5 91.5t89 68t103 42t99.5 26.5q-17 42 -49 69.5t-74 27.5q-60 0 -101 -56q0 -2 2 -10t2 -12q0 -7 -9 -7q-6 0 -6 7q-2 12 -8 36q-9 30 -24 57
q-2 4 -2 5q0 2 3.5 4.5t5.5 2.5q3 0 13 -19q46 17 95 17q73 0 130.5 -30.5t91.5 -82.5t51.5 -115t17.5 -133q0 -59 -12 -118q26 -2 38 -3q7 -2 7 -7zM353 70v153q0 95 -11 134q-202 -42 -202 -184q0 -56 34.5 -96.5t89.5 -40.5q50 0 89 34zM344 588q0 -34 -25 -58.5
t-59 -24.5t-58.5 24.5t-24.5 58.5q0 35 24.5 59.5t58.5 24.5t59 -25t25 -59zM315 588q0 22 -16 38t-39 16q-22 0 -38 -16t-16 -38t16 -38t38 -16t38.5 16t16.5 38z" />
    <glyph glyph-name="ae" unicode="&#xe6;" horiz-adv-x="856" 
d="M838 303q0 -9 -7 -9h-340q-3 -26 -3 -50q0 -83 36 -146t113 -63q54 0 99.5 36t50.5 89q-1 1 -7 5.5t-10.5 9t-4.5 5.5q0 9 8 9q3 0 28.5 -21.5t31.5 -27.5q2 -2 2 -9q-30 -59 -96.5 -94.5t-135.5 -35.5q-58 0 -111 28t-87 76q-29 -50 -86.5 -80t-117.5 -30
q-71 0 -127 38.5t-56 106.5q0 51 33 93t88 69t102.5 42t100.5 26q-38 94 -116 94q-57 0 -108 -53q4 -14 4 -23q0 -5 -8 -5q-4 0 -4.5 0.5t-1.5 5.5q-2 12 -8 36q-9 32 -25 57q-2 2 -2 4q0 3 3.5 5.5t6.5 2.5t13 -19q48 17 97 17q64 0 120.5 -27.5t94.5 -77.5q73 102 194 102
q68 0 127 -36t90 -97q19 -43 19 -53zM710 309q-1 28 -6 53.5t-16 51.5t-32.5 42t-50.5 16q-33 0 -58.5 -30.5t-37 -64.5t-16.5 -68h217zM359 127v155q0 39 -12 75q-47 -10 -78 -21t-62 -31t-46.5 -53t-15.5 -79q0 -55 37 -96.5t92 -41.5q40 0 62.5 25.5t22.5 66.5z" />
    <glyph glyph-name="ccedilla" unicode="&#xe7;" horiz-adv-x="528" 
d="M351 -117q0 -42 -30.5 -69.5t-73.5 -27.5q-15 0 -35.5 6t-20.5 15q0 2 3 5.5t5 3.5t5 -3q15 -12 43 -12q23 0 42 14.5t19 37.5t-16 35.5t-31.5 14.5t-39.5 2h-8q42 63 66 95q-109 9 -185 73.5t-76 172.5q0 104 79 175t184 71q43 0 85.5 -8.5t80.5 -36.5t38 -71
q0 -25 -20.5 -41.5t-46.5 -16.5q-39 0 -71 39q-2 2 -2 5q0 2 19 18t19 36q0 29 -29 44.5t-61 15.5q-37 0 -66 -21.5t-45.5 -55t-24.5 -69.5t-8 -70q0 -59 15 -111.5t56 -92.5t101 -40q48 0 88 22t57 64q0 1 -2.5 7l-5 11.5t-2.5 6.5q0 7 7 7q5 0 8 -5q20 -43 38 -67
q1 -1 1 -3t-4 -6q-76 -55 -193 -55q-12 0 -17 1l-22 -32q34 -5 55.5 -27.5t21.5 -56.5z" />
    <glyph glyph-name="egrave" unicode="&#xe8;" horiz-adv-x="498" 
d="M486 131q0 -13 -14 -33.5t-39.5 -43t-71 -38t-99.5 -15.5q-101 0 -175.5 72t-74.5 171q0 101 71 172t171 71q82 0 153 -52.5t71 -131.5q0 -9 -7 -9h-330q-2 -34 -2 -50q0 -52 12.5 -96.5t47.5 -78.5t88 -34q55 0 100 34.5t49 87.5q-21 21 -21 24q0 8 8 8q3 0 5 -2
q27 -27 55 -47q3 -2 3 -9zM361 309q-1 28 -6.5 53.5t-16.5 52t-32 42t-50 15.5q-33 0 -59 -30.5t-37 -64t-17 -68.5h218zM337 507h-24l-138 137q-15 15 -15 28q0 15 10.5 25.5t25.5 10.5q19 0 34 -24z" />
    <glyph glyph-name="eacute" unicode="&#xe9;" horiz-adv-x="498" 
d="M486 131q0 -13 -14 -33.5t-39.5 -43t-71 -38t-99.5 -15.5q-101 0 -175.5 72t-74.5 171q0 101 71 172t171 71q82 0 153 -52.5t71 -131.5q0 -9 -7 -9h-330q-2 -34 -2 -50q0 -52 12.5 -96.5t47.5 -78.5t88 -34q55 0 100 34.5t49 87.5q-21 21 -21 24q0 8 8 8q3 0 5 -2
q27 -27 55 -47q3 -2 3 -9zM361 309q-1 28 -6.5 53.5t-16.5 52t-32 42t-50 15.5q-33 0 -59 -30.5t-37 -64t-17 -68.5h218zM337 672q0 -13 -17 -30l-136 -135h-24l107 177q15 24 34 24q15 0 25.5 -10.5t10.5 -25.5z" />
    <glyph glyph-name="ecircumflex" unicode="&#xea;" horiz-adv-x="498" 
d="M486 131q0 -13 -14 -33.5t-39.5 -43t-71 -38t-99.5 -15.5q-101 0 -175.5 72t-74.5 171q0 101 71 172t171 71q82 0 153 -52.5t71 -131.5q0 -9 -7 -9h-330q-2 -34 -2 -50q0 -52 12.5 -96.5t47.5 -78.5t88 -34q55 0 100 34.5t49 87.5q-21 21 -21 24q0 8 8 8q3 0 5 -2
q27 -27 55 -47q3 -2 3 -9zM361 309q-1 28 -6.5 53.5t-16.5 52t-32 42t-50 15.5q-33 0 -59 -30.5t-37 -64t-17 -68.5h218zM380 509h-77l-81 74l-82 -74h-22l126 114h10z" />
    <glyph glyph-name="edieresis" unicode="&#xeb;" horiz-adv-x="498" 
d="M486 131q0 -13 -14 -33.5t-39.5 -43t-71 -38t-99.5 -15.5q-101 0 -175.5 72t-74.5 171q0 101 71 172t171 71q82 0 153 -52.5t71 -131.5q0 -9 -7 -9h-330q-2 -34 -2 -50q0 -52 12.5 -96.5t47.5 -78.5t88 -34q55 0 100 34.5t49 87.5q-21 21 -21 24q0 8 8 8q3 0 5 -2
q27 -27 55 -47q3 -2 3 -9zM361 309q-1 28 -6.5 53.5t-16.5 52t-32 42t-50 15.5q-33 0 -59 -30.5t-37 -64t-17 -68.5h218zM338 545q0 -16 -11.5 -27.5t-27.5 -11.5t-27.5 11.5t-11.5 27.5t11.5 27.5t27.5 11.5t27.5 -11.5t11.5 -27.5zM238 545q0 -16 -11.5 -27.5t-27.5 -11.5
t-27.5 11.5t-11.5 27.5t11.5 27.5t27.5 11.5t27.5 -11.5t11.5 -27.5z" />
    <glyph glyph-name="igrave" unicode="&#xec;" horiz-adv-x="231" 
d="M213 485q0 -5 -7 -7q-4 0 -11.5 -0.5t-13.5 -1t-12 -1.5v-462q12 -2 36 -4q7 -2 7 -7q0 -8 -6 -8t-37 2.5t-54 2.5t-55 -2.5t-37 -2.5t-5 8q0 5 6 7l39 3v463l-38 3q-6 2 -6 7q0 8 5 8q6 0 37 -2.5t55 -2.5t55 2.5t36 2.5q6 0 6 -8zM204 507h-24l-138 137q-15 15 -15 28
q0 15 10.5 25.5t25.5 10.5q19 0 34 -24z" />
    <glyph glyph-name="iacute" unicode="&#xed;" horiz-adv-x="231" 
d="M213 485q0 -5 -7 -7q-4 0 -11.5 -0.5t-13.5 -1t-12 -1.5v-462q12 -2 36 -4q7 -2 7 -7q0 -8 -6 -8t-37 2.5t-54 2.5t-55 -2.5t-37 -2.5t-5 8q0 5 6 7l39 3v463l-38 3q-6 2 -6 7q0 8 5 8q6 0 37 -2.5t55 -2.5t55 2.5t36 2.5q6 0 6 -8zM204 672q0 -13 -17 -30l-136 -135h-24
l107 177q15 24 34 24q15 0 25.5 -10.5t10.5 -25.5z" />
    <glyph glyph-name="icircumflex" unicode="&#xee;" horiz-adv-x="231" 
d="M213 485q0 -5 -7 -7q-4 0 -11.5 -0.5t-13.5 -1t-12 -1.5v-462q12 -2 36 -4q7 -2 7 -7q0 -8 -6 -8t-37 2.5t-54 2.5t-55 -2.5t-37 -2.5t-5 8q0 5 6 7l39 3v463l-38 3q-6 2 -6 7q0 8 5 8q6 0 37 -2.5t55 -2.5t55 2.5t36 2.5q6 0 6 -8zM247 509h-77l-81 74l-82 -74h-22
l126 114h10z" />
    <glyph glyph-name="idieresis" unicode="&#xef;" horiz-adv-x="231" 
d="M213 485q0 -5 -7 -7q-4 0 -11.5 -0.5t-13.5 -1t-12 -1.5v-462q12 -2 36 -4q7 -2 7 -7q0 -8 -6 -8t-37 2.5t-54 2.5t-55 -2.5t-37 -2.5t-5 8q0 5 6 7l39 3v463l-38 3q-6 2 -6 7q0 8 5 8q6 0 37 -2.5t55 -2.5t55 2.5t36 2.5q6 0 6 -8zM204 575q0 -16 -11.5 -27.5
t-27.5 -11.5t-27.5 11.5t-11.5 27.5t11.5 27.5t27.5 11.5t27.5 -11.5t11.5 -27.5zM104 575q0 -16 -11.5 -27.5t-27.5 -11.5t-27.5 11.5t-11.5 27.5t11.5 27.5t27.5 11.5t27.5 -11.5t11.5 -27.5z" />
    <glyph glyph-name="eth" unicode="&#xf0;" horiz-adv-x="526" 
d="M508 298q0 -127 -61.5 -212t-183.5 -85q-102 0 -173.5 73t-71.5 175t71.5 175t173.5 73q53 0 108 -26q-15 102 -43 160q-3 -1 -25 -15t-42 -25.5t-22 -11.5t-4.5 3.5t-2.5 5.5t19 14l43.5 26.5t26.5 15.5q-25 44 -58 44q-37 0 -62 -51q7 -14 7 -15q0 -6 -9 -6q-3 0 -5 4
q-25 44 -25 45q0 3 3 6q40 32 91 32t97 -36q1 1 17.5 11l30.5 18t16 8t4.5 -4t2.5 -6q0 -8 -59 -37q66 -59 101 -159.5t35 -199.5zM384 249q0 105 -11 193q-43 40 -110 40q-36 0 -61.5 -25t-37.5 -64t-17 -74.5t-5 -69.5t5 -69.5t17 -74.5t37.5 -64t61.5 -25t61.5 25
t37.5 64t17 74.5t5 69.5z" />
    <glyph glyph-name="ntilde" unicode="&#xf1;" horiz-adv-x="569" 
d="M557 3q0 -8 -6 -8q-5 0 -36 2.5t-55 2.5t-57 -2.5t-39 -2.5q-5 0 -5 8q0 5 6 7q37 3 38 3q4 112 4 157q0 301 -155 301q-44 0 -86 -31v-428q13 -1 37 -3q7 -2 7 -7q0 -8 -6 -8t-37 2.5t-54 2.5t-57 -2t-39 -2t-5 8q0 5 6 7q37 3 38 3v461q-8 1 -21 2t-17 1q-6 2 -6 7
q0 8 5 8q8 0 44.5 -2.5t46.5 -2.5h49q9 0 9 -22q51 27 106 27q63 0 109 -22t71 -54.5t39.5 -84t18.5 -96.5t4 -105v-117l36 -3q7 -2 7 -7zM422 601q0 -31 -22.5 -53.5t-53.5 -22.5q-13 0 -20 2l-159 41q-5 -15 -5 -27q0 -3 1 -9.5t1 -9.5q0 -6 -9 -6q-8 0 -8 25
q0 31 23 53.5t54 22.5q12 0 18 -2l159 -41q6 12 6 27q0 3 -1 9.5t-1 9.5q0 6 9 6q8 0 8 -25z" />
    <glyph glyph-name="ograve" unicode="&#xf2;" horiz-adv-x="526" 
d="M508 234q0 -102 -72 -172.5t-174 -70.5t-173 70.5t-71 172.5t71.5 182.5t172.5 80.5t173.5 -80.5t72.5 -182.5zM384 234q0 26 -2.5 55t-11 64.5t-21.5 63t-35.5 46.5t-51.5 19q-36 0 -61.5 -27.5t-37 -70t-16.5 -79.5t-5 -71t5 -68.5t16.5 -73t37 -62.5t61.5 -24t62 24
t38 62.5t17 73t5 68.5zM351 507h-24l-138 137q-15 15 -15 28q0 15 10.5 25.5t25.5 10.5q19 0 34 -24z" />
    <glyph glyph-name="oacute" unicode="&#xf3;" horiz-adv-x="526" 
d="M508 234q0 -102 -72 -172.5t-174 -70.5t-173 70.5t-71 172.5t71.5 182.5t172.5 80.5t173.5 -80.5t72.5 -182.5zM384 234q0 26 -2.5 55t-11 64.5t-21.5 63t-35.5 46.5t-51.5 19q-36 0 -61.5 -27.5t-37 -70t-16.5 -79.5t-5 -71t5 -68.5t16.5 -73t37 -62.5t61.5 -24t62 24
t38 62.5t17 73t5 68.5zM351 672q0 -13 -17 -30l-136 -135h-24l107 177q15 24 34 24q15 0 25.5 -10.5t10.5 -25.5z" />
    <glyph glyph-name="ocircumflex" unicode="&#xf4;" horiz-adv-x="526" 
d="M508 234q0 -102 -72 -172.5t-174 -70.5t-173 70.5t-71 172.5t71.5 182.5t172.5 80.5t173.5 -80.5t72.5 -182.5zM384 234q0 26 -2.5 55t-11 64.5t-21.5 63t-35.5 46.5t-51.5 19q-36 0 -61.5 -27.5t-37 -70t-16.5 -79.5t-5 -71t5 -68.5t16.5 -73t37 -62.5t61.5 -24t62 24
t38 62.5t17 73t5 68.5zM394 509h-77l-81 74l-82 -74h-22l126 114h10z" />
    <glyph glyph-name="otilde" unicode="&#xf5;" horiz-adv-x="526" 
d="M508 234q0 -102 -72 -172.5t-174 -70.5t-173 70.5t-71 172.5t71.5 182.5t172.5 80.5t173.5 -80.5t72.5 -182.5zM384 234q0 26 -2.5 55t-11 64.5t-21.5 63t-35.5 46.5t-51.5 19q-36 0 -61.5 -27.5t-37 -70t-16.5 -79.5t-5 -71t5 -68.5t16.5 -73t37 -62.5t61.5 -24t62 24
t38 62.5t17 73t5 68.5zM400 601q0 -31 -22.5 -53.5t-53.5 -22.5q-13 0 -20 2l-159 41q-5 -15 -5 -27q0 -3 1 -9.5t1 -9.5q0 -6 -9 -6q-8 0 -8 25q0 31 23 53.5t54 22.5q12 0 18 -2l159 -41q6 12 6 27q0 3 -1 9.5t-1 9.5q0 6 9 6q8 0 8 -25z" />
    <glyph glyph-name="odieresis" unicode="&#xf6;" horiz-adv-x="526" 
d="M508 234q0 -102 -72 -172.5t-174 -70.5t-173 70.5t-71 172.5t71.5 182.5t172.5 80.5t173.5 -80.5t72.5 -182.5zM384 234q0 26 -2.5 55t-11 64.5t-21.5 63t-35.5 46.5t-51.5 19q-36 0 -61.5 -27.5t-37 -70t-16.5 -79.5t-5 -71t5 -68.5t16.5 -73t37 -62.5t61.5 -24t62 24
t38 62.5t17 73t5 68.5zM352 555q0 -16 -11.5 -27.5t-27.5 -11.5t-27.5 11.5t-11.5 27.5t11.5 27.5t27.5 11.5t27.5 -11.5t11.5 -27.5zM252 555q0 -16 -11.5 -27.5t-27.5 -11.5t-27.5 11.5t-11.5 27.5t11.5 27.5t27.5 11.5t27.5 -11.5t11.5 -27.5z" />
    <glyph glyph-name="divide" unicode="&#xf7;" horiz-adv-x="492" 
d="M298 479q0 -23 -15.5 -38t-36.5 -15q-22 0 -37.5 15.5t-15.5 37.5q0 21 15.5 36.5t37.5 15.5q21 0 36.5 -15.5t15.5 -36.5zM474 308h-456v77h456v-77zM298 214q0 -22 -16 -37.5t-36 -15.5q-22 0 -37.5 16t-15.5 37q0 22 15.5 37.5t37.5 15.5t37 -15t15 -38z" />
    <glyph glyph-name="oslash" unicode="&#xf8;" horiz-adv-x="526" 
d="M508 249q0 -102 -71.5 -176t-173.5 -74q-94 0 -163 64q-1 -1 -13.5 -14.5l-23 -24t-12.5 -10.5q-8 0 -8 8q0 2 10 13l22 23.5l14 14.5q-71 74 -71 176t71.5 176t173.5 74q92 0 164 -64l26 28.5t22 20.5q2 0 5.5 -3t3.5 -5q0 -4 -47 -51q71 -74 71 -176zM369 373
q-30 111 -106 111q-34 0 -59.5 -25.5t-38 -65.5t-18 -76t-5.5 -68q0 -52 11 -107zM384 249q0 59 -11 107l-216 -231q30 -111 106 -111q36 0 61.5 25t37.5 65t17 75.5t5 69.5z" />
    <glyph glyph-name="ugrave" unicode="&#xf9;" horiz-adv-x="554" 
d="M542 3q0 -8 -6 -8q-8 0 -45 2.5t-46 2.5h-43q-10 0 -10 27q-53 -31 -113 -31q-56 0 -98 16.5t-67.5 44t-41 68.5t-21 83.5t-5.5 95.5q0 38 7 171q-12 2 -35 4q-6 2 -6 7q0 8 5 8q6 0 37.5 -2.5t54.5 -2.5t54 2.5t37 2.5t6 -8q0 -5 -7 -7q-4 0 -11.5 -0.5t-13.5 -1
t-12 -1.5q-11 -114 -11 -185q0 -272 155 -272q48 0 86 29v427q-7 0 -13.5 0.5t-14 1.5t-11.5 1q-6 2 -6 7q0 8 5 8q6 0 37 -2.5t55 -2.5t55 2.5t37 2.5t6 -8q0 -5 -7 -7q-4 0 -11.5 -0.5t-13.5 -1t-12 -1.5v-462q13 -1 37 -3q7 -2 7 -7zM365 507h-24l-138 137q-15 15 -15 28
q0 15 10.5 25.5t25.5 10.5q19 0 34 -24z" />
    <glyph glyph-name="uacute" unicode="&#xfa;" horiz-adv-x="554" 
d="M542 3q0 -8 -6 -8q-8 0 -45 2.5t-46 2.5h-43q-10 0 -10 27q-53 -31 -113 -31q-56 0 -98 16.5t-67.5 44t-41 68.5t-21 83.5t-5.5 95.5q0 38 7 171q-12 2 -35 4q-6 2 -6 7q0 8 5 8q6 0 37.5 -2.5t54.5 -2.5t54 2.5t37 2.5t6 -8q0 -5 -7 -7q-4 0 -11.5 -0.5t-13.5 -1
t-12 -1.5q-11 -114 -11 -185q0 -272 155 -272q48 0 86 29v427q-7 0 -13.5 0.5t-14 1.5t-11.5 1q-6 2 -6 7q0 8 5 8q6 0 37 -2.5t55 -2.5t55 2.5t37 2.5t6 -8q0 -5 -7 -7q-4 0 -11.5 -0.5t-13.5 -1t-12 -1.5v-462q13 -1 37 -3q7 -2 7 -7zM365 672q0 -13 -17 -30l-136 -135
h-24l107 177q15 24 34 24q15 0 25.5 -10.5t10.5 -25.5z" />
    <glyph glyph-name="ucircumflex" unicode="&#xfb;" horiz-adv-x="554" 
d="M542 3q0 -8 -6 -8q-8 0 -45 2.5t-46 2.5h-43q-10 0 -10 27q-53 -31 -113 -31q-56 0 -98 16.5t-67.5 44t-41 68.5t-21 83.5t-5.5 95.5q0 38 7 171q-12 2 -35 4q-6 2 -6 7q0 8 5 8q6 0 37.5 -2.5t54.5 -2.5t54 2.5t37 2.5t6 -8q0 -5 -7 -7q-4 0 -11.5 -0.5t-13.5 -1
t-12 -1.5q-11 -114 -11 -185q0 -272 155 -272q48 0 86 29v427q-7 0 -13.5 0.5t-14 1.5t-11.5 1q-6 2 -6 7q0 8 5 8q6 0 37 -2.5t55 -2.5t55 2.5t37 2.5t6 -8q0 -5 -7 -7q-4 0 -11.5 -0.5t-13.5 -1t-12 -1.5v-462q13 -1 37 -3q7 -2 7 -7zM408 509h-77l-81 74l-82 -74h-22
l126 114h10z" />
    <glyph glyph-name="udieresis" unicode="&#xfc;" horiz-adv-x="554" 
d="M542 3q0 -8 -6 -8q-8 0 -45 2.5t-46 2.5h-43q-10 0 -10 27q-53 -31 -113 -31q-56 0 -98 16.5t-67.5 44t-41 68.5t-21 83.5t-5.5 95.5q0 38 7 171q-12 2 -35 4q-6 2 -6 7q0 8 5 8q6 0 37.5 -2.5t54.5 -2.5t54 2.5t37 2.5t6 -8q0 -5 -7 -7q-4 0 -11.5 -0.5t-13.5 -1
t-12 -1.5q-11 -114 -11 -185q0 -272 155 -272q48 0 86 29v427q-7 0 -13.5 0.5t-14 1.5t-11.5 1q-6 2 -6 7q0 8 5 8q6 0 37 -2.5t55 -2.5t55 2.5t37 2.5t6 -8q0 -5 -7 -7q-4 0 -11.5 -0.5t-13.5 -1t-12 -1.5v-462q13 -1 37 -3q7 -2 7 -7zM366 545q0 -16 -11.5 -27.5
t-27.5 -11.5t-27.5 11.5t-11.5 27.5t11.5 27.5t27.5 11.5t27.5 -11.5t11.5 -27.5zM266 545q0 -16 -11.5 -27.5t-27.5 -11.5t-27.5 11.5t-11.5 27.5t11.5 27.5t27.5 11.5t27.5 -11.5t11.5 -27.5z" />
    <glyph glyph-name="yacute" unicode="&#xfd;" horiz-adv-x="598" 
d="M586 486q0 -5 -7 -7q-4 0 -11.5 -0.5t-13.5 -1t-12 -1.5q-123 -436 -328 -635l-47 -39t-37 -26t-46 40t-41 44q0 8 9 8q3 0 9 -2t7 -2q16 -2 25 -2q102 0 205 124l-242 490q-8 1 -21 2t-17 1q-6 2 -6 7q0 8 5 8t42.5 -2.5t61.5 -2.5q23 0 56 2t38 2q6 0 6 -8q0 -5 -7 -7
q-4 0 -11.5 -0.5t-13.5 -1t-12 -1.5l189 -389q86 152 86 282q0 24 -5.5 47t-23 43.5t-45.5 20.5q-6 0 -6 7q0 8 5 8t37 -2.5t55 -2.5t64 2.5t47 2.5t6 -8zM387 672q0 -13 -17 -30l-136 -135h-24l107 177q15 24 34 24q15 0 25.5 -10.5t10.5 -25.5z" />
    <glyph glyph-name="thorn" unicode="&#xfe;" horiz-adv-x="538" 
d="M520 279q0 -64 -33 -116.5t-87 -85t-113.5 -51t-120.5 -22.5v-209h6q28 0 28 -8q0 -9 -8 -9q-4 0 -12.5 1t-12.5 1q-19 2 -57 2q-36 0 -53 -2q-5 0 -15 -1t-15 -1q-8 0 -8 7q0 3 2.5 5.5t7.5 3.5t9 1t10 0.5t8 0.5v894h-5q-33 0 -33 9q0 8 8 8q10 0 38 -2t44 -2h51
q7 0 7 -7v-231q57 34 124 34q97 0 163.5 -62t66.5 -158zM248 464q-50 0 -82 -33v-413q26 2 39 5q82 16 131 94.5t49 167.5q0 43 -13 81q-15 41 -48.5 69.5t-75.5 28.5z" />
    <glyph glyph-name="ydieresis" unicode="&#xff;" horiz-adv-x="598" 
d="M586 486q0 -5 -7 -7q-4 0 -11.5 -0.5t-13.5 -1t-12 -1.5q-123 -436 -328 -635l-47 -39t-37 -26t-46 40t-41 44q0 8 9 8q3 0 9 -2t7 -2q16 -2 25 -2q102 0 205 124l-242 490q-8 1 -21 2t-17 1q-6 2 -6 7q0 8 5 8t42.5 -2.5t61.5 -2.5q23 0 56 2t38 2q6 0 6 -8q0 -5 -7 -7
q-4 0 -11.5 -0.5t-13.5 -1t-12 -1.5l189 -389q86 152 86 282q0 24 -5.5 47t-23 43.5t-45.5 20.5q-6 0 -6 7q0 8 5 8t37 -2.5t55 -2.5t64 2.5t47 2.5t6 -8zM388 545q0 -16 -11.5 -27.5t-27.5 -11.5t-27.5 11.5t-11.5 27.5t11.5 27.5t27.5 11.5t27.5 -11.5t11.5 -27.5z
M288 545q0 -16 -11.5 -27.5t-27.5 -11.5t-27.5 11.5t-11.5 27.5t11.5 27.5t27.5 11.5t27.5 -11.5t11.5 -27.5z" />
    <glyph glyph-name="Abreve" unicode="&#x102;" 
d="M698 3q0 -8 -6 -8t-60 2.5t-77 2.5t-77 -2.5t-59 -2.5t-5 8q0 5 6 7l38 3q25 25 36 44.5t11 51.5q0 47 -33 108h-18q-37 0 -64 -11t-61 -37q-1 -1 -5 -1t-5 1q-38 31 -68.5 39.5t-86.5 8.5q0 -7 -1 -20t-1 -19q0 -117 73 -166q26 -2 38 -3q7 -2 7 -7q0 -8 -6 -8t-53 2.5
t-71 2.5t-72.5 -2.5t-54.5 -2.5q-5 0 -5 8q0 5 6 7l38 3q0 181 142 433l142 253q2 4 7 4t6 -6q6 -34 17.5 -67.5t22 -58t31 -58.5t32 -51.5l38.5 -56l38 -54.5q41 -60 61.5 -94t38.5 -89t18 -112q0 -8 -1.5 -23.5t-1.5 -18.5q26 -2 38 -3q7 -2 7 -7zM463 232
q-20 33 -65.5 95.5t-75.5 115t-43 106.5q-99 -195 -113 -317h297zM475 830q-3 -46 -37 -77.5t-80 -31.5t-80 31.5t-37 77.5l13 5q40 -55 104 -55t104 55z" />
    <glyph glyph-name="abreve" unicode="&#x103;" horiz-adv-x="521" 
d="M509 3q0 -8 -6 -8q-5 0 -41 2.5t-60 2.5l-42 1q-7 0 -7 7v43q-72 -56 -161 -56q-71 0 -125.5 39.5t-54.5 107.5q0 50 33.5 91.5t89 68t103 42t99.5 26.5q-17 42 -49 69.5t-74 27.5q-60 0 -101 -56q0 -2 2 -10t2 -12q0 -7 -9 -7q-6 0 -6 7q-2 12 -8 36q-9 30 -24 57
q-2 4 -2 5q0 2 3.5 4.5t5.5 2.5q3 0 13 -19q46 17 95 17q73 0 130.5 -30.5t91.5 -82.5t51.5 -115t17.5 -133q0 -59 -12 -118q26 -2 38 -3q7 -2 7 -7zM353 70v153q0 95 -11 134q-202 -42 -202 -184q0 -56 34.5 -96.5t89.5 -40.5q50 0 89 34zM377 616q-3 -46 -37 -77.5
t-80 -31.5t-80 31.5t-37 77.5l13 5q40 -55 104 -55t104 55z" />
    <glyph glyph-name="Aogonek" unicode="&#x104;" 
d="M725 -183q-2 0 -5 3q-1 1 -4.5 6.5t-5.5 9.5q-27 -17 -52 -17q-35 0 -59.5 27.5t-24.5 62.5q0 26 13 50.5t35 38.5q-48 2 -67 2q-23 0 -77 -2.5t-59 -2.5t-5 8q0 5 6 7l38 3q25 25 36 44.5t11 51.5q0 47 -33 108h-18q-37 0 -64 -11t-61 -37q-1 -1 -5 -1t-5 1
q-38 31 -68.5 39.5t-86.5 8.5q0 -7 -1 -20t-1 -19q0 -117 73 -166l38 -3q7 -2 7 -7q0 -8 -6 -8t-53 2.5t-71 2.5t-72.5 -2.5t-54.5 -2.5q-5 0 -5 8q0 5 6 7l38 3q0 181 142 433l142 253q2 4 7 4t6 -6q6 -34 17.5 -67.5t22 -58t31 -58.5t32 -51.5l38.5 -56l38 -54.5
q41 -60 61.5 -94t38.5 -89t18 -112q0 -8 -1.5 -23.5t-1.5 -18.5q5 -1 18 -1q14 -2 20 -2q7 -2 7 -7q0 -8 -6 -8q-2 0 -13 0.5t-20 0.5q-23 -4 -41 -22.5t-18 -41.5q0 -19 13 -34t33 -15q21 0 47 17v5q0 21 7 21q9 0 9 -6q0 -4 -1 -10t-1 -10q0 -43 24 -70q3 -3 3 -5t-3 -5
t-6 -3zM463 232q-20 33 -65.5 95.5t-75.5 115t-43 106.5q-99 -195 -113 -317h297z" />
    <glyph glyph-name="aogonek" unicode="&#x105;" horiz-adv-x="521" 
d="M539 -184q-2 0 -5 3q-1 1 -4.5 7t-5.5 9q-27 -17 -52 -17q-35 0 -59.5 27.5t-24.5 62.5q0 27 14 52.5t37 38.5q-12 1 -37 1l-42 1q-7 0 -7 7v43q-72 -56 -161 -56q-71 0 -125.5 39.5t-54.5 107.5q0 50 33.5 91.5t89 68t103 42t99.5 26.5q-17 42 -49 69.5t-74 27.5
q-60 0 -101 -56q0 -2 2 -10t2 -12q0 -7 -9 -7q-6 0 -6 7q-2 12 -8 36q-9 30 -24 57q-2 4 -2 5q0 2 3.5 4.5t5.5 2.5q3 0 13 -19q46 17 95 17q73 0 130.5 -30.5t91.5 -82.5t51.5 -115t17.5 -133q0 -59 -12 -118l38 -3q7 -2 7 -7q0 -8 -6 -8q-3 0 -11 0.5t-13 0.5
q-25 -2 -45 -21.5t-20 -43.5q0 -19 13 -34t33 -15q21 0 47 17v5q0 21 7 21q9 0 9 -6q0 -3 -1 -10t-1 -10q0 -43 24 -70q3 -3 3 -5t-3 -5t-6 -3zM353 70v153q0 95 -11 134q-202 -42 -202 -184q0 -56 34.5 -96.5t89.5 -40.5q50 0 89 34z" />
    <glyph glyph-name="Cacute" unicode="&#x106;" horiz-adv-x="637" 
d="M619 19q0 -6 -9 -6q-4 0 -15 27q-85 -40 -206 -40q-149 0 -260 101.5t-111 249.5t111 249.5t260 101.5q93 0 173 -40q3 18 10 18q8 0 8 -6q0 -13 -36 -139q-2 -6 -6 -6q-9 0 -9 6q0 4 2.5 10.5t2.5 9.5q0 15 -8 33q-16 40 -57 67.5t-85 27.5q-55 0 -98 -33.5t-66.5 -86
t-35.5 -107t-12 -105.5t12.5 -106.5t37 -108.5t68.5 -87t99 -34q99 0 166 114q0 1 -3.5 8t-3.5 9q0 8 9 8q3 0 6 -5q56 -121 56 -130zM496 886q0 -13 -17 -30l-136 -135h-24l107 177q15 24 34 24q15 0 25.5 -10.5t10.5 -25.5z" />
    <glyph glyph-name="cacute" unicode="&#x107;" horiz-adv-x="528" 
d="M510 59q0 -2 -4 -6q-76 -55 -193 -55q-76 0 -142 27t-109.5 85t-43.5 136q0 104 79 175t184 71q43 0 85.5 -8.5t80.5 -36.5t38 -71q0 -25 -20.5 -41.5t-46.5 -16.5q-39 0 -71 39q-2 2 -2 5q0 2 19 18t19 36q0 29 -29 44.5t-61 15.5q-37 0 -66 -21.5t-45.5 -55
t-24.5 -69.5t-8 -70q0 -59 15 -111.5t56 -92.5t101 -40q48 0 88 22t57 64q0 1 -2.5 7l-5 11.5t-2.5 6.5q0 7 7 7q5 0 8 -5q20 -43 38 -67q1 -1 1 -3zM376 672q0 -13 -17 -30l-136 -135h-24l107 177q15 24 34 24q15 0 25.5 -10.5t10.5 -25.5z" />
    <glyph glyph-name="Ccaron" unicode="&#x10c;" horiz-adv-x="637" 
d="M619 19q0 -6 -9 -6q-4 0 -15 27q-85 -40 -206 -40q-149 0 -260 101.5t-111 249.5t111 249.5t260 101.5q93 0 173 -40q3 18 10 18q8 0 8 -6q0 -13 -36 -139q-2 -6 -6 -6q-9 0 -9 6q0 4 2.5 10.5t2.5 9.5q0 15 -8 33q-16 40 -57 67.5t-85 27.5q-55 0 -98 -33.5t-66.5 -86
t-35.5 -107t-12 -105.5t12.5 -106.5t37 -108.5t68.5 -87t99 -34q99 0 166 114q0 1 -3.5 8t-3.5 9q0 8 9 8q3 0 6 -5q56 -121 56 -130zM483 899l-106 -173h-12l-107 173h17l72 -116l71 116h65z" />
    <glyph glyph-name="ccaron" unicode="&#x10d;" horiz-adv-x="528" 
d="M510 59q0 -2 -4 -6q-76 -55 -193 -55q-76 0 -142 27t-109.5 85t-43.5 136q0 104 79 175t184 71q43 0 85.5 -8.5t80.5 -36.5t38 -71q0 -25 -20.5 -41.5t-46.5 -16.5q-39 0 -71 39q-2 2 -2 5q0 2 19 18t19 36q0 29 -29 44.5t-61 15.5q-37 0 -66 -21.5t-45.5 -55
t-24.5 -69.5t-8 -70q0 -59 15 -111.5t56 -92.5t101 -40q48 0 88 22t57 64q0 1 -2.5 7l-5 11.5t-2.5 6.5q0 7 7 7q5 0 8 -5q20 -43 38 -67q1 -1 1 -3zM376 685l-106 -173h-12l-107 173h17l72 -116l71 116h65z" />
    <glyph glyph-name="Dcaron" unicode="&#x10e;" horiz-adv-x="649" 
d="M631 351q0 -65 -20 -120t-54.5 -93.5t-83 -67t-103.5 -45t-117 -22.5q-29 -3 -127 -3q-24 0 -60.5 -2.5t-41.5 -2.5t-5 8q0 5 6 7l38 3v676q-26 2 -38 3q-7 2 -7 7q0 8 6 8t42.5 -2.5t58.5 -2.5h52q53 0 80 -3q161 -18 267.5 -106t106.5 -242zM492 351q0 125 -60.5 220
t-176.5 113q-29 4 -67 4v-673h28q65 0 119 29.5t87.5 78t51.5 107.5t18 121zM395 899l-106 -173h-12l-107 173h17l72 -116l71 116h65z" />
    <glyph glyph-name="dcaron" unicode="&#x10f;" horiz-adv-x="668" 
d="M543 4q0 -8 -6 -8t-40 2t-54 2h-38q-13 0 -13 44q-65 -53 -148 -53q-98 0 -165 61.5t-67 158.5q0 115 113 195q111 79 267 81v203l-38 3q-6 2 -6 7q0 8 5 8t37 -2.5t55 -2.5t54 2.5t37 2.5t6 -8q0 -5 -7 -7q-24 -2 -37 -3v-676q26 -2 38 -3q7 -2 7 -7zM392 121v351
q-44 0 -65 -4q-82 -15 -130.5 -94t-48.5 -168q0 -68 37.5 -124t98.5 -56q43 0 75.5 26.5t32.5 68.5zM662 727q0 -43 -26.5 -78.5t-68.5 -51.5l-7 13q35 23 37 67q-19 4 -30.5 19t-11.5 33q0 23 15.5 38.5t38.5 15.5q24 0 38.5 -16t14.5 -40z" />
    <glyph glyph-name="Dcroat" unicode="&#x110;" horiz-adv-x="664" 
d="M646 351q0 -65 -20 -120t-54.5 -93.5t-83 -67t-103.5 -45t-117 -22.5q-17 -2 -52 -2q-62 0 -76 -1l-68 -3q-5 0 -15.5 -1t-15.5 -1q-8 0 -8 7t7 8q1 0 38 3v331h-52q-8 0 -8 7t8 7h52v332q-18 0 -38 3q-7 0 -7 6q0 8 8 8q41 -5 99 -5h53q53 0 79 -3q161 -18 267.5 -106
t106.5 -242zM507 351q0 81 -24 149.5t-79.5 120t-134.5 63.5q-29 4 -66 4v-330h52q8 0 8 -7t-8 -7h-52v-329h28q65 0 119 29.5t87.5 78t51.5 107.5t18 121z" />
    <glyph glyph-name="dcroat" unicode="&#x111;" horiz-adv-x="555" 
d="M543 4q0 -8 -6 -8t-40 2t-54 2h-38q-13 0 -13 44q-65 -53 -148 -53q-98 0 -165 61.5t-67 158.5q0 115 113 195q111 79 267 81v102h-109v18h109v83l-38 3q-6 2 -6 7q0 8 5 8t37 -2.5t55 -2.5t54 2.5t37 2.5t6 -8q0 -5 -7 -7l-37 -3v-83h47v-18h-47v-575l38 -3q7 -2 7 -7z
M392 121v351q-44 0 -65 -4q-82 -15 -130.5 -94t-48.5 -168q0 -68 37.5 -124t98.5 -56q43 0 75.5 26.5t32.5 68.5z" />
    <glyph glyph-name="Eogonek" unicode="&#x118;" horiz-adv-x="639" 
d="M662 -180q-2 0 -5 3q-1 1 -4.5 6.5t-5.5 9.5q-27 -17 -52 -17q-35 0 -59.5 27.5t-24.5 62.5q0 25 13 49.5t34 38.5h-433q-18 0 -52 -2.5t-49 -2.5q-6 0 -6 7t7 8t22 2t16 1v677q-19 0 -38 3q-7 1 -7 8q0 6 8 6q41 -5 99 -5h458q7 0 7 -8q0 -5 -1 -12.5t-3 -16.5t-3 -13
q-4 -25 -13 -88q-2 -6 -6 -6q-8 0 -8 5q0 2 3 26q-74 61 -161.5 80t-209.5 19v-309h11q66 0 105 2.5t91.5 16t97.5 39.5q4 18 9 18q8 0 8 -6q0 -7 -3.5 -35t-3.5 -42t3.5 -42.5t3.5 -35.5q0 -5 -7 -5t-10 17q-64 38 -129 48t-165 10h-11v-349h28q82 0 211.5 41t157.5 74
q-4 18 -4 29q0 6 6 6q7 0 8 -7q10 -68 17 -101q0 -2 4.5 -22t4.5 -26q0 -9 -7 -9h-13q-25 -2 -44.5 -21.5t-19.5 -43.5q0 -19 13 -34t33 -15q21 0 47 17v5q0 21 7 21q9 0 9 -6q0 -3 -1 -10t-1 -10q0 -43 24 -70q3 -3 3 -5t-3 -5t-6 -3z" />
    <glyph glyph-name="eogonek" unicode="&#x119;" horiz-adv-x="498" 
d="M486 131q0 -14 -17.5 -37.5t-47.5 -47.5q-24 -18 -24 -47q0 -19 13 -34t33 -15q21 0 47 17v5q0 21 7 21q9 0 9 -6q0 -3 -1 -10t-1 -10q0 -43 24 -70q3 -3 3 -5t-3 -5t-6 -3q-2 0 -5 3q-1 1 -4.5 7t-5.5 9q-27 -17 -52 -17q-35 0 -59.5 27.5t-24.5 62.5q0 25 13 49
q-55 -24 -122 -24q-101 0 -175.5 72t-74.5 171q0 101 71 172t171 71q82 0 153 -52.5t71 -131.5q0 -9 -7 -9h-330q-2 -34 -2 -50q0 -52 12.5 -96.5t47.5 -78.5t88 -34q55 0 100 34.5t49 87.5q-21 21 -21 24q0 8 8 8q3 0 5 -2q27 -27 55 -47q3 -2 3 -9zM361 309
q-1 28 -6.5 53.5t-16.5 52t-32 42t-50 15.5q-33 0 -59 -30.5t-37 -64t-17 -68.5h218z" />
    <glyph glyph-name="Ecaron" unicode="&#x11a;" horiz-adv-x="639" 
d="M621 9q0 -9 -7 -9h-489q-18 0 -52 -2.5t-49 -2.5q-6 0 -6 7t7 8t22 2t16 1v677q-19 0 -38 3q-7 1 -7 8q0 6 8 6q41 -5 99 -5h458q7 0 7 -8q0 -5 -1 -12.5t-3 -16.5t-3 -13q-4 -25 -13 -88q-2 -6 -6 -6q-8 0 -8 5q0 2 3 26q-74 61 -161.5 80t-209.5 19v-309h11
q66 0 105 2.5t91.5 16t97.5 39.5q4 18 9 18q8 0 8 -6q0 -7 -3.5 -35t-3.5 -42t3.5 -42.5t3.5 -35.5q0 -5 -7 -5t-10 17q-64 38 -129 48t-165 10h-11v-349h28q82 0 211.5 41t157.5 74q-4 18 -4 29q0 6 6 6q7 0 8 -7q10 -68 17 -101q0 -2 4.5 -22t4.5 -26zM432 899l-106 -173
h-12l-107 173h17l72 -116l71 116h65z" />
    <glyph glyph-name="ecaron" unicode="&#x11b;" horiz-adv-x="498" 
d="M486 131q0 -13 -14 -33.5t-39.5 -43t-71 -38t-99.5 -15.5q-101 0 -175.5 72t-74.5 171q0 101 71 172t171 71q82 0 153 -52.5t71 -131.5q0 -9 -7 -9h-330q-2 -34 -2 -50q0 -52 12.5 -96.5t47.5 -78.5t88 -34q55 0 100 34.5t49 87.5q-21 21 -21 24q0 8 8 8q3 0 5 -2
q27 -27 55 -47q3 -2 3 -9zM361 309q-1 28 -6.5 53.5t-16.5 52t-32 42t-50 15.5q-33 0 -59 -30.5t-37 -64t-17 -68.5h218zM361 685l-106 -173h-12l-107 173h17l72 -116l71 116h65z" />
    <glyph glyph-name="dotlessi" unicode="&#x131;" horiz-adv-x="231" 
d="M213 485q0 -5 -7 -7q-4 0 -11.5 -0.5t-13.5 -1t-12 -1.5v-462q12 -2 36 -4q7 -2 7 -7q0 -8 -6 -8t-37 2.5t-54 2.5t-55 -2.5t-37 -2.5t-5 8q0 5 6 7l39 3v463l-38 3q-6 2 -6 7q0 8 5 8q6 0 37 -2.5t55 -2.5t55 2.5t36 2.5q6 0 6 -8z" />
    <glyph glyph-name="Lacute" unicode="&#x139;" horiz-adv-x="547" 
d="M529 7q0 -7 -8 -7h-396q-26 0 -61.5 -2.5t-40.5 -2.5t-5 8q0 5 6 7l38 3v677l-38 3q-6 2 -6 7q0 8 5 8q6 0 42.5 -2.5t59.5 -2.5t59 2.5t42 2.5t6 -8q0 -5 -7 -7l-38 -3v-675h27q74 0 144.5 27t106.5 81q0 1 -4.5 14t-4.5 15q0 7 7 7q6 0 8 -5l17 -46t20.5 -53l19.5 -45
v-1q1 -1 1 -2zM362 886q0 -13 -17 -30l-136 -135h-24l107 177q15 24 34 24q15 0 25.5 -10.5t10.5 -25.5z" />
    <glyph glyph-name="lacute" unicode="&#x13a;" horiz-adv-x="218" 
d="M206 3q0 -8 -6 -8t-37 2.5t-54 2.5t-54.5 -2.5t-37.5 -2.5q-5 0 -5 8q0 5 6 7q24 2 38 4v676q-2 0 -38 3q-6 2 -6 7q0 8 5 8q6 0 37.5 -2.5t54.5 -2.5t54 2.5t37 2.5t6 -8q0 -5 -7 -7q-4 0 -11 -1t-13 -1.5t-12 -0.5v-676q7 -1 18.5 -2.5t17.5 -1.5q7 -2 7 -7zM206 891
q0 -13 -17 -30l-136 -135h-24l107 177q15 24 34 24q15 0 25.5 -10.5t10.5 -25.5z" />
    <glyph glyph-name="Lcaron" unicode="&#x13d;" horiz-adv-x="547" 
d="M529 7q0 -7 -8 -7h-396q-26 0 -61.5 -2.5t-40.5 -2.5t-5 8q0 5 6 7l38 3v677l-38 3q-6 2 -6 7q0 8 5 8q6 0 42.5 -2.5t59.5 -2.5t59 2.5t42 2.5t6 -8q0 -5 -7 -7l-38 -3v-675h27q74 0 144.5 27t106.5 81q0 1 -4.5 14t-4.5 15q0 7 7 7q6 0 8 -5l17 -46t20.5 -53l19.5 -45
v-1q1 -1 1 -2zM396 729q0 -42 -26 -76t-66 -50l-7 13q35 23 35 66q-18 4 -29 18t-11 32q0 21 15 36.5t37 15.5q23 0 37.5 -15.5t14.5 -39.5z" />
    <glyph glyph-name="lcaron" unicode="&#x13e;" horiz-adv-x="328" 
d="M206 3q0 -8 -6 -8t-37 2.5t-54 2.5t-54.5 -2.5t-37.5 -2.5q-5 0 -5 8q0 5 6 7q24 2 38 4v676q-2 0 -38 3q-6 2 -6 7q0 8 5 8q6 0 37.5 -2.5t54.5 -2.5t54 2.5t37 2.5t6 -8q0 -5 -7 -7q-4 0 -11 -1t-13 -1.5t-12 -0.5v-676q7 -1 18.5 -2.5t17.5 -1.5q7 -2 7 -7zM337 717
q0 -44 -27.5 -80.5t-69.5 -52.5l-7 13q35 26 37 69q-19 4 -30.5 19t-11.5 35q0 23 16 39t38 16q24 0 39.5 -16.5t15.5 -41.5z" />
    <glyph glyph-name="Lslash" unicode="&#x141;" horiz-adv-x="557" 
d="M539 7q0 -7 -7 -7h-397q-18 0 -52 -2.5t-49 -2.5q-6 0 -6 10q0 3 9 4.5t22 2.5t14 1v269q-2 -1 -14 -5.5t-22.5 -8t-12.5 -3.5q-6 0 -6 9q0 2 5 5t12.5 6t14.5 5.5t14 4.5t9 3v392q-6 0 -12 0.5t-14 1.5t-12 1q-7 0 -7 6q0 8 8 8q40 -5 99 -5q16 0 50 2.5t52 2.5
q5 0 5 -8q0 -6 -6 -6q-4 0 -12 -1t-14 -1.5t-12 -0.5v-345q83 33 92 33q5 0 5 -9q0 -3 -5 -6l-92 -34v-314h26q74 0 144.5 27t106.5 81q-8 24 -8 29q0 7 9 7q3 0 5 -5q30 -86 57 -144v-1q1 -1 1 -2z" />
    <glyph glyph-name="lslash" unicode="&#x142;" horiz-adv-x="262" 
d="M244 429q0 -3 -12.5 -9.5t-29 -13t-17.5 -7.5v-386q3 0 13.5 -0.5t16.5 -1.5q7 -1 7 -8t-8 -7q-10 0 -38.5 2t-44.5 2q-14 0 -41.5 -2t-42.5 -2q-6 0 -6 9q0 4 7 5.5t18 2t12 0.5v337q-48 -24 -53 -24q-7 0 -7 9q0 3 12.5 9.5t29.5 14t18 7.5v324h-6q-31 0 -31 8q0 9 8 9
q14 0 41 -2t41 -2q16 0 45 2t40 2q6 0 6 -7t-7 -8q-10 -2 -30 -2v-275q48 24 53 24q6 0 6 -10z" />
    <glyph glyph-name="Nacute" unicode="&#x143;" horiz-adv-x="641" 
d="M623 4q0 -8 -6 -8q-7 0 -32 2t-39 2q-16 0 -41.5 -2t-32.5 -2q-5 0 -5 8q0 5 6 7l38 3q27 3 43 24.5t16 48.5q0 15 -4.5 30.5t-15.5 31l-20 27.5t-28 27.5l-29 24t-33.5 23.5l-30.5 19.5t-31.5 19t-25.5 15.5q-109 67 -179.5 131t-104.5 153q-12 -149 -12 -186
q0 -82 18 -150q44 -161 128 -238l18.5 -3t18.5 -2q7 -2 7 -7q0 -8 -6 -8t-47 2.5t-64 2.5t-55 -2.5t-37 -2.5t-5 8q0 5 6 7q6 0 9 1t10 2q-37 154 -37 330q0 69 19.5 193t22.5 153l-38 3q-6 2 -6 7q0 8 5 8q6 0 42.5 -2t60.5 -2q47 0 70 1q30 3 31 3q7 0 7 -8
q0 -2 -10 -10.5t-20.5 -23.5t-10.5 -32q0 -19 18.5 -42.5t32.5 -35.5t39 -30q21 -16 108.5 -73.5t127.5 -97.5q37 -37 59 -81q-7 123 -43 236.5t-109 180.5q-7 1 -13.5 1.5t-14 1t-11.5 0.5q-6 2 -6 7q0 8 5 8q6 0 47 -2.5t65 -2.5t58 1.5t40 1.5t6 -8q0 -5 -7 -7
q-24 -2 -39 -2q42 -207 42 -401q0 -143 -20 -274q26 -2 38 -3q7 -2 7 -7zM447 886q0 -13 -17 -30l-136 -135h-24l107 177q15 24 34 24q15 0 25.5 -10.5t10.5 -25.5z" />
    <glyph glyph-name="nacute" unicode="&#x144;" horiz-adv-x="569" 
d="M557 3q0 -8 -6 -8q-5 0 -36 2.5t-55 2.5t-57 -2.5t-39 -2.5q-5 0 -5 8q0 5 6 7q37 3 38 3q4 112 4 157q0 301 -155 301q-44 0 -86 -31v-428q13 -1 37 -3q7 -2 7 -7q0 -8 -6 -8t-37 2.5t-54 2.5t-57 -2t-39 -2t-5 8q0 5 6 7q37 3 38 3v461q-8 1 -21 2t-17 1q-6 2 -6 7
q0 8 5 8q8 0 44.5 -2.5t46.5 -2.5h49q9 0 9 -22q51 27 106 27q63 0 109 -22t71 -54.5t39.5 -84t18.5 -96.5t4 -105v-117l36 -3q7 -2 7 -7zM373 672q0 -13 -17 -30l-136 -135h-24l107 177q15 24 34 24q15 0 25.5 -10.5t10.5 -25.5z" />
    <glyph glyph-name="Ncaron" unicode="&#x147;" horiz-adv-x="641" 
d="M623 4q0 -8 -6 -8q-7 0 -32 2t-39 2q-16 0 -41.5 -2t-32.5 -2q-5 0 -5 8q0 5 6 7l38 3q27 3 43 24.5t16 48.5q0 15 -4.5 30.5t-15.5 31l-20 27.5t-28 27.5l-29 24t-33.5 23.5l-30.5 19.5t-31.5 19t-25.5 15.5q-109 67 -179.5 131t-104.5 153q-12 -149 -12 -186
q0 -82 18 -150q44 -161 128 -238l18.5 -3t18.5 -2q7 -2 7 -7q0 -8 -6 -8t-47 2.5t-64 2.5t-55 -2.5t-37 -2.5t-5 8q0 5 6 7q6 0 9 1t10 2q-37 154 -37 330q0 69 19.5 193t22.5 153l-38 3q-6 2 -6 7q0 8 5 8q6 0 42.5 -2t60.5 -2q47 0 70 1q30 3 31 3q7 0 7 -8
q0 -2 -10 -10.5t-20.5 -23.5t-10.5 -32q0 -19 18.5 -42.5t32.5 -35.5t39 -30q21 -16 108.5 -73.5t127.5 -97.5q37 -37 59 -81q-7 123 -43 236.5t-109 180.5q-7 1 -13.5 1.5t-14 1t-11.5 0.5q-6 2 -6 7q0 8 5 8q6 0 47 -2.5t65 -2.5t58 1.5t40 1.5t6 -8q0 -5 -7 -7
q-24 -2 -39 -2q42 -207 42 -401q0 -143 -20 -274q26 -2 38 -3q7 -2 7 -7zM433 899l-106 -173h-12l-107 173h17l72 -116l71 116h65z" />
    <glyph glyph-name="ncaron" unicode="&#x148;" horiz-adv-x="569" 
d="M557 3q0 -8 -6 -8q-5 0 -36 2.5t-55 2.5t-57 -2.5t-39 -2.5q-5 0 -5 8q0 5 6 7q37 3 38 3q4 112 4 157q0 301 -155 301q-44 0 -86 -31v-428q13 -1 37 -3q7 -2 7 -7q0 -8 -6 -8t-37 2.5t-54 2.5t-57 -2t-39 -2t-5 8q0 5 6 7q37 3 38 3v461q-8 1 -21 2t-17 1q-6 2 -6 7
q0 8 5 8q8 0 44.5 -2.5t46.5 -2.5h49q9 0 9 -22q51 27 106 27q63 0 109 -22t71 -54.5t39.5 -84t18.5 -96.5t4 -105v-117l36 -3q7 -2 7 -7zM397 685l-106 -173h-12l-107 173h17l72 -116l71 116h65z" />
    <glyph glyph-name="Ohungarumlaut" unicode="&#x150;" horiz-adv-x="707" 
d="M683 351q0 -143 -94 -252t-235 -109t-235.5 108.5t-94.5 252.5t94 253t236 109q141 0 235 -109.5t94 -252.5zM520 351q0 47 -7 99t-23 111.5t-51.5 98t-84.5 38.5t-84.5 -38.5t-52 -98t-23.5 -111.5t-7 -99t7 -99t23.5 -111.5t52 -98t84.5 -38.5t84.5 38.5t51.5 98
t23 111.5t7 99zM399 722h-21l51 153q8 27 31 27q12 0 20.5 -9.5t8.5 -21.5q0 -6 -9 -21q-7 -10 -81 -128zM318 722h-21l16.5 48.5l18.5 56.5t16 48q2 6 4 10q10 17 27 17q12 0 20.5 -9t8.5 -21q0 -11 -8 -22z" />
    <glyph glyph-name="ohungarumlaut" unicode="&#x151;" horiz-adv-x="526" 
d="M508 234q0 -102 -72 -172.5t-174 -70.5t-173 70.5t-71 172.5t71.5 182.5t172.5 80.5t173.5 -80.5t72.5 -182.5zM384 234q0 26 -2.5 55t-11 64.5t-21.5 63t-35.5 46.5t-51.5 19q-36 0 -61.5 -27.5t-37 -70t-16.5 -79.5t-5 -71t5 -68.5t16.5 -73t37 -62.5t61.5 -24t62 24
t38 62.5t17 73t5 68.5zM308 508h-21l51 153q8 27 31 27q12 0 20.5 -9.5t8.5 -21.5q0 -6 -9 -21q-7 -10 -81 -128zM227 508h-21l51 153q2 6 4 10q10 17 27 17q12 0 20.5 -9t8.5 -21q0 -11 -8 -22z" />
    <glyph glyph-name="OE" unicode="&#x152;" horiz-adv-x="1060" 
d="M1042 9q0 -9 -7 -9h-628q-9 0 -34.5 -5.5t-39.5 -5.5q-92 0 -165.5 54t-111.5 136t-38 172t38 172.5t111.5 136t165.5 53.5q14 0 39.5 -5.5t34.5 -5.5h597q7 0 7 -8q0 -1 -3 -8t-7 -19t-5 -24q-1 -7 -2 -21t-2.5 -23t-3 -19t-4.5 -15t-7 -5q-6 0 -6 6q0 4 1 12.5t1 13.5
q-73 57 -161 76.5t-204 19.5v-309h20q96 0 160 10.5t126 47.5q4 21 9 21q9 0 9 -5v-2q-1 -1 -1 -2q-7 -36 -7 -77q0 -42 7 -78l1 -2v-2q0 -5 -9 -5q-5 0 -9 21q-62 38 -125.5 48t-160.5 10h-20v-349h37q231 0 359 115q0 4 -1.5 13.5t-1.5 12.5q0 7 7 7t10.5 -15.5t6 -46
t4.5 -41.5q1 -9 7 -27.5t6 -23.5zM483 351q0 34 -3 72.5t-13 89.5t-25.5 90.5t-43.5 67t-65 27.5q-45 0 -77.5 -39.5t-47 -100.5t-20.5 -112t-6 -95t6 -95t20.5 -112t47 -100.5t77.5 -39.5q37 0 65 27.5t43.5 67t25.5 90.5t13 89.5t3 72.5z" />
    <glyph glyph-name="oe" unicode="&#x153;" horiz-adv-x="847" 
d="M829 304q0 -10 -7 -10h-340q-3 -26 -3 -50q0 -38 7.5 -73t24 -67t47 -51.5t70.5 -19.5q55 0 100 36t50 90q-1 1 -7 5.5t-11 9t-5 6.5t3 5t6 3t60 -49q2 -2 2 -6q0 -2 -1 -3q-35 -62 -97 -96.5t-134 -34.5q-95 0 -166 66q-69 -66 -166 -66q-101 0 -172.5 74t-71.5 176
t71.5 176.5t172.5 74.5q99 0 172 -73q69 66 159 66q68 0 127 -37.5t90 -99.5q19 -38 19 -52zM701 310q-1 28 -6.5 53.5t-16 52t-32 42.5t-50.5 16q-33 0 -58.5 -31t-37 -65t-16.5 -68h217zM383 249q0 34 -5 69.5t-16.5 75.5t-37.5 65t-62 25t-62 -25t-37.5 -65t-16.5 -75.5
t-5 -69.5t5 -69.5t17 -75.5t37.5 -65t61.5 -25t61.5 25t37.5 65t17 75.5t5 69.5z" />
    <glyph glyph-name="Racute" unicode="&#x154;" horiz-adv-x="669" 
d="M62 13v676q-22 2 -38 4q-6 2 -6 7q0 8 5 8q4 0 37 -3t65 -3h148q57 0 118.5 -14.5t118.5 -42.5t94 -77.5t37 -111.5q0 -59 -33.5 -106.5t-86 -76t-109.5 -44t-112 -17.5q65 -27 118 -74q28 -25 46 -39.5t48.5 -29t58.5 -14.5q10 0 21 2.5t19.5 5.5t16 6.5t12.5 6.5l4 2
q7 0 7 -7q0 -3 -1 -4q-59 -72 -153 -72q-88 0 -173 63t-136 148v-191q27 -4 37 -5q7 -2 7 -7q0 -8 -6 -8t-42 2.5t-59 2.5t-59.5 -2.5t-42.5 -2.5q-5 0 -5 8q0 5 6 7zM494 456q0 69 -42 121t-103 77t-128 25q-11 0 -33 -2v-443q11 -1 33 -1q68 0 129 24t102.5 76.5
t41.5 122.5zM423 886q0 -13 -17 -30l-136 -135h-24l107 177q15 24 34 24q15 0 25.5 -10.5t10.5 -25.5z" />
    <glyph glyph-name="racute" unicode="&#x155;" horiz-adv-x="365" 
d="M353 424q0 -31 -19 -55t-49 -24q-19 0 -32.5 10.5t-20 22.5t-14.5 22.5t-17 10.5q-20 0 -29.5 -25t-9.5 -49v-324q13 -1 37 -3q7 -2 7 -7q0 -8 -6 -8t-37 2.5t-54 2.5t-54.5 -2.5t-37.5 -2.5q-5 0 -5 8q0 5 6 7q37 3 38 3v461q-8 1 -21 2t-17 1q-6 2 -6 7q0 8 5 8
q8 0 45 -2.5t47 -2.5h46q7 0 7 -8v-64q16 34 48 57t68 23q33 0 54 -19t21 -52zM271 672q0 -13 -17 -30l-136 -135h-24l107 177q15 24 34 24q15 0 25.5 -10.5t10.5 -25.5z" />
    <glyph glyph-name="Rcaron" unicode="&#x158;" horiz-adv-x="669" 
d="M62 13v676q-22 2 -38 4q-6 2 -6 7q0 8 5 8q4 0 37 -3t65 -3h148q57 0 118.5 -14.5t118.5 -42.5t94 -77.5t37 -111.5q0 -59 -33.5 -106.5t-86 -76t-109.5 -44t-112 -17.5q65 -27 118 -74q28 -25 46 -39.5t48.5 -29t58.5 -14.5q10 0 21 2.5t19.5 5.5t16 6.5t12.5 6.5l4 2
q7 0 7 -7q0 -3 -1 -4q-59 -72 -153 -72q-88 0 -173 63t-136 148v-191q27 -4 37 -5q7 -2 7 -7q0 -8 -6 -8t-42 2.5t-59 2.5t-59.5 -2.5t-42.5 -2.5q-5 0 -5 8q0 5 6 7zM494 456q0 69 -42 121t-103 77t-128 25q-11 0 -33 -2v-443q11 -1 33 -1q68 0 129 24t102.5 76.5
t41.5 122.5zM447 899l-106 -173h-12l-107 173h17l72 -116l71 116h65z" />
    <glyph glyph-name="rcaron" unicode="&#x159;" horiz-adv-x="365" 
d="M353 424q0 -31 -19 -55t-49 -24q-19 0 -32.5 10.5t-20 22.5t-14.5 22.5t-17 10.5q-20 0 -29.5 -25t-9.5 -49v-324q13 -1 37 -3q7 -2 7 -7q0 -8 -6 -8t-37 2.5t-54 2.5t-54.5 -2.5t-37.5 -2.5q-5 0 -5 8q0 5 6 7q37 3 38 3v461q-8 1 -21 2t-17 1q-6 2 -6 7q0 8 5 8
q8 0 45 -2.5t47 -2.5h46q7 0 7 -8v-64q16 34 48 57t68 23q33 0 54 -19t21 -52zM295 685l-106 -173h-12l-107 173h17l72 -116l71 116h65z" />
    <glyph glyph-name="Sacute" unicode="&#x15a;" horiz-adv-x="653" 
d="M635 252q0 -76 -49.5 -135.5t-120 -88t-144.5 -28.5q-26 0 -55.5 4t-51 8t-55.5 11.5l-52 11.5q-26 6 -39 6q-16 0 -24 -9.5t-10.5 -18.5t-6.5 -9q-9 0 -9 6l8 22l15 46.5t9 30.5q13 49 20 92q2 6 6 6q8 0 8 -6q0 -5 -1 -14t-1 -13q0 -58 75 -104.5t137 -46.5
q78 0 144 42.5t66 116.5q0 36 -18.5 62.5t-50.5 41.5t-61.5 24.5t-65.5 17.5l-15 3q-35 8 -57.5 14.5t-56 21t-54 30.5t-35.5 42.5t-15 58.5q0 63 42 110.5t99.5 69t118.5 21.5q25 0 74 -8.5t74 -8.5q41 0 58 19q1 1 3.5 5t5 7t4.5 3q8 0 8 -7q0 -3 -2 -5q-22 -40 -39 -84
q-17 -48 -22 -85q0 -6 -7 -6t-7 5q0 2 1.5 12t1.5 14q0 52 -49.5 84.5t-105.5 32.5q-51 0 -88.5 -27.5t-37.5 -75.5q0 -33 28 -53.5t66 -28.5l60.5 -13t62 -16.5t64.5 -23t56 -30.5t48.5 -40t30 -51.5t12.5 -65.5zM460 886q0 -13 -17 -30l-136 -135h-24l107 177q15 24 34 24
q15 0 25.5 -10.5t10.5 -25.5z" />
    <glyph glyph-name="sacute" unicode="&#x15b;" horiz-adv-x="506" 
d="M488 175q0 -60 -44.5 -103.5t-102.5 -61.5t-117 -18q-87 0 -158 40q-6 3 -11 3q-8 0 -17.5 -7.5t-11.5 -7.5q-8 0 -8 6q0 3 4 7q9 10 15 26t7 26t2.5 32t1.5 27v21q0 8 7 8q8 0 8 -9v-6q0 -45 67.5 -92t130.5 -47q49 0 87.5 24.5t38.5 70.5q0 17 -6.5 30.5t-22 24
t-25.5 16.5t-34.5 12.5t-31 8t-30.5 6.5q-193 41 -193 133q0 22 12 48q26 55 91 80t136 25q57 0 100 -12q0 1 2.5 5.5t5 8t4.5 3.5q9 0 9 -7q0 -2 -2 -4q-27 -53 -39 -97q-2 -6 -6 -6q-8 0 -8 6q0 9 4 17q-13 30 -45.5 46t-68.5 16q-35 0 -64.5 -16t-29.5 -48q0 -44 69 -64
q9 -3 49.5 -12.5t62 -16t57.5 -21t55 -29.5t34.5 -39t15.5 -53zM341 672q0 -13 -17 -30l-136 -135h-24l107 177q15 24 34 24q15 0 25.5 -10.5t10.5 -25.5z" />
    <glyph glyph-name="Scedilla" unicode="&#x15e;" horiz-adv-x="653" 
d="M383 -117q0 -42 -30.5 -69.5t-73.5 -27.5q-15 0 -35.5 6t-20.5 15q0 2 3 5.5t5 3.5t5 -3q15 -12 43 -12q23 0 42 14.5t19 37.5t-16 35.5t-31.5 14.5t-39.5 2h-8q47 71 66 95q-24 0 -52.5 4t-48.5 8.5l-53.5 12t-49.5 10.5q-26 6 -39 6q-16 0 -24 -9.5t-10.5 -18.5
t-6.5 -9q-9 0 -9 6l8 22l15 46.5t9 30.5q13 49 20 92q2 6 6 6q8 0 8 -6q0 -5 -1 -14t-1 -13q0 -58 75 -104.5t137 -46.5q78 0 144 42.5t66 116.5q0 36 -18.5 62.5t-50.5 41.5t-61.5 24.5t-65.5 17.5l-15 3q-35 8 -57.5 14.5t-56 21t-54 30.5t-35.5 42.5t-15 58.5
q0 63 42 110.5t99.5 69t118.5 21.5q25 0 74 -8.5t74 -8.5q41 0 58 19q1 1 3.5 5t5 7t4.5 3q8 0 8 -7q0 -3 -2 -5q-22 -40 -39 -84q-17 -48 -22 -85q0 -6 -7 -6t-7 5q0 2 1.5 12t1.5 14q0 52 -49.5 84.5t-105.5 32.5q-51 0 -88.5 -27.5t-37.5 -75.5q0 -33 28 -53.5t66 -28.5
l60.5 -13t62 -16.5t64.5 -23t56 -30.5t48.5 -40t30 -51.5t12.5 -65.5q0 -75 -48 -133.5t-116.5 -87.5t-141.5 -31l-23 -33q34 -5 55.5 -27.5t21.5 -56.5z" />
    <glyph glyph-name="scedilla" unicode="&#x15f;" horiz-adv-x="506" 
d="M321 -117q0 -42 -30.5 -69.5t-73.5 -27.5q-15 0 -35.5 6t-20.5 15q0 2 3 5.5t5 3.5t5 -3q15 -12 43 -12q23 0 42 14.5t19 37.5t-16 35.5t-31.5 14.5t-39.5 2h-8q11 20 61 88q-7 -1 -20 -1q-87 0 -158 40q-6 3 -11 3q-8 0 -17.5 -7.5t-11.5 -7.5q-8 0 -8 6q0 3 4 7
q9 10 15 26t7 26t2.5 32t1.5 27v21q0 8 7 8q8 0 8 -9v-6q0 -45 67.5 -92t130.5 -47q49 0 87.5 24.5t38.5 70.5q0 17 -6.5 30.5t-22 24t-25.5 16.5t-34.5 12.5t-31 8t-30.5 6.5q-193 41 -193 133q0 22 12 48q26 55 91 80t136 25q57 0 100 -12q0 1 2.5 5.5t5 8t4.5 3.5
q9 0 9 -7q0 -2 -2 -4q-27 -53 -39 -97q-2 -6 -6 -6q-8 0 -8 6q0 9 4 17q-13 30 -45.5 46t-68.5 16q-35 0 -64.5 -16t-29.5 -48q0 -44 69 -64q9 -3 49.5 -12.5t62 -16t57.5 -21t55 -29.5t34.5 -39t15.5 -53q0 -54 -36 -94.5t-84.5 -60.5t-104.5 -26l-19 -27q34 -5 55.5 -27.5
t21.5 -56.5z" />
    <glyph glyph-name="Scaron" unicode="&#x160;" horiz-adv-x="653" 
d="M635 252q0 -76 -49.5 -135.5t-120 -88t-144.5 -28.5q-26 0 -55.5 4t-51 8t-55.5 11.5l-52 11.5q-26 6 -39 6q-16 0 -24 -9.5t-10.5 -18.5t-6.5 -9q-9 0 -9 6l8 22l15 46.5t9 30.5q13 49 20 92q2 6 6 6q8 0 8 -6q0 -5 -1 -14t-1 -13q0 -58 75 -104.5t137 -46.5
q78 0 144 42.5t66 116.5q0 36 -18.5 62.5t-50.5 41.5t-61.5 24.5t-65.5 17.5l-15 3q-35 8 -57.5 14.5t-56 21t-54 30.5t-35.5 42.5t-15 58.5q0 63 42 110.5t99.5 69t118.5 21.5q25 0 74 -8.5t74 -8.5q41 0 58 19q1 1 3.5 5t5 7t4.5 3q8 0 8 -7q0 -3 -2 -5q-22 -40 -39 -84
q-17 -48 -22 -85q0 -6 -7 -6t-7 5q0 2 1.5 12t1.5 14q0 52 -49.5 84.5t-105.5 32.5q-51 0 -88.5 -27.5t-37.5 -75.5q0 -33 28 -53.5t66 -28.5l60.5 -13t62 -16.5t64.5 -23t56 -30.5t48.5 -40t30 -51.5t12.5 -65.5zM439 899l-106 -173h-12l-107 173h17l72 -116l71 116h65z
" />
    <glyph glyph-name="scaron" unicode="&#x161;" horiz-adv-x="506" 
d="M488 175q0 -60 -44.5 -103.5t-102.5 -61.5t-117 -18q-87 0 -158 40q-6 3 -11 3q-8 0 -17.5 -7.5t-11.5 -7.5q-8 0 -8 6q0 3 4 7q9 10 15 26t7 26t2.5 32t1.5 27v21q0 8 7 8q8 0 8 -9v-6q0 -45 67.5 -92t130.5 -47q49 0 87.5 24.5t38.5 70.5q0 17 -6.5 30.5t-22 24
t-25.5 16.5t-34.5 12.5t-31 8t-30.5 6.5q-193 41 -193 133q0 22 12 48q26 55 91 80t136 25q57 0 100 -12q0 1 2.5 5.5t5 8t4.5 3.5q9 0 9 -7q0 -2 -2 -4q-27 -53 -39 -97q-2 -6 -6 -6q-8 0 -8 6q0 9 4 17q-13 30 -45.5 46t-68.5 16q-35 0 -64.5 -16t-29.5 -48q0 -44 69 -64
q9 -3 49.5 -12.5t62 -16t57.5 -21t55 -29.5t34.5 -39t15.5 -53zM365 685l-106 -173h-12l-107 173h17l72 -116l71 116h65z" />
    <glyph glyph-name="Tcedilla" unicode="&#x162;" horiz-adv-x="663" 
d="M387 -70q0 -40 -25.5 -73.5t-64.5 -48.5l-7 12q33 22 35 64q-18 4 -28.5 17.5t-10.5 31.5q0 21 14.5 36t35.5 15q22 0 36.5 -15.5t14.5 -38.5zM273 13v665q-60 -9 -119.5 -32t-99.5 -57q0 -2 2 -11t2 -14q0 -6 -9 -6q-5 0 -6 6l-16 88q-1 3 -3.5 12.5t-4 17.5t-1.5 12
q0 8 7 8h613q7 0 7 -8q0 -4 -1.5 -11t-3.5 -15.5t-3 -11.5q-10 -44 -18 -92q-1 -6 -6 -6q-8 0 -8 5t2 15t2 12q-81 65 -211 87v-664l38 -3q7 -2 7 -7q0 -8 -6 -8q-5 0 -41 2.5t-60 2.5t-60 -2.5t-42 -2.5q-5 0 -5 8q0 5 6 7z" />
    <glyph glyph-name="tcommaaccent" unicode="&#x163;" horiz-adv-x="302" 
d="M200 -70q0 -40 -25.5 -73.5t-64.5 -48.5l-7 12q33 22 35 64q-18 4 -28.5 17.5t-10.5 31.5q0 21 14.5 36t35.5 15q22 0 36.5 -15.5t14.5 -38.5zM290 472h-81v-459q12 0 36 -2q7 -2 7 -7q0 -8 -6 -8t-37 2.5t-54 2.5t-55 -2.5t-37 -2.5t-5 8q0 5 6 7q4 0 12 0.5t14.5 1
t12.5 1.5v458q-52 -4 -91 -43v58h91v204l-38 3q-6 2 -6 7q0 8 5 8q6 0 37 -2.5t54 -2.5t54 2.5t37 2.5t6 -8q0 -5 -7 -7q-30 -2 -36 -4v-202q44 5 81 42v-58z" />
    <glyph glyph-name="Tcaron" unicode="&#x164;" horiz-adv-x="663" 
d="M273 13v665q-60 -9 -119.5 -32t-99.5 -57q0 -2 2 -11t2 -14q0 -6 -9 -6q-5 0 -6 6l-16 88q-1 3 -3.5 12.5t-4 17.5t-1.5 12q0 8 7 8h613q7 0 7 -8q0 -4 -1.5 -11t-3.5 -15.5t-3 -11.5q-10 -44 -18 -92q-1 -6 -6 -6q-8 0 -8 5t2 15t2 12q-81 65 -211 87v-664l38 -3
q7 -2 7 -7q0 -8 -6 -8q-5 0 -41 2.5t-60 2.5t-60 -2.5t-42 -2.5q-5 0 -5 8q0 5 6 7zM444 899l-106 -173h-12l-107 173h17l72 -116l71 116h65z" />
    <glyph glyph-name="tcaron" unicode="&#x165;" horiz-adv-x="386" 
d="M290 472h-81v-459q12 0 36 -2q7 -2 7 -7q0 -8 -6 -8t-37 2.5t-54 2.5t-55 -2.5t-37 -2.5t-5 8q0 5 6 7q4 0 12 0.5t14.5 1t12.5 1.5v458q-52 -4 -91 -43v58h91v204l-38 3q-6 2 -6 7q0 8 5 8q6 0 37 -2.5t54 -2.5t54 2.5t37 2.5t6 -8q0 -5 -7 -7q-30 -2 -36 -4v-202
q44 5 81 42v-58zM394 721q0 -48 -29.5 -87t-75.5 -57l-8 14q39 27 41 75q-21 4 -33.5 20t-12.5 37q0 25 17 43t42 18q26 0 42.5 -18.5t16.5 -44.5z" />
    <glyph glyph-name="Uring" unicode="&#x16e;" horiz-adv-x="658" 
d="M640 405q0 -68 -20.5 -138t-58 -130.5t-98.5 -98.5t-134 -38t-134 38t-98.5 98.5t-58 130.5t-20.5 138q0 166 91 285l-38 3q-6 2 -6 7q0 8 5 8q6 0 54 -2.5t72 -2.5t73 2.5t54 2.5q6 0 6 -8q0 -5 -7 -7q-12 -1 -38 -3q-120 -96 -120 -299q0 -39 7 -84t24 -94t40.5 -88.5
t60.5 -65t81 -25.5q52 0 91.5 35t60.5 88.5t31.5 107t10.5 100.5q0 44 -8.5 93t-26 100.5t-51.5 88t-78 43.5l-22 3q-6 2 -6 7q0 8 5 8q6 0 42 -2.5t60 -2.5t60 2.5t41 2.5q6 0 6 -8q0 -5 -7 -7q-12 -1 -38 -3q92 -118 92 -285zM456 802q0 -34 -25 -58.5t-59 -24.5
t-58.5 24.5t-24.5 58.5q0 35 24.5 59.5t58.5 24.5t59 -25t25 -59zM427 802q0 22 -16 38t-39 16q-22 0 -38 -16t-16 -38t16 -38t38 -16t38.5 16t16.5 38z" />
    <glyph glyph-name="uring" unicode="&#x16f;" horiz-adv-x="554" 
d="M542 3q0 -8 -6 -8q-8 0 -45 2.5t-46 2.5h-43q-10 0 -10 27q-53 -31 -113 -31q-56 0 -98 16.5t-67.5 44t-41 68.5t-21 83.5t-5.5 95.5q0 38 7 171q-12 2 -35 4q-6 2 -6 7q0 8 5 8q6 0 37.5 -2.5t54.5 -2.5t54 2.5t37 2.5t6 -8q0 -5 -7 -7q-4 0 -11.5 -0.5t-13.5 -1
t-12 -1.5q-11 -114 -11 -185q0 -272 155 -272q48 0 86 29v427q-7 0 -13.5 0.5t-14 1.5t-11.5 1q-6 2 -6 7q0 8 5 8q6 0 37 -2.5t55 -2.5t55 2.5t37 2.5t6 -8q0 -5 -7 -7q-4 0 -11.5 -0.5t-13.5 -1t-12 -1.5v-462q13 -1 37 -3q7 -2 7 -7zM360 588q0 -34 -25 -58.5t-59 -24.5
t-58.5 24.5t-24.5 58.5q0 35 24.5 59.5t58.5 24.5t59 -25t25 -59zM331 588q0 22 -16 38t-39 16q-22 0 -38 -16t-16 -38t16 -38t38 -16t38.5 16t16.5 38z" />
    <glyph glyph-name="Uhungarumlaut" unicode="&#x170;" horiz-adv-x="658" 
d="M640 405q0 -68 -20.5 -138t-58 -130.5t-98.5 -98.5t-134 -38t-134 38t-98.5 98.5t-58 130.5t-20.5 138q0 166 91 285l-38 3q-6 2 -6 7q0 8 5 8q6 0 54 -2.5t72 -2.5t73 2.5t54 2.5q6 0 6 -8q0 -5 -7 -7q-12 -1 -38 -3q-120 -96 -120 -299q0 -39 7 -84t24 -94t40.5 -88.5
t60.5 -65t81 -25.5q52 0 91.5 35t60.5 88.5t31.5 107t10.5 100.5q0 44 -8.5 93t-26 100.5t-51.5 88t-78 43.5l-22 3q-6 2 -6 7q0 8 5 8q6 0 42 -2.5t60 -2.5t60 2.5t41 2.5q6 0 6 -8q0 -5 -7 -7q-12 -1 -38 -3q92 -118 92 -285zM393 722h-21l51 153q8 27 31 27
q12 0 20.5 -9.5t8.5 -21.5q0 -6 -9 -21q-7 -10 -81 -128zM312 722h-21l51 153q2 6 4 10q10 17 27 17q12 0 20.5 -9t8.5 -21q0 -11 -8 -22z" />
    <glyph glyph-name="uhungarumlaut" unicode="&#x171;" horiz-adv-x="554" 
d="M542 3q0 -8 -6 -8q-8 0 -45 2.5t-46 2.5h-43q-10 0 -10 27q-53 -31 -113 -31q-56 0 -98 16.5t-67.5 44t-41 68.5t-21 83.5t-5.5 95.5q0 38 7 171q-12 2 -35 4q-6 2 -6 7q0 8 5 8q6 0 37.5 -2.5t54.5 -2.5t54 2.5t37 2.5t6 -8q0 -5 -7 -7q-4 0 -11.5 -0.5t-13.5 -1
t-12 -1.5q-11 -114 -11 -185q0 -272 155 -272q48 0 86 29v427q-7 0 -13.5 0.5t-14 1.5t-11.5 1q-6 2 -6 7q0 8 5 8q6 0 37 -2.5t55 -2.5t55 2.5t37 2.5t6 -8q0 -5 -7 -7q-4 0 -11.5 -0.5t-13.5 -1t-12 -1.5v-462q13 -1 37 -3q7 -2 7 -7zM315 508h-21l51 153q8 27 31 27
q12 0 20.5 -9.5t8.5 -21.5q0 -6 -9 -21q-7 -10 -81 -128zM234 508h-21l51 153q2 6 4 10q10 17 27 17q12 0 20.5 -9t8.5 -21q0 -11 -8 -22z" />
    <glyph glyph-name="Ydieresis" unicode="&#x178;" horiz-adv-x="710" 
d="M692 700q0 -5 -7 -7q-34 -3 -35 -3q-85 -200 -207 -368v-309q6 -1 19 -2t19 -1q7 -2 7 -7q0 -8 -6 -8t-42 2.5t-59 2.5t-60 -2.5t-42 -2.5t-5 8q0 5 6 7l38 3v266l-255 411q-6 0 -12.5 0.5t-14.5 1.5t-12 1q-6 2 -6 7q0 8 5 8t52 -2.5t70 -2.5t69 2.5t52 2.5t6 -8
q0 -5 -7 -7q-24 -2 -37 -3l209 -342q29 46 52.5 126t23.5 134q0 85 -79 85q-6 0 -6 7q0 8 5 8t54 -2.5t73 -2.5t72 2.5t54 2.5t6 -8zM444 759q0 -16 -11.5 -27.5t-27.5 -11.5t-27.5 11.5t-11.5 27.5t11.5 27.5t27.5 11.5t27.5 -11.5t11.5 -27.5zM344 759q0 -16 -11.5 -27.5
t-27.5 -11.5t-27.5 11.5t-11.5 27.5t11.5 27.5t27.5 11.5t27.5 -11.5t11.5 -27.5z" />
    <glyph glyph-name="Zacute" unicode="&#x179;" horiz-adv-x="629" 
d="M611 41q0 -7 -4 -8q-8 -4 -34 -11q-100 -29 -268 -29q-52 0 -154 4q-14 0 -39.5 1t-46.5 1.5t-40 0.5q-7 0 -7 7q0 2 95.5 158.5l207.5 339t116 189.5h-51q-186 0 -287 -122q0 -2 5 -18.5t5 -18.5q0 -6 -9 -6q-4 0 -6 6q-3 8 -7.5 25t-7.5 25q-7 22 -32 72q-4 8 -4 10
q0 6 4 7q76 36 265 36q53 0 161 -4q82 -4 122 -4q8 0 8 -7q0 -2 -3 -8l-414 -665q133 0 224.5 37.5t157.5 137.5q0 5 -2 21t-2 20q0 7 7 7t7 -7q0 -2 16.5 -96t16.5 -101zM435 886q0 -13 -17 -30l-136 -135h-24l107 177q15 24 34 24q15 0 25.5 -10.5t10.5 -25.5z" />
    <glyph glyph-name="zacute" unicode="&#x17a;" horiz-adv-x="486" 
d="M474 29q0 -18 -96.5 -27t-157.5 -9q-208 0 -208 16q0 3 142.5 208l177.5 255h-55q-55 0 -109.5 -20t-88.5 -57l5 -20q0 -7 -6 -7q-5 0 -6 5q-13 38 -34 74q0 1 -2 3.5t-3.5 5.5t-1.5 4q0 19 81 27t142 8q214 0 214 -16q0 -6 -320 -459q99 1 168.5 25.5t120.5 93.5
q-2 16 -2 23q0 8 7 8q3 0 5 -4t4 -13t3 -16.5t2.5 -22.5t2.5 -23q2 -19 8.5 -37.5t6.5 -24.5zM366 672q0 -13 -17 -30l-136 -135h-24l107 177q15 24 34 24q15 0 25.5 -10.5t10.5 -25.5z" />
    <glyph glyph-name="Zdotaccent" unicode="&#x17b;" horiz-adv-x="629" 
d="M611 41q0 -7 -4 -8q-8 -4 -34 -11q-100 -29 -268 -29q-52 0 -154 4q-14 0 -39.5 1t-46.5 1.5t-40 0.5q-7 0 -7 7q0 2 95.5 158.5l207.5 339t116 189.5h-51q-186 0 -287 -122q0 -2 5 -18.5t5 -18.5q0 -6 -9 -6q-4 0 -6 6q-3 8 -7.5 25t-7.5 25q-7 22 -32 72q-4 8 -4 10
q0 6 4 7q76 36 265 36q53 0 161 -4q82 -4 122 -4q8 0 8 -7q0 -2 -3 -8l-414 -665q133 0 224.5 37.5t157.5 137.5q0 5 -2 21t-2 20q0 7 7 7t7 -7q0 -2 16.5 -96t16.5 -101zM359 769q0 -19 -13 -32t-32 -13t-32 13t-13 32t13 32t32 13t32 -13t13 -32z" />
    <glyph glyph-name="zdotaccent" unicode="&#x17c;" horiz-adv-x="486" 
d="M474 29q0 -18 -96.5 -27t-157.5 -9q-208 0 -208 16q0 3 142.5 208l177.5 255h-55q-55 0 -109.5 -20t-88.5 -57l5 -20q0 -7 -6 -7q-5 0 -6 5q-13 38 -34 74q0 1 -2 3.5t-3.5 5.5t-1.5 4q0 19 81 27t142 8q214 0 214 -16q0 -6 -320 -459q99 1 168.5 25.5t120.5 93.5
q-2 16 -2 23q0 8 7 8q3 0 5 -4t4 -13t3 -16.5t2.5 -22.5t2.5 -23q2 -19 8.5 -37.5t6.5 -24.5zM288 555q0 -19 -13 -32t-32 -13t-32 13t-13 32t13 32t32 13t32 -13t13 -32z" />
    <glyph glyph-name="Zcaron" unicode="&#x17d;" horiz-adv-x="629" 
d="M611 41q0 -7 -4 -8q-8 -4 -34 -11q-100 -29 -268 -29q-52 0 -154 4q-14 0 -39.5 1t-46.5 1.5t-40 0.5q-7 0 -7 7q0 2 95.5 158.5l207.5 339t116 189.5h-51q-186 0 -287 -122q0 -2 5 -18.5t5 -18.5q0 -6 -9 -6q-4 0 -6 6q-3 8 -7.5 25t-7.5 25q-7 22 -32 72q-4 8 -4 10
q0 6 4 7q76 36 265 36q53 0 161 -4q82 -4 122 -4q8 0 8 -7q0 -2 -3 -8l-414 -665q133 0 224.5 37.5t157.5 137.5q0 5 -2 21t-2 20q0 7 7 7t7 -7q0 -2 16.5 -96t16.5 -101zM427 899l-106 -173h-12l-107 173h17l72 -116l71 116h65z" />
    <glyph glyph-name="zcaron" unicode="&#x17e;" horiz-adv-x="486" 
d="M474 29q0 -18 -96.5 -27t-157.5 -9q-208 0 -208 16q0 3 142.5 208l177.5 255h-55q-55 0 -109.5 -20t-88.5 -57l5 -20q0 -7 -6 -7q-5 0 -6 5q-13 38 -34 74q0 1 -2 3.5t-3.5 5.5t-1.5 4q0 19 81 27t142 8q214 0 214 -16q0 -6 -320 -459q99 1 168.5 25.5t120.5 93.5
q-2 16 -2 23q0 8 7 8q3 0 5 -4t4 -13t3 -16.5t2.5 -22.5t2.5 -23q2 -19 8.5 -37.5t6.5 -24.5zM355 685l-106 -173h-12l-107 173h17l72 -116l71 116h65z" />
    <glyph glyph-name="florin" unicode="&#x192;" horiz-adv-x="805" 
d="M439 396h20q0 -9 -1 -14q4 1 15 1q24 0 43.5 -10t22.5 -30q19 8 51 8q34 0 57.5 -16t23.5 -46q0 -14 -9 -30q-3 -5 -9 -5q-10 0 -10 10q0 3 3 6q6 9 6 19q0 19 -15 30.5t-38 11.5q-43 0 -72 -20.5t-29 -41.5q0 -30 41 -30q11 0 29 4q1 1 4 1q10 0 10 -11q-3 -33 -33 -55
q-29 -22 -66 -22q-51 0 -80 35q-30 -35 -80 -35q-35 0 -67 22q-28 23 -33 55q0 11 10 11q2 0 3 -1q20 -4 30 -4q43 0 43 30q0 20 -30 41t-75 21q-21 0 -35.5 -12t-14.5 -30q0 -10 6 -19q2 -4 2 -6q0 -10 -10 -10q-6 0 -9 5q-9 16 -9 30q0 30 23.5 46t58.5 16q33 0 50 -8
q3 20 22.5 30t42.5 10q11 0 17 -1q-1 5 -1 17q0 25 5 43t11 18q9 0 12 -18q2 -8 4 -24l-18 -22h19q0 -15 -3 -27q18 -11 18 -30q0 -27 -29 -39q-29 -14 -29 -25q0 -16 21 -24.5t45 -8.5t45 8.5t21 24.5q0 13 -30 25q-29 12 -29 39q0 19 18 30q-3 12 -3 30q0 25 5 43
q7 18 12 18t12 -18l4 -25zM475 371q-22 0 -38 -11q-14 -10 -14 -21q0 -13 14 -23q20 -10 38 -10q19 0 37 10q15 10 15 23q0 11 -15 21q-14 11 -37 11zM331 371q-24 0 -38 -11q-14 -10 -14 -21q0 -13 14 -23q18 -10 38 -10q19 0 37 10q15 10 15 23q0 11 -15 21q-14 11 -37 11
zM471 243q-25 -20 -68 -20q-44 0 -67 20q-34 -24 -70 -24q-6 0 -20 2q9 -21 30.5 -33t46.5 -12q49 0 71 37q4 4 9 4q7 0 8 -4q21 -37 72 -37q24 0 45.5 12t29.5 33q-10 -2 -19 -2q-38 0 -68 24zM327 517q-120 -26 -120 -106q0 -5 1.5 -14.5t1.5 -15.5q0 -10 -10 -10
q-8 0 -9 8q-3 16 -3 32q0 67 49 119q-42 24 -51 65v4q0 9 9 9q8 0 9 -9q8 -30 35.5 -48t59.5 -18q30 0 55.5 16.5t34.5 44.5q3 5 9 5q10 0 11 -5q9 -28 34.5 -44.5t56.5 -16.5q32 0 59.5 18t33.5 48q1 9 10 9t9 -9v-4q-9 -40 -46 -62q51 -53 51 -122q0 -10 -2 -32
q-3 -8 -10 -8q-11 0 -11 12q4 20 4 28q0 85 -104 104q-70 11 -96 53q-23 -40 -71 -51zM701 83q-54 -54 -128 -54q-37 -21 -84 -21h-11q-36 -17 -75 -17q-40 0 -76 17h-11q-45 0 -84 21q-76 0 -127 54q-87 63 -87 143q0 62 54 114q-25 50 -25 96q0 109 106 187q103 76 250 76
t250 -76q106 -78 106 -187q0 -47 -26 -96q54 -52 54 -114q0 -79 -86 -143zM605 53q47 9 80 44.5t33 83.5q0 42 -25 73q-2 6 -2 7q0 10 10 10q5 0 8 -5q29 -37 29 -85q0 -23 -6 -43q36 41 36 88q0 55 -54 105q-2 2 -2 7v2l1 2q25 47 25 94q0 101 -97 171q-99 73 -238 73
q-141 0 -238 -73q-98 -72 -98 -171q0 -48 26 -94q1 -1 1 -3q0 -7 -3 -8q-54 -50 -54 -105q0 -45 36 -88q-5 22 -5 43q0 48 28 85q5 5 9 5q3 0 6.5 -3t3.5 -7q0 -3 -3 -7q-25 -31 -25 -73q0 -48 33 -83.5t80 -44.5q-49 44 -49 106q0 49 33 90q5 5 8 5q10 0 10 -11q0 -3 -3 -6
q-28 -34 -28 -78q0 -51 36 -87t87 -43q-56 44 -56 113q0 11 9 11q10 0 10 -11q0 -57 44 -94.5t102 -37.5q57 0 101 37.5t44 94.5q0 11 10 11t10 -11q0 -68 -57 -113q51 7 87.5 43t36.5 87q0 44 -29 78q-1 2 -1 6q0 11 9 11q4 0 7 -5q33 -41 33 -90q0 -64 -49 -106z" />
    <glyph glyph-name="Scommaaccent" unicode="&#x218;" horiz-adv-x="653" 
d="M370 -70q0 -40 -25.5 -73.5t-64.5 -48.5l-7 12q33 22 35 64q-18 4 -28.5 17.5t-10.5 31.5q0 21 14.5 36t35.5 15q22 0 36.5 -15.5t14.5 -38.5zM635 252q0 -76 -49.5 -135.5t-120 -88t-144.5 -28.5q-26 0 -55.5 4t-51 8t-55.5 11.5l-52 11.5q-26 6 -39 6q-16 0 -24 -9.5
t-10.5 -18.5t-6.5 -9q-9 0 -9 6l8 22l15 46.5t9 30.5q13 49 20 92q2 6 6 6q8 0 8 -6q0 -5 -1 -14t-1 -13q0 -58 75 -104.5t137 -46.5q78 0 144 42.5t66 116.5q0 36 -18.5 62.5t-50.5 41.5t-61.5 24.5t-65.5 17.5l-15 3q-35 8 -57.5 14.5t-56 21t-54 30.5t-35.5 42.5
t-15 58.5q0 63 42 110.5t99.5 69t118.5 21.5q25 0 74 -8.5t74 -8.5q41 0 58 19q1 1 3.5 5t5 7t4.5 3q8 0 8 -7q0 -3 -2 -5q-22 -40 -39 -84q-17 -48 -22 -85q0 -6 -7 -6t-7 5q0 2 1.5 12t1.5 14q0 52 -49.5 84.5t-105.5 32.5q-51 0 -88.5 -27.5t-37.5 -75.5q0 -33 28 -53.5
t66 -28.5l60.5 -13t62 -16.5t64.5 -23t56 -30.5t48.5 -40t30 -51.5t12.5 -65.5z" />
    <glyph glyph-name="scommaaccent" unicode="&#x219;" horiz-adv-x="506" 
d="M300 -77q0 -40 -25.5 -73.5t-64.5 -48.5l-7 12q33 22 35 64q-18 4 -28.5 17.5t-10.5 31.5q0 21 14.5 36t35.5 15q22 0 36.5 -15.5t14.5 -38.5zM488 175q0 -60 -44.5 -103.5t-102.5 -61.5t-117 -18q-87 0 -158 40q-6 3 -11 3q-8 0 -17.5 -7.5t-11.5 -7.5q-8 0 -8 6
q0 3 4 7q9 10 15 26t7 26t2.5 32t1.5 27v21q0 8 7 8q8 0 8 -9v-6q0 -45 67.5 -92t130.5 -47q49 0 87.5 24.5t38.5 70.5q0 17 -6.5 30.5t-22 24t-25.5 16.5t-34.5 12.5t-31 8t-30.5 6.5q-193 41 -193 133q0 22 12 48q26 55 91 80t136 25q57 0 100 -12q0 1 2.5 5.5t5 8
t4.5 3.5q9 0 9 -7q0 -2 -2 -4q-27 -53 -39 -97q-2 -6 -6 -6q-8 0 -8 6q0 9 4 17q-13 30 -45.5 46t-68.5 16q-35 0 -64.5 -16t-29.5 -48q0 -44 69 -64q9 -3 49.5 -12.5t62 -16t57.5 -21t55 -29.5t34.5 -39t15.5 -53z" />
    <glyph glyph-name="circumflex" unicode="&#x2c6;" horiz-adv-x="294" 
d="M278 509h-77l-81 74l-82 -74h-22l126 114h10z" />
    <glyph glyph-name="caron" unicode="&#x2c7;" horiz-adv-x="257" 
d="M241 685l-106 -173h-12l-107 173h17l72 -116l71 116h65z" />
    <glyph glyph-name="breve" unicode="&#x2d8;" horiz-adv-x="266" 
d="M250 616q-3 -46 -37 -77.5t-80 -31.5t-80 31.5t-37 77.5l13 5q40 -55 104 -55t104 55z" />
    <glyph glyph-name="dotaccent" unicode="&#x2d9;" horiz-adv-x="122" 
d="M106 555q0 -19 -13 -32t-32 -13t-32 13t-13 32t13 32t32 13t32 -13t13 -32z" />
    <glyph glyph-name="ring" unicode="&#x2da;" horiz-adv-x="203" 
d="M185 588q0 -34 -25 -58.5t-59 -24.5q-35 0 -59 24.5t-24 58.5q0 35 24.5 59.5t58.5 24.5q35 0 59.5 -25t24.5 -59zM156 588q0 22 -16 38t-39 16t-38.5 -16t-15.5 -38t15.5 -38t38.5 -16q22 0 38.5 16t16.5 38z" />
    <glyph glyph-name="ogonek" unicode="&#x2db;" horiz-adv-x="196" 
d="M169 -180q-2 0 -5 3q-1 1 -4.5 6.5t-5.5 9.5q-27 -17 -52 -17q-35 0 -59.5 27.5t-24.5 62.5q0 38 27.5 70.5t65.5 32.5q10 0 10 -8q0 -7 -8 -7q-25 0 -47 -20t-22 -45q0 -19 13 -34t33 -15q21 0 47 17v5q0 21 7 21q9 0 9 -6q0 -3 -1 -10t-1 -10q0 -43 24 -70q3 -3 3 -5
t-3 -5t-6 -3z" />
    <glyph glyph-name="tilde" unicode="&#x2dc;" horiz-adv-x="307" 
d="M291 581q0 -31 -22.5 -53.5t-53.5 -22.5q-13 0 -20 2l-159 41q-5 -15 -5 -27q0 -3 1 -9.5t1 -9.5q0 -6 -9 -6q-8 0 -8 25q0 31 23 53.5t54 22.5q12 0 18 -2l159 -41q6 12 6 27q0 3 -1 9.5t-1 9.5q0 6 9 6q8 0 8 -25z" />
    <glyph glyph-name="hungarumlaut" unicode="&#x2dd;" horiz-adv-x="228" 
d="M120 508h-21l51 153q8 27 31 27q12 0 20.5 -9.5t8.5 -21.5q0 -6 -9 -21q-7 -10 -81 -128zM39 508h-21l51 153q2 6 4 10q10 17 27 17q12 0 20.5 -9t8.5 -21q0 -11 -8 -22z" />
    <glyph glyph-name="pi" unicode="&#x3c0;" horiz-adv-x="586" 
d="M417 396v-275q0 -25 12 -43.5t36 -18.5q16 0 29.5 13t19 24.5t13.5 31.5l37 -20q-22 -54 -52 -88.5t-77 -34.5q-42 0 -63.5 30t-21.5 74v307h-135v-188q0 -111 -23 -165q-9 -22 -32.5 -43t-44.5 -21q-16 0 -27 10.5t-11 26.5q0 18 9 32.5t24.5 29t21.5 23.5q22 33 22 114
v181h-32q-57 0 -57 -60h-39q-4 13 -4 32q0 47 27 77t73 30h334q39 0 39 50h40q2 -20 2 -31q0 -44 -21 -71t-65 -27h-34z" />
    <glyph glyph-name="endash" unicode="&#x2013;" horiz-adv-x="343" 
d="M325 390l-45 -78h-262l45 78h262z" />
    <glyph glyph-name="emdash" unicode="&#x2014;" horiz-adv-x="683" 
d="M665 390l-45 -78h-602l45 78h602z" />
    <glyph glyph-name="quoteleft" unicode="&#x2018;" horiz-adv-x="170" 
d="M152 574q0 -28 -19.5 -48t-47.5 -20q-29 0 -48 20.5t-19 50.5q0 54 33.5 98.5t85.5 64.5l9 -16q-44 -30 -46 -85q23 -5 37.5 -23.5t14.5 -41.5z" />
    <glyph glyph-name="quoteright" unicode="&#x2019;" horiz-adv-x="170" 
d="M152 669q0 -54 -33.5 -98.5t-85.5 -64.5l-9 16q44 30 46 85q-23 5 -37.5 23.5t-14.5 41.5q0 28 19.5 48t47.5 20q29 0 48 -20.5t19 -50.5z" />
    <glyph glyph-name="quotesinglbase" unicode="&#x201a;" horiz-adv-x="171" 
d="M152 59q0 -54 -33 -98t-86 -65l-9 16q44 30 46 85q-23 5 -37.5 23.5t-14.5 41.5q0 28 19.5 48t47.5 20q29 0 48 -21t19 -50z" />
    <glyph glyph-name="quotedblleft" unicode="&#x201c;" horiz-adv-x="321" 
d="M303 574q0 -28 -19.5 -48t-47.5 -20q-29 0 -48 21t-19 50q0 55 32.5 98.5t86.5 64.5l9 -16q-44 -30 -46 -85q23 -5 37.5 -23.5t14.5 -41.5zM153 574q0 -28 -19.5 -48t-47.5 -20q-29 0 -48 20.5t-19 50.5q0 54 33 98t86 65l9 -16q-44 -30 -46 -85q23 -5 37.5 -23.5
t14.5 -41.5z" />
    <glyph glyph-name="quotedblright" unicode="&#x201d;" horiz-adv-x="321" 
d="M302 669q0 -56 -32.5 -99t-86.5 -64l-9 16q44 30 46 85q-23 5 -37.5 23.5t-14.5 41.5q0 28 19.5 48t47.5 20q29 0 48 -21t19 -50zM152 669q0 -57 -32.5 -99.5t-86.5 -63.5l-9 16q44 30 46 85q-23 5 -37.5 23.5t-14.5 41.5q0 28 19.5 48t47.5 20q29 0 48 -21t19 -50z" />
    <glyph glyph-name="quotedblbase" unicode="&#x201e;" horiz-adv-x="320" 
d="M302 59q0 -54 -33.5 -98.5t-85.5 -64.5l-9 16q44 30 46 85q-23 5 -37.5 23.5t-14.5 41.5q0 28 19.5 48t47.5 20q29 0 48 -20.5t19 -50.5zM152 59q0 -54 -33.5 -98.5t-85.5 -64.5l-9 16q44 30 46 85q-23 5 -37.5 23.5t-14.5 41.5q0 28 19.5 48t47.5 20q29 0 48 -20.5
t19 -50.5z" />
    <glyph glyph-name="dagger" unicode="&#x2020;" horiz-adv-x="454" 
d="M369 420q-28 0 -48 20t-20 48q0 15 8 31l-20 -9q0 -104 -12.5 -270.5t-27 -288t-21.5 -121.5q-6 0 -9 11t-4 34t-1 24q-8 91 -13 130q-30 284 -34 427q-4 -2 -19 -9t-22 -10t-19 -6.5t-23 -3.5q-27 0 -46.5 20t-19.5 47q0 28 20 47.5t47 19.5q28 0 48 -20.5t20 -48.5
q0 -16 -8 -30l22 10q0 127 5 217q-2 0 -11 0.5t-14.5 1t-12.5 1.5t-10.5 3.5t-3.5 5.5q0 6 7 6q2 0 38 -2.5t63 -2.5q30 0 63 2.5t36 2.5q9 0 9 -8q0 -7 -52 -10q5 -90 5 -163q5 2 24 11.5t32 13.5t26 4q27 0 46 -20.5t19 -47.5q0 -28 -19.5 -47.5t-47.5 -19.5z" />
    <glyph glyph-name="daggerdbl" unicode="&#x2021;" horiz-adv-x="453" 
d="M368 87q-28 0 -47.5 19.5t-19.5 47.5q0 18 7 32l-40 -18l-27 -269q0 -1 -1 -23.5t-4 -34t-8 -11.5q-6 0 -9 11t-4 34t-1 24q-17 139 -24 234q-8 -3 -32 -15.5t-41.5 -18.5t-34.5 -6q-27 0 -45.5 20t-18.5 47q0 28 19 48t47 20t48 -19.5t20 -47.5q0 -19 -8 -32l44 19
q-17 175 -21 308q-6 -3 -19 -9l-21.5 -10t-20.5 -7t-22 -3q-28 0 -47 19.5t-19 46.5q0 28 19.5 48t47.5 20t47.5 -19t19.5 -47q0 -20 -8 -33l22 10v67q0 67 5 150q-51 3 -51 10q0 8 6 8q43 -5 101 -5q59 0 99 5q9 0 9 -6q0 -3 -3.5 -5.5t-10.5 -3.5t-12.5 -1.5t-14.5 -1
t-11 -0.5q5 -67 5 -163q5 2 24 11.5t32 13.5t26 4q27 0 46 -20t19 -47q0 -28 -19.5 -48t-47.5 -20t-47.5 19.5t-19.5 47.5q0 18 7 32l-20 -9q0 -131 -18 -325q7 3 23 11t26 12.5t24.5 8.5t26.5 4q27 0 46 -20t19 -47q0 -28 -19.5 -47.5t-47.5 -19.5z" />
    <glyph glyph-name="bullet" unicode="&#x2022;" horiz-adv-x="294" 
d="M276 333q0 -53 -38 -91t-91 -38t-91 38t-38 91t38 91t91 38t91 -38t38 -91z" />
    <glyph glyph-name="ellipsis" unicode="&#x2026;" horiz-adv-x="530" 
d="M512 61q0 -28 -19.5 -47.5t-47.5 -19.5t-47.5 19.5t-19.5 47.5t19.5 47.5t47.5 19.5t47.5 -19.5t19.5 -47.5zM332 61q0 -28 -19.5 -47.5t-47.5 -19.5t-47.5 19.5t-19.5 47.5t19.5 47.5t47.5 19.5t47.5 -19.5t19.5 -47.5zM152 61q0 -28 -19.5 -47.5t-47.5 -19.5
t-47.5 19.5t-19.5 47.5t19.5 47.5t47.5 19.5t47.5 -19.5t19.5 -47.5z" />
    <glyph glyph-name="perthousand" unicode="&#x2030;" horiz-adv-x="1041" 
d="M1023 194q0 -75 -47 -134.5t-120 -59.5t-120 59.5t-47 134.5q0 74 47.5 134.5t119.5 60.5t119.5 -60.5t47.5 -134.5zM673 194q0 -75 -47 -134.5t-120 -59.5t-120 59.5t-47 134.5q0 74 47.5 134.5t119.5 60.5t119.5 -60.5t47.5 -134.5zM191 -1q-10 0 -10 6q0 8 314 693
q3 5 6 5q9 0 9 -7q0 -2 -73 -162l-154 -338t-87 -192q-2 -5 -5 -5zM352 507q0 -75 -47 -134.5t-120 -59.5t-120 59.5t-47 134.5q0 76 46.5 135.5t120.5 59.5q73 0 120 -60t47 -135zM926 215q0 160 -70 160q-71 0 -71 -163q0 -25 2 -52t8.5 -63t22 -59t38.5 -23t38.5 23
t21.5 60.5t8 64t2 52.5zM576 215q0 160 -70 160q-71 0 -71 -163q0 -25 2 -52t8.5 -63t22 -59t38.5 -23t38.5 23t21.5 60.5t8 64t2 52.5zM255 528q0 160 -70 160t-70 -160q0 -26 2 -52.5t8 -64t21.5 -60.5t38.5 -23t38.5 23t21.5 60.5t8 64t2 52.5z" />
    <glyph glyph-name="guilsinglleft" unicode="&#x2039;" horiz-adv-x="198" 
d="M180 223l-24 -26l-138 154l138 155l24 -27l-81 -128z" />
    <glyph glyph-name="guilsinglright" unicode="&#x203a;" horiz-adv-x="198" 
d="M180 351l-138 -154l-24 26l81 128l-81 128l24 27z" />
    <glyph glyph-name="fraction" unicode="&#x2044;" horiz-adv-x="377" 
d="M39 4l-5 -5l-10 6l314 693l6 5l9 -7z" />
    <glyph glyph-name="Euro" unicode="&#x20ac;" horiz-adv-x="540" 
d="M522 566q0 -7 -7 -7t-7 7v32q-53 89 -124 89q-44 0 -77 -33t-50.5 -84.5t-26 -97t-10.5 -86.5h191q7 0 7 -7q0 -8 -7 -8h-191q-1 -7 -1 -20t1 -20h180q7 0 7 -7q0 -8 -7 -8h-180q2 -49 11 -96.5t26 -94.5t49 -76t75 -29q55 0 89 46.5t34 103.5q0 7 7 7t7 -7v-150
q0 -8 -7 -8t-7 9v6q-56 -27 -119 -27q-126 0 -211.5 94t-97.5 222h-51q-7 0 -7 8q0 7 7 7h50q-1 7 -1 20t1 20h-50q-7 0 -7 8q0 7 7 7h51q12 134 100 225.5t220 91.5q55 0 112 -19v6q0 8 7 8t7 -7v-125z" />
    <glyph glyph-name="trademark" unicode="&#x2122;" horiz-adv-x="727" 
d="M702 381q-10 0 -28.5 1.5t-27.5 1.5q-10 0 -28.5 -1.5t-27.5 -1.5q-8 0 -8 9q0 7 26 7h6l-15 265l-105 -274q-1 -4 -7 -4q-5 0 -6 4l-112 252q-4 -60 -4 -90q0 -113 31 -153h6q27 0 27 -7q0 -9 -8 -9t-26 1.5t-27 1.5t-27 -1.5t-26 -1.5t-8 9q0 7 24 7q7 0 21 203
q0 6 2 24.5t2 28.5q0 24 -10 30t-20 5.5t-10 7.5q0 6 5 6q8 0 23 -1.5t22 -1.5q8 0 22 0.5t21 0.5q4 0 6 -4l97 -219l85 218q1 4 16.5 5t36.5 1t29 1q8 0 8 -9q0 -4 -4.5 -5t-12.5 -1.5t-9 -0.5l17 -289h6q25 0 25 -7q0 -9 -7 -9zM284 614q-9 0 -9 4q0 5 2 15t2 13
q-32 24 -86 35v-284h5q24 0 24 -7q0 -9 -8 -9t-26 1.5t-26 1.5q-9 0 -27 -1.5t-26 -1.5t-8 9q0 7 24 7h5v284q-58 -11 -90 -38q4 -14 4 -25q0 -4 -9 -4q-5 0 -11 31.5t-6 47.5q0 7 7 7h269q7 0 7 -9q-12 -77 -17 -77z" />
    <glyph glyph-name="Omega" unicode="&#x2126;" horiz-adv-x="748" 
d="M374 738q86 0 165.5 -34.5t133 -104.5t53.5 -158q0 -107 -78.5 -186t-189.5 -102v-62h147q44 0 56 17t12 57v25h41v-190h-296v190q89 14 149 87t60 164q0 103 -75 179.5t-178 76.5t-178 -76.5t-75 -179.5q0 -90 60.5 -164t148.5 -88v-189h-296v190h41v-28q0 -38 12 -54.5
t56 -16.5h147v62q-111 23 -189.5 101.5t-78.5 186.5q0 88 53.5 158t133 104.5t165.5 34.5z" />
    <glyph glyph-name="partialdiff" unicode="&#x2202;" horiz-adv-x="436" 
d="M235 704q49 0 86 -31.5t56 -81t28 -98.5t9 -94q0 -23 -4 -67q-18 -181 -107 -286q-56 -67 -129 -67q-72 0 -112 60.5t-40 135.5q0 95 56 175t146 80q73 0 117 -80q3 32 3 60q0 31 -4.5 68t-15.5 82t-35.5 74.5t-58.5 29.5q-18 0 -40 -12q0 -23 -21 -47t-43 -24
q-10 0 -18 7.5t-8 18.5q0 36 47.5 66.5t87.5 30.5zM103 149q0 -45 16 -88t52 -43q35 0 74 53q58 79 58 190q0 29 -4.5 55t-21.5 50.5t-46 24.5q-30 0 -71 -53q-57 -76 -57 -189z" />
    <glyph glyph-name="Delta" unicode="&#x2206;" horiz-adv-x="719" 
d="M377 741l319 -741h-674l319 741h36zM584 40l-250 581l-251 -581h501z" />
    <glyph glyph-name="product" unicode="&#x220f;" horiz-adv-x="730" 
d="M629 669v-825h78v-40h-246v40h79v825h-350v-825h79v-40h-247v40h78v825h-77v40h684v-40h-78z" />
    <glyph glyph-name="summation" unicode="&#x2211;" horiz-adv-x="704" 
d="M682 56v-257h-660v45l363 411l-363 410v46h660v-228h-41v104q0 41 -21.5 62.5t-62.5 21.5h-370l313 -354l-342 -381h394q26 0 43 6.5t26 14.5t13.5 26.5t5.5 32t1 40.5h41z" />
    <glyph glyph-name="minus" unicode="&#x2212;" horiz-adv-x="492" 
d="M474 308h-456v77h456v-77z" />
    <glyph glyph-name="radical" unicode="&#x221a;" 
d="M694 677h-63l-321 -879h-35l-172 480l-68 -23l-13 38l136 46l152 -424l293 803h91v-41z" />
    <glyph glyph-name="infinity" unicode="&#x221e;" horiz-adv-x="721" 
d="M360 259q-37 -66 -76 -103.5t-100 -37.5q-71 0 -116.5 55.5t-45.5 127.5q0 75 46 130t119 55q62 0 101.5 -37.5t73.5 -103.5q36 66 75 104t99 38q71 0 117 -56t46 -129q0 -74 -46 -129.5t-118 -55.5q-62 0 -101.5 37.5t-73.5 104.5zM536 416q-36 0 -66 -18.5t-46 -39
t-40 -57.5q22 -37 38 -57.5t46 -38t67 -17.5q50 0 87 32t37 81t-36.5 82t-86.5 33zM337 302q-22 37 -38 57.5t-45.5 38.5t-66.5 18q-51 0 -88 -32t-37 -82q0 -49 36.5 -81.5t85.5 -32.5q36 0 66.5 18.5t46.5 38.5t40 57z" />
    <glyph glyph-name="integral" unicode="&#x222b;" horiz-adv-x="560" 
d="M447 702q35 0 63 -22.5t28 -57.5q0 -15 -8.5 -26.5t-23.5 -11.5q-20 0 -34 21.5t-14 41.5q0 9 2 14h-11q-37 0 -63 -34.5t-36 -75.5q-6 -23 -11 -50t-8 -47.5t-6.5 -52t-4.5 -47.5t-4 -52.5l-4 -48.5t-3.5 -48t-3.5 -52.5t-4 -47.5t-6.5 -51.5t-9 -46.5t-12.5 -49
q-17 -59 -60.5 -102t-100.5 -43q-34 0 -62 22t-28 55q0 15 8 28.5t23 13.5q20 0 34.5 -20t14.5 -41q0 -9 -3 -16q4 -1 11 -1q31 0 55.5 25t33.5 58q8 30 14 61.5t11 70.5t7 61l6.5 71t5.5 63q2 16 5.5 62.5t6 69.5t8 60.5t14 68t19.5 58.5q21 50 61.5 84.5t89.5 34.5z" />
    <glyph glyph-name="approxequal" unicode="&#x2248;" horiz-adv-x="647" 
d="M22 480q77 50 163 50q76 0 155 -43q64 -36 124 -36q78 0 161 62v-61q-80 -52 -162 -52q-70 0 -148 43q-66 37 -130 37q-83 0 -163 -61v61zM22 323h603v-51h-603v51zM22 151h603v-51h-603v51z" />
    <glyph glyph-name="notequal" unicode="&#x2260;" horiz-adv-x="492" 
d="M474 234h-240l-58 -105h-89l58 105h-127v78h170l39 69h-209v78h252l51 92h88l-51 -92h116v-78h-159l-38 -69h197v-78z" />
    <glyph glyph-name="lessequal" unicode="&#x2264;" horiz-adv-x="492" 
d="M474 112l-456 199v71l456 199v-84l-344 -151l344 -150v-84zM474 20h-456v78h456v-78z" />
    <glyph glyph-name="greaterequal" unicode="&#x2265;" horiz-adv-x="492" 
d="M474 311l-456 -199v84l344 150l-344 151v84l456 -199v-71zM474 20h-456v78h456v-78z" />
    <glyph glyph-name="lozenge" unicode="&#x25ca;" horiz-adv-x="572" 
d="M286 -173l-264 435l264 435l264 -435zM286 -116l230 378l-230 379l-230 -379z" />
    <glyph glyph-name="apple" horiz-adv-x="663" 
d="M343 556q-2 12 -2 20q0 62 44 108t107 47q1 -7 1 -21q0 -62 -44 -107.5t-106 -46.5zM220 558q30 0 49 -6q5 -1 31.5 -12.5t41.5 -11.5q21 0 62.5 15t72.5 15q95 0 150 -69q-41 -21 -65.5 -60t-24.5 -85q0 -50 29 -91t75 -60q-12 -32 -27 -61.5t-37.5 -62t-52 -52
t-61.5 -19.5q-22 0 -59 15t-61 15q-23 0 -56 -15t-54 -15q-38 0 -82 36q-46 39 -87.5 138t-41.5 163q0 95 52.5 159t145.5 64z" />
    </font>
</defs>
</svg>
