<?xml version="1.0" standalone="no"?>
<!DOCTYPE svg PUBLIC "-//W3C//DTD SVG 1.1//EN" "http://www.w3.org/Graphics/SVG/1.1/DTD/svg11.dtd" >
<svg xmlns="http://www.w3.org/2000/svg">
<metadata></metadata>
<defs>
<font id="toronto_subwayregular" horiz-adv-x="1167" >
<font-face units-per-em="2048" ascent="1638" descent="-410" />
<missing-glyph horiz-adv-x="614" />
<glyph horiz-adv-x="2048" />
<glyph horiz-adv-x="2048" />
<glyph unicode="&#xd;" horiz-adv-x="1024" />
<glyph unicode=" "  horiz-adv-x="614" />
<glyph unicode="&#x09;" horiz-adv-x="614" />
<glyph unicode="&#xa0;" horiz-adv-x="614" />
<glyph unicode="!" horiz-adv-x="491" d="M131 80q0 47 33 80t82 33q47 0 79.5 -33t32.5 -80t-32.5 -80t-79.5 -33q-49 0 -82 33t-33 80zM162 362v1024h168v-1024h-168z" />
<glyph unicode="&#x22;" horiz-adv-x="729" d="M53 928l123 461l137 -37l-127 -461zM416 928l123 461l137 -37l-127 -461z" />
<glyph unicode="#" horiz-adv-x="1331" d="M61 383v147h240l88 332h-199v148h240l72 268h157l-71 -268h346l72 268h157l-71 -268h178v-148h-219l-88 -332h178v-147h-219l-72 -266h-158l72 266h-346l-72 -266h-158l72 266h-199zM459 530h346l88 332h-346z" />
<glyph unicode="$" horiz-adv-x="950" d="M72 344v31h174v-31q0 -39 18.5 -75t49 -62.5t72.5 -41.5t89 -15t89 15t73 41.5t49.5 62.5t18.5 75q0 47 -24 88t-65 70l-383 272q-68 49 -108.5 119t-40.5 154q0 61 23.5 117.5t65.5 101.5t99.5 76.5t122.5 43.5v109h160v-109q68 -12 124 -43.5t98 -76.5t65.5 -101.5 t23.5 -117.5v-29h-174v29q0 39 -17.5 73.5t-46 60t-68.5 40t-85 14.5t-85 -14.5t-68.5 -40t-46 -60.5t-17.5 -73q0 -47 24.5 -87t61.5 -67q96 -66 194.5 -136.5t194.5 -138.5q68 -49 107 -120.5t39 -153.5q0 -63 -25 -120.5t-68 -102.5t-102 -77t-129 -44v-106h-160v106 q-70 12 -129 44t-102 77t-67.5 102.5t-24.5 120.5z" />
<glyph unicode="%" horiz-adv-x="1959" d="M72 1147q0 80 29.5 149.5t82 120.5t122 81t149.5 30t150.5 -30t122.5 -81t82 -120.5t30 -149.5t-30 -149.5t-82 -122t-122.5 -82t-150.5 -29.5t-149.5 29.5t-122 82t-82 122t-29.5 149.5zM215 1147q0 -51 19.5 -95t51 -78t76 -53.5t93.5 -19.5t93 19.5t76.5 53.5t51 78 t18.5 95t-18.5 96t-51 78t-76.5 51.5t-93 18.5t-93.5 -18.5t-76 -51.5t-51 -78t-19.5 -96zM492 66l831 1445l141 -79l-833 -1444zM1120 354q0 80 30 149.5t82 121t121.5 81t149.5 29.5t150.5 -29.5t123 -81t82 -121t29.5 -149.5t-29.5 -149.5t-82 -121.5t-123 -82 t-150.5 -30t-149.5 30t-121.5 82t-82 121.5t-30 149.5zM1264 354q0 -51 19.5 -95t51 -76.5t75.5 -52t93 -19.5t93 19.5t77 52t51.5 76.5t18.5 95q0 53 -18.5 97.5t-51.5 77t-77 51t-93 18.5t-93 -18.5t-75.5 -51t-51 -76.5t-19.5 -98z" />
<glyph unicode="&#x26;" horiz-adv-x="1228" d="M72 438q0 133 74.5 244t191.5 170q-41 43 -66.5 100.5t-25.5 122.5q0 68 25.5 126.5t70.5 101.5t104.5 68.5t126.5 25.5q92 0 166 -43t117 -115l-147 -86q-20 37 -55.5 60.5t-80.5 23.5q-66 0 -110.5 -47t-44.5 -115t45 -116t110 -48h293v189h172v-189h174v-159h-174 v-324q0 -94 -30.5 -178t-89 -147.5t-145.5 -99.5t-200 -36q-104 0 -195 37t-158.5 101.5t-107.5 149.5t-40 183zM246 438q0 -63 25.5 -120.5t70.5 -100.5t104.5 -67.5t126.5 -24.5q59 0 112.5 23.5t93.5 63.5t63.5 95t23.5 119v326h-293q-68 0 -127 -25t-104 -68t-70.5 -99 t-25.5 -122z" />
<glyph unicode="'" horiz-adv-x="366" d="M53 928l123 461l137 -37l-127 -461z" />
<glyph unicode="(" horiz-adv-x="581" d="M98 549q0 131 26 260t69 252t100 239.5t119 223.5l145 -88q-57 -88 -108.5 -193.5t-90.5 -220.5t-62.5 -234.5t-23.5 -238.5q0 -121 23.5 -236.5t62.5 -226.5t90.5 -215t108.5 -199l-145 -86q-61 104 -118.5 219t-100.5 237t-69 249t-26 258z" />
<glyph unicode=")" horiz-adv-x="581" d="M25 -326q57 88 108 193.5t90 220.5t62.5 234.5t23.5 238.5q0 121 -23.5 236.5t-62.5 226.5t-90 215t-108 199l145 86q61 -104 118.5 -219t100.5 -236t68.5 -249t25.5 -259t-25.5 -260t-68.5 -252t-100.5 -239.5t-118.5 -223.5z" />
<glyph unicode="*" horiz-adv-x="974" d="M90 1186l41 123l303 -113l-10 326h129l-10 -326l301 113l41 -123l-312 -92l195 -250l-100 -76l-181 264l-178 -264l-102 76l194 250z" />
<glyph unicode="+" horiz-adv-x="901" d="M72 461v160h299v321h159v-321h299v-160h-299v-322h-159v322h-299z" />
<glyph unicode="," horiz-adv-x="421" d="M98 80q0 47 33 78.5t80 31.5q63 0 88 -43t25 -94q0 -43 -9.5 -85t-25 -74.5t-36 -52t-42.5 -19.5v147q-47 0 -80 32t-33 79z" />
<glyph unicode="-" horiz-adv-x="774" d="M72 598v160h630v-160h-630z" />
<glyph unicode="." horiz-adv-x="421" d="M98 80q0 47 33 78.5t80 31.5t80 -31.5t33 -78.5t-33 -79t-80 -32t-80 32t-33 79z" />
<glyph unicode="/" horiz-adv-x="628" d="M-57 -383l499 1878h170l-503 -1878h-166z" />
<glyph unicode="0" horiz-adv-x="1114" d="M76 682q0 147 38 278.5t103.5 227.5t152.5 152.5t187 56.5t187 -56.5t153 -152.5t103.5 -227.5t37.5 -278.5t-37.5 -277.5t-103.5 -226.5t-153 -152.5t-187 -56.5t-187 56.5t-152.5 152.5t-103.5 226.5t-38 277.5zM246 682q0 -113 24.5 -212t66.5 -173t99.5 -117 t120.5 -43q66 0 122 43t98 117t66.5 173t24.5 212q0 115 -24.5 214t-66.5 173t-98 117t-122 43q-63 0 -120.5 -43t-99.5 -117t-66.5 -173t-24.5 -214z" />
<glyph unicode="1" horiz-adv-x="567" d="M61 1198v6l95 162h221v-1366h-170v1198h-146z" />
<glyph unicode="2" horiz-adv-x="1087" d="M70 0v6l673 803q27 31 39.5 72t12.5 84q0 55 -20.5 103t-56.5 84t-84 56.5t-104 20.5q-55 0 -103 -20.5t-85 -56.5t-57.5 -84t-20.5 -103v-21h-170v17q0 90 34 169.5t93.5 139t139 93.5t169.5 34t169 -34t138.5 -93.5t93.5 -139t34 -169.5q0 -133 -68 -232l-451 -555v-6 h560v-168h-936z" />
<glyph unicode="3" horiz-adv-x="1009" d="M90 381h168q0 -53 19.5 -99t54.5 -80t81 -53.5t97 -19.5q53 0 99 19.5t80 53.5t54.5 79t20.5 96t-20.5 97t-54.5 80t-80 53.5t-99 19.5h-61v168h43q47 0 86.5 17t70.5 47t48.5 71t17.5 86q0 47 -17.5 87t-48.5 69.5t-70.5 47t-86.5 17.5q-45 0 -86 -17.5t-72 -47 t-48.5 -70.5t-17.5 -90h-170q0 80 31 150.5t84 122.5t125 82t154 30t153.5 -30t124.5 -82t84 -122.5t31 -150.5q0 -88 -36 -163t-99 -128q84 -57 133 -145.5t49 -194.5q0 -86 -34 -161t-91 -130t-134 -88t-163 -33t-163 33t-134 88t-90 130t-33 161z" />
<glyph unicode="4" horiz-adv-x="1048" d="M-39 289v6l860 1102h6v-953h172v-155h-172v-289h-170v289h-696zM287 444h370v474h-6l-364 -467v-7z" />
<glyph unicode="5" horiz-adv-x="1038" d="M4 190q35 31 62.5 54.5t60.5 52.5q49 -78 128 -122t179 -44q74 0 139.5 26.5t114.5 72.5t77 107.5t28 131.5t-28 131.5t-77 107.5t-114.5 72.5t-139.5 26.5q-68 0 -126 -13.5t-105 -35.5l-6 4l125 604h571v-160h-428l-49 -239h22q109 0 205 -39t168 -106.5t114 -159 t42 -195.5t-42 -194.5t-114 -158t-168 -106.5t-205 -39q-135 0 -248.5 60.5t-185.5 160.5z" />
<glyph unicode="6" horiz-adv-x="1140" d="M72 467q0 78 23.5 149.5t64.5 131.5l426 618h217l-266 -387v-6h22q117 0 211 -42t160.5 -112.5t102.5 -162t36 -189.5q0 -104 -39 -194.5t-106.5 -158t-157.5 -106.5t-195 -39q-104 0 -195 39t-158.5 106.5t-106.5 157.5t-39 195zM248 467q0 -70 25.5 -131.5t69.5 -106.5 t102.5 -71.5t125.5 -26.5q66 0 124.5 26.5t102.5 71.5t69.5 106.5t25.5 131.5q0 68 -25.5 128t-69.5 106.5t-102.5 73t-124.5 26.5q-68 0 -126 -26.5t-102 -73t-69.5 -106.5t-25.5 -128z" />
<glyph unicode="7" horiz-adv-x="1048" d="M57 63l736 1137v6h-670v160h971v-6l-897 -1391z" />
<glyph unicode="8" horiz-adv-x="1009" d="M78 391q0 104 52 192.5t132 143.5q-66 51 -106.5 124t-40.5 159q0 80 30.5 150.5t85 122.5t126 83t151.5 31t149.5 -31t121.5 -83t83 -122.5t31 -150.5q0 -86 -41 -159t-104 -124q80 -55 132 -143.5t52 -192.5q0 -86 -34 -162.5t-92 -134t-135 -91.5t-165 -34t-166 34 t-136.5 91.5t-92 134t-33.5 162.5zM246 391q0 -53 20.5 -101t55 -84t82 -56.5t100.5 -20.5t99 20.5t81 56.5t55.5 84t20.5 101t-20.5 99.5t-55.5 80t-81 52t-99 18.5t-100.5 -18.5t-82 -52t-55 -80t-20.5 -99.5zM285 1010q0 -45 17 -82t47 -64.5t70 -43t85 -15.5 q90 0 153.5 57.5t63.5 147.5q0 47 -17.5 88t-47 71.5t-68.5 49t-84 18.5t-85 -18.5t-70 -49t-47 -71.5t-17 -88z" />
<glyph unicode="9" horiz-adv-x="1077" d="M72 930q0 98 36.5 183t99 147.5t148.5 99.5t185 37q98 0 182 -37t147.5 -99.5t99.5 -147.5t36 -183q0 -86 -28 -161t-75 -134l-545 -666l-137 107l301 370v7q-109 6 -192.5 49t-141 109.5t-87 149.5t-29.5 169zM248 930q0 -63 23.5 -118.5t63.5 -96.5t92.5 -65.5 t111.5 -24.5t111 24.5t92 65.5t63.5 96t23.5 119q0 63 -23.5 118.5t-63.5 97.5t-92 65.5t-111 23.5t-111.5 -23.5t-92.5 -65.5t-63.5 -97.5t-23.5 -118.5z" />
<glyph unicode=":" horiz-adv-x="421" d="M98 80q0 47 33 78.5t80 31.5t80 -31.5t33 -78.5t-33 -79t-80 -32t-80 32t-33 79zM98 831q0 47 33 79t80 32t80 -31.5t33 -79.5q0 -47 -33 -78.5t-80 -31.5t-80 31.5t-33 78.5z" />
<glyph unicode=";" horiz-adv-x="421" d="M98 80q0 47 33 78.5t80 31.5q63 0 88 -43t25 -94q0 -43 -9.5 -85t-25 -74.5t-36 -52t-42.5 -19.5v147q-47 0 -80 32t-33 79zM98 831q0 47 33 79t80 32t80 -31.5t33 -79.5q0 -47 -33 -78.5t-80 -31.5t-80 31.5t-33 78.5z" />
<glyph unicode="&#x3c;" horiz-adv-x="901" d="M72 524v33l690 401l78 -139l-482 -278l482 -283l-78 -135z" />
<glyph unicode="=" horiz-adv-x="901" d="M72 297v160h757v-160h-757zM72 625v159h757v-159h-757z" />
<glyph unicode="&#x3e;" horiz-adv-x="901" d="M72 262l481 279l-481 282l78 135l690 -401v-33l-690 -401z" />
<glyph unicode="?" horiz-adv-x="1024" d="M80 1192q66 92 169 149.5t228 57.5q100 0 186.5 -37t151 -101.5t101 -151.5t36.5 -187q0 -96 -33.5 -178t-89 -143.5t-125 -99.5t-143.5 -48v-91h-168v244l4 4q18 -4 39 -8t45 -4q70 0 126.5 28.5t96 75t62 103.5t22.5 117q0 68 -24.5 126t-66.5 102t-97 69.5t-119 25.5 q-80 0 -147.5 -40t-110.5 -97q-43 23 -74.5 42t-68.5 42zM362 80q0 47 33 80t82 33q47 0 81 -33t34 -80t-34 -80t-81 -33q-49 0 -82 33t-33 80z" />
<glyph unicode="@" horiz-adv-x="1120" d="M72 457q0 100 37.5 188t104.5 154.5t156 104.5t189 38q102 0 191.5 -38t156 -104.5t104.5 -154.5t38 -188t-38 -189.5t-104.5 -156t-155.5 -104.5t-192 -38q-100 0 -189 38t-156 104.5t-104.5 155.5t-37.5 190zM160 457q0 -86 31.5 -160t86 -128t127 -86t154.5 -32 q84 0 156.5 32t127 86t86.5 128t32 160q0 84 -32 157.5t-86.5 129t-127 87t-156.5 31.5q-82 0 -154.5 -31.5t-127 -87t-86 -129t-31.5 -157.5zM276 457q0 57 21.5 107t59.5 87t88.5 58.5t107.5 21.5q49 0 91 -19.5t71 -54.5l4 2v56h94v-514h-94v53l-4 2q-29 -35 -71 -54.5 t-91 -19.5q-57 0 -107.5 21.5t-88.5 58.5t-59.5 87t-21.5 108zM371 457q0 -39 14 -73t37.5 -58.5t56.5 -39t70 -14.5q39 0 71.5 15.5t56 40t37 58.5t13.5 71t-13.5 70.5t-37 58t-56 40t-71.5 15.5q-37 0 -70 -14.5t-56.5 -39t-37.5 -58t-14 -72.5z" />
<glyph unicode="A" horiz-adv-x="1298" d="M10 0l635 1397h6l637 -1397h-178l-131 287h-660l-131 -287h-178zM391 444l4 -4h508l4 4l-258 564h-4z" />
<glyph unicode="B" horiz-adv-x="1019" d="M152 0v1366h335q80 0 149 -29.5t121 -81t81.5 -120t29.5 -146.5q0 -80 -34.5 -155.5t-88.5 -112.5v-6q43 -18 79 -52t61.5 -79t41 -95.5t15.5 -103.5q0 -80 -30.5 -149.5t-83 -122t-124 -83t-151.5 -30.5h-401zM317 160h226q47 0 89 18.5t72.5 49t49 71.5t18.5 88 t-18.5 88t-49 72t-72.5 49t-89 18h-226v-454zM317 770h160q100 0 160.5 62.5t60.5 154.5q0 45 -17 85t-47 69.5t-70 47t-87 17.5h-160v-436z" />
<glyph unicode="C" horiz-adv-x="1275" d="M76 680q0 150 56 281t154.5 228t230.5 153.5t282 56.5q111 0 211 -31t186 -88l-88 -141q-68 47 -146.5 72.5t-164.5 25.5q-113 0 -212.5 -43t-174 -118t-117.5 -176t-43 -218t43 -217t117.5 -175t174 -118t212.5 -43q86 0 163.5 24.5t143.5 71.5l92 -139 q-86 -55 -186.5 -87t-210.5 -32q-150 0 -282 56.5t-230.5 152.5t-154.5 226t-56 278z" />
<glyph unicode="D" horiz-adv-x="1148" d="M152 0v1366h231q143 0 269 -53t219.5 -146.5t147.5 -218.5t54 -268q0 -141 -54 -265t-147.5 -216.5t-219.5 -145.5t-269 -53h-231zM322 160h67q106 0 199.5 41t163 111.5t110.5 165.5t41 204q0 111 -41 207t-110.5 166.5t-162.5 110.5t-200 40h-67v-1046z" />
<glyph unicode="E" horiz-adv-x="1089" d="M152 0v1366h819v-160h-649v-432h491v-160h-491v-454h649v-160h-819z" />
<glyph unicode="F" horiz-adv-x="1064" d="M152 0v1366h819v-160h-649v-432h491v-160h-491v-614h-170z" />
<glyph unicode="G" horiz-adv-x="1517" d="M76 680q0 150 56 281t154.5 228t230.5 153.5t282 56.5q162 0 301 -64.5t239 -177.5l-127 -115q-78 88 -183 141.5t-234 53.5q-113 0 -212.5 -43t-173 -118t-116.5 -175t-43 -217t43 -217t116.5 -175t173 -118t212.5 -43q154 0 277.5 75t195.5 197v125h-336v162h510v-330 q-45 -88 -111.5 -159.5t-149.5 -123.5t-180.5 -81t-201.5 -29q-150 0 -282 56.5t-230.5 152.5t-154.5 226t-56 278z" />
<glyph unicode="H" horiz-adv-x="1331" d="M152 0v1366h170v-592h688v592h170v-1366h-170v614h-688v-614h-170z" />
<glyph unicode="I" horiz-adv-x="473" d="M152 0v1366h170v-1366h-170z" />
<glyph unicode="J" horiz-adv-x="897" d="M4 188l152 70q27 -59 80 -98t120 -39q45 0 85 18.5t70 50t47 73.5t17 89v1014h170v-1014q0 -80 -30.5 -149.5t-82.5 -121.5t-124 -83t-152 -31q-117 0 -211 61.5t-141 159.5z" />
<glyph unicode="K" horiz-adv-x="1110" d="M152 0v1366h170v-524l4 -2l555 555l114 -117l-557 -557l635 -637l-117 -117l-630 633l-4 -2v-598h-170z" />
<glyph unicode="L" horiz-adv-x="995" d="M152 0v1366h170v-1206h667v-160h-837z" />
<glyph unicode="M" horiz-adv-x="1771" d="M8 0l342 1397h6l527 -1065h6l526 1065h6l342 -1397h-172l-225 924h-6l-471 -955h-6l-471 955h-6l-226 -924h-172z" />
<glyph unicode="N" horiz-adv-x="1419" d="M152 0v1397h6l934 -991h6v960h170v-1397h-6l-934 992h-6v-961h-170z" />
<glyph unicode="O" horiz-adv-x="1595" d="M76 680q0 150 56 281t154.5 228t230.5 153.5t282 56.5t280.5 -56.5t229 -153.5t155 -228t56.5 -281q0 -147 -56.5 -277.5t-155 -226.5t-229.5 -152.5t-280 -56.5q-150 0 -282 56.5t-230.5 152.5t-154.5 226t-56 278zM252 682q0 -117 43 -219.5t116.5 -177t173 -117.5 t212.5 -43q115 0 214 43t172.5 117.5t116.5 177t43 219.5q0 119 -43 221.5t-116.5 177t-173 117.5t-213.5 43q-113 0 -212.5 -43t-173 -117.5t-116.5 -177t-43 -221.5z" />
<glyph unicode="P" horiz-adv-x="1017" d="M152 0v1366h270q109 0 205 -41t167.5 -111.5t112.5 -165t41 -202.5q0 -106 -41 -201.5t-112.5 -165t-168 -110.5t-204.5 -41h-100v-328h-170zM322 494q53 -16 102 -17q74 0 138.5 29t112.5 79t75.5 117.5t27.5 143.5v-4q0 78 -27.5 144.5t-75.5 116.5t-112.5 78.5 t-138.5 28.5q-27 0 -52.5 -4t-49.5 -10v-702z" />
<glyph unicode="Q" horiz-adv-x="1597" d="M76 680q0 150 56 281t154.5 228t230.5 153.5t282 56.5t280.5 -56.5t229 -153.5t155 -228t56.5 -281q0 -127 -42 -239.5t-116 -204.5l207 -207l-119 -119l-209 209q-92 -72 -204.5 -112t-237.5 -40q-150 0 -282 56.5t-230.5 152.5t-154.5 226t-56 278zM252 682 q0 -117 43 -219.5t116.5 -177t173 -117.5t212.5 -43q115 0 214 43t172.5 117.5t116.5 177t43 219.5q0 119 -43 221.5t-116.5 177t-173 117.5t-213.5 43q-113 0 -212.5 -43t-173 -117.5t-116.5 -177t-43 -221.5z" />
<glyph unicode="R" horiz-adv-x="1064" d="M152 0v1366h270q109 0 205 -41t167.5 -111.5t112.5 -165t41 -202.5q0 -141 -67.5 -257t-180.5 -183l318 -318l-121 -121l-358 361h-217v-328h-170zM322 494q53 -17 102 -17q74 0 138.5 29t112.5 78t75.5 115.5t27.5 142.5q0 78 -27.5 144.5t-75.5 116.5t-112.5 78.5 t-138.5 28.5q-27 0 -52.5 -4t-49.5 -10v-702z" />
<glyph unicode="S" horiz-adv-x="974" d="M49 283l133 84q66 -117 153 -181.5t185 -64.5q45 0 85 17.5t70 48t47 71.5t17 86q0 61 -29.5 112.5t-78.5 80.5l-328 190q-72 41 -120 125t-48 180q0 76 29 142.5t79 116.5t117.5 79t145.5 29q102 0 186 -48t133 -128l-141 -82q-27 47 -73 75.5t-103 28.5 q-43 0 -80 -16.5t-64.5 -44t-43 -65.5t-15.5 -81q0 -55 25.5 -99t66.5 -73l316 -182q88 -49 142 -137t54 -197q0 -80 -30.5 -149.5t-83 -121.5t-123 -82t-152.5 -30q-137 0 -258 84t-213 232z" />
<glyph unicode="T" horiz-adv-x="1040" d="M8 1212v154h1024v-154h-426v-1212h-172v1212h-426z" />
<glyph unicode="U" horiz-adv-x="1234" d="M152 432v934h170v-934q0 -63 23.5 -120.5t63.5 -99.5t93 -66.5t114 -24.5t115.5 24.5t94.5 66.5t63.5 99.5t23.5 120.5v934h170v-932q0 -96 -36.5 -181t-99 -148.5t-147.5 -100.5t-182 -37q-96 0 -181 37t-148.5 99.5t-100 147.5t-36.5 181z" />
<glyph unicode="V" horiz-adv-x="1306" d="M8 1366h180l461 -1006h6l463 1006h180l-643 -1397h-6z" />
<glyph unicode="W" horiz-adv-x="1775" d="M8 1366h172l226 -926h6l473 957h6l473 -957h6l225 926h172l-342 -1397h-6l-528 1071h-6l-529 -1071h-6z" />
<glyph unicode="X" horiz-adv-x="1282" d="M10 4l525 678l-525 680l2 4h209l420 -547l422 547h207l2 -4l-524 -680l524 -678l-2 -4h-207l-422 545l-420 -545h-209z" />
<glyph unicode="Y" horiz-adv-x="1236" d="M12 1360v6h187l417 -735h7l415 735h187v-6l-520 -920v-440h-173v440z" />
<glyph unicode="Z" horiz-adv-x="1124" d="M70 0v6l700 1200v6h-680v154h965v-6l-701 -1200v-6h680v-154h-964z" />
<glyph unicode="[" horiz-adv-x="546" d="M143 -379v1874h338v-156h-172v-1562h172v-156h-338z" />
<glyph unicode="\" horiz-adv-x="628" d="M16 1495h170l500 -1878h-166z" />
<glyph unicode="]" horiz-adv-x="546" d="M66 -223h172v1562h-172v156h337v-1874h-337v156z" />
<glyph unicode="^" horiz-adv-x="1155" d="M8 467l539 930h63l537 -930l-133 -78l-436 758l-437 -758z" />
<glyph unicode="_" horiz-adv-x="618" d="M-25 -303h668v-107h-668v107z" />
<glyph unicode="`" horiz-adv-x="819" d="M111 1227l43 162l557 -191l-31 -113z" />
<glyph unicode="a" d="M72 455q0 100 39 189t105.5 154.5t156.5 104.5t192 39q86 0 160 -36t127 -97l4 4v98h168v-911h-168v96l-4 4q-51 -63 -126 -97t-161 -34q-102 0 -192 38t-156.5 104.5t-105.5 154.5t-39 189zM240 455q0 -68 24.5 -127.5t67.5 -104.5t100 -70.5t123 -25.5q68 0 125 26.5 t100 71.5t66.5 104.5t23.5 125.5t-23.5 125t-66.5 105t-100 72.5t-125 26.5q-66 0 -123 -25.5t-100 -70.5t-67.5 -105t-24.5 -128z" />
<glyph unicode="b" d="M143 0v1495h168v-682l4 -4q53 61 127 97t160 36q102 0 192.5 -39t157 -104.5t105.5 -154.5t39 -189t-39 -188.5t-105.5 -155t-156.5 -104.5t-193 -38q-86 0 -159.5 34t-127.5 97l-4 -4v-96h-168zM297 455q0 -66 23.5 -125.5t66.5 -104.5t100.5 -71.5t124.5 -26.5 q66 0 123.5 25.5t100.5 70.5t67.5 104.5t24.5 127.5t-24.5 128t-67.5 105t-100.5 70.5t-123.5 25.5q-68 0 -125 -26.5t-100 -72.5t-66.5 -105.5t-23.5 -124.5z" />
<glyph unicode="c" horiz-adv-x="972" d="M72 455q0 100 39 189t105.5 154.5t155.5 104.5t191 39t190.5 -38t155.5 -103l-116 -115q-45 45 -103.5 71.5t-126.5 26.5t-126 -25.5t-101 -70.5t-68.5 -105.5t-25.5 -127.5q0 -68 25.5 -127.5t68.5 -104.5t101.5 -70.5t125.5 -25.5q68 0 127.5 26.5t104.5 73.5l116 -116 q-68 -66 -156.5 -104t-191.5 -38q-102 0 -191 38t-155.5 104.5t-105.5 154.5t-39 189z" />
<glyph unicode="d" d="M72 455q0 100 39 189t105.5 154.5t156.5 104.5t192 39q86 0 159 -35t128 -98l4 4v682h168v-1495h-168v96l-4 4q-53 -63 -127 -97t-160 -34q-102 0 -192 38t-156.5 104.5t-105.5 154.5t-39 189zM240 455q0 -68 24.5 -127.5t67.5 -104.5t100 -70.5t123 -25.5q68 0 125 26.5 t100 71.5t66.5 104.5t23.5 125.5t-23.5 125t-66.5 105t-100 72.5t-125 26.5q-66 0 -123 -25.5t-100 -70.5t-67.5 -105t-24.5 -128z" />
<glyph unicode="e" horiz-adv-x="1093" d="M72 457q0 100 36.5 188t101 154.5t152 104.5t185.5 38q96 0 182 -37t150.5 -102.5t103.5 -155.5t39 -196v-19q0 -6 -2 -8h-787q6 -63 33 -119.5t70 -96.5t99.5 -63.5t119.5 -23.5q68 0 130.5 27.5t105.5 74.5l112 -114q-70 -66 -154.5 -103t-189.5 -37q-100 0 -189 38 t-156 104.5t-104.5 155.5t-37.5 190zM250 569l2 -4h588l2 4q-14 47 -43 88t-68 71t-86 46.5t-98 16.5q-104 0 -186 -62.5t-111 -159.5z" />
<glyph unicode="f" horiz-adv-x="913" d="M47 756v155h219v219q0 82 31 154t84 126t125 85t153 31q84 0 156 -30t129 -83l-108 -110q-35 31 -76 51t-90 20t-93.5 -18.5t-77 -51t-52 -75.5t-19.5 -92v-226h383v-155h-383v-756h-162v756h-219z" />
<glyph unicode="g" d="M72 455q0 100 39 189t105.5 154.5t156.5 104.5t192 39q86 0 160 -36t127 -97l4 4v98h168v-821q0 -104 -38 -195.5t-102.5 -159t-152.5 -106.5t-186 -39q-135 0 -246 72t-172 188l145 80q39 -82 111 -135t162 -53q66 0 122 26.5t98 73.5t66.5 109.5t24.5 132.5v12l-4 4 q-51 -61 -126 -96t-161 -35q-98 0 -188 38t-157.5 103.5t-107.5 153.5t-40 191zM240 455q0 -68 24.5 -127.5t67.5 -104.5t100 -70.5t123 -25.5q68 0 125 26.5t100 71.5t66.5 104.5t23.5 125.5t-23.5 125t-66.5 105t-100 72.5t-125 26.5q-66 0 -123 -25.5t-100 -70.5 t-67.5 -105t-24.5 -128z" />
<glyph unicode="h" horiz-adv-x="1200" d="M143 0v1495h164v-690l4 -2q51 59 126 99t161 40q139 0 228 -47t140.5 -116.5t71 -148.5t19.5 -143v-487h-164v479q0 137 -77 221t-208 84q-68 0 -123 -26.5t-95 -72.5t-61.5 -105.5t-21.5 -124.5v-455h-164z" />
<glyph unicode="i" horiz-adv-x="462" d="M119 1274q0 47 32.5 78.5t79.5 31.5t80 -31.5t33 -78.5t-32.5 -79t-80.5 -32q-47 0 -79.5 32t-32.5 79zM147 0v911h168v-911h-168z" />
<glyph unicode="j" horiz-adv-x="512" d="M-324 -248l129 76q29 -37 74 -61.5t98 -24.5q45 0 85 17.5t70 47t47.5 68.5t17.5 84v952h168v-946q0 -78 -30 -146.5t-81 -118.5t-119.5 -80t-146.5 -30q-98 0 -179 45.5t-133 116.5zM168 1274q0 47 32.5 78.5t80.5 31.5q47 0 79.5 -31.5t32.5 -78.5t-32.5 -79t-79.5 -32 t-80 32t-33 79z" />
<glyph unicode="k" horiz-adv-x="892" d="M143 0v1495h164v-883l4 -2l332 332l111 -111l-314 -311l449 -446l-113 -105l-465 465l-4 -2v-432h-164z" />
<glyph unicode="l" horiz-adv-x="448" d="M143 0v1495h162v-1495h-162z" />
<glyph unicode="m" horiz-adv-x="1699" d="M143 0v911h168v-106l4 -2q20 31 50 56.5t65 44t73 28.5t70 10q39 0 81 -11t82 -34t75 -56.5t57 -76.5h6q53 76 131 127t164 51q18 0 55.5 -3t80.5 -17.5t88 -44t80.5 -82t59 -132t23.5 -196.5v-467h-167v498q0 104 -26 162.5t-62.5 86t-76.5 32.5t-67 5q-47 0 -88 -22.5 t-71.5 -61t-49 -91t-18.5 -111.5v-498h-162v498q0 45 -7 95t-30.5 93t-70 70.5t-123.5 27.5q-49 0 -90 -22.5t-71 -61t-47.5 -91t-17.5 -111.5v-498h-168z" />
<glyph unicode="n" horiz-adv-x="1189" d="M143 0v911h168v-112l4 -2q41 66 126 105.5t184 39.5q141 0 225 -46t127 -115.5t56.5 -151.5t13.5 -154v-475h-168v487q0 31 -6.5 81t-34 98.5t-83 83t-155.5 34.5q-59 0 -111.5 -23.5t-92.5 -63.5t-62.5 -94t-22.5 -116v-487h-168z" />
<glyph unicode="o" horiz-adv-x="1128" d="M72 455q0 100 39 189t105.5 154.5t155.5 104.5t191 39t192.5 -39t157 -104.5t105.5 -154.5t39 -189t-39 -188.5t-105.5 -155t-156.5 -104.5t-193 -38q-102 0 -191 38t-155.5 104.5t-105.5 155t-39 188.5zM242 455q0 -68 25.5 -127.5t68.5 -104.5t101.5 -70.5t125.5 -25.5 q68 0 126.5 25.5t102.5 70.5t69.5 104.5t25.5 127.5t-25.5 128t-69.5 105t-102.5 70.5t-126.5 25.5t-126 -25.5t-101 -70.5t-68.5 -105t-25.5 -128z" />
<glyph unicode="p" horiz-adv-x="1163" d="M143 -379v1290h164v-98l4 -2q51 59 126 95t161 36q102 0 192.5 -38t157 -104.5t105.5 -154.5t39 -188t-39 -189.5t-105.5 -155t-157 -104.5t-192.5 -39q-86 0 -163 37t-124 98l-4 -2v-481h-164zM293 457q0 -66 23.5 -125.5t66.5 -105.5t100.5 -72.5t124.5 -26.5 q66 0 123 25.5t100 70.5t68 105.5t25 128.5t-25 127t-68 104t-100 70.5t-123 25.5q-68 0 -125 -26.5t-100 -71.5t-66.5 -104.5t-23.5 -124.5z" />
<glyph unicode="q" horiz-adv-x="1185" d="M72 457q0 100 39 188t105.5 154.5t156.5 104.5t192 38q86 0 160 -35t127 -98l4 2v100h164l2 -1101l4 -3l137 89l76 -138l-229 -137h-154v481l-4 2q-51 -63 -126 -99t-161 -36q-102 0 -192 39t-156.5 104.5t-105.5 154.5t-39 190zM240 457q0 -68 24.5 -128.5t67.5 -105.5 t100 -70.5t123 -25.5q68 0 125 26.5t100 72.5t66.5 105.5t23.5 125.5t-23.5 125t-66.5 104t-100 71.5t-125 26.5q-66 0 -123 -25.5t-100 -70.5t-67.5 -104t-24.5 -127z" />
<glyph unicode="r" horiz-adv-x="831" d="M143 0v911h164v-112l4 -2q43 66 127 105.5t183 39.5q70 0 116.5 -12t89.5 -33l-88 -149q-29 16 -60.5 26t-82.5 10q-59 0 -111.5 -23.5t-92.5 -63.5t-62.5 -94t-22.5 -116v-487h-164z" />
<glyph unicode="s" horiz-adv-x="774" d="M76 231v19h168q-2 -6 -2 -19q2 -47 45 -77.5t96 -30.5q61 0 104 36t43 83q0 37 -20.5 66.5t-54.5 43.5l-183 72q-78 31 -125 96.5t-47 149.5q0 57 22.5 106t62.5 86t94.5 58.5t117.5 21.5q80 0 147.5 -35t108.5 -100l-143 -84q-16 29 -45 47t-66 18q-53 0 -92 -35.5 t-39 -82.5q0 -35 22.5 -63.5t55.5 -43.5l180 -78q78 -33 125 -97t47 -148q0 -55 -24.5 -104.5t-66.5 -86.5t-99 -58.5t-123 -21.5q-63 0 -120.5 20.5t-98.5 56.5t-65.5 84t-24.5 101z" />
<glyph unicode="t" horiz-adv-x="667" d="M16 758v153h236v486h164v-486h235v-153h-235v-758h-164v758h-236z" />
<glyph unicode="u" horiz-adv-x="1183" d="M143 436v475h164v-487q0 -31 6 -82t34 -100t84.5 -85t156.5 -36q59 0 111.5 24.5t92 65.5t62.5 96t23 117v487h163v-911h-163v113l-5 2q-41 -66 -125.5 -106t-183.5 -40q-141 0 -224 46t-127 116t-56.5 152t-12.5 153z" />
<glyph unicode="v" horiz-adv-x="937" d="M4 911h174l289 -602h6l287 602h174l-461 -942h-6z" />
<glyph unicode="w" horiz-adv-x="1574" d="M4 911h166l299 -600h6l309 631h7l309 -631h6l299 600h166l-465 -942h-6l-309 647h-7l-309 -647h-6z" />
<glyph unicode="x" horiz-adv-x="919" d="M6 4l356 453l-356 450l2 4h182l271 -338l268 338h182l2 -4l-356 -450l356 -453l-2 -4h-182l-268 338l-271 -338h-182z" />
<glyph unicode="y" horiz-adv-x="1003" d="M4 911h174l322 -667h6l321 667h172l-655 -1321l-135 66l205 422z" />
<glyph unicode="z" horiz-adv-x="745" d="M23 4l440 762l-2 4h-416v141h676l2 -4l-447 -762l3 -4h417v-141h-671z" />
<glyph unicode="{" horiz-adv-x="704" d="M12 467v164q57 4 103.5 26.5t79 59.5t50 85t17.5 103v269q0 68 25.5 127t70.5 102t104.5 67.5t129.5 24.5h88v-156h-88q-70 0 -116 -45t-46 -114v-256q0 -102 -38 -202.5t-128 -170.5v-4q90 -70 128 -170.5t38 -202.5v-237q0 -70 46 -115t116 -45h88v-156h-88 q-70 0 -129.5 24.5t-104.5 67.5t-70.5 102.5t-25.5 127.5v250q0 53 -17.5 101t-50 85t-78.5 59.5t-104 28.5z" />
<glyph unicode="|" horiz-adv-x="452" d="M143 -379v1874h166v-1874h-166z" />
<glyph unicode="}" horiz-adv-x="704" d="M25 -223h88q70 0 115.5 45t45.5 115v237q0 102 38 202.5t128 170.5v4q-90 70 -128 170t-38 203v256q0 70 -46 114.5t-115 44.5h-88v156h88q70 0 130 -24.5t104 -67.5t69.5 -102.5t25.5 -126.5v-269q0 -111 69 -187.5t181 -86.5v-164q-57 -6 -103 -28.5t-79 -59.5 t-50.5 -85t-17.5 -101v-250q0 -68 -25.5 -127.5t-69.5 -102.5t-104.5 -67.5t-129.5 -24.5h-88v156z" />
<glyph unicode="~" horiz-adv-x="1452" d="M66 608q0 74 29.5 138.5t80.5 112.5t120 76t146 28q66 0 125.5 -19.5t107.5 -55.5t82 -84t50 -106q16 -66 73.5 -108.5t129.5 -42.5q43 0 80.5 15.5t66.5 43t45.5 64.5t16.5 78h167q0 -74 -29.5 -138.5t-80.5 -112.5t-120 -76t-146 -28q-66 0 -125.5 20.5t-107.5 55.5 t-81.5 83t-50.5 105q-16 66 -73.5 109t-129.5 43q-43 0 -80.5 -15.5t-66.5 -43t-45.5 -64.5t-16.5 -78h-167z" />
<glyph unicode="&#xa1;" horiz-adv-x="491" d="M133 928q0 47 33 79.5t80 32.5q49 0 81.5 -32.5t32.5 -79.5t-32.5 -80t-81.5 -33q-47 0 -80 33t-33 80zM162 -379v1024h168v-1024h-168z" />
<glyph unicode="&#xa2;" horiz-adv-x="972" d="M72 682q0 90 30.5 171t85 144.5t129 106.5t162.5 57v176h168v-176q76 -12 142.5 -47t119.5 -86l-116 -115q-45 45 -103.5 72t-126.5 27t-126 -25.5t-101 -71t-68.5 -105.5t-25.5 -128t25.5 -127t68.5 -104t101.5 -71t125.5 -26q68 0 127.5 27t104.5 74l116 -117 q-53 -51 -120.5 -86t-143.5 -49v-203h-168v203q-88 14 -162.5 57t-129 106.5t-85 144.5t-30.5 171z" />
<glyph unicode="&#xa3;" horiz-adv-x="1038" d="M82 0v152q51 10 92 52t49 101l41 293h-182v160h209l43 313q10 70 44 129.5t86 103.5t118.5 69.5t142.5 25.5q41 0 81 -7.5t75 -23.5l-80 -133q-20 6 -36.5 9t-39.5 3q-88 0 -150.5 -56t-72.5 -138l-41 -295h201v-160h-226l-63 -438h358q53 0 89 22.5t61 57.5l145 -82 q-53 -68 -126 -113t-167 -45h-651z" />
<glyph unicode="&#xa4;" horiz-adv-x="1128" d="M72 719q0 78 23.5 151.5t68.5 133.5l-88 88l117 116l90 -90q59 41 130.5 64.5t149.5 23.5t150.5 -23.5t132.5 -64.5l90 90l117 -116l-88 -88q43 -59 67.5 -133t24.5 -152q0 -80 -24.5 -151.5t-67.5 -131.5l88 -88l-117 -117l-90 91q-59 -41 -132 -65t-151 -24t-150.5 23 t-131.5 63l-88 -88l-117 117l88 88q-43 59 -67.5 131t-24.5 152zM233 719q0 -70 26 -130.5t71 -106.5t105.5 -72.5t127.5 -26.5q68 0 128.5 26.5t105.5 72.5t71.5 106.5t26.5 130.5t-26.5 131t-71.5 107.5t-105.5 73t-128.5 26.5t-128 -26.5t-105 -73t-71 -107.5t-26 -131z " />
<glyph unicode="&#xa5;" horiz-adv-x="1234" d="M10 1362l2 4h183l421 -743h5l419 743h183l2 -4l-418 -737h168v-111h-232l-43 -78v-39h275v-110h-275v-287h-165v287h-293v110h293v39l-46 78h-247v111h186z" />
<glyph unicode="&#xa6;" horiz-adv-x="452" d="M143 -379v854h166v-854h-166zM143 641v854h166v-854h-166z" />
<glyph unicode="&#xa7;" horiz-adv-x="983" d="M82 -49h176q10 -96 71.5 -149.5t143.5 -53.5q45 0 84 17.5t68.5 47t47 69.5t17.5 85q0 57 -26.5 101.5t-67.5 72.5q-80 47 -169 99.5t-169 99.5q-72 43 -114 127t-42 176q0 104 76 211q-57 96 -57 186q0 74 27.5 139.5t76.5 113.5t115 76t139 28q72 0 134.5 -24.5 t109.5 -68.5t77.5 -105.5t37.5 -133.5h-174q-16 70 -67.5 117t-117.5 47q-76 0 -130 -54.5t-54 -136.5q0 -51 25.5 -92t62.5 -63q41 -23 87 -50.5t94 -55t95.5 -55.5t85.5 -52q72 -43 114 -127t42 -176q0 -53 -22.5 -114t-59.5 -108q45 -84 45 -180q0 -80 -30.5 -150.5 t-84 -122.5t-125 -82t-151.5 -30q-76 0 -144.5 26.5t-120.5 76t-86 118t-40 150.5zM252 641q0 -51 26.5 -98t63.5 -70l369 -215q35 68 34 111q0 51 -26.5 98t-63.5 70l-368 215q-35 -68 -35 -111z" />
<glyph unicode="&#xa8;" horiz-adv-x="819" d="M102 1239q0 33 24 55.5t58 22.5q35 0 58.5 -22.5t23.5 -55.5t-23.5 -55.5t-58.5 -22.5t-58.5 22.5t-23.5 55.5zM553 1239q0 33 23.5 55.5t58.5 22.5t58.5 -22.5t23.5 -55.5t-23.5 -55.5t-58.5 -22.5t-58.5 22.5t-23.5 55.5z" />
<glyph unicode="&#xa9;" horiz-adv-x="1024" d="M72 1040q0 100 37.5 188.5t104.5 155t156 104.5t189 38q102 0 191.5 -38t156 -104.5t104.5 -155t38 -188.5t-38 -189t-104.5 -155.5t-155.5 -104.5t-192 -38q-100 0 -189 38t-156 104.5t-104.5 155.5t-37.5 189zM160 1040q0 -86 31.5 -159.5t86 -128t127 -86t154.5 -31.5 q84 0 156.5 31.5t127 86t86.5 128t32 159.5q0 84 -32 158t-86.5 129t-127 87t-156.5 32q-82 0 -154.5 -32t-127 -87t-86 -129t-31.5 -158zM299 1040q0 55 21.5 104.5t58.5 86.5t86 58.5t104 21.5q57 0 106.5 -21.5t86.5 -58.5l-62 -62q-25 27 -58.5 42.5t-72.5 15.5 q-76 0 -128 -54.5t-52 -132.5q0 -76 52.5 -130t127.5 -54q39 0 73 15.5t58 41.5l62 -61q-37 -37 -86 -58.5t-107 -21.5q-55 0 -104 21.5t-86 57.5t-58.5 85t-21.5 104z" />
<glyph unicode="&#xaa;" horiz-adv-x="1060" d="M72 973q0 88 33.5 164.5t92 134t136.5 91.5t166 34q74 0 138 -31t107 -84l5 2v86h168v-790h-168v84l-5 2q-43 -53 -107.5 -83t-137.5 -30q-88 0 -166 32.5t-136.5 90t-92 134.5t-33.5 163zM240 975q0 -53 20.5 -101.5t56 -84t82.5 -57t103 -21.5q55 0 104 21.5t84 58 t55.5 85t20.5 99.5q0 53 -20.5 101t-55.5 84t-84 57.5t-104 21.5t-102.5 -20.5t-83 -56.5t-56 -84t-20.5 -103z" />
<glyph unicode="&#xab;" horiz-adv-x="972" d="M72 457l266 454h199l-269 -454l269 -457h-199zM461 457l266 454h199l-269 -454l269 -457h-199z" />
<glyph unicode="&#xac;" horiz-adv-x="911" d="M72 625v159h757v-460h-170v301h-587z" />
<glyph unicode="&#xad;" horiz-adv-x="774" d="M72 598v160h630v-160h-630z" />
<glyph unicode="&#xae;" horiz-adv-x="1120" d="M72 1040q0 100 37.5 188.5t104.5 155t156 104.5t189 38q102 0 191.5 -38t156 -104.5t104.5 -155t38 -188.5t-38 -189t-104.5 -155.5t-155.5 -104.5t-192 -38q-100 0 -189 38t-156 104.5t-104.5 155.5t-37.5 189zM160 1040q0 -86 31.5 -159.5t86 -128t127 -86t154.5 -31.5 q84 0 156.5 31.5t127 86t86.5 128t32 159.5q0 84 -32 158t-86.5 129t-127 87t-156.5 32q-82 0 -154.5 -32t-127 -87t-86 -129t-31.5 -158zM418 784v514h133q41 0 76 -15t62.5 -42t43 -61.5t15.5 -75.5q0 -53 -25 -95t-66 -69l103 -102l-66 -66l-133 135h-49v-123h-94z M512 997h39q41 0 70.5 31t29.5 76q0 41 -29.5 72.5t-70.5 31.5h-39v-211z" />
<glyph unicode="&#xaf;" horiz-adv-x="819" d="M111 1163v160h598v-160h-598z" />
<glyph unicode="&#xb0;" horiz-adv-x="704" d="M66 1110q0 59 22.5 111.5t61 91.5t91 61.5t111.5 22.5t111.5 -22.5t91.5 -61.5t61.5 -91.5t22.5 -111.5t-22.5 -111.5t-61.5 -90.5t-91 -60.5t-112 -22.5q-59 0 -111.5 22.5t-91 60.5t-61 90.5t-22.5 111.5zM160 1110q0 -41 15 -77t41 -62.5t61.5 -42t74.5 -15.5 q41 0 76 15.5t60.5 42t41 62.5t15.5 77t-15.5 78t-41 64.5t-60.5 43t-76 15.5q-39 0 -74.5 -15.5t-61.5 -43t-41 -64.5t-15 -78z" />
<glyph unicode="&#xb1;" horiz-adv-x="901" d="M72 297v160h757v-160h-757zM72 752v159h295v189h168v-189h294v-159h-294v-189h-168v189h-295z" />
<glyph unicode="&#xb2;" horiz-adv-x="753" d="M66 551l405 485q31 35 31 82q0 53 -37 91t-90 38t-90 -38t-37 -91v-2h-156v2q0 57 22.5 108.5t60.5 89.5t90 59.5t110 21.5q57 0 108.5 -21.5t90 -59.5t61 -89t22.5 -109q0 -41 -11 -82t-34 -69l-221 -275h281v-141h-606z" />
<glyph unicode="&#xb3;" horiz-adv-x="755" d="M90 778h156q6 -55 45 -96t94 -41q61 0 98 39t37 113q0 53 -39 82.5t-96 29.5h-10v144q45 2 79.5 24.5t34.5 67.5q0 59 -33.5 94t-86.5 35q-47 0 -81 -32t-38 -85h-154q2 55 23.5 99t58.5 77t86 50.5t107 17.5q119 0 195.5 -71t76.5 -187q0 -35 -15.5 -75t-39.5 -75 q90 -90 90 -194q0 -61 -23.5 -112.5t-63.5 -88.5t-93.5 -57.5t-112.5 -20.5t-111.5 19.5t-92.5 54.5t-63.5 83t-27.5 105z" />
<glyph unicode="&#xb4;" horiz-adv-x="819" d="M111 1198l557 191l43 -160l-568 -146z" />
<glyph unicode="&#xb5;" horiz-adv-x="1189" d="M143 -379v1290h168v-487q0 -61 22.5 -115.5t62.5 -94.5t92.5 -63.5t111.5 -23.5q100 0 155.5 35t83 83t34 98t6.5 81v487h168v-475q0 -72 -13.5 -153.5t-56.5 -151.5t-127 -116t-225 -46q-98 0 -180.5 39t-133.5 105v-492h-168z" />
<glyph unicode="&#xb6;" horiz-adv-x="1036" d="M66 1061q0 63 24.5 118.5t65.5 97.5t98 65.5t121 23.5h510v-1366h-170v1206h-170v-1206h-170v758q-63 0 -120.5 23.5t-98.5 64.5t-65.5 96t-24.5 119z" />
<glyph unicode="&#xb7;" horiz-adv-x="421" d="M98 680q0 47 33 79t80 32t80 -32t33 -79t-33 -79t-80 -32t-80 32t-33 79z" />
<glyph unicode="&#xb8;" horiz-adv-x="819" d="M332 -369l41 74q14 -8 37 -8q33 0 55 21.5t22 52.5t-22.5 52t-54.5 21h-39v156h78v-78q57 -12 95 -54t38 -97q0 -66 -50.5 -111t-121.5 -45q-41 0 -78 16z" />
<glyph unicode="&#xb9;" horiz-adv-x="542" d="M68 1225l82 141h202v-815h-145v674h-139z" />
<glyph unicode="&#xba;" horiz-adv-x="997" d="M72 973q0 88 33.5 164.5t91 134t136.5 91.5t167 34t164.5 -34t135 -91.5t92.5 -134t34 -164.5q0 -86 -34 -163t-92.5 -134.5t-135 -90t-164.5 -32.5t-167 32.5t-136.5 90t-91 134.5t-33.5 163zM242 973q0 -55 20.5 -103.5t55 -84t81.5 -57t101 -21.5q53 0 99 21.5t81 57 t55.5 84t20.5 103.5t-20.5 103t-55.5 85t-81 57.5t-99 20.5t-100.5 -20.5t-82 -57.5t-55 -85t-20.5 -103z" />
<glyph unicode="&#xbb;" horiz-adv-x="972" d="M47 0l268 457l-268 454h199l266 -454l-266 -457h-199zM436 0l269 457l-269 454h199l266 -454l-266 -457h-199z" />
<glyph unicode="&#xbc;" horiz-adv-x="1429" d="M86 1225l82 141h203v-815h-146v674h-139zM209 0l862 1495h174l-864 -1495h-172zM727 145l547 701v-572h106v-129h-106v-145h-135v145h-412zM989 274h150v191z" />
<glyph unicode="&#xbd;" horiz-adv-x="1587" d="M86 1225l82 141h203v-815h-146v674h-139zM209 0l862 1495h174l-864 -1495h-172zM920 4l401 481q31 35 31 82q0 53 -37 91t-90 38t-90 -37.5t-37 -91.5v-2h-156v2q0 57 22.5 108.5t60.5 89.5t90 59.5t110 21.5q57 0 108 -21.5t90 -59.5t61.5 -89t22.5 -109q0 -41 -11 -82 t-34 -69l-221 -275h281v-141h-600z" />
<glyph unicode="&#xbe;" horiz-adv-x="1628" d="M90 778h156q6 -55 45 -96t94 -41q61 0 98 39t37 113q0 53 -39 82.5t-96 29.5h-10v144q45 2 79.5 24.5t34.5 67.5q0 59 -33.5 94t-86.5 35q-47 0 -81 -32t-38 -85h-154q2 55 23.5 99t58.5 77t86 50.5t107 17.5q119 0 195.5 -71t76.5 -187q0 -35 -15.5 -75t-39.5 -75 q90 -90 90 -194q0 -61 -23.5 -112.5t-63.5 -88.5t-93.5 -57.5t-112.5 -20.5t-111.5 19.5t-92.5 54.5t-63.5 83t-27.5 105zM408 0l862 1495h174l-864 -1495h-172zM928 150l538 690h7v-566h106v-129h-106v-145h-136v145h-405zM1190 279l2 -5h145v185l-4 2z" />
<glyph unicode="&#xbf;" horiz-adv-x="1024" d="M72 86q0 96 33.5 178t89 143.5t125 100.5t143.5 47v90h168v-244l-4 -4q-16 4 -38 8.5t-46 4.5q-70 0 -126.5 -29t-96 -75t-62 -103.5t-22.5 -116.5q0 -68 24.5 -126t66.5 -102t97 -70t119 -26q80 0 147.5 40t110.5 98l143 -84q-66 -92 -169 -149.5t-228 -57.5 q-100 0 -186.5 37t-151 101.5t-101 151.5t-36.5 187zM432 928q0 47 34 79.5t81 32.5q49 0 82 -32.5t33 -79.5t-33 -80t-82 -33q-47 0 -81 33t-34 80z" />
<glyph unicode="&#xc0;" horiz-adv-x="1292" d="M10 0l635 1397h6l637 -1397h-178l-131 287h-660l-131 -287h-178zM349 1639l43 162l557 -191l-31 -113zM391 444l4 -4h508l4 4l-258 564h-4z" />
<glyph unicode="&#xc1;" horiz-adv-x="1292" d="M10 0l635 1397h6l637 -1397h-178l-131 287h-660l-131 -287h-178zM349 1610l557 191l43 -160l-568 -146zM391 444l4 -4h508l4 4l-258 564h-4z" />
<glyph unicode="&#xc2;" horiz-adv-x="1292" d="M10 0l635 1397h6l637 -1397h-178l-131 287h-660l-131 -287h-178zM330 1604l270 160h97l270 -160l-80 -104l-239 137l-236 -137zM391 444l4 -4h508l4 4l-258 564h-4z" />
<glyph unicode="&#xc3;" horiz-adv-x="1292" d="M10 0l635 1397h6l637 -1397h-178l-131 287h-660l-131 -287h-178zM342 1641q27 37 60 67q29 27 66.5 47.5t84.5 20.5q29 0 54.5 -18.5t50.5 -36.5q23 -16 42 -29.5t42 -13.5q27 0 51.5 19.5t38.5 37.5l121 -70q-27 -37 -60 -67q-29 -27 -66.5 -48.5t-84.5 -21.5 q-29 0 -55.5 17.5t-49.5 38.5q-20 18 -40.5 30.5t-43.5 12.5q-27 0 -50 -18.5t-38 -37.5zM391 444l4 -4h508l4 4l-258 564h-4z" />
<glyph unicode="&#xc4;" horiz-adv-x="1292" d="M10 0l635 1397h6l637 -1397h-178l-131 287h-660l-131 -287h-178zM340 1649q0 33 24 55.5t58 22.5q35 0 58.5 -22.5t23.5 -55.5t-23.5 -55.5t-58.5 -22.5t-58.5 22.5t-23.5 55.5zM391 444l4 -4h508l4 4l-258 564h-4zM791 1649q0 33 23.5 55.5t58.5 22.5t58.5 -22.5 t23.5 -55.5t-23.5 -55.5t-58.5 -22.5t-58.5 22.5t-23.5 55.5z" />
<glyph unicode="&#xc5;" horiz-adv-x="1292" d="M10 0l635 1397h6l637 -1397h-178l-131 287h-660l-131 -287h-178zM391 444l4 -4h508l4 4l-258 564h-4zM490 1647q0 66 46 112t114 46t114.5 -46t46.5 -112t-47 -111t-114 -45q-68 0 -114 45t-46 111zM570 1647q0 -35 22.5 -56.5t57.5 -21.5q33 0 57.5 21.5t24.5 56.5 t-25 57.5t-57 22.5q-35 0 -57.5 -22.5t-22.5 -57.5z" />
<glyph unicode="&#xc6;" horiz-adv-x="1816" d="M14 4l865 1362h819v-160h-649v-432h491v-160h-491v-454h649v-160h-819v287h-498l-182 -287h-183zM481 444l2 -4h396v641h-5z" />
<glyph unicode="&#xc7;" horiz-adv-x="1275" d="M76 680q0 150 56 281t154.5 228t230.5 153.5t282 56.5q111 0 211 -31t186 -88l-88 -141q-68 47 -146.5 72.5t-164.5 25.5q-113 0 -212.5 -43t-174 -118t-117.5 -176t-43 -218t43 -217t117.5 -175t174 -118t212.5 -43q86 0 163.5 24.5t143.5 71.5l92 -139 q-86 -55 -186.5 -87t-210.5 -32v-45q57 -12 95 -54t38 -97q0 -66 -50.5 -111t-121.5 -45q-41 0 -78 16l41 74q14 -8 37 -8q33 0 55.5 21.5t22.5 52.5t-22.5 52t-55.5 21h-39v127q-135 14 -253 74.5t-205 156t-137 218.5t-50 260z" />
<glyph unicode="&#xc8;" horiz-adv-x="1089" d="M152 0v1366h819v-160h-649v-432h491v-160h-491v-454h649v-160h-819zM263 1639l43 162l557 -191l-31 -113z" />
<glyph unicode="&#xc9;" horiz-adv-x="1089" d="M152 0v1366h819v-160h-649v-432h491v-160h-491v-454h649v-160h-819zM263 1610l557 191l43 -160l-568 -146z" />
<glyph unicode="&#xca;" horiz-adv-x="1089" d="M152 0v1366h819v-160h-649v-432h491v-160h-491v-454h649v-160h-819zM244 1604l270 160h97l270 -160l-80 -104l-239 137l-236 -137z" />
<glyph unicode="&#xcb;" horiz-adv-x="1089" d="M152 0v1366h819v-160h-649v-432h491v-160h-491v-454h649v-160h-819zM254 1649q0 33 24 55.5t58 22.5q35 0 58.5 -22.5t23.5 -55.5t-23.5 -55.5t-58.5 -22.5t-58.5 22.5t-23.5 55.5zM705 1649q0 33 23.5 55.5t58.5 22.5t58.5 -22.5t23.5 -55.5t-23.5 -55.5t-58.5 -22.5 t-58.5 22.5t-23.5 55.5z" />
<glyph unicode="&#xcc;" horiz-adv-x="473" d="M-61 1639l43 162l557 -191l-31 -113zM152 0v1366h170v-1366h-170z" />
<glyph unicode="&#xcd;" horiz-adv-x="473" d="M-61 1610l557 191l43 -160l-568 -146zM152 0v1366h170v-1366h-170z" />
<glyph unicode="&#xce;" horiz-adv-x="473" d="M-80 1604l270 160h97l270 -160l-80 -104l-239 137l-236 -137zM152 0v1366h170v-1366h-170z" />
<glyph unicode="&#xcf;" horiz-adv-x="473" d="M-70 1649q0 33 24 55.5t58 22.5q35 0 58.5 -22.5t23.5 -55.5t-23.5 -55.5t-58.5 -22.5t-58.5 22.5t-23.5 55.5zM152 0v1366h170v-1366h-170zM381 1649q0 33 23.5 55.5t58.5 22.5t58.5 -22.5t23.5 -55.5t-23.5 -55.5t-58.5 -22.5t-58.5 22.5t-23.5 55.5z" />
<glyph unicode="&#xd0;" horiz-adv-x="1148" d="M-23 598v160h175v608h231q143 0 269 -53t219.5 -146.5t147.5 -218.5t54 -268q0 -141 -54 -265t-147.5 -216.5t-219.5 -145.5t-269 -53h-231v598h-175zM322 160h67q106 0 199.5 41t163 111.5t110.5 165.5t41 204q0 111 -41 207t-110.5 166.5t-162.5 110.5t-200 40h-67 v-448h174v-160h-174v-438z" />
<glyph unicode="&#xd1;" horiz-adv-x="1406" d="M152 0v1397h6l934 -991h6v960h170v-1397h-6l-934 992h-6v-961h-170zM403 1641q27 37 60 67q29 27 66.5 47.5t84.5 20.5q29 0 54.5 -18.5t50.5 -36.5q23 -16 42 -29.5t42 -13.5q27 0 51.5 19.5t38.5 37.5l121 -70q-27 -37 -60 -67q-29 -27 -66.5 -48.5t-84.5 -21.5 q-29 0 -55.5 17.5t-49.5 38.5q-20 18 -40.5 30.5t-43.5 12.5q-27 0 -50 -18.5t-38 -37.5z" />
<glyph unicode="&#xd2;" horiz-adv-x="1595" d="M76 680q0 150 56 281t154.5 228t230.5 153.5t282 56.5t280.5 -56.5t229 -153.5t155 -228t56.5 -281q0 -147 -56.5 -277.5t-155 -226.5t-229.5 -152.5t-280 -56.5q-150 0 -282 56.5t-230.5 152.5t-154.5 226t-56 278zM252 682q0 -117 43 -219.5t116.5 -177t173 -117.5 t212.5 -43q115 0 214 43t172.5 117.5t116.5 177t43 219.5q0 119 -43 221.5t-116.5 177t-173 117.5t-213.5 43q-113 0 -212.5 -43t-173 -117.5t-116.5 -177t-43 -221.5zM498 1639l43 162l557 -191l-31 -113z" />
<glyph unicode="&#xd3;" horiz-adv-x="1595" d="M76 680q0 150 56 281t154.5 228t230.5 153.5t282 56.5t280.5 -56.5t229 -153.5t155 -228t56.5 -281q0 -147 -56.5 -277.5t-155 -226.5t-229.5 -152.5t-280 -56.5q-150 0 -282 56.5t-230.5 152.5t-154.5 226t-56 278zM252 682q0 -117 43 -219.5t116.5 -177t173 -117.5 t212.5 -43q115 0 214 43t172.5 117.5t116.5 177t43 219.5q0 119 -43 221.5t-116.5 177t-173 117.5t-213.5 43q-113 0 -212.5 -43t-173 -117.5t-116.5 -177t-43 -221.5zM498 1610l557 191l43 -160l-568 -146z" />
<glyph unicode="&#xd4;" horiz-adv-x="1595" d="M76 680q0 150 56 281t154.5 228t230.5 153.5t282 56.5t280.5 -56.5t229 -153.5t155 -228t56.5 -281q0 -147 -56.5 -277.5t-155 -226.5t-229.5 -152.5t-280 -56.5q-150 0 -282 56.5t-230.5 152.5t-154.5 226t-56 278zM252 682q0 -117 43 -219.5t116.5 -177t173 -117.5 t212.5 -43q115 0 214 43t172.5 117.5t116.5 177t43 219.5q0 119 -43 221.5t-116.5 177t-173 117.5t-213.5 43q-113 0 -212.5 -43t-173 -117.5t-116.5 -177t-43 -221.5zM479 1604l270 160h97l270 -160l-80 -104l-239 137l-236 -137z" />
<glyph unicode="&#xd5;" horiz-adv-x="1595" d="M76 680q0 150 56 281t154.5 228t230.5 153.5t282 56.5t280.5 -56.5t229 -153.5t155 -228t56.5 -281q0 -147 -56.5 -277.5t-155 -226.5t-229.5 -152.5t-280 -56.5q-150 0 -282 56.5t-230.5 152.5t-154.5 226t-56 278zM252 682q0 -117 43 -219.5t116.5 -177t173 -117.5 t212.5 -43q115 0 214 43t172.5 117.5t116.5 177t43 219.5q0 119 -43 221.5t-116.5 177t-173 117.5t-213.5 43q-113 0 -212.5 -43t-173 -117.5t-116.5 -177t-43 -221.5zM491 1641q27 37 60 67q29 27 66.5 47.5t84.5 20.5q29 0 54.5 -18.5t50.5 -36.5q23 -16 42 -29.5 t42 -13.5q27 0 51.5 19.5t38.5 37.5l121 -70q-27 -37 -60 -67q-29 -27 -66.5 -48.5t-84.5 -21.5q-29 0 -55.5 17.5t-49.5 38.5q-20 18 -40.5 30.5t-43.5 12.5q-27 0 -50 -18.5t-38 -37.5z" />
<glyph unicode="&#xd6;" horiz-adv-x="1595" d="M76 680q0 150 56 281t154.5 228t230.5 153.5t282 56.5t280.5 -56.5t229 -153.5t155 -228t56.5 -281q0 -147 -56.5 -277.5t-155 -226.5t-229.5 -152.5t-280 -56.5q-150 0 -282 56.5t-230.5 152.5t-154.5 226t-56 278zM252 682q0 -117 43 -219.5t116.5 -177t173 -117.5 t212.5 -43q115 0 214 43t172.5 117.5t116.5 177t43 219.5q0 119 -43 221.5t-116.5 177t-173 117.5t-213.5 43q-113 0 -212.5 -43t-173 -117.5t-116.5 -177t-43 -221.5zM489 1649q0 33 24 55.5t58 22.5q35 0 58.5 -22.5t23.5 -55.5t-23.5 -55.5t-58.5 -22.5t-58.5 22.5 t-23.5 55.5zM940 1649q0 33 23.5 55.5t58.5 22.5t58.5 -22.5t23.5 -55.5t-23.5 -55.5t-58.5 -22.5t-58.5 22.5t-23.5 55.5z" />
<glyph unicode="&#xd7;" horiz-adv-x="901" d="M47 236l307 305l-307 303l100 100l304 -307l303 307l102 -100l-307 -303l307 -305l-102 -101l-303 307l-304 -307z" />
<glyph unicode="&#xd8;" horiz-adv-x="1595" d="M76 680q0 150 56 281t154.5 228t230.5 153.5t282 56.5q125 0 237.5 -40t204.5 -112l160 158l117 -117l-158 -158q74 -92 117 -206.5t43 -243.5q0 -147 -56.5 -277.5t-155 -226.5t-229.5 -152.5t-280 -56.5q-129 0 -244 41t-207 113l-153 -154l-117 117l153 154 q-74 92 -114.5 203.5t-40.5 238.5zM252 682q0 -186 98 -326l776 774q-70 53 -152.5 82t-176.5 29q-113 0 -212.5 -43t-173 -117.5t-116.5 -177t-43 -221.5zM465 238q68 -53 152.5 -83t179.5 -30q115 0 214 43t172.5 117.5t116.5 177t43 219.5q0 94 -27.5 177t-74.5 153z" />
<glyph unicode="&#xd9;" horiz-adv-x="1234" d="M152 432v934h170v-934q0 -63 23.5 -120.5t63.5 -99.5t93 -66.5t114 -24.5t115.5 24.5t94.5 66.5t63.5 99.5t23.5 120.5v934h170v-932q0 -96 -36.5 -181t-99 -148.5t-147.5 -100.5t-182 -37q-96 0 -181 37t-148.5 99.5t-100 147.5t-36.5 181zM318 1639l43 162l557 -191 l-31 -113z" />
<glyph unicode="&#xda;" horiz-adv-x="1234" d="M152 432v934h170v-934q0 -63 23.5 -120.5t63.5 -99.5t93 -66.5t114 -24.5t115.5 24.5t94.5 66.5t63.5 99.5t23.5 120.5v934h170v-932q0 -96 -36.5 -181t-99 -148.5t-147.5 -100.5t-182 -37q-96 0 -181 37t-148.5 99.5t-100 147.5t-36.5 181zM318 1610l557 191l43 -160 l-568 -146z" />
<glyph unicode="&#xdb;" horiz-adv-x="1234" d="M152 432v934h170v-934q0 -63 23.5 -120.5t63.5 -99.5t93 -66.5t114 -24.5t115.5 24.5t94.5 66.5t63.5 99.5t23.5 120.5v934h170v-932q0 -96 -36.5 -181t-99 -148.5t-147.5 -100.5t-182 -37q-96 0 -181 37t-148.5 99.5t-100 147.5t-36.5 181zM299 1604l270 160h97 l270 -160l-80 -104l-239 137l-236 -137z" />
<glyph unicode="&#xdc;" horiz-adv-x="1234" d="M152 432v934h170v-934q0 -63 23.5 -120.5t63.5 -99.5t93 -66.5t114 -24.5t115.5 24.5t94.5 66.5t63.5 99.5t23.5 120.5v934h170v-932q0 -96 -36.5 -181t-99 -148.5t-147.5 -100.5t-182 -37q-96 0 -181 37t-148.5 99.5t-100 147.5t-36.5 181zM309 1649q0 33 24 55.5 t58 22.5q35 0 58.5 -22.5t23.5 -55.5t-23.5 -55.5t-58.5 -22.5t-58.5 22.5t-23.5 55.5zM760 1649q0 33 23.5 55.5t58.5 22.5t58.5 -22.5t23.5 -55.5t-23.5 -55.5t-58.5 -22.5t-58.5 22.5t-23.5 55.5z" />
<glyph unicode="&#xdd;" horiz-adv-x="1234" d="M12 1360v6h187l417 -735h7l415 735h187v-6l-520 -920v-440h-173v440zM320 1610l557 191l43 -160l-568 -146z" />
<glyph unicode="&#xde;" horiz-adv-x="1017" d="M152 0v1366h170v-164h100q109 0 205 -41t167.5 -111.5t112.5 -164.5t41 -203q0 -106 -41 -201.5t-112.5 -165t-168 -110.5t-204.5 -41h-100v-164h-170zM322 330q53 -16 102 -17q74 0 138.5 29t112.5 79t75.5 117.5t27.5 143.5v-4q0 78 -27.5 144.5t-75.5 116.5t-112.5 79 t-138.5 29q-27 0 -52.5 -4.5t-49.5 -10.5v-702z" />
<glyph unicode="&#xdf;" horiz-adv-x="1019" d="M106 0v1006q0 80 30 151.5t82 124.5t121 84t148 31q80 0 149 -31t121 -84t81.5 -125t29.5 -151q0 -86 -32.5 -162t-92.5 -129q43 -18 79 -52t62.5 -79t42 -95.5t15.5 -103.5q0 -80 -30.5 -149.5t-83 -122t-124 -83t-151.5 -30.5h-182v160h172q47 0 89 18.5t72.5 49 t49 71.5t18.5 88t-18.5 88t-49 72t-72.5 49t-89 18h-119v156h63q43 0 82 18.5t68 51t45 74.5t16 92q0 49 -16 91t-45 74.5t-68 51t-82 18.5t-81.5 -18.5t-67.5 -51t-45.5 -74.5t-16.5 -91v-1006h-170z" />
<glyph unicode="&#xe0;" d="M72 455q0 100 39 189t105.5 154.5t156.5 104.5t192 39q86 0 160 -36t127 -97l4 4v98h168v-911h-168v96l-4 4q-51 -63 -126 -97t-161 -34q-102 0 -192 38t-156.5 104.5t-105.5 154.5t-39 189zM240 455q0 -68 24.5 -127.5t67.5 -104.5t100 -70.5t123 -25.5q68 0 125 26.5 t100 71.5t66.5 104.5t23.5 125.5t-23.5 125t-66.5 105t-100 72.5t-125 26.5q-66 0 -123 -25.5t-100 -70.5t-67.5 -105t-24.5 -128zM265 1227l43 162l557 -191l-31 -113z" />
<glyph unicode="&#xe1;" d="M72 455q0 100 39 189t105.5 154.5t156.5 104.5t192 39q86 0 160 -36t127 -97l4 4v98h168v-911h-168v96l-4 4q-51 -63 -126 -97t-161 -34q-102 0 -192 38t-156.5 104.5t-105.5 154.5t-39 189zM240 455q0 -68 24.5 -127.5t67.5 -104.5t100 -70.5t123 -25.5q68 0 125 26.5 t100 71.5t66.5 104.5t23.5 125.5t-23.5 125t-66.5 105t-100 72.5t-125 26.5q-66 0 -123 -25.5t-100 -70.5t-67.5 -105t-24.5 -128zM265 1198l557 191l43 -160l-568 -146z" />
<glyph unicode="&#xe2;" d="M72 455q0 100 39 189t105.5 154.5t156.5 104.5t192 39q86 0 160 -36t127 -97l4 4v98h168v-911h-168v96l-4 4q-51 -63 -126 -97t-161 -34q-102 0 -192 38t-156.5 104.5t-105.5 154.5t-39 189zM240 455q0 -68 24.5 -127.5t67.5 -104.5t100 -70.5t123 -25.5q68 0 125 26.5 t100 71.5t66.5 104.5t23.5 125.5t-23.5 125t-66.5 105t-100 72.5t-125 26.5q-66 0 -123 -25.5t-100 -70.5t-67.5 -105t-24.5 -128zM246 1194l270 160h97l270 -160l-80 -104l-239 137l-236 -137z" />
<glyph unicode="&#xe3;" d="M72 455q0 100 39 189t105.5 154.5t156.5 104.5t192 39q86 0 160 -36t127 -97l4 4v98h168v-911h-168v96l-4 4q-51 -63 -126 -97t-161 -34q-102 0 -192 38t-156.5 104.5t-105.5 154.5t-39 189zM240 455q0 -68 24.5 -127.5t67.5 -104.5t100 -70.5t123 -25.5q68 0 125 26.5 t100 71.5t66.5 104.5t23.5 125.5t-23.5 125t-66.5 105t-100 72.5t-125 26.5q-66 0 -123 -25.5t-100 -70.5t-67.5 -105t-24.5 -128zM258 1231q27 37 60 67q29 27 66.5 47.5t84.5 20.5q29 0 54.5 -18.5t50.5 -36.5q23 -16 42 -29.5t42 -13.5q27 0 51.5 19.5t38.5 37.5l121 -70 q-27 -37 -60 -67q-29 -27 -66.5 -48.5t-84.5 -21.5q-29 0 -55.5 17.5t-49.5 38.5q-20 18 -40.5 30.5t-43.5 12.5q-27 0 -50 -18.5t-38 -37.5z" />
<glyph unicode="&#xe4;" d="M72 455q0 100 39 189t105.5 154.5t156.5 104.5t192 39q86 0 160 -36t127 -97l4 4v98h168v-911h-168v96l-4 4q-51 -63 -126 -97t-161 -34q-102 0 -192 38t-156.5 104.5t-105.5 154.5t-39 189zM240 455q0 -68 24.5 -127.5t67.5 -104.5t100 -70.5t123 -25.5q68 0 125 26.5 t100 71.5t66.5 104.5t23.5 125.5t-23.5 125t-66.5 105t-100 72.5t-125 26.5q-66 0 -123 -25.5t-100 -70.5t-67.5 -105t-24.5 -128zM256 1239q0 33 24 55.5t58 22.5q35 0 58.5 -22.5t23.5 -55.5t-23.5 -55.5t-58.5 -22.5t-58.5 22.5t-23.5 55.5zM707 1239q0 33 23.5 55.5 t58.5 22.5t58.5 -22.5t23.5 -55.5t-23.5 -55.5t-58.5 -22.5t-58.5 22.5t-23.5 55.5z" />
<glyph unicode="&#xe5;" d="M72 455q0 100 39 189t105.5 154.5t156.5 104.5t192 39q86 0 160 -36t127 -97l4 4v98h168v-911h-168v96l-4 4q-51 -63 -126 -97t-161 -34q-102 0 -192 38t-156.5 104.5t-105.5 154.5t-39 189zM240 455q0 -68 24.5 -127.5t67.5 -104.5t100 -70.5t123 -25.5q68 0 125 26.5 t100 71.5t66.5 104.5t23.5 125.5t-23.5 125t-66.5 105t-100 72.5t-125 26.5q-66 0 -123 -25.5t-100 -70.5t-67.5 -105t-24.5 -128zM404 1237q0 66 46 112t114 46t114.5 -46t46.5 -112t-47 -111t-114 -45q-68 0 -114 45t-46 111zM484 1237q0 -35 22.5 -56.5t57.5 -21.5 q33 0 57.5 21.5t24.5 56.5t-25 57.5t-57 22.5q-35 0 -57.5 -22.5t-22.5 -57.5z" />
<glyph unicode="&#xe6;" horiz-adv-x="1880" d="M72 455q0 100 39 189t105.5 154.5t156.5 104.5t192 39q86 0 160 -36t131 -97v102h168v-86q61 53 140 85t169 32q96 0 182.5 -37t151 -102.5t103 -155.5t38.5 -196v-17q0 -6 -2 -10h-786q6 -63 32.5 -119.5t69.5 -96.5t99.5 -63.5t119.5 -23.5q68 0 130.5 27.5t105.5 74.5 l113 -114q-70 -66 -155 -103t-189 -37q-94 0 -175 32t-147 87v-88h-168v100q-57 -61 -131 -96t-160 -35q-102 0 -192 38t-156.5 104.5t-105.5 154.5t-39 189zM240 455q0 -68 24.5 -127.5t67.5 -104.5t100 -70.5t123 -25.5q68 0 125 26.5t100 71.5t66.5 104.5t23.5 125.5 t-23.5 125t-66.5 105t-100 72.5t-125 26.5q-66 0 -123 -25.5t-100 -70.5t-67.5 -105t-24.5 -128zM1036 569l2 -4h588l2 4q-31 96 -110.5 159t-184.5 63q-104 0 -186 -63.5t-111 -158.5z" />
<glyph unicode="&#xe7;" horiz-adv-x="972" d="M72 455q0 100 39 189t105.5 154.5t155.5 104.5t191 39t190.5 -38t155.5 -103l-116 -115q-45 45 -103.5 71.5t-126.5 26.5t-126 -25.5t-101 -70.5t-68.5 -105.5t-25.5 -127.5q0 -68 25.5 -127.5t68.5 -104.5t101.5 -70.5t125.5 -25.5q68 0 127.5 26.5t104.5 73.5l116 -116 q-68 -66 -156.5 -104t-191.5 -38v-47q57 -12 95 -54t38 -97q0 -66 -50 -111t-122 -45q-41 0 -78 16l41 74q14 -8 37 -8q33 0 55.5 21.5t22.5 52.5t-22.5 52t-55.5 21h-39v131q-88 14 -163.5 56.5t-131 107t-87 145.5t-31.5 171z" />
<glyph unicode="&#xe8;" horiz-adv-x="1093" d="M72 457q0 100 36.5 188t101 154.5t152 104.5t185.5 38q96 0 182 -37t150.5 -102.5t103.5 -155.5t39 -196v-19q0 -6 -2 -8h-787q6 -63 33 -119.5t70 -96.5t99.5 -63.5t119.5 -23.5q68 0 130.5 27.5t105.5 74.5l112 -114q-70 -66 -154.5 -103t-189.5 -37q-100 0 -189 38 t-156 104.5t-104.5 155.5t-37.5 190zM250 569l2 -4h588l2 4q-14 47 -43 88t-68 71t-86 46.5t-98 16.5q-104 0 -186 -62.5t-111 -159.5zM254 1227l43 162l557 -191l-31 -113z" />
<glyph unicode="&#xe9;" horiz-adv-x="1093" d="M72 457q0 100 36.5 188t101 154.5t152 104.5t185.5 38q96 0 182 -37t150.5 -102.5t103.5 -155.5t39 -196v-19q0 -6 -2 -8h-787q6 -63 33 -119.5t70 -96.5t99.5 -63.5t119.5 -23.5q68 0 130.5 27.5t105.5 74.5l112 -114q-70 -66 -154.5 -103t-189.5 -37q-100 0 -189 38 t-156 104.5t-104.5 155.5t-37.5 190zM250 569l2 -4h588l2 4q-14 47 -43 88t-68 71t-86 46.5t-98 16.5q-104 0 -186 -62.5t-111 -159.5zM254 1198l557 191l43 -160l-568 -146z" />
<glyph unicode="&#xea;" horiz-adv-x="1093" d="M72 457q0 100 36.5 188t101 154.5t152 104.5t185.5 38q96 0 182 -37t150.5 -102.5t103.5 -155.5t39 -196v-19q0 -6 -2 -8h-787q6 -63 33 -119.5t70 -96.5t99.5 -63.5t119.5 -23.5q68 0 130.5 27.5t105.5 74.5l112 -114q-70 -66 -154.5 -103t-189.5 -37q-100 0 -189 38 t-156 104.5t-104.5 155.5t-37.5 190zM235 1194l270 160h97l270 -160l-80 -104l-239 137l-236 -137zM250 569l2 -4h588l2 4q-14 47 -43 88t-68 71t-86 46.5t-98 16.5q-104 0 -186 -62.5t-111 -159.5z" />
<glyph unicode="&#xeb;" horiz-adv-x="1093" d="M72 457q0 100 36.5 188t101 154.5t152 104.5t185.5 38q96 0 182 -37t150.5 -102.5t103.5 -155.5t39 -196v-19q0 -6 -2 -8h-787q6 -63 33 -119.5t70 -96.5t99.5 -63.5t119.5 -23.5q68 0 130.5 27.5t105.5 74.5l112 -114q-70 -66 -154.5 -103t-189.5 -37q-100 0 -189 38 t-156 104.5t-104.5 155.5t-37.5 190zM245 1239q0 33 24 55.5t58 22.5q35 0 58.5 -22.5t23.5 -55.5t-23.5 -55.5t-58.5 -22.5t-58.5 22.5t-23.5 55.5zM250 569l2 -4h588l2 4q-14 47 -43 88t-68 71t-86 46.5t-98 16.5q-104 0 -186 -62.5t-111 -159.5zM696 1239q0 33 23.5 55.5 t58.5 22.5t58.5 -22.5t23.5 -55.5t-23.5 -55.5t-58.5 -22.5t-58.5 22.5t-23.5 55.5z" />
<glyph unicode="&#xec;" horiz-adv-x="462" d="M-65 1227l43 162l557 -191l-31 -113zM147 0v911h168v-911h-168z" />
<glyph unicode="&#xed;" horiz-adv-x="462" d="M-65 1198l557 191l43 -160l-568 -146zM147 0v911h168v-911h-168z" />
<glyph unicode="&#xee;" horiz-adv-x="462" d="M-84 1194l270 160h97l270 -160l-80 -104l-239 137l-236 -137zM147 0v911h168v-911h-168z" />
<glyph unicode="&#xef;" horiz-adv-x="462" d="M-74 1239q0 33 24 55.5t58 22.5q35 0 58.5 -22.5t23.5 -55.5t-23.5 -55.5t-58.5 -22.5t-58.5 22.5t-23.5 55.5zM147 0v911h168v-911h-168zM377 1239q0 33 23.5 55.5t58.5 22.5t58.5 -22.5t23.5 -55.5t-23.5 -55.5t-58.5 -22.5t-58.5 22.5t-23.5 55.5z" />
<glyph unicode="&#xf0;" horiz-adv-x="1140" d="M74 467q0 98 35.5 189.5t102.5 162t161 112.5t211 42h26l-75 110l-209 -143l-50 72l209 141l-145 213h217l76 -111l207 142l49 -70l-207 -143q35 -51 75 -108.5t80 -116t77.5 -112.5t68.5 -99q41 -59 64.5 -131t23.5 -150q0 -104 -39 -194.5t-106.5 -158t-158.5 -106.5 t-196 -39q-104 0 -194 39t-157.5 106.5t-106.5 157.5t-39 195zM250 467q0 -70 25.5 -131.5t69.5 -106.5t102.5 -71.5t123.5 -26.5q68 0 126.5 26.5t102.5 71.5t69.5 106.5t25.5 131.5q0 68 -25.5 128t-69.5 106.5t-102.5 73t-126.5 26.5q-66 0 -124 -26.5t-102 -73 t-69.5 -106.5t-25.5 -128z" />
<glyph unicode="&#xf1;" horiz-adv-x="1189" d="M143 0v911h168v-112l4 -2q41 66 126 105.5t184 39.5q141 0 225 -46t127 -115.5t56.5 -151.5t13.5 -154v-475h-168v487q0 31 -6.5 81t-34 98.5t-83 83t-155.5 34.5q-59 0 -111.5 -23.5t-92.5 -63.5t-62.5 -94t-22.5 -116v-487h-168zM325 1231q27 37 60 67q29 27 66.5 47.5 t84.5 20.5q29 0 54.5 -18.5t50.5 -36.5q23 -16 42 -29.5t42 -13.5q27 0 51.5 19.5t38.5 37.5l121 -70q-27 -37 -60 -67q-29 -27 -66.5 -48.5t-84.5 -21.5q-29 0 -55.5 17.5t-49.5 38.5q-20 18 -40.5 30.5t-43.5 12.5q-27 0 -50 -18.5t-38 -37.5z" />
<glyph unicode="&#xf2;" horiz-adv-x="1128" d="M72 455q0 100 39 189t105.5 154.5t155.5 104.5t191 39t192.5 -39t157 -104.5t105.5 -154.5t39 -189t-39 -188.5t-105.5 -155t-156.5 -104.5t-193 -38q-102 0 -191 38t-155.5 104.5t-105.5 155t-39 188.5zM242 455q0 -68 25.5 -127.5t68.5 -104.5t101.5 -70.5t125.5 -25.5 q68 0 126.5 25.5t102.5 70.5t69.5 104.5t25.5 127.5t-25.5 128t-69.5 105t-102.5 70.5t-126.5 25.5t-126 -25.5t-101 -70.5t-68.5 -105t-25.5 -128zM265 1227l43 162l557 -191l-31 -113z" />
<glyph unicode="&#xf3;" horiz-adv-x="1128" d="M72 455q0 100 39 189t105.5 154.5t155.5 104.5t191 39t192.5 -39t157 -104.5t105.5 -154.5t39 -189t-39 -188.5t-105.5 -155t-156.5 -104.5t-193 -38q-102 0 -191 38t-155.5 104.5t-105.5 155t-39 188.5zM242 455q0 -68 25.5 -127.5t68.5 -104.5t101.5 -70.5t125.5 -25.5 q68 0 126.5 25.5t102.5 70.5t69.5 104.5t25.5 127.5t-25.5 128t-69.5 105t-102.5 70.5t-126.5 25.5t-126 -25.5t-101 -70.5t-68.5 -105t-25.5 -128zM265 1198l557 191l43 -160l-568 -146z" />
<glyph unicode="&#xf4;" horiz-adv-x="1128" d="M72 455q0 100 39 189t105.5 154.5t155.5 104.5t191 39t192.5 -39t157 -104.5t105.5 -154.5t39 -189t-39 -188.5t-105.5 -155t-156.5 -104.5t-193 -38q-102 0 -191 38t-155.5 104.5t-105.5 155t-39 188.5zM242 455q0 -68 25.5 -127.5t68.5 -104.5t101.5 -70.5t125.5 -25.5 q68 0 126.5 25.5t102.5 70.5t69.5 104.5t25.5 127.5t-25.5 128t-69.5 105t-102.5 70.5t-126.5 25.5t-126 -25.5t-101 -70.5t-68.5 -105t-25.5 -128zM246 1194l270 160h97l270 -160l-80 -104l-239 137l-236 -137z" />
<glyph unicode="&#xf5;" horiz-adv-x="1128" d="M72 455q0 100 39 189t105.5 154.5t155.5 104.5t191 39t192.5 -39t157 -104.5t105.5 -154.5t39 -189t-39 -188.5t-105.5 -155t-156.5 -104.5t-193 -38q-102 0 -191 38t-155.5 104.5t-105.5 155t-39 188.5zM242 455q0 -68 25.5 -127.5t68.5 -104.5t101.5 -70.5t125.5 -25.5 q68 0 126.5 25.5t102.5 70.5t69.5 104.5t25.5 127.5t-25.5 128t-69.5 105t-102.5 70.5t-126.5 25.5t-126 -25.5t-101 -70.5t-68.5 -105t-25.5 -128zM258 1231q27 37 60 67q29 27 66.5 47.5t84.5 20.5q29 0 54.5 -18.5t50.5 -36.5q23 -16 42 -29.5t42 -13.5q27 0 51.5 19.5 t38.5 37.5l121 -70q-27 -37 -60 -67q-29 -27 -66.5 -48.5t-84.5 -21.5q-29 0 -55.5 17.5t-49.5 38.5q-20 18 -40.5 30.5t-43.5 12.5q-27 0 -50 -18.5t-38 -37.5z" />
<glyph unicode="&#xf6;" horiz-adv-x="1128" d="M72 455q0 100 39 189t105.5 154.5t155.5 104.5t191 39t192.5 -39t157 -104.5t105.5 -154.5t39 -189t-39 -188.5t-105.5 -155t-156.5 -104.5t-193 -38q-102 0 -191 38t-155.5 104.5t-105.5 155t-39 188.5zM242 455q0 -68 25.5 -127.5t68.5 -104.5t101.5 -70.5t125.5 -25.5 q68 0 126.5 25.5t102.5 70.5t69.5 104.5t25.5 127.5t-25.5 128t-69.5 105t-102.5 70.5t-126.5 25.5t-126 -25.5t-101 -70.5t-68.5 -105t-25.5 -128zM256 1239q0 33 24 55.5t58 22.5q35 0 58.5 -22.5t23.5 -55.5t-23.5 -55.5t-58.5 -22.5t-58.5 22.5t-23.5 55.5zM707 1239 q0 33 23.5 55.5t58.5 22.5t58.5 -22.5t23.5 -55.5t-23.5 -55.5t-58.5 -22.5t-58.5 22.5t-23.5 55.5z" />
<glyph unicode="&#xf7;" horiz-adv-x="901" d="M72 461v160h757v-160h-757zM338 250q0 47 32.5 78.5t80.5 31.5q47 0 79.5 -31.5t32.5 -78.5t-32.5 -79t-79.5 -32t-80 32t-33 79zM338 831q0 47 32.5 79t80.5 32q47 0 79.5 -31.5t32.5 -79.5q0 -47 -32.5 -78.5t-79.5 -31.5t-80 31.5t-33 78.5z" />
<glyph unicode="&#xf8;" horiz-adv-x="1128" d="M72 80l92 92q-43 59 -67.5 131t-24.5 152q0 100 39 189t105.5 154.5t155.5 104.5t191 39q78 0 150.5 -23.5t132.5 -64.5l94 94l117 -117l-92 -92q43 -59 67.5 -133t24.5 -151q0 -100 -39 -188.5t-105.5 -155t-156.5 -104.5t-193 -38q-78 0 -150.5 22.5t-131.5 63.5 l-93 -92zM242 455q0 -88 41 -164l446 446q-37 23 -79 35t-87 12q-68 0 -126 -25.5t-101 -70.5t-68.5 -105t-25.5 -128zM397 172q78 -45 166 -45q68 0 126.5 25.5t102.5 70.5t69.5 104.5t25.5 127.5q0 45 -11.5 86t-31.5 77z" />
<glyph unicode="&#xf9;" horiz-adv-x="1189" d="M143 436v475h164v-487q0 -31 6 -82t34 -100t84.5 -85t156.5 -36q59 0 111.5 24.5t92 65.5t62.5 96t23 117v487h163v-911h-163v113l-5 2q-41 -66 -125.5 -106t-183.5 -40q-141 0 -224 46t-127 116t-56.5 152t-12.5 153zM295 1227l43 162l557 -191l-31 -113z" />
<glyph unicode="&#xfa;" horiz-adv-x="1189" d="M143 436v475h164v-487q0 -31 6 -82t34 -100t84.5 -85t156.5 -36q59 0 111.5 24.5t92 65.5t62.5 96t23 117v487h163v-911h-163v113l-5 2q-41 -66 -125.5 -106t-183.5 -40q-141 0 -224 46t-127 116t-56.5 152t-12.5 153zM295 1198l557 191l43 -160l-568 -146z" />
<glyph unicode="&#xfb;" horiz-adv-x="1189" d="M143 436v475h164v-487q0 -31 6 -82t34 -100t84.5 -85t156.5 -36q59 0 111.5 24.5t92 65.5t62.5 96t23 117v487h163v-911h-163v113l-5 2q-41 -66 -125.5 -106t-183.5 -40q-141 0 -224 46t-127 116t-56.5 152t-12.5 153zM276 1194l270 160h97l270 -160l-80 -104l-239 137 l-236 -137z" />
<glyph unicode="&#xfc;" horiz-adv-x="1189" d="M143 436v475h164v-487q0 -31 6 -82t34 -100t84.5 -85t156.5 -36q59 0 111.5 24.5t92 65.5t62.5 96t23 117v487h163v-911h-163v113l-5 2q-41 -66 -125.5 -106t-183.5 -40q-141 0 -224 46t-127 116t-56.5 152t-12.5 153zM286 1239q0 33 24 55.5t58 22.5q35 0 58.5 -22.5 t23.5 -55.5t-23.5 -55.5t-58.5 -22.5t-58.5 22.5t-23.5 55.5zM737 1239q0 33 23.5 55.5t58.5 22.5t58.5 -22.5t23.5 -55.5t-23.5 -55.5t-58.5 -22.5t-58.5 22.5t-23.5 55.5z" />
<glyph unicode="&#xfd;" horiz-adv-x="997" d="M4 911h174l322 -667h6l321 667h172l-655 -1321l-135 66l205 422zM203 1198l557 191l43 -160l-568 -146z" />
<glyph unicode="&#xfe;" d="M143 -379v1874h168v-682l4 -2q53 61 127 96t160 35q102 0 192.5 -38t157 -104.5t105.5 -154.5t39 -188t-39 -189.5t-105.5 -155t-156.5 -104.5t-193 -39q-86 0 -160.5 36t-126.5 99l-4 -2v-481h-168zM297 457q0 -66 23.5 -125.5t66.5 -105.5t100.5 -72.5t124.5 -26.5 q66 0 123.5 25.5t100.5 70.5t67.5 105.5t24.5 128.5t-24.5 127t-67.5 104t-100.5 70.5t-123.5 25.5q-68 0 -125 -26.5t-100 -71.5t-66.5 -104.5t-23.5 -124.5z" />
<glyph unicode="&#xff;" horiz-adv-x="997" d="M4 911h174l322 -667h6l321 667h172l-655 -1321l-135 66l205 422zM194 1239q0 33 24 55.5t58 22.5q35 0 58.5 -22.5t23.5 -55.5t-23.5 -55.5t-58.5 -22.5t-58.5 22.5t-23.5 55.5zM645 1239q0 33 23.5 55.5t58.5 22.5t58.5 -22.5t23.5 -55.5t-23.5 -55.5t-58.5 -22.5 t-58.5 22.5t-23.5 55.5z" />
<glyph unicode="&#x152;" horiz-adv-x="2279" d="M76 680q0 150 56 281t154.5 228t230.5 153.5t282 56.5q80 0 159.5 -18.5t150.5 -52.5t130 -81t102 -102v221h820v-160h-650v-432h492v-160h-492v-454h650v-160h-820v219q-43 -55 -102 -102t-130 -80t-149.5 -51.5t-160.5 -18.5q-150 0 -282 56.5t-230.5 152.5t-154.5 226 t-56 278zM252 682q0 -117 43 -219.5t116.5 -177t173 -117.5t212.5 -43q115 0 214 43t172.5 117.5t116.5 177t43 219.5q0 119 -43 221.5t-116.5 177t-173 117.5t-213.5 43q-113 0 -212.5 -43t-173 -117.5t-116.5 -177t-43 -221.5z" />
<glyph unicode="&#x153;" horiz-adv-x="1902" d="M72 455q0 100 39 189t105.5 154.5t155.5 104.5t191 39q61 0 121.5 -16.5t114 -45t96.5 -67.5t70 -86q27 47 68.5 86t93 67.5t109.5 45t120 16.5q96 0 182 -37t150.5 -102.5t103.5 -155.5t39 -196v-17q0 -6 -2 -10h-787q6 -63 33 -119.5t70 -96.5t99 -63.5t120 -23.5 q68 0 130 27.5t105 74.5l113 -114q-70 -66 -154.5 -103t-189.5 -37q-63 0 -123.5 16.5t-113 45t-94.5 67.5t-68 86q-57 -94 -168 -154.5t-238 -60.5q-102 0 -191 38t-155.5 104.5t-105.5 154.5t-39 189zM242 455q0 -68 25.5 -127.5t68.5 -104.5t101.5 -70.5t125.5 -25.5 q68 0 126.5 25.5t102.5 70.5t69.5 104.5t25.5 127.5t-25.5 128t-69.5 105t-102.5 70.5t-126.5 25.5t-126 -25.5t-101 -70.5t-68.5 -105t-25.5 -128zM1059 569l2 -4h588l2 4q-31 96 -111 159t-184 63t-185 -62.5t-112 -159.5z" />
<glyph unicode="&#x178;" horiz-adv-x="1234" d="M12 1360v6h187l417 -735h7l415 735h187v-6l-520 -920v-440h-173v440zM311 1649q0 33 24 55.5t58 22.5q35 0 58.5 -22.5t23.5 -55.5t-23.5 -55.5t-58.5 -22.5t-58.5 22.5t-23.5 55.5zM762 1649q0 33 23.5 55.5t58.5 22.5t58.5 -22.5t23.5 -55.5t-23.5 -55.5t-58.5 -22.5 t-58.5 22.5t-23.5 55.5z" />
<glyph unicode="&#x2c6;" horiz-adv-x="819" d="M92 1194l270 160h97l270 -160l-80 -104l-239 137l-236 -137z" />
<glyph unicode="&#x2dc;" horiz-adv-x="819" d="M104 1231q27 37 60 67q29 27 66.5 47.5t84.5 20.5q29 0 54.5 -18.5t50.5 -36.5q23 -16 42 -29.5t42 -13.5q27 0 51.5 19.5t38.5 37.5l121 -70q-27 -37 -60 -67q-29 -27 -66.5 -48.5t-84.5 -21.5q-29 0 -55.5 17.5t-49.5 38.5q-20 18 -40.5 30.5t-43.5 12.5 q-27 0 -50 -18.5t-38 -37.5z" />
<glyph unicode="&#x2000;" horiz-adv-x="902" />
<glyph unicode="&#x2001;" horiz-adv-x="1805" />
<glyph unicode="&#x2002;" horiz-adv-x="902" />
<glyph unicode="&#x2003;" horiz-adv-x="1805" />
<glyph unicode="&#x2004;" horiz-adv-x="601" />
<glyph unicode="&#x2005;" horiz-adv-x="451" />
<glyph unicode="&#x2006;" horiz-adv-x="300" />
<glyph unicode="&#x2007;" horiz-adv-x="300" />
<glyph unicode="&#x2008;" horiz-adv-x="225" />
<glyph unicode="&#x2009;" horiz-adv-x="361" />
<glyph unicode="&#x200a;" horiz-adv-x="100" />
<glyph unicode="&#x2010;" horiz-adv-x="774" d="M72 598v160h630v-160h-630z" />
<glyph unicode="&#x2011;" horiz-adv-x="774" d="M72 598v160h630v-160h-630z" />
<glyph unicode="&#x2012;" horiz-adv-x="774" d="M72 598v160h630v-160h-630z" />
<glyph unicode="&#x2013;" horiz-adv-x="1441" d="M72 598v160h1298v-160h-1298z" />
<glyph unicode="&#x2014;" horiz-adv-x="1716" d="M72 598v160h1573v-160h-1573z" />
<glyph unicode="&#x2018;" horiz-adv-x="294" d="M49 1374q0 63 31 107.5t76 44.5v-131q39 0 64.5 -26t25.5 -60q0 -35 -26.5 -60.5t-63.5 -25.5q-45 0 -76 44t-31 107z" />
<glyph unicode="&#x2019;" horiz-adv-x="294" d="M49 1440q0 35 26.5 60.5t63.5 25.5q45 0 76 -44t31 -108q0 -63 -31 -107t-76 -44v131q-39 0 -64.5 25.5t-25.5 60.5z" />
<glyph unicode="&#x201a;" horiz-adv-x="294" d="M49 53q0 35 26.5 60.5t63.5 25.5q45 0 76 -44t31 -107t-31 -107.5t-76 -44.5v131q-39 0 -64.5 25.5t-25.5 60.5z" />
<glyph unicode="&#x201c;" horiz-adv-x="591" d="M47 1374q0 63 31 107.5t76 44.5v-131q39 0 64.5 -26t25.5 -60q0 -35 -26.5 -60.5t-63.5 -25.5q-45 0 -76 44t-31 107zM344 1374q0 63 31 107.5t76 44.5v-131q39 0 64.5 -26t25.5 -60q0 -35 -26.5 -60.5t-63.5 -25.5q-45 0 -76 44t-31 107z" />
<glyph unicode="&#x201d;" horiz-adv-x="591" d="M49 1440q0 35 26.5 60.5t63.5 25.5q45 0 76 -44t31 -108q0 -63 -31 -107t-76 -44v131q-39 0 -64.5 25.5t-25.5 60.5zM346 1440q0 35 26.5 60.5t63.5 25.5q45 0 76 -44t31 -108q0 -63 -31 -107t-76 -44v131q-39 0 -64.5 25.5t-25.5 60.5z" />
<glyph unicode="&#x201e;" horiz-adv-x="591" d="M49 53q0 35 26.5 60.5t63.5 25.5q45 0 76 -44t31 -107t-31 -107.5t-76 -44.5v131q-39 0 -64.5 25.5t-25.5 60.5zM346 53q0 35 26.5 60.5t63.5 25.5q45 0 76 -44t31 -107t-31 -107.5t-76 -44.5v131q-39 0 -64.5 25.5t-25.5 60.5z" />
<glyph unicode="&#x2022;" horiz-adv-x="638" d="M98 682q0 45 17.5 85t47.5 69.5t68.5 47t83.5 17.5q47 0 88 -17.5t72 -47t48.5 -69.5t17.5 -85q0 -43 -17.5 -82t-48.5 -67.5t-72 -45t-88 -16.5q-45 0 -83.5 16.5t-68.5 45t-47.5 67.5t-17.5 82z" />
<glyph unicode="&#x2026;" horiz-adv-x="1265" d="M98 80q0 47 33 78.5t80 31.5t80 -31.5t33 -78.5t-33 -79t-80 -32t-80 32t-33 79zM520 80q0 47 33 78.5t80 31.5t79.5 -31.5t32.5 -78.5t-32.5 -79t-79.5 -32t-80 32t-33 79zM942 80q0 47 33 78.5t80 31.5t79.5 -31.5t32.5 -78.5t-32.5 -79t-79.5 -32t-80 32t-33 79z" />
<glyph unicode="&#x202f;" horiz-adv-x="361" />
<glyph unicode="&#x2039;" horiz-adv-x="583" d="M72 457l266 454h199l-269 -454l269 -457h-199z" />
<glyph unicode="&#x203a;" horiz-adv-x="583" d="M47 0l268 457l-268 454h199l266 -454l-266 -457h-199z" />
<glyph unicode="&#x205f;" horiz-adv-x="451" />
<glyph unicode="&#x20ac;" horiz-adv-x="1435" d="M-8 449l63 159h148q-2 18 -3 37t-1 37v34.5t2 35.5h-209l63 159h181q37 106 103.5 195.5t155.5 154t198.5 100.5t228.5 36q141 0 266 -51.5t223 -139.5l-63 -166l-7 -2q-76 90 -183 144.5t-236 54.5q-84 0 -161 -23.5t-141.5 -66.5t-114.5 -103.5t-83 -132.5h874 l-63 -159h-856q-4 -16 -4 -35v-35v-37.5t4 -36.5h799l-64 -159h-688q33 -72 83 -131.5t114.5 -101.5t141.5 -65.5t159 -23.5q129 0 236.5 53t182.5 146l5 -4v-220q-90 -66 -198 -100.5t-226 -34.5q-119 0 -227.5 36t-197.5 99.5t-156 152.5t-103 194h-246z" />
<glyph unicode="&#x2122;" horiz-adv-x="1101" d="M8 1214v84h414v-84h-162v-430h-90v430h-162zM446 784l158 527h2l158 -340h2l158 340h2l155 -527h-88l-86 287h-2l-139 -299h-2l-137 299h-4l-88 -287h-89z" />
<glyph unicode="&#xe000;" horiz-adv-x="911" d="M0 0v911h911v-911h-911z" />
<glyph unicode="&#xfb01;" horiz-adv-x="1376" d="M47 756v155h219v219q0 82 31 154t84 126t125 85t153 31q84 0 156 -30t129 -83l-108 -110q-35 31 -76 51t-90 20t-93.5 -18.5t-77 -51t-52 -75.5t-19.5 -92v-226h383v-155h-383v-756h-162v756h-219zM1032 1274q0 47 33 78.5t80 31.5t79.5 -31.5t32.5 -78.5t-32.5 -79 t-79.5 -32t-80 32t-33 79zM1061 0v911h168v-911h-168z" />
<glyph unicode="&#xfb02;" horiz-adv-x="1361" d="M47 756v155h219v219q0 82 31 154t84 126t125 85t153 31q84 0 156 -30t129 -83l-108 -110q-35 31 -76 51t-90 20t-93.5 -18.5t-77 -51t-52 -75.5t-19.5 -92v-226h383v-155h-383v-756h-162v756h-219zM1057 0v1495h162v-1495h-162z" />
</font>
</defs>
</svg>
