<?xml version="1.0" encoding="UTF-8" standalone="no"?>
<svg width="300px" height="265px" viewBox="0 0 300 265" version="1.1" xmlns="http://www.w3.org/2000/svg" xmlns:xlink="http://www.w3.org/1999/xlink" style="background: #FFFFFF;">
    <!-- Generator: Sketch 44.1 (41455) - http://www.bohemiancoding.com/sketch -->
    <title>hvd-beeldmerk</title>
    <desc>Created with Sketch.</desc>
    <defs></defs>
    <g id="HVD" stroke="none" stroke-width="1" fill="none" fill-rule="evenodd">
        <g id="hvd-beeldmerk" fill="#BC006B">
            <g id="Group">
                <path d="M273.996231,96.4629814 C278.57611,95.2682304 282.425863,92.8787284 282.425863,92.8787284 C282.425863,92.8787284 278.642485,93.542479 274.593606,93.542479 C275.589232,89.4936005 277.248608,84.7145965 277.314984,82.2587194 C277.381359,78.3425912 271.341229,50.4650677 263.243472,40.9070596 C262.579721,40.110559 262.247846,38.4511826 260.72122,36.0616805 C258.530843,32.6765527 226.007065,4.86540427 198.395042,1.67940159 C173.438021,-1.24110087 135.405114,-3.03322738 105.005338,20.1980422 C98.500583,25.5744217 97.3058319,27.1674231 92.4604529,32.5438026 C89.1417001,28.1630489 81.3094435,31.813677 78.8535664,35.5306801 C71.220435,29.7560502 56.6842977,19.0696662 37.1700313,34.8005545 C-8.4296321,71.6387105 50.4450425,212.353829 23.9613952,230.806095 C12.7440107,238.638351 15.8636384,234.987723 0,234.058472 C13.9387617,239.633977 18.983266,245.275857 35.9089052,242.753605 C88.2788243,235.120473 84.1635709,208.1722 72.1496858,156.532407 C67.1715566,135.159639 38.2984073,77.1478401 52.0380438,58.2309492 C58.210924,49.7349421 62.1270523,53.8501955 67.3043067,56.9698232 C61.3969267,65.2667051 68.0344323,69.1828334 74.0081873,70.9085849 C73.0125615,80.7320932 72.5479361,93.7416041 75.2693134,110.268993 C78.388941,129.385009 98.7660832,166.621415 111.908344,175.449298 C124.18773,183.74618 120.337976,176.644049 122.727478,186.334807 C125.11698,196.025565 120.935352,242.488104 111.908344,255.763116 C102.881337,269.038127 202.576671,262.400621 202.576671,262.400621 C202.576671,262.400621 219.701435,218.460334 226.869941,211.358203 C234.038447,204.322447 284.085239,208.371326 289.594369,200.472694 C293.975123,194.299814 286.474741,180.029177 288.399618,175.382923 C290.324495,170.803044 293.510497,170.537544 292.581246,167.816167 C291.651996,165.094789 287.204867,160.581285 284.74899,160.581285 C284.417115,160.581285 289.926244,156.333282 290.52362,153.611905 C291.120995,150.890527 285.14724,146.974399 284.74899,142.726395 C284.350739,138.478392 292.448496,134.827764 296.762875,130.04876 C300.546253,125.800756 301.342754,123.610379 297.36025,119.163251 C294.439748,115.977248 275.124607,103.498737 273.929856,99.2507338 C273.797106,98.7861084 273.863481,97.7241075 273.996231,96.4629814 L273.996231,96.4629814 Z" id="Shape"></path>
            </g>
        </g>
    </g>
</svg>