<?xml version="1.0" encoding="UTF-8" standalone="no"?>
<svg width="300px" height="265px" viewBox="0 0 300 265" version="1.1" xmlns="http://www.w3.org/2000/svg" xmlns:xlink="http://www.w3.org/1999/xlink" style="background: #FFFFFF;">
    <!-- Generator: Sketch 44.1 (41455) - http://www.bohemiancoding.com/sketch -->
    <title>hvd-beeldmerk-plaatje</title>
    <desc>Created with Sketch.</desc>
    <defs></defs>
    <g id="HVD" stroke="none" stroke-width="1" fill="none" fill-rule="evenodd">
        <g id="hvd-beeldmerk-plaatje" fill="#BC006B">
            <g id="Group" transform="translate(-60.000000, 9.000000)">
                <path d="M324.228873,114.299533 C329.648396,112.883865 334.203938,110.052531 334.203938,110.052531 C334.203938,110.052531 329.72694,110.839013 324.935767,110.839013 C326.113925,106.041474 328.07752,100.378805 328.156064,97.4688223 C328.234608,92.8285797 321.08712,59.7963443 311.504775,48.4710065 C310.719337,47.5272283 310.326618,45.5610239 308.52011,42.7296894 C305.928164,38.7186322 267.441694,5.76504506 234.767466,1.98993245 C205.234992,-1.47058745 160.229385,-3.59408829 124.256317,23.9327745 C116.559023,30.303277 115.145234,32.1908334 109.411536,38.5613359 C105.484345,33.370556 96.2161748,37.6962059 93.3100536,42.100504 C84.2775147,35.2581124 67.076419,22.5957555 43.984537,41.235374 C-9.97506465,84.8851136 59.6933003,251.619254 28.3543176,273.483448 C15.0804127,282.763933 18.7719721,278.438283 0,277.337209 C16.4942014,283.943656 22.4635314,290.628751 42.4922045,287.64012 C104.463275,278.59558 99.5935589,246.664419 85.3771282,185.476135 C79.4863419,160.151421 45.3197819,91.4129125 61.5783519,68.9981813 C68.8829268,58.9312144 73.5170119,63.8074015 79.6434296,67.5038659 C72.6530299,77.3348884 80.5074116,81.9751309 87.576355,84.0199836 C86.3981978,95.6599142 85.848391,111.074957 89.0686875,130.658354 C92.7602469,153.30903 116.873198,197.430658 132.424874,207.890866 C146.95548,217.721889 142.399939,209.306533 145.227516,220.789168 C148.055093,232.271802 143.106833,287.325527 132.424874,303.055163 C121.742915,318.784799 239.715727,310.919981 239.715727,310.919981 C239.715727,310.919981 259.980031,258.854887 268.462764,250.439531 C276.945496,242.102824 336.167533,246.900363 342.68667,237.54123 C347.870562,230.226949 338.99511,213.317591 341.272881,207.812218 C343.550652,202.385494 347.320755,202.070901 346.221142,198.846326 C345.121528,195.62175 339.859092,190.273674 336.952971,190.273674 C336.560252,190.273674 343.079389,185.240191 343.786283,182.015615 C344.493178,178.79104 337.424234,174.150797 336.952971,169.117314 C336.481708,164.08383 346.064054,159.75818 351.169402,154.095511 C355.6464,149.062028 356.588925,146.466638 351.876296,141.19721 C348.420368,137.422097 325.564118,122.63624 324.150329,117.602756 C323.993242,117.052219 324.071785,115.793848 324.228873,114.299533 L324.228873,114.299533 Z" id="Shape"></path>
            </g>
        </g>
    </g>
</svg>