<?xml version="1.0" encoding="UTF-8" standalone="no"?>
<svg width="75px" height="75px" viewBox="0 0 75 75" version="1.1" xmlns="http://www.w3.org/2000/svg" xmlns:xlink="http://www.w3.org/1999/xlink" xmlns:sketch="http://www.bohemiancoding.com/sketch/ns">
    <!-- Generator: Sketch 3.4.4 (17249) - http://www.bohemiancoding.com/sketch -->
    <title>twitter-icon</title>
    <desc>Created with Sketch.</desc>
    <defs></defs>
    <g id="Page-1" stroke="none" stroke-width="1" fill="none" fill-rule="evenodd" sketch:type="MSPage">
        <g id="twitter-icon" sketch:type="MSArtboardGroup" fill="#FFFFFF">
            <path d="M62.2247434,22.7343414 C60.4145455,23.5376455 58.4678716,24.0805753 56.4254124,24.3251781 C58.5100027,23.0748698 60.1106253,21.0960101 60.8646643,18.7385256 C58.9136693,19.8961851 56.7530989,20.7358934 54.4517313,21.1885149 C52.6105652,19.226435 49.9858323,18 47.0813055,18 C41.503793,18 36.9831596,22.5208136 36.9831596,28.0977439 C36.9831596,28.8894894 37.0716349,29.6604223 37.2445166,30.3990199 C28.8514208,29.9784456 21.4104164,25.957064 16.4295814,19.8482944 C15.5602759,21.3390286 15.0623365,23.0734295 15.0623365,24.9243524 C15.0623365,28.428226 16.8444109,31.5185109 19.5548825,33.330077 C17.8995615,33.2783334 16.3421863,32.8238755 14.9805949,32.0669858 C14.9790465,32.1094753 14.9790465,32.1515328 14.9790465,32.1937342 C14.9790465,37.0872314 18.4604456,41.1676662 23.0797451,42.0959543 C22.2330895,42.3267661 21.3411701,42.4488334 20.4200829,42.4488334 C19.7687069,42.4488334 19.1371362,42.3872236 18.5194651,42.2687931 C19.8054006,46.2804525 23.534149,49.2003471 27.9539559,49.2820854 C24.4949547,51.9909728 20.1413333,53.6044945 15.4096842,53.6044945 C14.5951131,53.6044945 13.7906607,53.5565318 13,53.463703 C17.4709403,56.3287933 22.7783815,58 28.4819273,58 C47.0563509,58 57.2124722,42.6133903 57.2124722,29.2680783 C57.2124722,28.8304722 57.2023895,28.3958548 57.1840246,27.9627857 C59.1562653,26.5379102 60.8681573,24.7598676 62.2228349,22.7344135" sketch:type="MSShapeGroup"></path>
        </g>
    </g>
</svg>