<?xml version="1.0" encoding="UTF-8" standalone="no"?>
<svg width="85px" height="45px" viewBox="0 0 85 45" version="1.1" xmlns="http://www.w3.org/2000/svg" xmlns:xlink="http://www.w3.org/1999/xlink" xmlns:sketch="http://www.bohemiancoding.com/sketch/ns">
    <!-- Generator: Sketch 3.4.4 (17249) - http://www.bohemiancoding.com/sketch -->
    <title>wbvb-logo</title>
    <desc>Created with Sketch.</desc>
    <defs></defs>
    <g id="Page-1" stroke="none" stroke-width="1" fill="none" fill-rule="evenodd" sketch:type="MSPage">
        <g id="wbvb-logo" sketch:type="MSArtboardGroup">
            <g id="outside-+-Path-2-+-tekst" sketch:type="MSLayerGroup">
                <path d="M0.762696721,7.34922374 L0.0168436231,8.09911464 L0.766320282,8.84539556 C0.884118394,8.96661827 0.95057719,9.03689292 1.02609351,9.11851959 C1.24511297,9.35526084 1.49054629,9.63341818 1.75577947,9.9502353 C2.51709712,10.859618 3.27954318,11.891577 3.99044536,13.0233216 C6.00203926,16.225746 7.2020543,19.5671623 7.2020543,22.8604496 C7.2020543,26.1541547 6.00174188,29.5021321 3.9896867,32.7149011 C3.27860534,33.8503273 2.5159662,34.8861902 1.75444561,35.7994525 C1.4891311,36.117634 1.24361588,36.3970568 1.02451394,36.6349337 C0.948960513,36.7169614 0.882464603,36.7875929 0.825853226,36.8464835 C0.793611105,36.8800238 0.0186260585,37.6558044 0.0186260585,37.6558044 L0.762696721,38.4039032 L6.1086886,43.7788365 L6.73028893,44.403802 L7.45909539,43.9075447 C7.6443288,43.784293 7.74687057,43.717412 7.86476503,43.641732 C8.20425442,43.4238037 8.59703341,43.180249 9.0376103,42.9174898 C10.2991656,42.1651005 11.6869381,41.4121993 13.1563609,40.7101288 C16.0827782,39.3119259 18.953212,38.2961058 21.6141125,37.8242731 C22.6864966,37.6341173 23.7091983,37.5361083 24.6752255,37.5361083 C25.9904698,37.5361083 27.4407034,37.7582701 29.0027433,38.1838435 C31.3908405,38.8344739 33.9584672,39.9345411 36.590878,41.3579425 C38.1583708,42.2055197 39.6513761,43.1147168 41.0181808,44.0235352 C41.4958503,44.3411481 41.9231227,44.6356581 42.2936322,44.8993214 C42.4224788,44.9910116 42.5347789,45.0721054 42.6297401,45.1416354 C42.6854635,45.1824358 43.4190264,45.733141 43.4190264,45.733141 L44.0658999,45.1818081 C44.2433699,45.0341752 44.3419868,44.953836 44.4554885,44.8629008 C44.7824796,44.6009223 45.1614744,44.308089 45.5873588,43.9921479 C46.8066985,43.0875842 48.1532695,42.1824748 49.5853241,41.3387891 C52.7341075,39.4837039 55.8316709,38.196716 58.6855266,37.7279597 C59.45881,37.6009451 60.2061898,37.5361083 60.9251846,37.5361083 C62.3335479,37.5361083 63.8931418,37.7391734 65.5771955,38.126429 C67.964119,38.6753127 70.523197,39.5736221 73.1472607,40.7244568 C74.75444,41.4293168 76.2869603,42.1851712 77.6915019,42.9406546 C78.1822941,43.2046449 78.6215431,43.4494392 79.0026594,43.6686175 C79.1352345,43.7448609 79.2508323,43.812306 79.3486317,43.8701507 C79.4060921,43.9041363 80.1780863,44.3721202 80.1780863,44.3721202 L80.7671603,43.7770711 L86.0881217,38.4021378 L86.8297904,37.652946 L86.0834302,36.908413 C85.9651143,36.7864556 85.8984147,36.7158175 85.8226311,36.6337833 C85.6028673,36.3958939 85.356613,36.1164592 85.0905021,35.7982669 C84.3267107,34.8849916 83.5618037,33.8491226 82.8486172,32.7137046 C80.8307338,29.5011632 79.6269879,26.1535435 79.6269879,22.8604496 C79.6269879,19.5677743 80.8304352,16.2267162 82.847856,13.0245186 C83.560863,11.8927817 84.3255768,10.860816 85.0891652,9.9514198 C85.3551948,9.63459161 85.6013672,9.35642213 85.8210486,9.11966804 C85.8967952,9.03803472 85.9634576,8.9677533 86.0202064,8.90916459 C86.0525161,8.8758074 86.8315671,8.10197559 86.8315671,8.10197559 L86.0881217,7.35098918 L80.7671603,1.97605586 L80.2309428,1.43439936 L79.5459518,1.76949227 C79.3298983,1.87309953 79.212097,1.92861033 79.0771206,1.99133678 C78.6893701,2.17153269 78.2430856,2.37273667 77.7451055,2.58968806 C76.3201385,3.21049306 74.7696939,3.83159254 73.1489548,4.41090468 C70.67806,5.29409392 68.2714078,5.99800716 66.020012,6.4563785 C64.1556451,6.83595297 62.4453012,7.03639669 60.9251846,7.03639669 C60.0109769,7.03639669 59.0459746,6.94370625 58.0361721,6.76355466 C55.3802899,6.28973786 52.5119148,5.23512978 49.5887271,3.77311857 C48.1444025,3.05075005 46.7812881,2.27601369 45.5429548,1.50180068 C45.1104927,1.23142293 44.7250743,0.980816339 44.3920618,0.756595824 C44.2764414,0.67874749 44.1759032,0.609959093 44.0911144,0.551057242 C44.0416304,0.516681196 43.4111312,0.0664783465 43.4111312,0.0664783465 L42.8064055,0.451874397 C42.5999163,0.580772569 42.4867293,0.650159979 42.3569078,0.728606661 C41.9836477,0.95415493 41.5534375,1.20607859 41.072744,1.4777643 C39.6971145,2.25526354 38.1962413,3.03313627 36.622502,3.75846324 C34.0575491,4.94063465 31.5566358,5.86364548 29.2251375,6.42809651 C27.5765853,6.8272077 26.0510515,7.03639669 24.6752263,7.03639669 C23.6284722,7.03639669 22.5139481,6.94142917 21.3407242,6.75792733 C18.7477876,6.35237082 15.9588884,5.53309827 13.1139192,4.42173751 C11.6370091,3.84479634 10.2402598,3.22626199 8.96886384,2.60817968 C8.52487972,2.39233919 8.12880075,2.19226217 7.78621571,2.01320919 C7.66719542,1.95100291 7.56361989,1.89601451 7.47618554,1.84890149 C7.4250306,1.82133723 6.67418577,1.40573184 6.67418577,1.40573184 L6.1086886,1.97429043 L0.762696721,7.34922374 Z M1.51540853,8.09549685 C1.51540853,8.09549685 8.26284599,14.8141635 8.26284599,22.8604496 C8.26284599,30.9067357 1.51540853,37.6576301 1.51540853,37.6576301 L6.86140041,43.0325634 C6.86140041,43.0325634 16.4889284,36.4770081 24.6752255,36.4770081 C32.8615226,36.4770081 43.3771647,44.3762967 43.3771647,44.3762967 C43.3771647,44.3762967 52.6453236,36.4770081 60.9251846,36.4770081 C69.2050456,36.4770081 80.0126967,43.0325634 80.0126967,43.0325634 L85.333658,37.6576301 C85.333658,37.6576301 78.5661962,30.9067357 78.5661962,22.8604496 C78.5661962,14.8141635 85.333658,8.09549685 85.333658,8.09549685 L80.0126967,2.72056354 C80.0126967,2.72056354 69.0253528,8.09549685 60.9251846,8.09549685 C52.8250164,8.09549685 43.3771663,1.34460242 43.3771663,1.34460242 C43.3771663,1.34460242 32.7843247,8.09549685 24.6752263,8.09549685 C16.5661278,8.09549685 6.86140041,2.72056354 6.86140041,2.72056354 L1.51540853,8.09549685 Z" id="outside" fill="#9D1626" sketch:type="MSShapeGroup"></path>
                <path d="M1.51999998,37.6294288 L6.86499013,43.0003367 C6.86499013,43.0003367 16.4907141,36.4496911 24.6754773,36.4496911 C32.8602404,36.4496911 43.3739121,44.3430636 43.3739121,44.3430636 C43.3739121,44.3430636 52.6403343,36.4496911 60.9186439,36.4496911 C69.1969534,36.4496911 80.0025793,43.0003367 80.0025793,43.0003367 L85.3225437,37.6294288 C85.3225437,37.6294288 78.5563499,30.8835903 78.5563499,22.8433304 C78.5563499,14.8030704 85.3225437,8.08943557 85.3225437,8.08943557 L80.0025793,2.71852772 C80.0025793,2.71852772 69.0172943,8.08943557 60.9186439,8.08943557 C52.8199935,8.08943557 43.3739137,1.3435971 43.3739137,1.3435971 C43.3739137,1.3435971 32.783057,8.08943557 24.675478,8.08943557 C16.5678991,8.08943557 6.86499013,2.71852772 6.86499013,2.71852772 L1.51999998,8.08943557 C1.51999998,8.08943557 8.26617311,14.8030704 8.26617311,22.8433304 C8.26617311,30.8835903 1.51999998,37.6294288 1.51999998,37.6294288 Z" id="Path-2" stroke="#FFFFFF" fill="#9D1626" sketch:type="MSShapeGroup"></path>
                <g id="tekst" transform="translate(11.244392, 16.204232)" fill="#FFFFFF" sketch:type="MSShapeGroup">
                    <path d="M3.73184866,8.07907387 L2.05821889,10.5567057 L1.0963627,9.84606713 L2.92388946,7.50288042 L-0.000153362072,6.63859024 L0.384589114,5.48620333 L3.23168344,6.542558 L3.13549782,3.4887327 L4.34743662,3.4887327 L4.251251,6.542558 L7.07910821,5.48620333 L7.46385068,6.63859024 L4.53980786,7.50288042 L6.36733462,9.84606713 L5.42471556,10.5567057 L3.73184866,8.07907387 Z" id="ster-links"></path>
                    <path d="M60.6602069,8.2134472 L58.9865772,10.6910791 L58.024721,9.98044046 L59.8522477,7.63725375 L56.9282049,6.77296357 L57.3129474,5.62057667 L60.1600417,6.67693133 L60.0638561,3.62310603 L61.2757949,3.62310603 L61.1796093,6.67693133 L64.0074665,5.62057667 L64.392209,6.77296357 L61.4681661,7.63725375 L63.2956929,9.98044046 L62.3530738,10.6910791 L60.6602069,8.2134472 Z" id="ster-rechts"></path>
                    <path d="M16.2562995,-0.0427405992 L16.3140108,-0.0427405992 L20.7577864,8.92667082 L20.8154978,8.92667082 L22.9315814,0.245356127 L24.5474998,0.245356127 L21.3349002,13.344154 L21.2771888,13.344154 L16.3140108,3.29918143 L16.2562995,3.29918143 L11.2931215,13.344154 L11.2354102,13.344154 L8.02281047,0.245356127 L9.63872888,0.245356127 L11.7548125,8.92667082 L11.8125239,8.92667082 L16.2562995,-0.0427405992 Z M31.6267614,6.35300673 C31.8960825,6.46824599 32.1429564,6.63149917 32.3673907,6.84277116 C32.5918249,7.05404315 32.7841942,7.30052344 32.9445044,7.58221943 C33.1048146,7.86391541 33.2330608,8.16161239 33.3292469,8.47531928 C33.425433,8.78902617 33.4735253,9.11233149 33.4735253,9.44524493 C33.4735253,9.94461508 33.3773406,10.4119673 33.1849684,10.8473157 C32.9925962,11.282664 32.7328977,11.6635881 32.4058649,11.9900993 C32.0788322,12.3166106 31.6908874,12.5758951 31.2420189,12.7679605 C30.7931505,12.9600259 30.3186395,13.0560572 29.8184718,13.0560572 L26.0479955,13.0560572 L26.0479955,0.245356127 L29.2028838,0.245356127 C29.7030515,0.245356127 30.167944,0.338186366 30.5975753,0.523849629 C31.0272065,0.709512893 31.4055328,0.962395268 31.7325656,1.28250434 C32.0595983,1.60261342 32.3160907,1.97713542 32.5020505,2.40608158 C32.6880103,2.83502774 32.7809888,3.29277685 32.7809888,3.77934264 C32.7809888,4.27871279 32.6719796,4.76527129 32.4539577,5.23903272 C32.2359359,5.71279415 31.9602066,6.06490885 31.6267614,6.29538738 L31.6267614,6.35300673 Z M29.1066982,5.83443262 C29.735114,5.83443262 30.2384804,5.63916901 30.6168124,5.24863594 C30.9951444,4.85810287 31.1843076,4.37474542 31.1843076,3.79854909 C31.1843076,3.5168531 31.1298029,3.25116655 31.020792,3.00148148 C30.9117811,2.7517964 30.764298,2.53412549 30.5783382,2.34846223 C30.3923784,2.16279897 30.1743598,2.015551 29.9242759,1.90671392 C29.6741921,1.79787683 29.4016689,1.7434591 29.1066982,1.7434591 L27.6062025,1.7434591 L27.6062025,5.83443262 L29.1066982,5.83443262 Z M27.6062025,7.2941227 L27.6062025,11.5579543 L29.7222861,11.5579543 C30.0172569,11.5579543 30.2961924,11.5003355 30.559101,11.3850962 C30.8220097,11.2698569 31.0496467,11.1162069 31.2420189,10.9241415 C31.4343911,10.732076 31.5882866,10.508003 31.7037099,10.2519158 C31.8191332,9.9958285 31.876844,9.72053883 31.876844,9.42603848 C31.876844,9.13153813 31.8191332,8.85624845 31.7037099,8.60016119 C31.5882866,8.34407393 31.4343911,8.12000094 31.2420189,7.9279355 C31.0496467,7.73587005 30.8220097,7.58222 30.559101,7.46698074 C30.2961924,7.35174147 30.0172569,7.2941227 29.7222861,7.2941227 L27.6062025,7.2941227 Z M40.3604156,13.344154 L40.3027043,13.344154 L34.2814845,0.245356127 L35.9743514,0.245356127 L40.3027043,9.67572231 L40.3604156,9.67572231 L44.7080056,0.245356127 L46.4008725,0.245356127 L40.3604156,13.344154 Z M53.4801341,6.35300673 C53.7494552,6.46824599 53.9963291,6.63149917 54.2207633,6.84277116 C54.4451976,7.05404315 54.6375669,7.30052344 54.7978771,7.58221943 C54.9581872,7.86391541 55.0864334,8.16161239 55.1826195,8.47531928 C55.2788056,8.78902617 55.326898,9.11233149 55.326898,9.44524493 C55.326898,9.94461508 55.2307133,10.4119673 55.0383411,10.8473157 C54.8459689,11.282664 54.5862703,11.6635881 54.2592376,11.9900993 C53.9322048,12.3166106 53.5442601,12.5758951 53.0953916,12.7679605 C52.6465231,12.9600259 52.1720122,13.0560572 51.6718444,13.0560572 L47.9013682,13.0560572 L47.9013682,0.245356127 L51.0562565,0.245356127 C51.5564242,0.245356127 52.0213167,0.338186366 52.4509479,0.523849629 C52.8805792,0.709512893 53.2589055,0.962395268 53.5859383,1.28250434 C53.912971,1.60261342 54.1694634,1.97713542 54.3554232,2.40608158 C54.541383,2.83502774 54.6343615,3.29277685 54.6343615,3.77934264 C54.6343615,4.27871279 54.5253522,4.76527129 54.3073304,5.23903272 C54.0893086,5.71279415 53.8135792,6.06490885 53.4801341,6.29538738 L53.4801341,6.35300673 Z M50.9600708,5.83443262 C51.5884867,5.83443262 52.0918531,5.63916901 52.4701851,5.24863594 C52.8485171,4.85810287 53.0376802,4.37474542 53.0376802,3.79854909 C53.0376802,3.5168531 52.9831756,3.25116655 52.8741647,3.00148148 C52.7651538,2.7517964 52.6176706,2.53412549 52.4317108,2.34846223 C52.245751,2.16279897 52.0277325,2.015551 51.7776486,1.90671392 C51.5275648,1.79787683 51.2550416,1.7434591 50.9600708,1.7434591 L49.4595752,1.7434591 L49.4595752,5.83443262 L50.9600708,5.83443262 Z M49.4595752,7.2941227 L49.4595752,11.5579543 L51.5756588,11.5579543 C51.8706295,11.5579543 52.149565,11.5003355 52.4124737,11.3850962 C52.6753824,11.2698569 52.9030194,11.1162069 53.0953916,10.9241415 C53.2877638,10.732076 53.4416592,10.508003 53.5570826,10.2519158 C53.6725059,9.9958285 53.7302167,9.72053883 53.7302167,9.42603848 C53.7302167,9.13153813 53.6725059,8.85624845 53.5570826,8.60016119 C53.4416592,8.34407393 53.2877638,8.12000094 53.0953916,7.9279355 C52.9030194,7.73587005 52.6753824,7.58222 52.4124737,7.46698074 C52.149565,7.35174147 51.8706295,7.2941227 51.5756588,7.2941227 L49.4595752,7.2941227 Z" id="WBVB"></path>
                </g>
            </g>
        </g>
    </g>
</svg>