<?xml version="1.0" encoding="UTF-8" standalone="no"?>
<svg width="311px" height="39px" viewBox="0 0 311 39" version="1.1" xmlns="http://www.w3.org/2000/svg" xmlns:xlink="http://www.w3.org/1999/xlink" xmlns:sketch="http://www.bohemiancoding.com/sketch/ns">
    <!-- Generator: Sketch 3.5 (25232) - http://www.bohemiancoding.com/sketch -->
    <title>WBVB Rotterdam</title>
    <desc>Created with Sketch.</desc>
    <defs></defs>
    <g id="Page-1" stroke="none" stroke-width="1" fill="none" fill-rule="evenodd" sketch:type="MSPage">
        <g id="WBVB-Rotterdam" sketch:type="MSArtboardGroup">
            <g id="WEBBUREAU-VAN-BUUREN-+-outside-+-Path-2-+-tekst" sketch:type="MSLayerGroup" transform="translate(1.000000, 1.000000)">
                <g id="outside-+-Path-2-+-tekst" sketch:type="MSShapeGroup">
                    <path d="M0.630938995,6.07813054 L0.013933846,6.69832322 L0.633936577,7.31553029 C0.731384776,7.41578679 0.786362652,7.47390701 0.848833346,7.54141585 C1.03001665,7.73721125 1.23305076,7.96725958 1.45246426,8.22928123 C2.08226243,8.98138062 2.71299407,9.83485598 3.30108615,10.7708584 C4.96517228,13.419404 5.95788178,16.1829019 5.95788178,18.906595 C5.95788178,21.6306336 4.96492627,24.3995579 3.30045855,27.0566588 C2.71221824,27.9957061 2.08132688,28.8524102 1.45136083,29.6077182 C1.23188005,29.8708682 1.02877819,30.1019632 0.847526649,30.2986978 C0.78502526,30.3665383 0.730016682,30.4249536 0.683185058,30.4736588 C0.656512843,30.5013981 0.0154083612,31.1430027 0.0154083612,31.1430027 L0.630938995,31.7617132 L5.05339768,36.2070189 L5.56761504,36.7238928 L6.17051839,36.3134662 C6.32375228,36.2115317 6.4085797,36.1562181 6.50610761,36.0936275 C6.78694937,35.9133912 7.11187483,35.7119608 7.47634098,35.4946474 C8.51995955,34.8723884 9.66799092,34.2497061 10.8835673,33.669063 C13.3044389,32.5126878 15.6789982,31.67256 17.8802217,31.2823337 C18.7673487,31.1250665 19.6133762,31.0440087 20.4125199,31.0440087 C21.5005525,31.0440087 22.7002547,31.2277463 23.9924484,31.5797142 C25.9679959,32.117814 28.0920588,33.0276179 30.2697142,34.2048333 C31.5664188,34.9058169 32.8015037,35.6577628 33.9321896,36.4093955 C34.3273405,36.6720753 34.6808005,36.915648 34.9873036,37.1337091 C35.0938917,37.2095409 35.1867917,37.2766091 35.2653481,37.3341134 C35.3114452,37.3678571 35.9182832,37.8233145 35.9182832,37.8233145 L36.4534078,37.367338 C36.6002193,37.2452391 36.6818,37.178795 36.775694,37.1035876 C37.0461966,36.8869199 37.3597191,36.644734 37.7120309,36.3834368 C38.7207267,35.635323 39.8346742,34.8867577 41.0193379,34.1889927 C43.6241612,32.6547558 46.186613,31.5903603 48.5474581,31.2026783 C49.1871549,31.0976316 49.805423,31.0440087 50.4002097,31.0440087 C51.5652748,31.0440087 52.8554451,31.2119525 54.2485743,31.5322299 C56.223151,31.9861807 58.340142,32.7291221 60.5108923,33.6809129 C61.8404274,34.263863 63.108201,34.8889878 64.2701047,35.5138057 C64.6761113,35.7321372 65.039479,35.9345929 65.3547565,36.115863 C65.4644289,36.1789196 65.5600569,36.2346997 65.6409612,36.2825397 C65.6884952,36.3106473 66.3271255,36.6976906 66.3271255,36.6976906 L66.8144355,36.2055588 L71.2161878,31.7602531 L71.8297315,31.1406387 L71.2123068,30.5248772 C71.1144302,30.4240131 71.0592532,30.3655923 70.9965613,30.2977464 C70.8147623,30.1010014 70.611049,29.8698966 70.3909094,29.6067376 C69.7590649,28.8514189 69.1262974,27.9947098 68.5363157,27.0556693 C66.8670266,24.3987566 65.8712307,21.6301282 65.8712307,18.906595 C65.8712307,16.1834081 66.8667795,13.4202064 68.5356859,10.7718484 C69.1255193,9.83585236 69.7581269,8.98237144 70.3898035,8.23026087 C70.6098758,7.96823005 70.8135214,7.73817169 70.9952522,7.54236567 C71.0579134,7.47485133 71.1130598,7.41672551 71.1600051,7.36827008 C71.1867332,7.34068221 71.8312012,6.70068935 71.8312012,6.70068935 L71.2161878,6.07959063 L66.8144355,1.63428491 L66.3708509,1.18631121 L65.8041938,1.46344775 C65.6254641,1.5491355 65.5280133,1.59504538 65.4163543,1.6469229 C65.0955887,1.79595283 64.7264009,1.96235734 64.3144481,2.14178567 C63.1356477,2.65521865 61.8530461,3.16889517 60.5122937,3.64801174 C58.468252,4.37844799 56.4773549,4.96061513 54.6148932,5.33970834 C53.0726003,5.65363309 51.6577225,5.81940884 50.4002097,5.81940884 C49.6439337,5.81940884 48.8456378,5.74274978 48.0102812,5.59375651 C45.8132092,5.20188922 43.4403529,4.32968206 41.0221531,3.12053463 C39.8273391,2.52310416 38.699706,1.8823632 37.6752978,1.24205507 C37.3175446,1.0184408 36.9987081,0.811178153 36.7232244,0.625737948 C36.6275777,0.561353959 36.5444077,0.504462937 36.4742664,0.455748521 C36.4333309,0.427318022 35.9117519,0.0549805098 35.9117519,0.0549805098 L35.4114941,0.373719956 C35.2406764,0.480324401 35.1470427,0.537710834 35.0396482,0.602589682 C34.7308697,0.789127998 34.3749794,0.997479919 33.9773268,1.22217592 C32.8393407,1.86520191 31.597747,2.50853679 30.2958751,3.10841403 C28.174024,4.08612166 26.1051496,4.84949213 24.1764234,5.3163179 C22.8126626,5.64640037 21.5506685,5.81940884 20.4125205,5.81940884 C19.5465957,5.81940884 18.6246084,5.74086653 17.6540618,5.58910246 C15.5090614,5.25368942 13.2019514,4.57611508 10.8484575,3.65697096 C9.62668725,3.17981529 8.47122987,2.66826025 7.41947065,2.15707905 C7.05218587,1.9785695 6.72453051,1.81309702 6.44112788,1.66501234 C6.34266863,1.61356503 6.25698603,1.5680872 6.18465618,1.52912267 C6.14233838,1.50632581 5.52120383,1.16260192 5.52120383,1.16260192 L5.05339768,1.63282482 L0.630938995,6.07813054 Z M1.253618,6.69533115 C1.253618,6.69533115 6.83541911,12.2519633 6.83541911,18.906595 C6.83541911,25.5612267 1.253618,31.1445126 1.253618,31.1445126 L5.67607668,35.5898183 C5.67607668,35.5898183 13.6404256,30.1680864 20.4125199,30.1680864 C27.1846141,30.1680864 35.8836532,36.7011447 35.8836532,36.7011447 C35.8836532,36.7011447 43.550715,30.1680864 50.4002097,30.1680864 C57.2497044,30.1680864 66.1903073,35.5898183 66.1903073,35.5898183 L70.5920596,31.1445126 C70.5920596,31.1445126 64.9936933,25.5612267 64.9936933,18.906595 C64.9936933,12.2519633 70.5920596,6.69533115 70.5920596,6.69533115 L66.1903073,2.25002543 C66.1903073,2.25002543 57.101054,6.69533115 50.4002097,6.69533115 C43.6993654,6.69533115 35.8836546,1.11204521 35.8836546,1.11204521 C35.8836546,1.11204521 27.1207523,6.69533115 20.4125205,6.69533115 C13.7042887,6.69533115 5.67607668,2.25002543 5.67607668,2.25002543 L1.253618,6.69533115 Z" id="outside" fill="#9D1626"></path>
                    <path d="M1.25,31.1220203 L5.67163001,35.5639968 C5.67163001,35.5639968 13.6344866,30.1463255 20.4053119,30.1463255 C27.1761371,30.1463255 35.8735463,36.674491 35.8735463,36.674491 C35.8735463,36.674491 43.5391714,30.1463255 50.3873827,30.1463255 C57.2355939,30.1463255 66.1745215,35.5639968 66.1745215,35.5639968 L70.575449,31.1220203 C70.575449,31.1220203 64.9781318,25.5429159 64.9781318,18.8932681 C64.9781318,12.2436203 70.575449,6.69114965 70.575449,6.69114965 L66.1745215,2.24917316 C66.1745215,2.24917316 57.0869714,6.69114965 50.3873827,6.69114965 C43.6877939,6.69114965 35.8735476,1.11204521 35.8735476,1.11204521 C35.8735476,1.11204521 27.1122874,6.69114965 20.4053125,6.69114965 C13.6983377,6.69114965 5.67163001,2.24917316 5.67163001,2.24917316 L1.25,6.69114965 C1.25,6.69114965 6.8307552,12.2436203 6.8307552,18.8932681 C6.8307552,25.5429159 1.25,31.1220203 1.25,31.1220203 Z" id="Path-2" stroke="#FFFFFF" fill="#9D1626"></path>
                    <g id="tekst" transform="translate(9.301896, 13.401611)" fill="#FFFFFF">
                        <path d="M3.08716266,6.68174862 L1.70265653,8.73085889 L0.906963355,8.14312959 L2.41878039,6.20521135 L-0.000126868398,5.49040545 L0.318150403,4.53733091 L2.67340221,5.41098257 L2.59383289,2.88533504 L3.5964063,2.88533504 L3.51683698,5.41098257 L5.85617492,4.53733091 L6.17445219,5.49040545 L3.75554493,6.20521135 L5.26736197,8.14312959 L4.48758266,8.73085889 L3.08716266,6.68174862 Z" id="ster-links"></path>
                        <path d="M50.1810076,6.79288127 L48.7965015,8.84199153 L48.0008083,8.25426223 L49.5126253,6.316344 L47.0937181,5.60153809 L47.4119953,4.64846355 L49.7672472,5.52211521 L49.6876778,2.99646768 L50.6902512,2.99646768 L50.6106819,5.52211521 L52.9500199,4.64846355 L53.2682971,5.60153809 L50.8493899,6.316344 L52.3612069,8.25426223 L51.5814276,8.84199153 L50.1810076,6.79288127 Z" id="ster-rechts"></path>
                        <path d="M13.4479839,-0.0353483511 L13.4957255,-0.0353483511 L17.171828,7.38274849 L17.2195696,7.38274849 L18.9700946,0.202920284 L20.3068591,0.202920284 L17.6492439,11.0362009 L17.6015023,11.0362009 L13.4957255,2.72856782 L13.4479839,2.72856782 L9.34220712,11.0362009 L9.29446553,11.0362009 L6.63685031,0.202920284 L7.97361485,0.202920284 L9.72413985,7.38274849 L9.77188144,7.38274849 L13.4479839,-0.0353483511 Z M26.1631609,5.25421535 C26.3859561,5.34952328 26.590182,5.48454082 26.7758447,5.65927203 C26.9615073,5.83400324 27.1206444,6.03785325 27.2532606,6.27082819 C27.3858768,6.50380314 27.4919681,6.7500116 27.5715378,7.00946096 C27.6511075,7.26891033 27.6908918,7.53629801 27.6908918,7.81163204 C27.6908918,8.22463307 27.6113233,8.61115388 27.4521839,8.97120606 C27.2930444,9.33125824 27.0782094,9.64629918 26.8076724,9.91633831 C26.5371353,10.1863775 26.216209,10.4008171 25.8448836,10.5596636 C25.4735583,10.7185102 25.0810203,10.7979323 24.6672577,10.7979323 L21.5481405,10.7979323 L21.5481405,0.202920284 L24.1580141,0.202920284 C24.5717766,0.202920284 24.9563578,0.279694965 25.3117692,0.433246631 C25.6671806,0.586798298 25.9801501,0.795943119 26.2506872,1.06068737 C26.5212242,1.32543162 26.7334069,1.63517775 26.8872417,1.98993505 C27.0410765,2.34469235 27.1179927,2.72327095 27.1179927,3.12568221 C27.1179927,3.53868324 27.0278151,3.94108847 26.847457,4.33290996 C26.667099,4.72473145 26.4390026,5.01594576 26.1631609,5.20656162 L26.1631609,5.25421535 Z M24.0784448,4.82533181 C24.5983003,4.82533181 25.0147089,4.66384024 25.3276831,4.34085225 C25.6406573,4.01786426 25.797142,3.61810644 25.797142,3.14156679 C25.797142,2.90859184 25.7520532,2.68885741 25.6618742,2.48235689 C25.5716952,2.27585638 25.4496901,2.09583299 25.2958553,1.94228132 C25.1420206,1.78872966 24.9616652,1.66694913 24.754784,1.57693608 C24.5479027,1.48692304 24.3224586,1.44191719 24.0784448,1.44191719 L22.8371634,1.44191719 L22.8371634,4.82533181 L24.0784448,4.82533181 Z M22.8371634,6.03255956 L22.8371634,9.55893536 L24.5876884,9.55893536 C24.8317022,9.55893536 25.0624509,9.51128211 25.2799415,9.41597418 C25.497432,9.32066625 25.6857442,9.19359091 25.8448836,9.03474436 C26.0040231,8.87589781 26.1313327,8.69057962 26.2268164,8.47878421 C26.3223,8.26698881 26.3700411,8.03931217 26.3700411,7.79574746 C26.3700411,7.55218275 26.3223,7.32450611 26.2268164,7.11271071 C26.1313327,6.9009153 26.0040231,6.71559711 25.8448836,6.55675056 C25.6857442,6.39790401 25.497432,6.27082867 25.2799415,6.17552074 C25.0624509,6.08021281 24.8317022,6.03255956 24.5876884,6.03255956 L22.8371634,6.03255956 Z M33.388055,11.0362009 L33.3403134,11.0362009 L28.3592741,0.202920284 L29.7596941,0.202920284 L33.3403134,8.00224694 L33.388055,8.00224694 L36.9845881,0.202920284 L38.3850081,0.202920284 L33.388055,11.0362009 Z M44.2413099,5.25421535 C44.4641051,5.34952328 44.668331,5.48454082 44.8539937,5.65927203 C45.0396563,5.83400324 45.1987934,6.03785325 45.3314096,6.27082819 C45.4640258,6.50380314 45.5701171,6.7500116 45.6496868,7.00946096 C45.7292566,7.26891033 45.7690408,7.53629801 45.7690408,7.81163204 C45.7690408,8.22463307 45.6894723,8.61115388 45.5303329,8.97120606 C45.3711934,9.33125824 45.1563584,9.64629918 44.8858214,9.91633831 C44.6152844,10.1863775 44.294358,10.4008171 43.9230326,10.5596636 C43.5517073,10.7185102 43.1591693,10.7979323 42.7454067,10.7979323 L39.6262895,10.7979323 L39.6262895,0.202920284 L42.2361631,0.202920284 C42.6499256,0.202920284 43.0345068,0.279694965 43.3899182,0.433246631 C43.7453296,0.586798298 44.0582991,0.795943119 44.3288362,1.06068737 C44.5993732,1.32543162 44.8115559,1.63517775 44.9653907,1.98993505 C45.1192255,2.34469235 45.1961417,2.72327095 45.1961417,3.12568221 C45.1961417,3.53868324 45.1059641,3.94108847 44.9256061,4.33290996 C44.745248,4.72473145 44.5171516,5.01594576 44.2413099,5.20656162 L44.2413099,5.25421535 Z M42.1565938,4.82533181 C42.6764493,4.82533181 43.0928579,4.66384024 43.4058321,4.34085225 C43.7188063,4.01786426 43.8752911,3.61810644 43.8752911,3.14156679 C43.8752911,2.90859184 43.8302022,2.68885741 43.7400232,2.48235689 C43.6498442,2.27585638 43.5278391,2.09583299 43.3740044,1.94228132 C43.2201696,1.78872966 43.0398143,1.66694913 42.832933,1.57693608 C42.6260517,1.48692304 42.4006076,1.44191719 42.1565938,1.44191719 L40.9153124,1.44191719 L40.9153124,4.82533181 L42.1565938,4.82533181 Z M40.9153124,6.03255956 L40.9153124,9.55893536 L42.6658374,9.55893536 C42.9098512,9.55893536 43.1405999,9.51128211 43.3580905,9.41597418 C43.575581,9.32066625 43.7638932,9.19359091 43.9230326,9.03474436 C44.0821721,8.87589781 44.2094817,8.69057962 44.3049654,8.47878421 C44.400449,8.26698881 44.4481901,8.03931217 44.4481901,7.79574746 C44.4481901,7.55218275 44.400449,7.32450611 44.3049654,7.11271071 C44.2094817,6.9009153 44.0821721,6.71559711 43.9230326,6.55675056 C43.7638932,6.39790401 43.575581,6.27082867 43.3580905,6.17552074 C43.1405999,6.08021281 42.9098512,6.03255956 42.6658374,6.03255956 L40.9153124,6.03255956 Z" id="WBVB"></path>
                    </g>
                </g>
            </g>
            <path d="M92.3732928,8.49980854 L92.4670308,8.49980854 L99.6848594,23.0916958 L99.7785975,23.0916958 L103.215659,8.96849871 L105.840324,8.96849871 L100.62224,30.2782784 L100.528502,30.2782784 L92.4670308,13.9366145 L92.3732928,13.9366145 L84.3118219,30.2782784 L84.2180839,30.2782784 L79,8.96849871 L81.6246649,8.96849871 L85.0617262,23.0916958 L85.1554642,23.0916958 L92.3732928,8.49980854 Z M113.245628,18.061088 C114.266336,18.061088 115.083932,17.7434234 115.69844,17.1080846 C116.312948,16.4727459 116.620198,15.6863958 116.620198,14.7490108 C116.620198,14.2907337 116.531668,13.8585015 116.354606,13.4523013 C116.177545,13.0461011 115.937994,12.6919832 115.635948,12.3899369 C115.333902,12.0878907 114.979784,11.8483403 114.573584,11.6712787 C114.167384,11.4942171 113.724736,11.4056876 113.245628,11.4056876 L110.808439,11.4056876 L110.808439,18.061088 L113.245628,18.061088 Z M117.338856,18.9047303 C117.776302,19.0922073 118.177289,19.3577957 118.541827,19.7015036 C118.906366,20.0452114 119.218823,20.4461979 119.479208,20.904475 C119.739592,21.3627521 119.947897,21.8470605 120.104128,22.3574145 C120.260359,22.8677686 120.338473,23.3937379 120.338473,23.9353381 C120.338473,24.7477384 120.182244,25.5080504 119.869783,26.2162969 C119.557321,26.9245434 119.135504,27.5442497 118.604319,28.0754346 C118.073134,28.6066194 117.443013,29.0284364 116.713936,29.340898 C115.984858,29.6533597 115.214131,29.8095882 114.401731,29.8095882 L108.277513,29.8095882 L108.277513,8.96849871 L113.401858,8.96849871 C114.214259,8.96849871 114.969363,9.11951959 115.667194,9.42156587 C116.365025,9.72361216 116.979524,10.1350139 117.510709,10.6557833 C118.041894,11.1765528 118.458503,11.7858439 118.760549,12.483675 C119.062596,13.181506 119.213616,13.9261952 119.213616,14.7177648 C119.213616,15.5301651 119.036557,16.3217228 118.682434,17.0924616 C118.328311,17.8632004 117.880456,18.4360382 117.338856,18.8109922 L117.338856,18.9047303 Z M110.808439,20.4357848 L110.808439,27.3723993 L114.245501,27.3723993 C114.724609,27.3723993 115.177671,27.2786622 115.604702,27.0911852 C116.031733,26.9037082 116.401474,26.6537426 116.713936,26.341281 C117.026397,26.0288193 117.276363,25.6642861 117.46384,25.2476706 C117.651317,24.831055 117.745054,24.3832 117.745054,23.9040921 C117.745054,23.4249842 117.651317,22.9771292 117.46384,22.5605136 C117.276363,22.143898 117.026397,21.7793649 116.713936,21.4669032 C116.401474,21.1544415 116.031733,20.9044759 115.604702,20.7169989 C115.177671,20.5295219 114.724609,20.4357848 114.245501,20.4357848 L110.808439,20.4357848 Z M131.524545,30.2782784 L131.430807,30.2782784 L121.650805,8.96849871 L124.400454,8.96849871 L131.430807,24.3102902 L131.524545,24.3102902 L138.586143,8.96849871 L141.335792,8.96849871 L131.524545,30.2782784 Z M148.741097,18.061088 C149.761805,18.061088 150.579401,17.7434234 151.193909,17.1080846 C151.808417,16.4727459 152.115666,15.6863958 152.115666,14.7490108 C152.115666,14.2907337 152.027137,13.8585015 151.850075,13.4523013 C151.673014,13.0461011 151.433463,12.6919832 151.131417,12.3899369 C150.829371,12.0878907 150.475253,11.8483403 150.069053,11.6712787 C149.662852,11.4942171 149.220205,11.4056876 148.741097,11.4056876 L146.303908,11.4056876 L146.303908,18.061088 L148.741097,18.061088 Z M152.834325,18.9047303 C153.271771,19.0922073 153.672757,19.3577957 154.037296,19.7015036 C154.401835,20.0452114 154.714292,20.4461979 154.974676,20.904475 C155.235061,21.3627521 155.443366,21.8470605 155.599597,22.3574145 C155.755827,22.8677686 155.833942,23.3937379 155.833942,23.9353381 C155.833942,24.7477384 155.677713,25.5080504 155.365251,26.2162969 C155.05279,26.9245434 154.630973,27.5442497 154.099788,28.0754346 C153.568603,28.6066194 152.938482,29.0284364 152.209404,29.340898 C151.480327,29.6533597 150.7096,29.8095882 149.897199,29.8095882 L143.772981,29.8095882 L143.772981,8.96849871 L148.897327,8.96849871 C149.709727,8.96849871 150.464832,9.11951959 151.162663,9.42156587 C151.860494,9.72361216 152.474993,10.1350139 153.006178,10.6557833 C153.537362,11.1765528 153.953972,11.7858439 154.256018,12.483675 C154.558064,13.181506 154.709085,13.9261952 154.709085,14.7177648 C154.709085,15.5301651 154.532026,16.3217228 154.177903,17.0924616 C153.82378,17.8632004 153.375925,18.4360382 152.834325,18.8109922 L152.834325,18.9047303 Z M146.303908,20.4357848 L146.303908,27.3723993 L149.740969,27.3723993 C150.220077,27.3723993 150.67314,27.2786622 151.100171,27.0911852 C151.527202,26.9037082 151.896943,26.6537426 152.209404,26.341281 C152.521866,26.0288193 152.771832,25.6642861 152.959309,25.2476706 C153.146786,24.831055 153.240523,24.3832 153.240523,23.9040921 C153.240523,23.4249842 153.146786,22.9771292 152.959309,22.5605136 C152.771832,22.143898 152.521866,21.7793649 152.209404,21.4669032 C151.896943,21.1544415 151.527202,20.9044759 151.100171,20.7169989 C150.67314,20.5295219 150.220077,20.4357848 149.740969,20.4357848 L146.303908,20.4357848 Z M172.831772,8.96849871 C173.935803,8.96849871 174.977326,9.17680337 175.956373,9.59341893 C176.935419,10.0100345 177.789469,10.5776647 178.518546,11.2963265 C179.247623,12.0149884 179.820461,12.8534146 180.237076,13.8116304 C180.653692,14.7698463 180.861997,15.8009543 180.861997,16.9049856 C180.861997,18.3423093 180.518294,19.649421 179.830878,20.82636 C179.143463,22.0032989 178.226922,22.9354623 177.081229,23.622878 L181.924361,28.4660097 L180.080846,30.3095244 L174.612794,24.8102264 L171.300717,24.8102264 L171.300717,29.8095882 L168.707298,29.8095882 L168.707298,8.96849871 L172.831772,8.96849871 Z M172.863018,22.5292676 C173.612926,22.5292676 174.315954,22.3834543 174.972124,22.0918234 C175.628293,21.8001925 176.201131,21.4044137 176.690654,20.904475 C177.180177,20.4045363 177.565541,19.8160757 177.846757,19.1390754 C178.127972,18.4620751 178.268578,17.7382164 178.268578,16.9674776 C178.268578,16.175908 178.127972,15.4416341 177.846757,14.7646338 C177.565541,14.0876335 177.180177,13.4939652 176.690654,12.9836112 C176.201131,12.4732571 175.628293,12.0722706 174.972124,11.7806397 C174.315954,11.4890088 173.612926,11.3431956 172.863018,11.3431956 C172.592218,11.3431956 172.326629,11.364026 172.066244,11.4056876 C171.80586,11.4473491 171.550687,11.4994253 171.300717,11.5619176 L171.300717,22.2792995 C171.842317,22.4459457 172.363079,22.5292676 172.863018,22.5292676 L172.863018,22.5292676 Z M183.73663,22.8729737 C183.73663,21.8522656 183.934519,20.8888565 184.330304,19.9827177 C184.726089,19.0765788 185.262473,18.2902287 185.939473,17.6236438 C186.616474,16.9570589 187.408031,16.425882 188.31417,16.0300972 C189.220309,15.6343125 190.194133,15.436423 191.235672,15.436423 C192.277211,15.436423 193.256243,15.6343125 194.172797,16.0300972 C195.089352,16.425882 195.886117,16.9570589 196.563117,17.6236438 C197.240118,18.2902287 197.776502,19.0765788 198.172287,19.9827177 C198.568072,20.8888565 198.765961,21.8522656 198.765961,22.8729737 C198.765961,23.8936818 198.568072,24.8518833 198.172287,25.7476067 C197.776502,26.6433302 197.240118,27.4296803 196.563117,28.1066806 C195.886117,28.7836809 195.089352,29.3148578 194.172797,29.7002272 C193.256243,30.0855966 192.277211,30.2782784 191.235672,30.2782784 C190.194133,30.2782784 189.220309,30.0855966 188.31417,29.7002272 C187.408031,29.3148578 186.616474,28.7836809 185.939473,28.1066806 C185.262473,27.4296803 184.726089,26.6433302 184.330304,25.7476067 C183.934519,24.8518833 183.73663,23.8936818 183.73663,22.8729737 L183.73663,22.8729737 Z M186.330049,22.8729737 C186.330049,23.5603894 186.460239,24.2061338 186.720624,24.8102264 C186.981008,25.414319 187.329919,25.9454959 187.767365,26.403773 C188.204811,26.8620501 188.720365,27.2213756 189.314043,27.4817604 C189.90772,27.7421451 190.548257,27.8723355 191.235672,27.8723355 C191.923088,27.8723355 192.563625,27.7421451 193.157302,27.4817604 C193.750979,27.2213756 194.271741,26.8620501 194.719603,26.403773 C195.167464,25.9454959 195.521582,25.414319 195.781967,24.8102264 C196.042352,24.2061338 196.172542,23.5603894 196.172542,22.8729737 C196.172542,22.185558 196.042352,21.534606 195.781967,20.920098 C195.521582,20.30559 195.167464,19.7692055 194.719603,19.3109284 C194.271741,18.8526513 193.750979,18.4933258 193.157302,18.232941 C192.563625,17.9725563 191.923088,17.8423659 191.235672,17.8423659 C190.548257,17.8423659 189.90772,17.9725563 189.314043,18.232941 C188.720365,18.4933258 188.204811,18.8526513 187.767365,19.3109284 C187.329919,19.7692055 186.981008,20.30559 186.720624,20.920098 C186.460239,21.534606 186.330049,22.185558 186.330049,22.8729737 L186.330049,22.8729737 Z M206.202512,18.248564 L206.202512,29.8095882 L203.702831,29.8095882 L203.702831,18.248564 L200.10954,18.248564 L200.10954,15.9051132 L203.702831,15.9051132 L203.702831,8.49980854 L206.202512,8.49980854 L206.202512,15.9051132 L209.795803,15.9051132 L209.795803,18.248564 L206.202512,18.248564 Z M216.388711,18.248564 L216.388711,29.8095882 L213.88903,29.8095882 L213.88903,18.248564 L210.295739,18.248564 L210.295739,15.9051132 L213.88903,15.9051132 L213.88903,8.49980854 L216.388711,8.49980854 L216.388711,15.9051132 L219.982003,15.9051132 L219.982003,18.248564 L216.388711,18.248564 Z M234.011462,28.1535496 C233.303215,28.8201345 232.516865,29.3408962 231.652388,29.7158502 C230.787911,30.0908042 229.824502,30.2782784 228.762132,30.2782784 C227.741424,30.2782784 226.778015,30.0855966 225.871876,29.7002272 C224.965737,29.3148578 224.174179,28.7836809 223.497179,28.1066806 C222.820179,27.4296803 222.289002,26.6381226 221.903632,25.7319837 C221.518263,24.8258449 221.325581,23.8624358 221.325581,22.8417277 C221.325581,21.8210196 221.513055,20.8628181 221.888009,19.9670947 C222.262963,19.0713712 222.778517,18.2850211 223.434687,17.6080208 C224.090856,16.9310205 224.861584,16.3998436 225.746892,16.0144742 C226.6322,15.6291048 227.574778,15.436423 228.574656,15.436423 C229.553702,15.436423 230.480658,15.6238972 231.355551,15.9988512 C232.230443,16.3738052 232.995963,16.8945669 233.652133,17.5611518 C234.308302,18.2277367 234.834271,19.0192944 235.230056,19.9358487 C235.625841,20.8524029 235.82373,21.8522653 235.82373,22.9354657 L235.82373,23.2166798 C235.82373,23.2791722 235.813315,23.3208331 235.792484,23.3416639 L223.794016,23.3416639 C223.856508,23.987418 224.023152,24.5967091 224.293952,25.1695555 C224.564752,25.7424019 224.91887,26.2319179 225.356317,26.6381181 C225.793763,27.0443182 226.298902,27.3671905 226.871748,27.6067444 C227.444595,27.8462984 228.053886,27.9660735 228.69964,27.9660735 C229.387055,27.9660735 230.048423,27.8254679 230.683762,27.5442524 C231.3191,27.2630369 231.855485,26.8828809 232.292931,26.403773 L234.011462,28.1535496 Z M233.042835,21.1856891 L233.074081,21.1231971 C232.928266,20.6440892 232.709546,20.1962342 232.417915,19.7796186 C232.126284,19.363003 231.782582,19.0036775 231.386797,18.7016312 C230.991012,18.3995849 230.553572,18.1652422 230.074464,17.998596 C229.595356,17.8319497 229.095425,17.7486279 228.574656,17.7486279 C227.512286,17.7486279 226.5645,18.0662925 225.731269,18.7016312 C224.898038,19.3369699 224.335615,20.1441505 224.043984,21.1231971 L224.07523,21.1856891 L233.042835,21.1856891 Z M248.197151,18.4047941 C247.90552,18.2381479 247.598271,18.1027498 247.275393,17.998596 C246.952516,17.8944421 246.530699,17.8423659 246.00993,17.8423659 C245.405837,17.8423659 244.838207,17.9621411 244.307022,18.201695 C243.775838,18.441249 243.307152,18.7641212 242.900952,19.1703214 C242.494752,19.5765216 242.177087,20.0556223 241.947949,20.6076379 C241.71881,21.1596535 241.604242,21.7481142 241.604242,22.3730375 L241.604242,29.8095882 L239.104562,29.8095882 L239.104562,15.9051132 L241.604242,15.9051132 L241.604242,17.6236438 L241.666734,17.6548898 C242.104181,16.9883049 242.749925,16.4519204 243.603987,16.0457203 C244.458049,15.6395201 245.385005,15.436423 246.384882,15.436423 C247.093129,15.436423 247.686797,15.4989144 248.165905,15.6238991 C248.645013,15.7488838 249.103283,15.9155275 249.540729,16.1238353 L248.197151,18.4047941 Z M264.320093,29.8095882 L261.75792,29.8095882 L261.75792,28.3410257 L261.695428,28.2785336 C261.153827,28.9242878 260.508083,29.4190113 259.758175,29.7627192 C259.008267,30.106427 258.195879,30.2782784 257.320986,30.2782784 C256.279447,30.2782784 255.300415,30.0855966 254.383861,29.7002272 C253.467307,29.3148578 252.670541,28.7836809 251.993541,28.1066806 C251.316541,27.4296803 250.780156,26.6433302 250.384372,25.7476067 C249.988587,24.8518833 249.790697,23.8936818 249.790697,22.8729737 C249.790697,21.8522656 249.988587,20.8888565 250.384372,19.9827177 C250.780156,19.0765788 251.316541,18.2902287 251.993541,17.6236438 C252.670541,16.9570589 253.467307,16.425882 254.383861,16.0300972 C255.300415,15.6343125 256.279447,15.436423 257.320986,15.436423 C258.195879,15.436423 259.003059,15.613482 259.742552,15.9676052 C260.482045,16.3217285 261.132997,16.8216596 261.695428,17.4674138 L261.75792,17.4049217 L261.75792,7 L264.320093,7 L264.320093,29.8095882 Z M252.35287,22.8729737 C252.35287,23.5603894 252.477853,24.2061338 252.727822,24.8102264 C252.977792,25.414319 253.321494,25.9454959 253.758941,26.403773 C254.196387,26.8620501 254.706734,27.2213756 255.289995,27.4817604 C255.873257,27.7421451 256.498171,27.8723355 257.164756,27.8723355 C257.852172,27.8723355 258.487501,27.7369375 259.070763,27.4661374 C259.654025,27.1953372 260.164371,26.8308041 260.601817,26.372527 C261.039264,25.9142498 261.377759,25.383073 261.617313,24.7789804 C261.856867,24.1748878 261.976642,23.5395586 261.976642,22.8729737 C261.976642,22.2063888 261.856867,21.5710596 261.617313,20.966967 C261.377759,20.3628744 261.039264,19.82649 260.601817,19.3577974 C260.164371,18.8891049 259.654025,18.5193642 259.070763,18.248564 C258.487501,17.9777639 257.852172,17.8423659 257.164756,17.8423659 C256.498171,17.8423659 255.873257,17.9725563 255.289995,18.232941 C254.706734,18.4933258 254.196387,18.8526513 253.758941,19.3109284 C253.321494,19.7692055 252.977792,20.30559 252.727822,20.920098 C252.477853,21.534606 252.35287,22.185558 252.35287,22.8729737 L252.35287,22.8729737 Z M282.130319,29.8095882 L279.568146,29.8095882 L279.568146,28.3410257 L279.505654,28.2785336 C278.984885,28.9242878 278.344348,29.4190113 277.584024,29.7627192 C276.823701,30.106427 276.006105,30.2782784 275.131213,30.2782784 C274.089674,30.2782784 273.110642,30.0855966 272.194087,29.7002272 C271.277533,29.3148578 270.480768,28.7836809 269.803768,28.1066806 C269.126767,27.4296803 268.590383,26.6433302 268.194598,25.7476067 C267.798813,24.8518833 267.600924,23.8936818 267.600924,22.8729737 C267.600924,21.8522656 267.798813,20.8888565 268.194598,19.9827177 C268.590383,19.0765788 269.126767,18.2902287 269.803768,17.6236438 C270.480768,16.9570589 271.277533,16.425882 272.194087,16.0300972 C273.110642,15.6343125 274.089674,15.436423 275.131213,15.436423 C276.006105,15.436423 276.818493,15.6186896 277.568401,15.9832282 C278.318309,16.3477668 278.964054,16.8424904 279.505654,17.4674138 L279.568146,17.4049217 L279.568146,15.9051132 L282.130319,15.9051132 L282.130319,29.8095882 Z M270.163097,22.8729737 C270.163097,23.5603894 270.28808,24.2061338 270.538049,24.8102264 C270.788018,25.414319 271.131721,25.9454959 271.569167,26.403773 C272.006614,26.8620501 272.51696,27.2213756 273.100222,27.4817604 C273.683484,27.7421451 274.308398,27.8723355 274.974982,27.8723355 C275.662398,27.8723355 276.297727,27.7369375 276.880989,27.4661374 C277.464251,27.1953372 277.974597,26.8308041 278.412044,26.372527 C278.84949,25.9142498 279.187985,25.383073 279.427539,24.7789804 C279.667093,24.1748878 279.786868,23.5395586 279.786868,22.8729737 C279.786868,22.2063888 279.667093,21.5710596 279.427539,20.966967 C279.187985,20.3628744 278.84949,19.82649 278.412044,19.3577974 C277.974597,18.8891049 277.464251,18.5193642 276.880989,18.248564 C276.297727,17.9777639 275.662398,17.8423659 274.974982,17.8423659 C274.308398,17.8423659 273.683484,17.9725563 273.100222,18.232941 C272.51696,18.4933258 272.006614,18.8526513 271.569167,19.3109284 C271.131721,19.7692055 270.788018,20.30559 270.538049,20.920098 C270.28808,21.534606 270.163097,22.185558 270.163097,22.8729737 L270.163097,22.8729737 Z M297.659587,18.154826 C298.201187,17.3840872 298.867762,16.7383428 299.659331,16.2175733 C300.450901,15.6968039 301.28412,15.436423 302.159012,15.436423 C302.346489,15.436423 302.627701,15.4520459 303.002655,15.483292 C303.377609,15.5145382 303.783803,15.6030677 304.221249,15.7488831 C304.658695,15.8946986 305.10655,16.1186261 305.564827,16.4206724 C306.023105,16.7227187 306.434506,17.139328 306.799045,17.6705128 C307.163584,18.2016977 307.465625,18.8734802 307.705179,19.6858806 C307.944733,20.4982809 308.064508,21.4981433 308.064508,22.6854976 L308.064508,29.8095882 L305.502335,29.8095882 L305.502335,22.2168075 C305.502335,21.1544378 305.372145,20.3264268 305.11176,19.7327496 C304.851376,19.1390724 304.533711,18.7016326 304.158757,18.4204171 C303.783803,18.1392016 303.393232,17.9725579 302.987032,17.9204809 C302.580831,17.868404 302.242336,17.8423659 301.971536,17.8423659 C301.492428,17.8423659 301.044573,17.9569335 300.627958,18.186072 C300.211342,18.4152106 299.846809,18.7276676 299.534347,19.1234524 C299.221886,19.5192371 298.97192,19.982715 298.784443,20.5138999 C298.596966,21.0450847 298.503229,21.6127149 298.503229,22.2168075 L298.503229,29.8095882 L296.034794,29.8095882 L296.034794,22.2168075 C296.034794,21.7585303 295.998341,21.274222 295.925433,20.7638679 C295.852525,20.2535139 295.696297,19.7796208 295.456743,19.3421744 C295.217189,18.9047281 294.863071,18.5454026 294.394378,18.264187 C293.925686,17.9829715 293.295564,17.8423659 292.503995,17.8423659 C292.004056,17.8423659 291.545786,17.9569335 291.12917,18.186072 C290.712555,18.4152106 290.353229,18.7276676 290.051183,19.1234524 C289.749137,19.5192371 289.509586,19.982715 289.332525,20.5138999 C289.155463,21.0450847 289.066934,21.6127149 289.066934,22.2168075 L289.066934,29.8095882 L286.504761,29.8095882 L286.504761,15.9051132 L289.066934,15.9051132 L289.066934,17.5299058 L289.129426,17.5611518 C289.337733,17.2486901 289.592907,16.9622712 289.894953,16.7018865 C290.196999,16.4415018 290.525079,16.2175743 290.879202,16.0300972 C291.233325,15.8426202 291.603066,15.696807 291.988436,15.5926531 C292.373805,15.4884992 292.733131,15.436423 293.066423,15.436423 C293.462208,15.436423 293.873609,15.4937068 294.30064,15.6082761 C294.727671,15.7228454 295.144281,15.8946967 295.550481,16.1238353 C295.956681,16.3529738 296.336837,16.6393927 296.69096,16.9831006 C297.045083,17.3268084 297.33671,17.7173797 297.565849,18.154826 L297.659587,18.154826 Z" fill="#000000" sketch:type="MSShapeGroup"></path>
        </g>
    </g>
</svg>